<mxfile host="app.diagrams.net" modified="2024-03-07T06:21:25.489Z" agent="Mozilla/5.0 (Windows NT 10.0; Win64; x64) AppleWebKit/537.36 (KHTML, like Gecko) Chrome/122.0.0.0 Safari/537.36" etag="dQ-Vmzwz_cEsy3NQuEIZ" version="23.1.1" type="github">
  <diagram name="第 1 页" id="Wzsl5lOYnYft49LZTn3q">
    <mxGraphModel dx="1235" dy="751" grid="1" gridSize="10" guides="1" tooltips="1" connect="1" arrows="1" fold="1" page="1" pageScale="1" pageWidth="1169" pageHeight="827" math="0" shadow="0">
      <root>
        <mxCell id="0" />
        <mxCell id="1" parent="0" />
        <mxCell id="HWMUPrIcRq6GqUg2BPiB-34" value="" style="endArrow=none;html=1;rounded=0;edgeStyle=orthogonalEdgeStyle;" edge="1" parent="1">
          <mxGeometry width="50" height="50" relative="1" as="geometry">
            <mxPoint x="80" y="370" as="sourcePoint" />
            <mxPoint x="740" y="370" as="targetPoint" />
          </mxGeometry>
        </mxCell>
        <mxCell id="HWMUPrIcRq6GqUg2BPiB-2" value="" style="shape=image;verticalLabelPosition=bottom;labelBackgroundColor=default;verticalAlign=top;aspect=fixed;imageAspect=0;image=data:image/png,iVBORw0KGgoAAAANSUhEUgAAAE0AAABWCAYAAACKGBvoAAAAAXNSR0IArs4c6QAAAARnQU1BAACxjwv8YQUAAAAJcEhZcwAADsMAAA7DAcdvqGQAABnnSURBVHhe7Zx5jF1Xfce/9973ZvGMPbbHE2+xnRg7iY0d4iQkpA2iCkVBpQUiJVBBgaoVFLVItAqlVenyRyX6T9UidaEhpVC6QItopLJV0CYQSEIa4rh2HK/xHtvxPl7G8+a9e28/33Pfnbw443njmSRDhH/Ombude87vfM9vPee+RDmkV5Hc29CItON56dywdNPVUle1+fA1Qq86aCW510YqJYkUR82brxGaNtBeyxQ3j5fpEugyaJOgy6BNgi6DNgm6DNok6DJok6DLoE2CLoM2CZq+4JZuM3rOozzMHAfl4R/pgTOEcB0p8gNT3rwZZdyNuT998z19aVTWUJZFYJECgRGqKOOfEcviXAmIZkoCftRSI6cWACZRQ5WI+3EltDMdNG3TFQQnCJWlB4BIQHOAGWlIJ+uRjo7EGkxTNYwj85rHDY0YUMCdbqsybZKWIUkNuk5RN5RNMeeDI5G2nIq1/oh0uJZq0exMtw0kWt2dqjOpK00q1Ksqia2ezYamgaZPPVOraAYQqdKsHpaLHtjbqfueTrTzcK46z2d0SW9eFuk3rs90+wDAGSlUV4AWo6LTRdMm5xkS5pJk2KpGVZuOVvXlLbE2HEA9z0pnz0lHTkrfflr6/OZY24YjpVbPYAGnUcyg6XRBSuk9ZfxDjYqeOFLVlqOR6nUkKaFULFGphmq5vn9Q2nKC+sFhGLCfUtASPKc1LVNd9biuQ2mus41wA2BgK4QUNvqRDg9Lp88nhgyGGxRXmj6aNtAcbdmax9inLszTtbOkfmxYQCYA1yz8WdOTaxnPvcLrGK2QtumjaQMtB7AIbxAjcTOSBC/Z0C2L6+oCoKICR9R0/qxcdy1LtWYOFg2swns/reqZWzchzJaqAHTVrFQfWB3rlhWRkrDREqmvN9J710R63zW55nUWgDkAdt4wnfSqgubopiwJJY6xU9guhA2gOnTjvER3LiLUMGhw1tcj3XolgM727ovtm/2mAXuhHZdXm6ZN0px4ptiuekIoASY2U8aqD0kKJp//MHcCV5EcUD9VhbguwGY9nUaaPtAsIQE4gMizoKJGbsQ5poXHl6huiM1Q5Zh6FskA6WvaEYSBoiKcMr5QwsqFS8vzcBGihKJuKKhlblHiYngk0yDx2HFCixPknakliUeknhocznWCcrZe0XBWobrdgNs02G6p2V7z3ljF9TKKlwC4Ed6ZCk0tjWL2LQANVIwsKMxAldac4DhoTWA4slRQQi9RGhLzBtcG5DzJ+YFapG0nUu0ZzLTldFUPHYq0fx8DJVNIZkrLF+R6y3xpzewiLFlOmdeVEqYgnYDuPLRU1yhvACiNhvjO3DTCs5x81XluQtKfeOVkiinYlEALE8nrYUnH61wcnHhzEYy7YwTHYw3O6wDl/PLg2UjbT0chKX/6qLRjUNp9HpCNer1ZWjkKM0FTlUwzuyIt6aEA4C1X4CT6c11DSNI/I1IHGUTipSPqewnOq3RuJoZJOx3PnSU4QcLjJsiTpamBZmb8OsbHmaFlLA1Sxf0QUhTX5wHiWcB56FCuxw8n2uxVjDNE+TVetWCYwgwwGBcLgsflJkruyqNBBKD+bunKOZFumZ/r9gWpbgbEhYQo9rzGxKAlqEFwKlx78rxwGfFwiphNDTSz4pWK3IYMTsxixjHF0/mqkSU6cCbSQ4dJvHdLjz0X6QyJeM35JRiNch+At7RybTtXDsqceS5MBsvkey4A60yruyPXwtmZbl0svWtZpDdfkWpeD1kqIQpyFRxIxARmljirrYEr25okTVHSvPrqAXsEhYRZ4lLyyPNk4+uPJvrnXZH+c5d0/ATVLFWBYb/DIegwVKSYBZCt3JTnfqcE0nVMZf3mM2O9DNv3vmtzvX9Fg2DZIMFTVEFl60FNpU7YnPpa3BRtGoadt8MyIs3E+QjSlepIo0sP7on0N08D3AHMMV4xBGEmS46ZbmW8nHlzUhY/LzlrrV/eK49+1+cWVA5d2Lt3AdyHX9fQurkNdXVWQqxnO5bjAIKLmCJq7UFrPvX6vCl4Q6i4sjsHB69KYNfSRl27h2J9bU+if9wUa+cx6tqwm/yaX3KxvQvNXIR51ynrm0pgymIqXy3rlkTdjg7pZxchcatzvW1xQ/O7sWN4iJhclr9UL15obSIQYLY2dTFqDxqqZsFuwIyXZLxoGMjr+nRnhXTSXafS3jO5/mWH9IVncu0/biBbWHAvbsi3ShBKauW0vO97reclXcitr1uf+5x+qojUKuzcR9bmumdZgzDFzqnpBIIAWDtghPMCAqutn7c2NjY1Ebg4GZgGDQcnFyQq3EHL6qimbZqlraGTQ3U9sFv6p82RDlwImMmX7s3HcqBlaaXWe+M9b61THl08MZiAOgxvOih9ZmOk7x6KCYxjxoE3hwnLW8ZYgmmhFBmtT8xYe2oDGk15VgjAHIs7BvN1GmcheLWNcGR/ikDsG88l+uLWSPtOwUB4ONrEC6UcmMtUqWzf1Nqez5shi9OwZ/Hcn90QawMx4XADvpnMCCcVE13XGQsuIjhuX9vjT4TagGYdj0iUXYpGQ4QNhBFRtggpHIM9cjDS32LDthN/pWHqKDb45qEEzMXXL1e5WLu+ts00EpiWnFjw8f3SX20GQIDLRwhHQh171wBZUFundJbAiVDbWgE2enF6UkQIRD8OGlOu66m2n5T+YVui/8NLZkT2ZNwFw5ZQj8A92GV59n3u4ytVzJ9LWOK1qFGYvAaS//WdFf397kjPetOGKikaUsGsJPkw5zZBDoP9cntq6whSAPA6vqcxU0dzbb+m041cTx2r6v4tFf0HalkzYGV034PrnyG9rjtXD6lPFaH0OEytpm5iLLanMALPFaUGqydPk3EMSeecmrWEOLP6pXtWEY5c09AbyGsrTGJKDmuNibFxTsHiCUS+7UEDKms+mTZG05u1qQaRsAcPJvoSgH1vd66zTF1UidQDUCvnSutIslcMcHRy3RmJUIkwjW6azFuLTO3ZG5tewrAB84E/52B139lc2wYjbTwuPYXJ2HMc746ausO+vlzvWgFw10V6Azx2ehuRtwMvwXty1saDtgUtszUlaI0yrxQkGspG9B0A++sNFa3fC5Pn6bBK4rwg1tuW5bpzSaa1pDWzuggkAbIKD4XmjBqc0UHbOk6WLvamU7oR7O8QMdIRpH8DgD2wL9Gjz0Y6SP5r6u2Fz5WRPnFDpjVkDt0J9tpAkT2UIcd4oce4oPmRczaEHvSqGkoTPX60oT97ItHDu3HhdRxEZ647rpY+tFq6jaR5XneqDgxx+EglMBL+a5K7Kq8mD9jFibZzQiHarvubDwCs1+vaO1zVN/ajGc9E2oY3zZDGGST8d1+f63fXSNfNbISswca31M7xQGtWGYecV+ZdGqGN586n+tL2in6wB8CGI3V0SW9bKf3RTanuWlLTwl6S4w7LVOE8DEzZtZl48edRfjL5UrR14T2OzUs/d+zfk0RaNSvVr69M9al1udYu5BmsDWH3/mdLpO9gXs6MADDjzL22NQFqC5obstesIVWPPhcHwOp4o0qn9HNLcv32mlQ3zMvVRUtVZrkTz1p1EOldcu4VYHkkBZXXUy1lWy8lJBwpC0tC9N/APmSgNKeS6c7FuT66JtdyUiw0Uc9ji7+2L9J61LYWrPfLAFqQFfjK8JaHzmV6EJU8SIhhWtif6y4M6hvnRerCDWXMqGXMDYbvyPBIURGjBDVvLa8UhbZD1mIpS5VEzloynHqFSUzUSyp159KG3ntdQzNmEWbg7TcejfRt4syTDpUmaDLGBc1DdrHXfupYpkexByO48V5CiHcsSvXmRXXNCPuRsEjJYi9l2JZZLa2krz55kq0dXueztlUAsAonYZEUg3/FjFzvXpLqVqTO/J1DTR/Boe086cxgYhyPC1ogOh5uVPXYiQ4dIvaxQVhEKPHupbmWYkAjr1UFkJxoYUgdx6VWaQfDdiQvlrIwn83zyZJffVGbLYU/1HCET5ATd8CbdwVygHPWSTDL9bVzOvWeqwnScQZ+58cHcj1ymOzGe4kToLag2Xk+fzrRI0dIevEGlc5UK7EJywcq6qJXf2QX6zxMjcBcWnxv5k1g7vhXdsfOZ9p4LNejh6QnSWMOEUP527PQdhjgxKkEphk5apjJOXgm05NHcv2I9p+mn+OEGUQcIc628/K+QEjQATCPuuARz1nJ9fp50g14e9QCNY20lZz5cA39mABLbUHzhsizXs+nmJPejkS3YcdmE+3bDtsY51EnBSVoeiz/897k/nPSv+6Ufu+xSL/1vVi/88NY9+P2t59iQEzGpUFWELDxL0P6cz1zPNfnNuX6+A9p//uxPkk//76DwQ/RMqP31IUPnYMmeKfK56ERLZ4R6TqC24AAM3AANT0J4OXEjEdtQSPn1QHna8NFQx2EFFehnt3MVrBdAbgifDVr/qrHKdM5Zu+/9sa676lYD+6MtfE56bFd0v0bI31lt8Ie5yUKWqAgN2mNoDrV13Yk+vymin6ER99wkBBiR6zPbsj1MH3ZwydMnNfM/C1vMBujbZBSdUjzZwOAzTATeJgJHjRPocb41BY0i+vxeh5WM1y7QifzyAAcYriLAip3VXZXiPip4UwPPZdpB94pLHdzD9usgycY1N5c+097d7185xIIIHJsz27s6wOo5MEzXJs3qyRl64lIDx6KmWSgsRkYlWjyS868b+Dl7m5yzgV40/JXzc/TxhkvaU2A2oJmsoqG8VmqHO0Ho9r0jmOIi2/VQWgIpi2pwTCadfdGW/668UzNcdFkCD+YVAkRYp2sGRHaNSOhH/8XaR8JzDCG0587BNV0v1619VOrK+Q90u7YYUm4DDawXG9oRxMArZCqxDoHDxmzUSN5Dyug1s0CupajGVOI3QawG/5gLywfeHnIuKEWA3086yEADe9fOllSroSp1TPiog3j4KY4dtDPdZiPXrKVyAE24BR2yiDamxd1G6jrGfLT4pN7zA0sYnkmRG1BS5CsK2AgfP5EBw3itKOI/jCdBsWEaR8DUk0yvnM6I71zqfTGJVInrj0YZuzgivnSL12d66qZXE+QyVYKY2bwy4i37l4uregvJsJusYq63Yxnf/uVuWZ2EPbQpwWxoIyJdvQYWNHZekwIRUTQFK9FjG82ZSIstQeNVhbOlHo8cM7rOIS9p1E97FxgwMA1uwp/zSWlmxm/A+bvvVV6/03SW6+T7rlB+tRNDi6bkxAguFSyJBNU473fsTzTJ28lMyHx/vlrcn3w5lyfvFm6vT8VAQb1Cm3IMAnOEoI/DdfYXCb/CB4z95obgC/okfo6JsZP21UO26Y9p2N9+NFIP9jKbGKk3r4q1advi7V8LloHPyHUCGB52jybxc6OG7ZdOzYU6RR2phdJWwj44dMBpssgj50/jk0vsJpifwCB0Z8nJz5M+57EObQ9gFZ0R95hL7IUp3R+rRLetYx4SdUeNtG9D0fajNe16fjNG6XfX5dpMQJinsbjq62k2X7MY1ZvJSnvRg0cX208FuvHBJI1jHlEJOnB8DfYubBxYQNMceO9zOKy3lxr5xIQ9yGxtFF8eTA+Y2NRORiHOBWO/mpoJobodYQOawlWl/QWNi3lvltO4M1L884EnEY5U7EfOFWL9aMjpE6khlaXAfPH+PpICSfC07ighXkFkN5KptuvyLR0NiKPvh4YjPXVXbG2EUXXEK44qwGet/O84+4NPjoOuZ+tiIFnMunJqv4CT6XUTIYC5MUZB7drR+UJtnx7UJF10BMHP94YQuRUwz6fc1B8JNK/7Yo0gpR6A/mWgYbeNIBKV0eZG5fGBc1NWI0SMt+bMLi3X4l6IikNVO2hPZG+tb+iE8NIlwNJpix42MSrG55RAPb1RehSpWwsKiWvlRJMRIQC1uEjtYdw4A0wDaRvJCO+IyV0lrKLANiL0v2zIt15VayrZhv0ZiNtaFzQTN5URcg1t5rpF5ZkJLsFH8NE0F+n8//GNpwiofcXQja4ZroSbIqTmMK2XUgvB2AXJUYetuT4Z5W0uzJvdcKko+cyfZVs5Ou7kTocQCeqfcviXLctaqiHnLn4tq49tQWtiMUSkXIixrj5a1PNwwZY+jcTkd+3SfomUmeJQ0NDHGuwPLMOyMfyM773cpZWcuhtHhIzA+thY4jz/XjKL5OXfmUbjumEHxH2YAfvXpFr5awMR4Fo+EWo3aSO7z0pBsdc2LgPI3XbTuX6i6cifXVLrBo5aYWUavkC6T1rpF++MgvxVxcuNXw3QQul7SlaK+mVkzTzm6Z2SRDdnGPmnhmM9MWtib65HU97kjpEAD04pXsJTz60OtfSrsJp2ZxExWbBuDQuaCYHiGFHyit6OQlUPdMzdPyHJMrf3U7chpoajypxzh0ErfcsU/gqcUlfg2wAO4HE2d4hEgHEQrg5C7hNHrzANH9ahcJDaVhaUEer387Bun7wfKz79la1fS8VvDdL/W5MzL3XZ/rI2prmEP90wFP4Ptj8hsWH8aktaKkfN0HLAS3CbdcAcv1gor/bHOkb2yINemvMkk38taAv1w2I/fIBaTXpTD92w9/DVvBcBVyuavmDQc4vlcxsUPtwVZDb9LUn2JK171ykPaekHUcJj443l3zs5am4yB/+vV76tRWpru4ZCTvr3jAg2gjPIya5HbVVz5R//g2TgWs01z+t/zXAe/JIrE+vr+hBgLPJDaPxEACoClgLCDR74MY/2zFDF9IYtyZE5isw7T9uxIVzC5l/zn0M737Sn6h6dcXhhonL+UjYB9+Q61dWMak9mWCPMaFJhAidNFKA1p6rCUhaoVrFErZdNzMDIwnAnYax+7dW9KcPxzrn9TZLWwCNQ9lqKV6+dil5moyYtVIr163tl8U/ugpDs7rBL/3dsTbTn9yQad0cQCL2jCJ/MubFU0wHHt+BU+xtqjbUlnVH0MXHb5VQuYon8tHfsvZ2xlpFpN9B6hGMVCich4rNYyuVgJkM8FRKK7lPU9m+jw4wCTOCpDGIhVek+sAKTAbZg78tCc/zhBjU+wZOrCxx4e22dOGwLiAbb2+BpRqiZt3piT9Rolghk6yuOQSOiRNduy231lyOCQNrZSIMpDgNg3SZCpVtXFjcBzY0HG2fEJx+1PITbxzRWxc5FSQcAqQRGPQuWvBv/iVMjoLiQCZCbUAryLPgIDH4BES4ECoAjStMJkmx8xjbArdWAlYWD6Q8upjCgJrHyZRxiU68h1mj0MccUr/3r8707iVR+BGuu63g0Jy7egwZjiBrapHLRKhNvYJL/8qjC9tWRbI8M84S6iGQSDTcoHMM7yg5BmgdoMuFNNa9VioBLktJ5XvlsXxW9jNanwuS3TnEYnetrutXV41ocVc1WAxbLG/qGaawdISNtk2LPbAJota2WghPHcOUzHDudMNfA3kr7hABbsOxWjkQUzmY0UG0HE3l/dZ7rVSCULZZ1m2VXD8rz02tdXg4F9v1Xrzkx65J9PpZ1fA/7LS+BIDg3VG/E3yv/IZE36rqVydAbUHDvSrOUo3Q6EjcSbfWe4chmY4N5XqCOGjYC3lm2FQOrByAj+6lcGLFtUOTEJ5A5XvlO+V1K41139flKN1WE0h/gHM1tuvjN6b62KpUq2ZG8uJF+Ng6qKIRa9YN/4rj6M0J0PigAZijeHvKYh5yecPGUleDUWcGjx9E4po7VYGCm4cMknXBlb27EnZYoBLAEkRT81Gg1nvl/daxlOelhLk9+nDIMLOH5Hu59Advkj6KlF1LoG0n1fBiFW2FfdDirSlR2ziNRA3+3JULrtlxG8jtP1/VZzZF+sL6SKetniUIYaeCE09vOfCy+LmpPJY9l9cmn7tc+G5JF74LaB0E0MsGcr2TFO4XKdf35+pLCFtjw1XFnEQYfviyjiJpE1fEsak9aAS1hTYVW3dm1t+yei3tj5+MtcPrUk2cQnFlHy0BPnfrvvYPQcMaPA+szpZOv9e8Nfq+r00+ls9cxrgfAdZS4sS3ANTdV0nrAGtepz/18jQ3aN4VOzhz0Ar/QSILBzAVagtanjqRsnDZmkV4y1iPHZH+/Cnp+zsj1V7kOZvHZoudTKy/w51BDnrzvEw3DqSqJBXtRq3/91ik50+TQyOlQwDoX7yMgug/Pgbw+WMB4bqbY1cHR3/bS+y1bn6un6Hc1J9pAfeqDvs9HEBzOOGlAl86JvMXa8Fa0NxE8svxqC1oxe8CLGd5+H35Tgb8l0/H+spWAMRzBgqDw4QRVM5i9ud0ERN1k98RI63tl1bMxb6QNSzqRgIA4SQGce/ZiJLo2RN5WLo5eD7SeXJFr06E/xEMbNmreR3Pu+B9nblWYtSX4xWX95Fsz8y1uIewgr4qBNQFC37HeJfrKcyCeQ+/ErRo8l/TW06F2oIWfpqY+mfNqU6kVT1xKNK3dkXazaC92+6NjB54mk3gOABQizDGC2bkms/1HKSij1TL37M5RAkjs8igzxnjqWEbz9YjDVJOUyxxNRCr06f9hvcVDFp3JdJM+iFyUC8q3sPk+LveMHjAKBZK3XxhfcMMBtiAj+GF/1EAaPpOYOGVBM0PGgwgA7QKqYdlezjtYLAIPueFN4JReChKk7kmTw4mnSyMSe4W8JzK+GX35SFbwqylJr/a1M4CjGA83WfxTklTBeFSqT1oZpTi/92gARrxAIl3/DmJHVJhQzhy34Gj3ylAM6ge9NgD8peK4cjjwAAnruoWSoYcP5VvF0eejD58od2fONCKT+JRhTA652pIBxMdh6++S2Zd0+flgIvrItIee0Blt6N/i1ea1Lz2jea9F+B7Kf1EgWYqHlrKYCwMrABmvEG4xnjP21PJ0qsLxkSpLWiX6aVkN3OZLpEugzYJugzaJZP0/15gTGViY6CLAAAAAElFTkSuQmCC;" vertex="1" parent="1">
          <mxGeometry x="610" y="511.5" width="77" height="86" as="geometry" />
        </mxCell>
        <mxCell id="HWMUPrIcRq6GqUg2BPiB-23" style="edgeStyle=orthogonalEdgeStyle;rounded=0;orthogonalLoop=1;jettySize=auto;html=1;dashed=1;dashPattern=12 12;" edge="1" parent="1" source="HWMUPrIcRq6GqUg2BPiB-3">
          <mxGeometry relative="1" as="geometry">
            <mxPoint x="405.21000000000004" y="419.9999999999999" as="targetPoint" />
          </mxGeometry>
        </mxCell>
        <mxCell id="HWMUPrIcRq6GqUg2BPiB-3" value="" style="shape=image;verticalLabelPosition=bottom;labelBackgroundColor=default;verticalAlign=top;aspect=fixed;imageAspect=0;image=data:image/png,iVBORw0KGgoAAAANSUhEUgAAAEwAAABHCAYAAACtUKHoAAAAAXNSR0IArs4c6QAAAARnQU1BAACxjwv8YQUAAAAJcEhZcwAADsMAAA7DAcdvqGQAABu5SURBVHhe7VxZjGRXef5q36urq3qZXmbxTHs8HjO2x/HYAzHYSCBjFqEEESAhAbFEIRJRpLxGvESKhPISESEhswV4CFmIELJswhgbcEwwGOyZscezerpnenqp7uruqura61bl+86pqumlhunuKfvJf/W5W937n/N/51/vvdWuJglv0ZbJ3Vq/RVuktwDbJr0F2DbpLcC2SW+K01/bRaPRMPtqjuOY/XZbe57L5YLb7TbN6/WatY61W/ucN5vecMDEvl6vd1qlUjHgeDyeDnDaF60FoD0sHRNgOkcA+3w+BAIBc0w81N5M4G4ZMIps1i6zsgPXMbGtVqsol8tmLYH9fr8R+LqwVoMsdRGaPC2vxhrQHYIufo7hI56hUMhsr2VBPWxt9ZZuGTAaktQBbiOcyGUAyq5mUa/V4PNQoHAE/lCA4LhAvbLnSR5eZwTraIgFzw5JPLVP7RNzc1wLe06VvEvFEmrU2HqjhnDYj1gsjoabk0E+b5TW9UTDxEJcZG7lQhFOuQp/OAhfKAiv3wefNITf16hNeZrVUq2KGbZZp4o57s9RCxcqJaxw30NGEZcbca8f/aEIBqg9424PdhH4UWpR0udHxMyOpoq+rdFEUf0SvKZThz8SQDQUM5r8RtCOAWtfpqV8SzGXR6VcQSAcokaF4aa5NTjLdQq2SHDOFYs4nc/iUq2Ci4Ucqjx3gJqXjMUQlEMX8BReemF0g4u6x4VitYZrS3kUqEWpWBT7Q2Hc4wvgaH8KY1zHqLVuAuxQERs01RJ518gnSr4y1esm3xvaEWAdsLguUjuyK1kEqEnhWARBjw9NCpBrOpglUD9fTuOH8/Mo8ZJBp4l7B4cwEY1hNzVlmP4nISfeBoxLgSUR1UOdy6LRwArm6jVMUQtfyaRxOpejiYdwiBPzvqFR3ENNHKRG+nmxQ9+miVtdXTVa1tfX19PAsGPA5MTz+bxp8Xgc4WiE3oZiO8CVehVPZWbx9Nw0lmgm+6kNf0zB7oslMEjzCrQGT+WwxBEILqmVDnUOc0NHFUNlqg77LPLaKYL3i7lreGIxjas0xbsIyidGd+MPY/1IcrJcZFxnv5lMxvDp7+83kbUXoO0IMEWrbJZOnbMfp+oHggFjBnPVCp5amsfTmQU6rDqOJJJ4qH8AR/v6EeVYPQZSfTwGFQGihSJsa7NDZlDc5wDNvkheS8OVJlbY33SljOfzK3iOWpehph+OxvHY0AgnhuYo4HiuJlS+NRKJmHarJrplwMxAeaYiYD6XNX4jFKdz9bpR5vGXCgX89/QkXinncbgviQ+nduFuChD1euDn9R6eYzXGapGBpINS2yDt9yINSl9Js+wed8RDX3IprTPpBo/Pc6Key67gqYUZZOkG3jcwiscGBrGHJi+tKpfKKHJ8/mAQ8WiUoHHCDLFXslWP7VHdjLYMWIMzWuWMZpcy7JiOnSFceVSJ3vbHSwv42sxlxOiEPzO6B/dH+zDg9cFP09hoBtd7IzQdADRqQWbJHNeOlYSTs1kYM2z96StuF2mulzi+nyzM44fpWbyNweFzew9w0ggQx1iv1JCj7wvRGmKJhAlImiYx0dZWzXXLgNXYYWZlEUG/B7G+FGcWTA9q+DZ9ybevTOLhwRT+bt9BHKTztX1bX7IJsM7CrpstezSmZ/YdODwgDVb2YIRytTViDXEC+Y0R3HGxcqC26fwK87Rn8sv40vlz6COPfzh0J46Fo+YSpR2z09NIJpMIxxMtDSZ7DbGXgDnsaGVlxZhBX1/COOtppgePz0zjiYU0Pka/8ecj4xj1UTDjIiisPt0God7YtGoQLMGjnKo930o62ypmzZO1ZBe/Y4et5jZLRRsd0wTVONDfMkp+ZeoC8hznF/bdjofoT6PkU2Oul1lcRD+tIECf5pGv0/Vbw+vmgOlrgVWjNsXjDNH0SQtODd+8MoUTNM+PMTp9ZHgIAwzdZuguLwdtBew6aTzFdMnvtG40a2C2QdN2Y65QQY4RNkRTHwoHEOYE+Mk1oLJnAwlOO3Q5d3vMHuUEc2rF81Um0V+dfB0zpQI+u3c/HmUAijC3y9dKqGRXEWN0DypX02B6BZjyGUXEVDJl6rVlDum7V6fwxOwsPrp7Hz46vAt9dPwemoWLOu4iYG0JuvkFuWujOypx5LTpeyYLZfxuah6ecB/zNSa/1LPKah4TQzEcpakHmeNtlMhAoz/2YbszRZoBqkG+xMUkza/mC/jGlau4xmD1xX178Ug8iQbtsLxaQJnRsz/Rz3xNk7w1xDbpeoP4Kd/RWgyXqb6yeZU4Fc78k/Nz+MbkZTw2OoZPjOxCkiPzGrWWOcqcWowkEnlsbFxISiOcTK7OiPXMmUtIsKR5ZHcMf7QvgffvHsDBoX6cXiihVG1dsoaH5WOvN4zslmlyFxqPRuQjkkeYTP/Vgf2IEdCvTk6ZHJGpNSJMejVhpdWiGFieW6DNzoEktFXuKKpEmRT6BBad7ImFBXzzMsEaHsYnx8ZY01Fw44/Z2Rqgfj9JI6ygGmOxUkfDG8HBVD/CHi+KNTeqjGpjNJdpmugyBbwRR8Fuob/eq5u8JZSNgqpjPbidZveXBG2VbuWfXr+ELBXCRRcif5wvlVBk8rtV2gRYe+7LpYoRKBjhTPDoxXIJ/0EnPx6J4vP7JpDSrRkOykwM5dfw9LlOa7dvRNJmB17yqpPR65k8nnz1En506jVMLtNvUsNdnKitcLL9tc+0Y9HQGjwU4MZRVhmf3j3O6mMW35+ZNbmjV4V8PIRsbsUk41vRss0axosUFXUfKxD0634AcxwwKUxjhcXtp/bsxX7mMjJ5O8NrB7pNIhOBLh80ny/h/6aXseiOYdUfQ43+0k1z98jGtkFGedlsSmJdjPqJsn1waAgfGdmNxy9P4ncMZA5NMsac0kttU0WwFdoMGBmbG3QM00ry5A0ucaZ/euUa3pkaxLG+CH0EhWzlRubek9naGSnfEujxSAjDqSRemZ7H/05OE8Cywp0ktidukXS20h+R+LoJhsyzQUnj3P6biQMI8aTvX7uKxWqN/XuNaUpBlAncjDYBRtAZQYrwBfxmdvPuBn4wNYWQP4j3M30IsnOZj0n4eHl7cLdERDxTXMW52SssXbwYYyEfNQmwF478ZOu0rZAmT63lJs22EZI7wn6QAffztx/ECwsr+OVKFoLIR23WndsS/dnNzNLy4kntpshYZm0WDofYhxsv5Yt4kjb/npERTDDR81MI3TkVWXPcLgkADWqtb2ow9/KhPxRFvVxDiY6+zFqCsbp9s3XLJJ5q5jJuyNzFQ3psdbmJdzPAHGOm/7P0AjJ1QkYlCLLOrFJ2uSOD7A2AW6dhAiyXzyHCGfYy3OeoPj+4fI3R0INHR4bMfSv5HGmXOd8IfR3srTT5FH1aIrW2G1hm/vDCQgGnan5Mlb0oNXw0Iw+tkt9v4HGzxgWBal3X+hj0ONFeRs0BatNx5neTzALO0HcJH78/oNNRZfGus+1iM60DTKlEhWqpe+Oi80zunlvM4LFdwyx7fHYQPSJxsgIauZAM+fDwngTuCjexN+JG3Cezd4xW9IJM9s+1pjjI/u7t70OMfvi5xRzKRIzuDf5AACUm0erSgqy2njqAKfeSDYdY5es0MXlxOccSrYH3MBwHKVVvht6NmqjU6sgsryJAIXRP39Nyji5WEL0gE9HpoCUFRcVYwIdDAyk8P7uIGQU5nuPz+lBjeqEHLAaszXhZwASWZluRwt45bWKJTE6nMzg2mMT+UJDa3OXqXpBmgawjjMgjqRQiNBfdrpIpNplEuRTeekAmYhrYrO5EWA7dn0ggVynjNGvOGtXPyzpZ99gq9OEG1S4aYkYjsBRStVa9qFA/W3dwtVzFu4aS6OOsq2azJnRrjQvT8VrSkTxrx6nXzwO5JQRYv/rpS2RENU5UNz7bbba6cFMO3RkhOFweikfQH/bjx0yZ6pTPw0pDNxcalF1j6mZTnelTpitN0+2OOs1wmk44QAa3MXnVXQg90ekFkVNLiNY2P5r9VHIADzz0duw/fjf2Hr8HfSMDCHPwPj0k6Alp/LbwFwmKVCiAg/SdP5tZwCrLJYXUAJ2/IqUeGHejDmBy+Pbpihs18jybXkSU60HWYcqIe+nwLQk0DtLwdWGJ0erE6XP41s9fxb8+ewpnZ5kj6esus7wTUi9q5uGw2WnCz42HkwlmBH5M05p0J0XR0pRkktmcuJ46gGnWBZguUmI6z3woRMeY8LkNYL0a+FqSZukj8jFlGeWMHwp7cGc8gLhXek2vI1/SI5L4NoTIRFljcmdvMkUUHFzOMr2gssglOdSuhu4TdZF5nQ8TYDqnRP9RZoI6xMI7It/FYxKs7Q9606wAZpufTLmCX9M0zizncXYlh2XOsk0EWuf0oHEhbqYg5xGzn6IFNWldUwRM+x4jr5TEnLGJOoDJJDWbwlQPT/XccSQcZt3ohU+n9TxKSghqrsyStK8/gU89cC8+/dBD+PjbH8TtgwNwXA6qmyf5lkhiSN46+Qq4GK1ojFJPFVQ/60uCQi3Td92oA5iZAZJDVaxys8qSIe5j0Srd0ldcdMd8h9RhZUdWYXjPzFzD4sVTyE1eQINRM6Qb1FLvHpCmxWmxkjzmbgZbkPuDTMqrlLvGYKf46GFe077bsZE6PmztO1p6dKZEUjeGrTny6hb6bXB32rgwTR/DmR3IP9Y4pUuc9gWXH4sND0o85jBC6m5+Nz7bbVzYfrU2PbNxU+sINapO8eW29K3eC5HFtc9dSx3AOkQu9bqaHl3pAM2VuUuXa3dO4mUEEFjaIWAM5fMrGcyn07iWnsNqqWByMD1R7wUJGAm7VmvayuunzzI1rjnAUMMApDDXjTqAtaORBNCteYElBjadsKbZcxLr1rh8rONGx8Zw9M5DePCuO7CLPs3DQrk1rDeMzBBYTWjtcILaMm/WJEvrjksFBYwihe6FKR8TS6MMre9vvbV4tZpIx4dDfhxKRFFyhZBpsghmvuR4mBu67a3jN6pJs/JM+PQgWGqhUTUUAKU1XcgcNRm+cjAxoS+Lsp4LBoJkpGhJsdiMsq7pqCetBZmWcrozy1mkl+aQXUqjXNMdMQ6v4et+bY9alW1GOScBCnisi1DAk9J0ywHXAWYcPxmEWJLIjhcKJWqZkjyBZoPCrRN5iZ9prUOkC5kcXsqUzBOqoO72sn41bmHtST2h9fwKlSbS9NdDdAnK/OV+ag1bS3ajDmDKcAWYMNVtuxqz3Zl8gVm/ZKOy9gwwkXoxsdc6W7I+tZjHP796Df/y2hy+xvWZ5bKdox75MAMA+zISyk+1DmaZMGsMYxEmGIzUeggsy7TKtRm2DmDSKKmoxuijao4xN1kt1pGjfUsZ1MVGdd5Zaw+efxxcOxo15DN8TCJaze1ljzzUq365ME0fs2bfcjQXl7LEyYWJwT5TV8h/eTxM1ZladKPOURNKOaUqCfxkdDgRQ46Z3kyxYqKmfFu3gey82X5bqw1kfaahTdfttNmk1Kit9qlNuoH04uwS/ARpPOzT1JhnCnp1QLd6ulEHMFN0Cl3y9NLJ7+kLYZG2fZElQ5WdSPN6Sxy0BLB/a6h9YPN3Enzn1DbH1h59ZLri4ORyEYfjUaQoeJO+q8aKw+ejD+f33fzBOsBEKkR16lDAhVFunJ3No0QA23dFbpnEpC04VzYSaW5bgzNfaSHhWueRbg0skklKLSnfkgJcypVwje3RiTEETCagxKJhHrtZH7aZ1plk+9mcKBkK4O6BOH45Oc+8qPW4S6p8q818LABa6z3Zhh5tcb9NFkLbHE3W2ut33CgjeWlDD/BK7PPl+ax5QfloKmbuk9WrDRbldEnE4UYW1QFMpPfaiwRMfkxvVNw/1IcVmuVPryySgXW+aEg46w+0b0uKrTcuTI2oNxhzjMQn55cQC7jp4KnOUmOSoJM/HY8F8cLlaRQNdHLSHIVCvu7CWlfU4XvTRg4uXqcoqO25UhUvzmVw7/gAhv26da33mOsmvbI/irDXbKR1gNlXs92046rJvY4MxOj8g/jOq7PIMO1vMrlU5xLG3LI2g9leMFAirGtVI15azGG+UIa7P45nZ9KocYg+glZiAX7i0jSS8QiLcC9+QS1nKmlAogKYfk183VbfnCSer2E3mJD/Zn4Fc/TPj4ynWHy7zC36aq2CcMD+GKLzZuIGWgeY/EkikcDK8hJ33OinI/z0PbdhfrmAn3DQDZZLdT2+Jys3QTNvo24TMAkpX1HgAM8uLmNiZAiPn3odz+brpsj30tnqnbETKxV85+QUDu/bhd9OpZGpsERyGoxsHForX9qOduv8mp7YU5VoQ/j1Qha7wmEcS0YZ6AimXAPPk5WJdE032gSYLtCTk0q5ADft/OhwBMd3p/CjqSVMMS9zN6gHrdCsF1bMLZHWoLbUCJZeccpWGVwiUZxdWcGFLA20rtfcfCi5aW4uwkLT+C0j2OvFGh45tAfzuRyPMQt3WbPSa1BkuJn/DZqA8hBwPed8fqmGl2eX8d49A0j5CDyP646zfJe56/x7aB1gIj2bi0RjqJZZFhGNSLOOTx0exUy2iGeml1kUSz+MdXAQWm8vsdQsypwcOthEMIR0zYUVCUJttq99kqlCOidjhWOZzFcQZ44kX9qkuXqMZotHd/43bmTLlm568L2XpjBKxXhgMEJDt7z0+4O1v02y0XszbQKMpyJMVdUEVuVgWYgeCnvxjtF+/M+FGZzPOea5pQGswfCrE4XcFklaaS4hh0qtihi3fDQVvX7eoHbJ+brMa41KpB3EgoxeFMtPMxVUxNRoi7kVs51+1R8z+P86M4MzC3l85OAYRjkRMhH98EGapRdSbkabABOufp8fXl+QjEoG6WTQjw9MDGG+Wsd/nksjy9mumeCsGbezZ2GzImjfLjaTZlkh3OVzIU0z2xfyYNxHM6zbSEW7MRqhum7EqWAi4sd8ZhnDAda6Rrd4kuFhx7qJzGA0prbmSzN5nHK8nM7jWyev4sGEH+/ek4RfgyFgevFZv5e6mTmKumgYD7KOisWixleVGH4VYY7EfPjc2/biZxdn8J3zC8YHGW3R6Ama1Rw2A6D22Xj9xqZg4uJ60O/DqN9r7rl94fAYjoQq1DY3+hw/wuz/dr+DLx47CFexiOxqDqMxmovjJW9qnosBgKzU16Y+BBKPu5j+CChuEmbgNfqtr7w4jTjl+MfHjiJYr9B67G+mwjTFtrO/GdFlGPw3kcqk5eVlg37U/D7HjUy9iW++Mocnzqfxxfv34UO3JRC0c25MShtamdcKeEzbG8kcMl26MVOq49nJGfSn4ihy8JdKTWQrTQSofXeEvBjye7BaWMXb9w5i2ExtqxohY/PM0u6ZZZvkU2W3PoJX1/ncvlpu4uun0ngtk8PfHt+Hd8SV9/lQLVWYTpQxMDRk3tcX3ch3tamrhomknlJTlUzm/U9OaZIa+8k7R/DgeALfOj2N52YLnD2x4KD1RzPQDHOqzdRak9jQ+FHYEJhDQS8e2TOKhgZedjBAjTsY9WIi6KFlMhpXy/SdgxjQnQOlEgKDPNqtG3+T5rB75W26YsFx4buc5JPzWfzpHUN4IM4snj6yWiuxlc2PG/RrvK3SDTVMpK9UKl27Nk2VDRqn6OKszTGyfekX53CJudPfv+t2vHvADS9VvM6E05gcQZF/IwfLaA1ZuKgflMqh1soX1XjuuWIFi7mKeUuo6nNjF8E7EA4i4OWUNNxmYsRNWaAlq8UbSRNhf7JTxzLTlC//ZhZPX1zEZ+/bhT+b0Is1PpSpdavFJQT9UQwPJM1rTvJxW6HfC5hIfkE/nVlayhjQvP6gyYLPrdTw5RenMFMo4q/v24dHRsKICiNZhAl13QETQKb4ldk49Ec8oJjbYELMtJV6QfiYyghwc6OJYDXcNe4TIF7n5fUC3dS23N/Yg8SWRFeYtnzvlVn85NISPnZ4HJ84RLBU8dDJ61d5dfrbwcFh+q9AC+AeASaq078sZZZQoD8LBHzwmOLUhYurdXz9lTTOsCb70MQIPnAghXG6AptLEbC1rDmelreTnNyiwRA0N8/ROw36yIwdt3IxaR73eXqDiaq9XPmEiACa78VJHO1x1aJ084TbRQdfZTk3h6srRXz8yDg+uCeOCDVTsFeYXwo0+S3zaxCmNPJbW4OL/WwFMJ2iX7XqJ8FFRi1FFPk2vYMgH/GDs2mcOD+PCdaeHz8yijv7/AhyBg04xuyMfnC49j0zOWLubiAd54p9afgCVQesg9cxHbB+TKfph6fadpQ+aMtDV8EC4bkrGfw7a98QTfpz943joV20CI5Rk1hWMs6MfphgxeJ9DGRbhek6bRkwkd5QTKfTxq8puVVVL8MpMSF8eqaIx391AeUa8Cd378WHD/RjgCagx1ftrJz6wibNskJLVB21gEh3WtBQgwxo5lu7BDWtrZnmGu7I9GW+VV8IL7O8+reT03jh8jwevG0Qnzk6jjuoQB4TiPTbA5ohk/BUMml+O3WzaHgj2hZgWgs0aZpAU+0VML+RdKHc9OFyvobvn0nj+eklHEwE8ejBURwbCmEkqHLdaoMRWZIb4S3ZoyQeE5it3mxjn+2fE0pT9YDG4X7N7UeRSnyN9e0zl1fwNIGKMlh84NA43rM7jBQzCneDZytiVooErY54f7+5uaAM4E0BTKRtmadyNKUbftZ7fiahTTptgZJj+P/1Qgk/nVzG6fkcRmIRvHNPH+5PBbA/GQETe7joE5XnCWijUzRbXauUREdsPLR9KTlVkNFRk4hzgtLM107NruJXC0X8cnIR0WAYx8fD+OC+PuyNMHDQDypouGrUPlUrtIS+/kQnTRK9oYC1Sae2T5fAip6ZpSV+UTcPfpueAOWh0Myhco4HFwtunJgq4MkL84hT2DFm2cfH4rifbYCZe5hm5uO5ATl/Fb0Ehp6RfejelRtlRsiabiex6en0hcVVvDCVwQtLzKFKDnb1hfDeO4bxYArYE9aTL/1KhamHImGNPFir6q3w5EDKRENp6lqgdgLatgETtTtSyrG6mmWtt4gKs/YITcLD2XQ8zMd4rodAhpm1zzshPHUph2cvZzC5WMLVqpua2cR9yRDuGgxgN9FMhRkoCLjyMP1es0CA0qsVnr+KkwtlXFilC/AEMRIJY8+uAP7izhT+IKUEl6UbgXUpUSXwNfqpsnli30C8L47BVL/5JySmMuC4JcNOtUu0LcC6kQYmE5W2yUSleVJ7+yBB/oqiqAfaU7Hh4Gq2hHOrHlxl0pvOVtiKyDNS5FnQF6hJin5ealiQChehoImQD3uTASRjQdzGKuAAC+exKMFhouwo9ZApcwwSw5Gpc1u+Vf8RRSbY6//Bc8uAicSizsEq5VAxq7WOuVjS+Bju9QtZcw7nWWDK25UIbIkOucAEs1J3ocrQX/PQrKQLBNarxJbX6/ffrGbol5iesOk/A6j2Mf+xgEFEAKlv8RdQqntj+ucjAf03qfUmeOsE/D+uf/mvIqra3AAAAABJRU5ErkJggg==;" vertex="1" parent="1">
          <mxGeometry x="367.21" y="530" width="76" height="71" as="geometry" />
        </mxCell>
        <mxCell id="HWMUPrIcRq6GqUg2BPiB-4" value="" style="shape=image;verticalLabelPosition=bottom;labelBackgroundColor=default;verticalAlign=top;aspect=fixed;imageAspect=0;image=data:image/png,iVBORw0KGgoAAAANSUhEUgAAAFgAAABSCAYAAADQDhNSAAAAAXNSR0IArs4c6QAAAARnQU1BAACxjwv8YQUAAAAJcEhZcwAADsMAAA7DAcdvqGQAABItSURBVHhe7dxlrGXF0gbgZnB3d9dBQpDg7u7BwoQECfyABBj+QD4gBAkQCBLI4Bb84u7B3d0HBhucwWF/6+lMTfque4Y5a5+9D2fuPW/SWb20q95VXV1dq/eepFUhDaJrGDJ2O4guYZDgLmOQ4C5jkOAuY5DgLmOQ4C6jUZhWv9T+JJNMkksn0ZNI9WPa/DvRe5Kp03L2Bm0TrP7XX3+lIUOGdJTkaKPc/vnnn+nHH39Mv/32W25nsskmS1NMMUVuW73efrlfbstr+gttEYxYwsZ+kNwJeGYpkra+++67dN9996U33ngjtzXttNOmWWedNc0zzzxprrnmylvHQqZJJ5107N09E9wpWXuDtgi2jXoI3pPQ5aPjfE/NlefK8+oIHjVqVDrhhBPSTTfdlH755ZdsvVNOOWWaaaaZ0tJLL50OOOCAtNpqq+V7WDmCnY/neimB8claPxZy9HRtEzQe5EJApa/uIQgsS0kwxLP/+OOP9NNPP6Xvv/8+ffXVV+mTTz5Jb775Znr//ffT77//nu9977330qWXXpouvvji9Nhjj6XPP/88n4t2yvbUo3QTjQgOZUtSJ0RuKFFXrNznY+tKx/nyeMAx4H/nnHPO7Ca8gOeeey5dcskl6aSTTkrHHHNMOuecc9IDDzyQPvroo3EvIZ5dthPb8nin0HaYVpLcE0oFgsBAqUQo5pqff/45+9vRo0fn8sMPP+TjcW3cF4WrmHvuudP000+fXcfrr7+ePv7442y5Tz75ZLrwwgvT8ccfn4l+9dVXs/uIez035CrbCExIv96iq3FwKBOIfSUUVBchvP322+n5559PL7/8ch7MWN23336brxmfslNNNVUmeOqpp85uA8FekGf++uuv+Rirvu2229Jbb701zoohZLB1zDZKnO8EukZwkFKSE8qMGTMmffHFF5kMStp++umneXCaffbZ0wILLJAWXHDBNMccc/zbYFV/5gwzzJCvm2aaadKHH36YfTBXEeRoC/nLL798WnbZZbPFv/POO/lFajMGP+1GG9BJkjtCMEHKQrGwijhvn6VSUMh188035wEKwUKuFVZYIQ0dOjQttthiad55502zzDJLJifuD1LHHsjkuI//ZZmsV7RRtos4z9p4443zS+N2rrnmmnTiiSemG2+8MV+v/RLujVLut4s+E6xxQrIcyqkroagt38fC7rnnnnTVVVdld7DkkkumhRdeOFuVGBahLHHyySfPg1fEsqGgfeeiuIa1zzbbbOnrr79OTz/9dO4Z8SIUvnnNNddMa6+9dt5/6KGHcqh39913pzPOOCNdccUV6YMPPhgne/lyQpfYbxcdseBSuLKEkCyF5SCBle61115ZaaQiijVGyBco69zE4osvnslSlq+sfdFFF83HZpxxxjywGcS0Ffd53kILLZQ23XTT7GrefffdTK6Xa0C0veiii9Lll1/+H5ZM7k5h0v+rMLbeNiilxNu2ZbXiVohp7hprrJFWXXXVPEEop7jxQtTrRINrzdbc68Uoa621Vp5ccBFi4hdffDETF0Qhftttt01bb711bv/KK69Md955Zx44oz3H3au9ZZZZZpxLKttXj9IO+vxNzu1hwbHPJ7Ko1157La2yyirZ/1GcJZbExvWx5QYQHPuxVXTj2Hdvaa1ffvllJlibr7zySnrppZcy8YceemjuMYjlEvj/CNXcS5bpppsubbHFFomdzT///Pk4GaJH1uVtij4THG4APEp4hNjrrrsu1/fcc888igdxMWK7VikFD+utd9G4to445nptiaNFIy+88EK2RhaP1NNPPz09+OCD+Zq4R1t8/+qrr54OOuigtM466+SwrzyvxFjQbwT3dDkFQ8lnnnkm+zYCDRs2LK200kpZcMIGcc7Zj3og6mUbUa8fc79t1OMle4Z27JtWm2yceeaZ2crjGa73ApC63377Zb/OUsXK7hfJIL8ncst6b9DIBxOQ8KFYxJyOqeuafB1fuPvuu2cfKTKgEMFs63WwX5aejinl/eWx8pxSEsMtkU+IxsLBGLDeeuulfffdN1s5eUU4I0aMyC6GqzAFd3+JaLMJGhNcIogGflcYNHLkyLTNNttkq2AFJQEhXFkPoWMfymPtlIC6SEVIKGQz9XZ2gw02SPvss0+Ovc32br311tzrRDkiEqFj3FN/ttIEjdOV0c3jNl1RsS+7ZWQ2IhMuLKpd4doFWUIuCAtmAGZ76667biZQ6GasQDBi9ULyLrHEEumII45IO+ywQya7Lzo0JlghsEYpwO/yb/ysqSvooiYDrg2hXN9fIJ8eVRJiK2wkL9m4Ai4hQrd4GUDW7bffPh177LF5MhQDM5TP7A3a0loDlOC7JFNkrK699trcBQlPwJLcJgJ1AtoLUqJtMjECPeuzzz5Ll112WSb3m2++yeTSR8nXV7I/++yzOadMx77I34jgsOCwYt3K7Ej8qSshtxSmVLC/Ee3aIjteOKINvLJwxoi4BpyjgxyHHIb7gvhS9yZou98K2GWlnnrqqZypMqgJ2gkr5CEs2A8F+hPaL7s2hCxyGGZ5BjtuzbVkltcwMdqnCi+HDx+ezwvnSlKb6tK2i+C3dCF+zRRYaEOhILbpm+4kgsiykMsWyCmPgWTGwaLF63vssUc68sgj88TDQGi6zYUI70orboJGg1w0wmexXp9lxJSHHXZYFrROcCj2T6JUL7p76CEnffvtt+fIwqRD9MOiESrhL/kvjNtwww1zSBfjSxOd2iZYNkpOV8ZKvjW6WlhMYCARrC66ADLSg4VGnkMo52uKAY4ByVfz0wceeGC2bi6wqwQTKIrRVchjphS+N4iNeuwPFIRxMBRAlLqvG2ag8hUGbPkMVkx+uu22227ZdRgY9VKlt2hkXhpErLcsPCOsQcBxwofgDd5ZvyLkQmwpr4S9Lxy+tHAXJkvOKYhmya5pR69GBGtAQzfccEM69dRT0+OPP56tOBBWqwxEkCu6eKQh1U2nDXph0ePkH/sSWLTYmStpqlsjgjWgIdbLB0dCHQin8bIMNJCplDPq/OyKK66YowbHxqE6x6jMVH31CP/dBI0JlsxRzIrEkywhEKTGdqAj5BQdsGBfTYwpMeOTUVtqqaUy+ZEGaIpGg5zY1xTztNNOS/PNN192E8IzQsWbJ/RAJ5jKobYtNyDxY1WQBH0sHTCo+TLim56ZHZIZVGlUE0IjgsWN5513Xjr//PPzWz3llFNyw3WCBzrqBCsGM9/njCkiB4VeJZks3X5XoogQxIAg6Ga5hNDgxOIS/g5yKdwCa7b0Srbt0UcfzZ/4pTOFcGLmeDG9RSMLjrfMkgnj03mZLw0MZMJLddUVpAo/kXnjv/6VB/Ifx4zJ1izn4ryp9OGHH54NiyX3Fo0GOWRyCSx4kUUWyQ39N1gviOkZjuTVww8/nLc+nvqAyz8719UwzZsWrkhP+kprDs+iG3SAAYEgqC6346KHySsj+musZSuOK3ppvaf2Bo0INsnQjc4999ych4hFHBMTepIXaY5HGiCuCTINasi3bapvIxcB/JK5O2uOKeXEhiCp3Cp0QWIM3HF+SFU3uIsqumbBHsznRu6B9RpVJ0aC6wjdLIX1OX/99dfPiXe//xAPS8SLieWNmxLc6yjCZT4RWYLkE7dZjqX6sv66TzRcF6CpQN0GPcoSMICZ+uuVIgcGZGATsumxogekR1q2t2hkwYj0vSpmNHwywerCDnTQRQmiyG7pq9hXxCDnYPaGUF+XrVDy1Sa+4TVBozjYV2MpvXvvvTd/ItKVfAVAPITgSuwPNIS6seXiDGxSsHqndCVyfa7nIrgNOQqpgYj5m8zkGhGs6yBZV0KqN6oxpSR1YiE4IgYkM5yjjjoqEw0xs5OL2HzzzbMV88N8dROCG0URHmx6jFjpOwG51TyIL4kdqKjbUsjMzfkJghkcXczqLByUB/ZtTuQUOYkG9pjRiGAP15ifSPngefLJJ+d5ehlNlCQ3Faa/QK7SIAxiVoXqnRDnlJlnnjmnLOWKy57aWzQi2MP5IDM4C+VMJ3UtA0PM2YECA5nccstNMBA5ltLdKdyBlABfHGmBJhEENLu6At8rOa1RXctc3foIXQrBSl2JgYKQr5QTaSYRFor7Oh4/C3PckoSVV145D3gIbkoutLV8VWO6lU9H4kbHdSMDQghBgagTdqCgfPnCMZ/qGcpyyy2XM2bhDli2JQk777xzXm1J50ATfRr/CIZg8TYtuLYwQ51gLNvoG13JNso/DXKTwzaKiZOvyZa1GriFnvGJiC5It4gc4aFDU30aW7DCT5mXe/vVgfwjEkuNxI9BrK1rA02E6jRC7qiDccT4YVaKYK5Or6QDy1WQXA5uoUMTXRrFwaX/0r1yYrpyEQJxOQqE89FG3iA5CIcmgnUKoV7IbV+R67XsVqiZV75XspHbD3b8/GGrrbb6Nz1APUpv0dhre7g3yk0IvL1loZu1tscdd1w6++yz868nS2XKutJfqLdJdrJYSGIljygoxhDH5R/8HMx6D/Ugs5S5CbnQiOBoUAmSDRBiSB9Db7nllnT99dfnxdjxHw2lkhMqTdHTMxRk1V9quS+Jg+T4YIAyOrFUX2zkIORcnAuE3k3R2IJLhFBmOTED+rCyXtbhtw9iSy8AQrlQtCeM73g7KNuJdlkrUvnXLbfcMg9iBrfQQ7i20UYb5RyLGWsQ2g6xgUaDXNlQ1JFLsEiYfDM2T8xN8GE+jLL08t7SL9fRF2VKIBSCXJk/SSqWK66VfmSlpsOjqoJoy1T9+kgkIRoC8oRMZb23aBymQb0REYUYmN8yq5MMkigRP7KScCXcCnJLyyrRjgJQPi8IDQsmi5etRxkf/MUMMsnml0ayZAZrY4k/V+IeIu9A1jCGkKupfI0JLhtQD4VEEQY9boK7sHrcsk9d7YknnsjJITOk8S1SUW8qPNTJBc/Ro0QHBjK/9rz66qvzuKB3japcl2jHNFgPYwTyvSKImMV5lm29tzWVsVGYVqJUyBbJ/Bs3YfkRoREuMeSnrAa8zTbbLPs4PhDxQTQQ/O+Ed258omq7vkWwn8Za3nXXXXflGNcxmLLq/ssNHZr233//7IvFulD2MO2px36gKcFtuYhAkBKCcAUCdd2Nf5O8tszq/vvvz91USjD+AINS3EgQZxsE2Q+l4ny9OA7qcZ/n6in+/IMPdU5SSswbKVVyuo4x+Ozl1/jGihgn4hol9svSFG0T3FOj6kF0WNAdd9yRu6Z9CSF1floihQ9EDj9J6VAsUJIXCCt0nfNicK5ArzGI+UcVvzv2AvlZRMtZ+woe9yFWb9pxxx3zNdyF46U+dd3aRZ8seELglxXE6qLICOvdbrvt8sDIhVjMwrJdw7Jcp7sabLgW38v4dueQ6XmAfOQJC/1zieewWGRrV07BIOZeU2GQBdx1113T3nvvnVcohasqCe4UudA1gglowBAScRksCVEI8yXa38ogyuCDIFNWMyg/QOHHuQ+WZqG3pD7ivAypUVsvwDJTvwSyEMZ5iScvh5UjVQ9BKBcgTLM/bNiw/HKlJSMx1VPpGKpu1hFU1pRLpdy4UpHZqhTOZeTIka0LLrigVQ0srcrSWhW5raort6rYs1V10VZlQa2KtFZlta1qcGxVIVVr9OjRrREjRrQqK8zXOKdU/r01fPjwVmX1rSrsalURQKsiK9/vOa6peknr4IMPblXuqFVFDq0qmmhVVtyq3NE4mSq/3KpeRJaV7N1An2ZyEwJLiO5n8YbQzQpFvwqt2s5rDoRN4JrqYN6yTO4D+GdWaZBime6zb5aoN8QXYPdpj1vhHhxn5a6x7+u36xyDsFT7nql0Ax0nOARXglxFdzSw6Zrh96ya2WSTTfKfHHEjM1czQgMOcrwQPpbfRWwAEbq/yQHyrdHQ9V0v/PMXMbvssks65JBDshsSKmpL/G3wRaiXYBslZOwG2o6D20FYCuKCPH6YJYsuRB1+/yHhstNOO2XfWbmVdNZZZ2Uf6qUhRzHjOvroo7OPNYA98sgjeUDzApHqXmMAAt0H8dJjvz/wjxBcL0G47swqIYJ/sbOBzDnXIIyVGwDlExDpGc6HhZYEhmU6Vpb+wj9mwbahqH2wr16SwD0I7QLui64d19iGGvHcKPbL7v9fb8GxLZtVL0mCOFZHHCuvty2vj3r9/jhWP95N9CvBdfSl6ZKkv3tOf5LZE/5Rgv8X0J3YZBDjMEhwlzFIcFeR0v8Db+MXSh3J3ssAAAAASUVORK5CYII=;" vertex="1" parent="1">
          <mxGeometry x="120" y="524.5" width="88" height="82" as="geometry" />
        </mxCell>
        <mxCell id="HWMUPrIcRq6GqUg2BPiB-5" value="" style="shape=image;verticalLabelPosition=bottom;labelBackgroundColor=default;verticalAlign=top;aspect=fixed;imageAspect=0;image=data:image/png,iVBORw0KGgoAAAANSUhEUgAAAGgAAABaCAYAAABUrhMHAAAAAXNSR0IArs4c6QAAAARnQU1BAACxjwv8YQUAAAAJcEhZcwAADsMAAA7DAcdvqGQAAAuKSURBVHhe7ZzrcxXlHce/ez+5hxDCJRiYIAhWiUZUQDBcYijira2MM+04nfGFb/qq/Rfal33h9IXT6StHbW3roHYU1EZBbpWLpSMXBSLBhBAuIYGQyzl7zl76+z3ZgxGTkLNn92QT9zOznPDsnr083+d3e3b3SC6BmMgie58xESUWKOLEAkWcWKCIEwsUcWKBIk4sUMSJBYo4sUARJxYo4sQCRZxYoIgTCxRxYoEiTixQxIkFijjB37Dj3Tk2HMfxGnwSwm1EyfvMFYm/qdBYlmmR/O7FH4EJJHaTNmFd64bTcxFuJk1CZVfSMlov3jZ7VPqUsn+PwrW8PwiJN3KyHcMb0yI+qE18V/zzHTYtY4wPcZzsprd9ZSIkRQGKSyAvXgi5tgaSoXtrwicwgZyhmzBPfwGrsw2SqkFKlFHrSKdK1FniKLeO5Io2OKMOfftZZMS4JWiF2M4TKHu6P9jnd4h9W2OsYHjdOKvGxXLgdPfRGUjQ1jdAXd0IqbTYWxkugQjkkLUkj7bC7e+BsXId1LmLSSTVWzsDoC5ykylY/zsFc9de6I8/DK35sRHLCplAkgS74zSs86eQaNwEdUH9zBKHobgjFRdBfeQBGE9tRGbP53Au93grwyVvgdgAzbYvoS9thDKnlq5l5iaGkqZCbVhB7jsBa+9hrzVcAuhNF/a1SzCWkV+Wwzf5qUYqSkBZtgjW0eNeS7gEMtxdJwXohctsphRyd3JVJTCYhGtzuhguM9cfFYBs4h8msUARJxYo4sQCRZxYoIgTCxRxYoHyIO85skmQ91yc6zrof/0PKN/+O8jFpV7r5BGHHxoEksNcUN266gnPilbeSnHH2/DW7HfwZPYdQfqjAyj5/W8BZazjUBvP05WXiimifG5RTJlArm3B7u6EeXg/nL4e0kURs8XfE4gXy5u25r+p08Wl8ow0L0x2u9FkaKuUS3pnNxpBzHLTttlP32T7e5x9cJe66QxkXYK68h7oW5sgV1eRv8pdqKkRiA5ptZ+B+cUBqsrnQH9wNZTqud7KmYGbTsP++hwyew7DtSwkfvk05AW5X+OUxCBneAjmiaNQ5tfBeKx5xonDSLpO1rMcxovP0gU7SH9ykCw7462dPFMikN11HjBN6Pc/RFZX4rXOQPg2RVUljO1bYbd3wL6S+y2KwgtE7s3uuUxHViElKIDOcCSeXK0sg0xJg/1tt9c6eQouEAduN20CGmU5/BDGjwHO6CQF7lDKa5g8U9RDeeUl0xAve/Nx2T+SITx9iQWKONNXIC4Gh4fhmmmvwT8upb9uZtSDeLdDdYx7rU+ky4VmWgrEtbXT24vkjh2wOzq8Vn+wwOl/H4B15PgPZh6y2D19GP7ja7DPnCvIbe7RTDuBhDhXezD81zephiqGsqjOW+MDEsQ6247M7s8hVVI9Ns6cmVwzG9raBqT+thN2G9VwBbSk6SWQY8Pu7IS58wOotQthNDdDMgxvZe7ww4j2sa+g1NVBWbJY1CxjQuWAtmkN1PuXIfP+XrKk9nGtLWimj0Bc4F68iPT+/ZCrq6GzOOXl3kof8P4uXBKxRd+2jorm8YVm4aSSImib10BZOA/m2x+PWBLtI2ymjUCcEJitrVSVV0JvaoJcUTGuS5oUlBhY+49BKi2HvHC+1zgBPCNQVQlt63qoK+qRfPXvsNs7vZXhEXmBxNT9wAAG//wqpNmzYLS05C8O4ZDl2N0XoW56eELr+R58zIoyaL/YgqJnN2L4lTdgn6MkJURLirRAnDHZF7sw/PY/KE4sQqJlq5glzhe+V2O++wnUpfVQ63NLMoS7o5ikrGmE0fQQ0u99MuLuQsruIisQB2G7qwvpgwegVM9B4sltkIoCmFzl2PN1G6xT56A+2jAyT+YDtjp181rhHs33dsM63R6KSNEUiDrR6etF+nNKCCorKOZsECl1ELgDQ8jsPQy9ZQ3kuxZ4rT7gmFRZDm3LOrLuBTDf2gX77B0SBx9eORCBJKh8a9b7XzA4V68i03Ge0t8lkDlbyzPmCMgq0wePw/7mMrTVDwJanq/JsLvjmLTpEVhfdsA6fmZigXwQgEA0ksoqkbnEwTK42kBdtBh6QyPShw7BovQ6iLrD6b0Bp60N2sZVkKqrRDzJB46RzvkupP7yNiUvDZSGr6UenaBLfWiXt0B8kfrdVGUf/wx2f28wI4hHZkkJjMfWU8ZWSek11R3ffpuXSCLh4GBepENb/xAkNb9XZUSMbL+A9L8+Fdml/uJzVJ/N8tYGRyAuTl1yH5Ty2TBPHITddyWw+Sq5tAyJjZugzJuH5HvvwKGkwe8AcG8OInP4JOSaGuGW8sW5fJUyOKrLqspgvLCFBlIeRfMEBCKQUlKBxKoWuMkkhj58HcOtbyF1bB/Mk0dgXe0Wvt8XbEkkkrGpGVoDWSmJZF2g4tCHSE7XFWBwANqqn0DSNK81d8RcYP9NJF95k0QpgfbMZhKJLCdPdzkegQjEyBVVKFrzJIzGjVQnqJQin4P5333ItH/1nWvii7t5g2ob6mSbOnmSHc3zbcZaypYW1SPdSnVH54WcRHJNE+n3P4X2yErI8+Z4rT6g6xAx509vQK3hh0G2iSwzTAITiGORXEYp8fJGFG14Dgla1LqlXm0wIobd1wPz0B6yAooFHANyGHX8Xqje9LhwUakPP6SY1DE5V0qdau0/Aru7B+rDK33XPa7NMacT6R0fQ5k/B/pLz0OiNDssy8kSmEBZ+D1VSU9QUVniuRK6ANLHoQQidbCVBLOgLqcCMQcLEPAAqKABsGEDlLsWIvXuOyJxuJP7dHr7YH68D4mXt0Oa5W+0C7fWdYkSgt2Q586G9vMWMS8XtjhM4AKNhXP9GpKt7wqtjKafQqmki/OTcworpZjU3Ax5yd0wP9hJ7nKCR5nYas+0Q1uxBOq9y3x3qHu9H+ZrO8jVqtCfpKKZxSkQoQrkOtRBVB8l934AqXwWiprIZ/t4wP52OCYlnqDE4cFGUn8CoUkQhYTRn2kh15bfpcqLaqG/sI1S6sKJw4RrQTylTwIpc2uRWNsMiWKUMKMAkIqLoa1+FErtxNM1PNrzLUplco3G81tHHoAvgFsbTXgCsTuqqkZi9WYYqyi4kzj5Vu63I+kU4/IsOCcFnbf4bZ4Ci8OEJpCkqDBWriFxeKKT3VrhL24mEJ5APOoopQ3aaqY1Proi3Bg0FiwYWZcI7rmm2tMVUQrQ4sMdF1wgvhspU0bH4vADgz8GxMOVVFQrcynJyJHCWxCh1dXDvdkP+8a1GW9FosjtvAR7yIFy92KvdfJItIOC95Dr2DCP7IN1/iwS656AXLPA+425OzhpH2caWgQcy11xV9qj5h3JcuyTZ5B87R2U/OZXUO5bnvMJTYlAjDM0APPofrj9N6jOqAaMBJ37eHc46arEy8Tef7Pw/yea6bHom95UoEBM0Hp/54NCZ9qwFPL8Gq9hBOfyNVjHz1L9Rwe1LbiDA7Cv9EJ5YAWMDY/SyeQ+XKZMIMZNJWFf7ECm/Szs69eBNHfgD09H/Bgs/wbp7WJw53OnjwXtR+L3pcj9i13ykqEdTGJ+9U64qUEqWkvE+6fK/Lm3Oj695zDMN3dBXjCf6iYDyrJaKPffA2XxQt83CKdUoCziFHhmmlzfmCPc9xnSF0O4On6IMr3rM9hnOpB4+QXx0AjDLwo7X30D49c/A4qLRtx2nmVGJASajjj9A0jv+IhcdD/0p5uh1NfB3H0I7tl2JF7aDkz2Ycg7MCVZ3ExAKi+F/hwnONUw/7mTYs9pMqHgy4ZYIJ+IG5SzKqA9tRnqvUuRYpFOkEgBO6RYoHxgkfi5uKc3Q6cszT7VBpjBWlEcg4KC3FvmP8eAgUFoW9YH9iO7sUABwg/l8y+oSKXjv62XK7FAESeOQREnFijixAJFnFigiBMLFHFigSJOLFDEiQWKOLFAEScWKNIA/wfJWGO8bz6CXgAAAABJRU5ErkJggg==;" vertex="1" parent="1">
          <mxGeometry x="180" y="120" width="104" height="90" as="geometry" />
        </mxCell>
        <mxCell id="HWMUPrIcRq6GqUg2BPiB-6" value="" style="shape=image;verticalLabelPosition=bottom;labelBackgroundColor=default;verticalAlign=top;aspect=fixed;imageAspect=0;image=data:image/png,iVBORw0KGgoAAAANSUhEUgAAAEwAAABVCAYAAADjTgJ4AAAAAXNSR0IArs4c6QAAAARnQU1BAACxjwv8YQUAAAAJcEhZcwAADsMAAA7DAcdvqGQAABwCSURBVHhe7ZxpkFTFlsdPdVX1Ct00azc7somCCgiKK264L7iFW6jjEuoYRky8MWIm3gfjRcyXcXtvwucYThjhKLiMjqG4r8hTEUHcUGQR2feGbnqht1rn/PLWaZKimu6CDow3cjC7bt2b9+bJf57zPyfzZhmKxWJpOUQJhUJSUFCQ+Xb4kk6nO0pPCfqhZ09JSJXrOe1+B9Jz5vE7kaOA5SlHActTjgKWp/xmpN9Zs5wnqtl14htHfqTb73oPRsDuyG8OWHt7uzQ1NUlra6u0tbVJS0uLxONxSaVS7jpCalBcXCylpaVSVFQkZWVl0qtXL4lEIr8vwBKJhPzwww+yaNEiqa2tlebmZgdcMpk8ADCAKikpcWXo0KFy7rnnyogRI3o8z+pKflPA9u7dK88884wsXLjQgcc5irmcHVsxKS8vl5tvvlnOP//8I25lPU761tFs8c/bp84yZOfOnc4F/Xtwv0GDBsnw4cOlX79+Eg6HO+6nYIl1dXXOEhH/3lzi32vlUOUIR8lAUdwNsLZu2eJc0beQvn37yq233iqPPPKIPProo+7z0ksvlWg02lEPoLZv3y719fUdYB8OCPlIjwDmjxyuBZHTKf88kkymHMFv2LBBPv/8c3n7nXecpXDdwOjdu7eMHz9eKisrHbljYRMmTHBWZ88B8J9++kneeust+frrr2Xr1q0d3Oe3h3DO1+dw5bA4zL+VTjQ2Nsr333/vQDj++ONl9OjRjmOox7Vff/3VdfSXX35xFtKk5xLaEV+mTp0q999/v7M0QOS5q1evlieffFI2b97s6nAOsi8sLHTADhs2zIF64oknumMCBPdifcuWLZONGzfKMcccI8cee6wD/nACRY8ARgdqamrk3XfflQULFrjRRrnLL7/cWcsWdT3Of/fdd86NqI9gjRYBIXKs6aqrrpJTTz1VIspb2itXt6GhQT788EP56quvnAtjpXavdRyXHTx4sJxxxhkyffp0l4IsWbJE3nzzTTeAQ4YMcfqcfvrpznK571BAOyzA6AyjuG7dOnlH3Qv3MPPHsgCgqqpKdu3a5Qrn6SQkjuvRwTFjxrjRHzBggLOW/v37q+VEdTAyjaigohH9nj17nHVirevXr3dBg9yNZ6MPaQfgMAgMFOAaOBUVFXLOOefIRRdd5NpDj3xBOyTAzEIgbuOSlStXOrAQe6Qpw3eAItk095k4caKLggCHa1ld/57OBHBIcrFWgFu+fLmsWbPGAcl5hOfwDB8QvgMoVnbFFVe4fC4SUUvW+YRf72BySIBxC5b1448/yksvvSRr1651INKofSL2Hd6Az6ZNmyaTJ092VocFACKF4NmhRkZvUyqUOeAjV58Aj3xu06ZNzgXh0B07djj9ENPF76aBduWVVzrQwmFcu3vx75AAQ5lVq1bJs88+6wgcpSBp+GqnKrteo6A9Fm6aOXOmnHfeec66cFUT7nMdUoN11QuCCJdU5TWmuTrhVEgiWiWtlazzJj4YFLjz559/lvnz58u3337rvlMHgBgwjtEbkDkH31133XXOPX0+PJjkDRgWA2e98sorTinIt7q6Wi655BJH1nDM35Tgf1I3ASyAmjJliuMPZ01ZgpKBCoEabcm0fLV+m8z/eZM0xtJSVSxywxlTZGSfEinI6k92B3kOg4mFffnll27KRZsAg3Wj+8cffyyfffaZ7FVuK1OKmDVrlsvz4M5c+mVLXoDRIOQ9b948F/UgYjgIPqBhSJs6pBCQMa6I+/kchfhNuk4mNFCkdNSLSqUxnpb/WvSzPPv5z1LbnpTBhUl55MZL5LzRAySdjElMAeF5nU2JeB4F3bZt2+bqYNnoYvq/+OKLbjqGpaHzNddc4+amRM+uQOue46qgBIRKQ4weCnEO5eEBgENoECVwTybH+/IeLMJVcfdhmVgjk+95896URfrMFpLPRErqmmPSmtCOK6HtUYvb0dAsSb2nRjv7+uuvy7sakSF7uItOG0gIbRH9sG50GDdunEsxOA/IUAdRlDoIgeOjjz6SFStWOEC7km4DhmA1n376qesoI0chbBOlyJV8sesm9IdOoRRKQtB//etf5fE//1lBmCcbN22VRDyhgMWlpVmBS2mepbxVkCyQuiYFRh/F/UTlOXPnymOPPSYvvPCC4yyAy9XZA3VIOwvjGbiuXSP9WLx4cUeUP5jkBRijgsXQkI0oqQUJqZFpZ0KH9uypd7nac88951YpuI9sP6yhvVw5LqrW2p5ISlNzu6RTmopoEyFVsaERS0o5l+nTp497FtOhDz74QJ5++ml57bXXXPt4gOmVLdxjHoJ1+vWwPpsddCV5AQYxkvixkmAPp2E4i5FDqexGuQ6QdJCZAPyBS5OEouiAgQNkyuSTNIqNkohm66kCdZVwRBIaKdsKUtIaUksIA1uQDpCWnHDCCS6I0B7WwSwAa/viiy+ctdGmFV+wKqZXviWhL8nzKaec4kDrSsJ/UskcdylwAKABkDVMpyHVs846yxE8ClBMWTpFjoQV0KHdu3c7/iKJdbnQFVfKmWeeKcOVB6PRQk0nNPTvaJAV22slrl5WGU7K7KkTZNLgflIUjbiIzLSLWQIWAz3wyZSJfJDBGTy4Wrl1n8X4+kAhpEJ4BoLVko+dfPLJBwSnXJIXYDwMt4TLyOxjClhvJdcLL7xQZsyY0WHWvoIAO1c5B45ASe4nJ7rzzjtddAXs3uW9dO4YGHtUrWmvPveHjTXS2JqSaf3L5bZzpsqAsqiEM64DoTOdIo0h2JBGEITIu5xe2s7IkSM7kmMDgQHHO6jPIKIjzyLCMwDU7UryckkawJWIKCiHAkxzULy0tIQaQUUVLItVgpdfftlFQu7trVZF+L733ns7RtRl2dynfVKoNdcqkKqKMhnQq0Ti2tFhVf2kT0k089RAbFCIfgzWHXfc4VyVCTjWy9LRe++954KLDZyBBsAk0kRKzmFxrGhY1O9K8gIMc2cEWW5BMRK/s88+O+OK+6YXgMUoMiG35JZU4wIdyauvvtpZmL8gCFhW+ChSK8OaYnq9UN0wymOtrgr3meUQhACLjJ0EmUEABNyf1Q0G1geN++AsGzB4jQGFC9G7K8kLMLjrm2++cVbGw5lAn3TSSR05jQmjRTSk4B7wBKPKbABws+sDE7TOX7rGJwAl9CPtNNwHli8AQKHj5FvXXnut0wlQCEIEGSbl2ZaDPgCGLvSDgITXMLBdSbcBo1H83hI8TBv3grx9wQqpRyTEJQCHhb2LL77YBQy+00lfHED8tdMOCD73OXm2sxhYVqAHeI2sfdSoUa4OVvP222+7HNG3MuqSVGOZWDKR1fK5rqRbgNEYpo11WdJKpEIxU9iEyAlYLENzHq64SHnGJridC9alz3L/9Ju2WUAu5qDSosfoYSWXOHdTd7/gggs6Xp5AIcwpLSqaYGWTJk3StGag05O1NTiXAccgOm0j87mf7F85mMbASau9mT5kn21dCOYNb8EN1MMVxyu4XYG1r6ho8xyF3TKG5nadKG9ig0YbxZlcDaqAJ1lcJEFmRdjvF3WxMgYdi8MbmAFAJ/Sxs4E5oBdWCZBoZMWKlW4aw3xri4KBYhA4i3/ZXMQ91OU+6sErLBcfPCH0gMqIO5MBLV+hXVwfjkJPOk9qg8VnA0HySwBCPwaYIMFqBgNOYCN4ZAOXc9iNCFnvevzxx+Wpp55y2TToMzIohIuhnAkPJSk168L6WFIZqCZ/pIWBJBJiQQjWw3QIWjFBdywQ3iMX4zt9Jg36zyeflP/4y1/kjTfecFj4cgBg3MhIsObF6iXWQnS0CIIygEAjZmGAxT3wAPU5TwTCwrqTPfe00B7WRbChfXgV3eiHXUcYfBJW6nJMPxjsPQow3sS6GdG2Swuj81SEKHk4D7MH8p0lEvIfX+LxmFOKaQqcgCJYIeI32LlQJyhp55OcCyTEait8lodgPTbnpH0GksKxrw/Rnv4g9M36SCFqMqvx78nJYZih+S83mnCMAkQ+33L4jMXibsGOe1GWOR+RKD8JlOIv9hzYNG2gpodgF4I+FPRED3SyBQLruAm6Mj0jQCHmgtyPteHO9jykUwuDrxAaYAoyduxYN8Emz8HUsSJfbCKM6wImyzC4pt9Y90RHU//FKdq3lGauaWYReQBmYmDQH6IlE3QA8fUpKip0sxUm4MwUqM99CH3HcHw5kMO08FDLW7iZJZ377rtP7rrrLrdjBv7yhQcDGAUBTEwdN+5cGOn9RzuQkJREwjKhn84OBpXLsMpiCRXk546+wLdGJ1gZVsOxDSTXoI/Zs2e7N+733HNPx7wUoU9mdUjOHlGBUeHB3Hjccce5iIPV8D3bYqgHsRrnAZitXPhiENG8pobet4AjUpqccs/gynL5h7Mny79dfZZcNmWclEbonFZz9TPCWmU3cCxT77DghI70a38JgIOTif72YhkvQScDmIIcCFimk1aBh/kgWQCgcC4oQX2Kf36/DnaIgaRHClBCB6c+lpItzQlZ35SUjc1x2d2elqKSUunXp0zSkSLZvDcl65rismFvQrY3x6Qlrtk4IPOsXE14Ynoj1qdssTpc55gB55PvvnUhBwKW9VBGhCyfHIabDZj9JWgEYO06XJZdDbWCokpwTb/UNLbJnAU/yh9f/EwenPup/OE5LXM+lX+eM1/+MHe+/NOcT+QBVz6WB+Z+JH/8n49k3nerpL49M9XZh0dOaVOrMn0NCF/8/vDZrJGxTrnOPAwD8CWnS1IJl+IGzJjsl/eQn3zyiZt8Q6DWCIISRBnM2u7p7MUEd6W8ZjfXNsrHy9fJwnXbZPGmGvlq805ZtLlGFm/eJUs37ZYlmfLV5lpZvLFO/ra2Rhas2CwNzcqXXYCFkEzTedwSXjVuMkFfghUJN8tRL2ni+vXSpa4P1i+zNiSnSzISVpFOM7V4//333copWwNsPcwHjfqWMeP3rBAcyBcIk2wiH58i1f0qZOYJY2RIv96SCmvSXBCWhA5YQjsYcyUi7ZGoJMNRier5Y6sHyDmTRktlqU63vPZ9QS8K7ZPqYABwkiWofh36YS9myPJJVommXDOQ6RMF6dTCyKGsEjdD6IDAFIMEle+cR6iHdbkVCT0GMHKe7AiD8EQa5ZP7qitKZfa0sTJr4lDtVIHEWYTUi9odBygqhPUorM8ZUV4kt82YIOdPHCG9SrqaQaRdx5nuIAwoKxjZLkbCzRsn6tkuIBMMh7zTbycnYCDLw7khWwCKjNlMNpAgmrKOzqsy6rAWBcC5OsUZ7EvHTSJ6fbiCNnPcCBlRVqLAqGXo9YRes0BIKQ6lZOqIajlj/HCp1NzJre4eBDAiLvQBaNYf/22XSUtLq3NbG1izPASQbbZikhMwgCKBY+kDN+NGA48HYz02EwiElyPB0i+hmTrbtm11q50Wln0JAAsU5y8WNKhXqVSp1RRrXVZa21Szdu0cJa7fiwojMrR/ufQqigia5FTcE3KuH3QuzIsa3NHSomwhoMFhpiPcjXfhvqRT3QIMs2XZg63dN9xwg3u7w/qSBYLdCpgtU++TkBtBtmoyinV1AZHahPdACWBzos9Mp5OSTMfdhhPAJLfHva3w+o1fdmbswCv7C/qlUsGqr9uGpd8BgJmKP1WjHoMJvdhbe0Ai6yeJvfHGG917AozFl5yA0WEqsj7O6iXbKCkAAkh1OiKQaTbxAyiv2yBKuIAtBLZWTj2/mx1Fz8fSGlga6mVnW7sSfqBUJK3IaQXqAJKmYrKptknqW+IsvuZcVHRtaGlsbHIvNnapq9EX5pOWjPqCl/CO0patWI4CJLZ2MruBYhCeof856dSyqYQbmolicSzXwAc0gLtlry9RqMPSL8eMHCkJZu8D63eVbW/bW2Py+S9bZZ0mpq2qGACRm6McMGt4keZkSr5fu0W+/nWbHnOWHmR64QkDSmBiOZ2gA0i4FtMf09GElQgWFrE05sssOuKCGAv9pq/77gnu6xQwE2uAhlkuATysB8uhQV+oS0OnnXaaWw8DJFIQtkbZK/wO0UO+bW9skVcWrZL3l2+VWDIkCZ1sF6h1AViJ1ihV6ytRFytXGHftbZP//vxHeff7ddLQfuAbnoA7t7n2iHp8Z8WCbQDZrgWYrPcTwNAbQOE5LM36nEu6BMwEtNk+hGnTcXYafrlwYQepW8EqGVFe7pJqYIW8WHVbpABNO2HbMPVQftpQI/MWr5TtDTEp1rBYHUpKVVSBV9ZqU8CiCtTA4kKJalRsV3W/39UoLy1e5dwTfrJ2AYeIyFsiuBMaYNX3sssu63AtE+pj9dQDOCI83Gtb3Q8m3QaMBxGa8XMUYX89a+BYEApYHYRohJXxogQACdt0ZNGiYF+Z3qC1mEem1cJ0fhgL8q9CRXLWuKFy86nqQr2KNLVIy3H9y+QfZ06Wk6sr3TvKZq23tTUpdS0xDRJB5wFr164at8WcxBMQ8AR2P+Jm6IBuhgUpERyH6yKsaEAj2RyXS/ICjIYJBPamBVJlvxhcZSNNPayRFIM1JtITrAoXefXV/3Xu0tBAGE+p+6WkobVF9qo1NaomcQVw2tiBcuq4KqksK3IWNLyyt5w9fohMqNIEUu0tHgpLUzIhjZpwAjht4oZsymM2woDQcda22DNhs49gMIMpDrutGWyARVcG1l4ZdiXdAswaxL8tdYAkGVleTTFaJKt+XRSh3vXXXy+j1I0R+OKNN153m3bJqhNK5M1trQpcUmJqXQl1x9KocgjZtv4XxhDV5cP6pVDzvKTmHCm1sKQC3RZX+9N7cEO2vTMQuCEcCteybzXYwhDoQ0GgCMDiHST60w/WvwzYrqTbFmbCCAEcnwgK4wamgJ1H4AZ+CkOoxuIAsba2zllbPBZXklfLUotw62Dun95TqPNGBZKln6ieSSowXImwwSL4T0J6Ldau3KmfWBSzCoCAMyF4VoWtPRP0AlAGGD5t1QHTkx1gct3XvTPpNmDWIJzFZNVSCiIm54g4XDdBCYClE4DGL9R4Rwn/cY5rSQW4qRVqd7orvafd5hP4EetLqAXF1P24FlYKSLkaylkJtUiNkrQBKAwM6QAETzukNpzLjnhYNZtUcGG94K4Tve1cjwKGMIVgg4f9kAGhERqm2HdfUBhOgfvuvvtut3tn5MhRDoB2rdvSnlTXC6yLukVqYYAV1+czl2zPROGoAumepyWpgLUlgC/4bSVR+ZZbbnGWBWVkA2XCeVy247oWBpzXiWzlNFo5mOQFGOZvr51MIeMqACEQmHDdLyhJlGVTitt8px1tU2z3JlUF5SamRAUFaSlRwOKZgKA4OuBCelCqz9Y0UmcAQWLbpK7KSxIi8iX6TKIy4FnbuYTrvMghN0NML1tQIEXqSroNGA8nT+GNEUkgoFGYBhG6Sfxs5Owaxe414d5evCBRoGOaF7SoGzPZJiJGtV6xuhLcFgClgCXSbst5kdYn9Yw4B9bEM65zT72fQeJ5+1KH/cHy9WBw4Tb6wLFdA3Q212B9XUleFgY45DZmTb4yiH2Hy8h1cq1UmNAt/j9J7UQ7/ca/4oKwAlYocQDTyFmkt6YUsJi6YGFYrUxviuo56rfqOUA2ASeeaYBBGaQN6JFNH3ZMgeuwTsvXupJuA8bDUWbUqJFuYxzTCBpgNYKNKra3FGKFDx5++GG3N4O5GgBaZ3wLiClXtSfibnt5WM8Xa2eiEU0itIMpdUlcMaFWBM+wITga0nMKV1JLKy4Z4JAREAusG6DgJfbyP/HEE26BEL0IVGx9IqrzTKyMlML2rmVbZy7Ja1MwwsIdron5snQNr/F2GG4j4ixdutT9tIbJOYU6KNZLM294ixGGm+jY+vpW+XDZWvebomJNEapKQnLtjImyZnu9fLu2RnYr61coabGEndD55Bert0ijkj0vUcYMrJQzxw+VcvI2DyhSDABBB+a7pDvoQXINcOx9ZeaB/ngKKQ9TJ7O8rkDrNmD2ID6xLKYT8BGAABRKoJAtl1h98jSiam1mqYV7Iho1ufzrnmb54McAsIha1eDeUZk9fYKs2Fwn36yvkXoFoULNb+ZxOn9VQvts9VbZo9ylkMvo/uVy9rFDpUIBw/WZ2y5essRFcRJT9AFEBC9AB9IfjnFDwGLJivkx39HNdD6Y5MVh/gPJkNlfz2IbhI9ymLwfaagPfxCBPtMJ+PPPP+9eNGxSkPkxFtdwP0f6Wgp1ICD+uLowbx6Z2TGFimsuFlZ+wwoS2g5BAIsj4cXd2QX9/Jw5OvV61R1j8Zw3wBCsj4JOEDxgkY4AVj6SF2C+oDwTXFYoyX9YpDPxgbXoBfmSHLLhbod+pljTyhB4wHCaUoSjbrk6rtzmklgYC0AVsIgCxu/Ayc3gt4DIg1VT+JMfu7IKDDehG+1Sx0AznVh5vemmm7o92c6WQwYMBVAMS+MXHeyVZ8JLrsOoMY8jSX3ooYfk9ttvd9k37uheXkBi2nSBTqTJvxQ6DQAKrkZIrgEYsRNwyNValODhwYhWBlBup/9EVgRQAKhPRYVbTXnggQfkwQcfdL+TZGaBnvAuv/VmjwgWxvPog5XuSt6kj/gNUVB20KCBGkGPcWDBb2xasf8/DisBjCyRqKS0RMEb7+rsaI7JguVrZZd6MZ0eX9VPZh03XJas3SHLt9ZKiz67QCPjGaOHSH8dmMWrN0uNuj0Anzi4j5wzYYSUKbextgUw52mbRHBcjZ8kwk8MKK/KSFgBDE84VLCQvH+R25nwGNwBwucTa/ITQa6TdjQo6RYXl0ipdnDZjgb517nvy7eN6l7KOVdPGi1/unK6PPHJMnnj2zVSoxZUGmqTh2ZNk0lDquXf31ooS3fWu7Titunj5F8uOUX6a+oEZxlF+G5Gm/Aq3IXlBxaeP0i+HLJLZgtKMHIkt2TOBpYpyDWUHqSWRR3tn1SWarQtLZIyxau3+l95NNjxk9QIkFS/U07XES2QduW7VFStIsIvKNUt1DWrehdJcViP9bm4m6U6vhhlcI1Pvh8OWEiPAYYYOH7xxT9PatC3tFgmHTNMijVZjatbr6/TPG5DjaypbZQmRauYH8ini2Tl9kb5bstu2aUT9VAoIlVlJTJ+YF+X6NpzTezY/7TSE9JjLmmS63HZygZVkkrsBbJoXY08/PYSWbazSVJYTklYtrTGpTVVIMUZUq8oTElZYVh2tKYUwKRceuwwefDiqTK6X5mbkCM9BUhX0qMWhvgjaiVbQsyqVSKK3MTqSrn0xJEytBeT7rSsbE7KHr1MJCRKsuBSp4nt9iY90vTipAFlcvXJY6WqDy9ljwxIvvQ4YN2TYF4Kln2KwnLZSaPlmimjZRSza4DS1KNdDyhYIxPucj0/vbpc7j53iswYU6X89duo3uMu2R0hKQ0xuXYWQuYe0hSjXd1zpyxYs0W272mUZlZUVTNWLPjt5JjqfjJjwlCZPLivlBAAFG3WFnjCkZQjDhiNBYCR4yPBX6Jfu2bm9c1tsqelRZNVPaNAsrund3GhVJQVu40ohcpz3Ml+C+78fw8YEjRItzPd1RMko1iNA1RVMqUCUPSvmluG+jIoddx9ROU3AezvWX4j0v/7laOA5SlHActTjgKWpxwFLE85ClheIvJ/JV1SNCz2XaIAAAAASUVORK5CYII=;" vertex="1" parent="1">
          <mxGeometry x="380" y="80" width="76" height="85" as="geometry" />
        </mxCell>
        <mxCell id="HWMUPrIcRq6GqUg2BPiB-7" value="" style="shape=image;verticalLabelPosition=bottom;labelBackgroundColor=default;verticalAlign=top;aspect=fixed;imageAspect=0;image=data:image/png,iVBORw0KGgoAAAANSUhEUgAAAFcAAABUCAYAAAD3XKvCAAAAAXNSR0IArs4c6QAAAARnQU1BAACxjwv8YQUAAAAJcEhZcwAADsMAAA7DAcdvqGQAABzVSURBVHhe7VwHeFXFtv5PLymH9JBQEnrvJQFCUZr0ZkFUsGB5elVQuehVr8izv2u5oIIiKKIgVZEWurTQNZQESCBAIL0np5f91ppzAgEJnEAC6Mef7HP22bPL7H/WrPnX7D0jkwi4gxqB3PN9BzWAO+TWIO6QW4O4Q24N4g65NYjbUi1wlpxOF2x2B+x2u1h3uXiRRBpDLpdDLpNBrpBDpVRCpVJCqVTQdhlktP12wG1DLhNYVmZCTm4RsrLzcTItAydS08Vy7nwuSkrKUFJqgtlsEST6+urFEhJcC40bRKJJo3po2CACdSJDER4WhKAgf2jUKs/Zbw1uGblshUxUQWEpjiSdwuGjp3D6TCbOZeQSuQXQ67UIDTYI8gwGP+i0amg0aqjVSjjJiq1Wu1i4QPLyi5GbV4TCwhJotBrUiQhB/bphaNqkHtq0akiEh8Dg7yus+2bilpBbShaYeCQVe/YlYd+BZJQQQXzzkbWD0bhhHWGBIcEB8PPVwcdHL4gtr/YKhUK4BofDSYsDVpsdRqMFZUYzism62cqPp5xF2ulMQTrv06hBHcR0aYmYzi1Qt04YnePmNDU3lVwmZC+RuWT5Fhz44ziRpkGP2Nbo3KkFGkZHIDjQAK2wUJXwqVVFOekWq01YdPq5HBxNPo2duw/h0JFTwprv6R+DYYN7IDjI4Dmq5nBTyOXGKCMzH59+vhhLf9kqbuzJ8UMwYlhPBAYYhEXWFNj9cKOYRCR/PPMnbN95iKw3FFNfegh9erWHXqf17Fn9qFFy2YoyyX9u3XYQS1dsEVV46KAeGE2khocHefa6eTBbrEjYcxQ/LduEo0lpiOvWBqNG9EbL5lFUi7SkMjw7VhNqjFyLxYaDiSewaMkmavHPokvH5qI6tmvTuEYt1Rvk5BZi828H8euancJXjxgSh4H9uiIsNOC63FFlqBFybWShq9buwrcL1lKDpMW4BwYglhqTgAC/as38jYBr0SmSe4uXbcYWqlmxXVvh0YcHUeMXWX15ZHKrE+RfpfkL46WOPR6X/vHSJ9LJtPMSaVhP6u0FzqvRaJYWL98k9ej3jPTwxOnS+cw8T+qNo9oslxuO/IJicgMb8cPiDRg0IAb/M3EUggL9b5uIqTJwTduZcBiffrFEBB7TXn8cjRpGisjvRlAt5PIpWPh/98MaxG/ci9HDe+PhBwcI7fpXAUeIv1Mb8X+fLYTJZMWUSWPRhSSi+gaivGohl6oW5s5fjTXrE3D/6LsxZkQfCk11ntS/Drj2pZ48h2nvzRW/Jz13P9q3bXLdQUe1eG621oVLN2IgCfR7R/41iWVwp0/jRnXw2iuPUCBix1dzV1I4nuNJrTpuiFwu6T37k/GfGQtxV8+OGDumL6mDvyax5eD2oUmjunj6iRHIyMojV7dOhOvXg+sml73J8ZQz+PCTH1A3MgwTHxsqOln+DuB+jNguLcm99cba9buxhAIgDoiqiusml3uh5v8YLxTC61PGU9wefturgqrAl2rgiKE90a9PJ3w552fRJ1LV5um6yHU4ndhL7mD33iN47snRaN4sypPy90Itgy9efPY+hIbUwvwf1pIhlXhSvMN1kZuVVYDV63ahVcuG6B7b+qZ14d0KBJJOf4EITj5+Bpu3HoDd7vCkXBtVZoV9z45diTiTni2674Jr2s9yTaSGUyIdKvE3/75h8egt6Hr0F0N6t3PHZkJqZmbne9KujSqTW1JqFBFYC3IFHds3pSim+jth2LddWIjQgvfXouzttbDlW2AnYm8WweWX8PXVYlD/WGTnFGL7zkSRL29QJXL5pKvXJeDU6Qz0v7szwkICPCnVh4rEOiUXrC4nbGlFKPtwC+wf/QZZmZ1yTekyWjzH1BRk/CfJIJcp0LZNIwqJ62AVucPMzDyvCK4SuYVFpfjux3WI7dwSnTo092ytPgi6mFgi0JFSANu6EzDO2A6tzhdyrQLmWZtg+WonXNSgOknkO7KL4So1u91FucuoTlQ4n7+fDwaQQaWePI/d+5KoUXd5UipHlcjduz8JmVn5GHJPdwTUurF+g4oWyn/kUeE022FJOAPrrF0ofmYhjFN+hv2LnXBsToHM7ISMCU3JJP8rwZaag4I3foXp082w7Uwjkq2iYNyMVBPL5cqSvln7tqYGnB9HxW/aizIvAguvyTWZLNiRcFg8su4V1+6GNS0fzwvT4CSyzNklMM3eCfOLy2H5cCPsNge0D3WB/t3BcHaKhKRQQTOwHXyf6gW5QgGFViusxzRjB4z/WIqyT7fBkVHCbV91UetGhdusHR6EmC6tRAfPmfQsYRhXg9fk8lPVPw6lYFDfGLJaP8/WG4PbagnFZJHv/Qbra6thPJUFn9kTELjkCehfvgu+I6gg83Ohah0IzfR7ILVxByvqqCCEfTgGhkVPwWozw/lePGzTN8CRZSZ1UTPBDPeQdevaChqVCgl7johng1eDV+S6iIS0M5miW3HQwFjPVu/ABHImLi9lPqfYlmNE2ZS1sHx/AJpHuiJi91TIBtWBOtQHLgXtoyStOedR+M17BDK9AvJCro5EnpysPlALeZ96CNw8GZoXesO64iAsk1fClU4WzCZ8CS7+dpLP5nRRuNRo0ocn5drg9yDq1QvHwcQUmC02z9YrwytyWTinnExH7bAgr/oP3Jmmqm6x4sjRJOzZt49kTI54maMinLllML23Htale6B9tDM0U+8GovhpsFqkc0vtIpdROncHSt9cAfPry2GftQ0kIQRXSrJQJX2rQ/2gfaEPlE91R9n6AyTb1hDBxRfy4YZ7PTcvD7t270bqqVMX+gu8pxbi0T8TnJtbiGwytqvBK3Jt1JAcO34WDRtEet3rZbPZsHHzZrzx1jSxrImPp+pboaTtTjhWHoVtwX7oh7aE9vk4KOr6Q0Yyy5qUDnP8EaDIAldKPuxr/iBbJSL0GpSuToTtWCZcxVZY4pNh3ZcGB9EjC/eF/h99oJ8YB8vy/VQT9gEs2y5ALh6xr9+0Cf9880288/775DsTKRvclFYNnSigYOWUfv7q3ZFekWs0mXGetF19qg5azZ975i+1ECKWbmLdhg1474MPkHgoEblktQG1al14W4ZlkzM5F7IFB2AttUM9bRCUdQxEoBymnakoe/YHGJ9YgOJxc1H8+Dw4T+VBN74nNI/1QRn5/oKn56Bg3FcoeXIeqYoFMK1NFBYuD9bDMHUgzPV1MP1CxB3LEdYv2BPZk8FKtSkrMwvbt2/H2+/8LzZu2UJKxd2wVtjxqmjWuK7oX8kgTv7sfi7CK3Jzc4uEtmSXwG8VVgb2reczMjFj5ud4/8MPkUdVMCIiAq+9OhX9+/aF2vNMymV1wrQrBcUnzqHWp/dBXa8WNVIkr05kwfjuGrIwGbTP9YONokFZh0gE/vQsZD2bQtE2AhHLXoSsd1MqFCPUE/vCptXB+N4qWBNPsyeGy1+J0HcfhCyjiCz7MCTzxdrCcmrUyJGY9Nw/UDcyEieOn8C06dPx35kzkJ+f7ybq2txCp9OKAIrJ5delKoNX5GblFIhr8psylUkw9suHjhwRmf3mu29RWmZEz55xmEZVcNTw4eKlCwafx0UZsmUVQN6+LtR3R0EiV0DmDIlchctkh75hbfg8FYegVc/DQIpA1iwYsmITnAVGKKIDEfLvMYj4ZRL8X7gLmjZ1ILeSW5C5b0VOlqpuVwe6DtFwbT8NV6FZaOjyym/w88Xjj47Hv159FR06dEAukTp33rf4dMZMHE9Nhd2LflsupIiIEDKkPPGaa2XwznLzisU3SzAOCS8H+9JtO3fgo48/wdbtO2iLTFjI66/9C3169aIGSkk3796Xv2Q6Ffwe6wHDjPuIrABRYFw1FU0jIYtpANuuE+SLLJD5qCClFyH37RU4P+ZLZI2Zhdw3VsCVlk9ppHVdFHRs+B0gi1a3qkvnAPlfGRwBOjjJ4p3nCmFLzhQ+mY3SnQUZWZ4Ofe7qg39TwfeIiYWDQuwVv/yCD6i27UpIcCsZse+VweSGhwaKTpyr9ZJ5RW6Z0R2N+OgvfeWHM8AZmTN3Hv799nRqhROgUCrw4AMP4OUXJ6FenTqiO9Jt7e4D3b6ZrKt2AFRRZJFKzgKlkSuQZxqhSyokS60DWYgvpFMFKJm0COpdZ6Hr1gS6XrQczUXpsz/CcZzie18dZHHNoEorhPN0ISQLk0i+l6xX2ywcTqoFpsTz1AjQjbJ38IgVzgH7/yaNG+GjD97HqBEjoCTCtpFhvDz1n1i1Zo1QNnyuK0Ehl8Pf30c8/rma1lW8RfCsV4qduw/jZNp50cUYFOh2DXxS9qkzv/gSX8/9hgrAiBbNm+PJJ57AIw+Ngx9VP37zuxx8jChjasGNs/fAOI8KItQXinB/IsWJsm+2w/ZxPEC1RPvmMNhr+6BkfgLsRzLh/+5wGB6Lhb5fUyjb1YV52zGYcgug6hwNHyoI00/7YN2STC7ACl3zSBQ9toAs3gRlZhFkVNssKw/DejYH2phozgj/C6viWqjT69G2TWuEBAUhPT2dwvssHDx4UJBfu3Y4GZSPyPulkEhinhJB1egRvYXRXQleWa7V6m4UOEIpv1BhUSHmzZ+PhYsXC73YuVNnTHn5FYwkK/D3owhOlHqFUqWfcqMDls+2wvb2Wsi+PwjjtHg4j5E/t7tgO54NI8lb7TujoO1aHwqTDa796dC3ioYmpiFkagVZuQyqNpGQtyD3kZgBmdEGVdMwGP4zFnaSYvbULJYqkDvofEv2wXU6F7ZF9L38d6gpP+x3OfvUdlJ+OG/u38FELLuxlya9SNbchIymAF9/Mxc/LlxE91kkLL0i2L+z3jWbrTeuFthKmVKuDuUoKSlFUtIx8c6C3kePAf37oX3bNlSKVFUp/QqFDeOs3+D4ZCNVUTsFAC4od5xE9oT5kFkpI1wN841wUgMkxjrQWeSSXCxsYxfhXncIL02/iCNnQRlFemWQkxzjiM7nw2HQDGouqrWSrqV/8W7oxnW+eLOeDLKhlJ/dlyy4R/fuwqWxYeTl5WP3nv0U/OQKO6lIId8bWza/SHJpyqXwilwVxdJ8CnbewiAJfmSdrVq2gC9V/1Ii+uuvvkb8+g3i1SD3LpzlS0/vUFGjNbQjZM/0hr1ROBT3x8InxJ92lUPdgqogWUHR09/BtC0VNj81VHENUHLgOP1OhmSla9tJru05CceBVHIJ9SH5aWA9eh7FE+ZAS0pC1bQ2nFoFVI2CoX9jCJQPxUJHGlo9uRdpYF9PsZTj4i9eY2P5adkyfPLf/woLN5Auj4vrQaFuXUonC3fvKsDtBjfiatL8f3YZF+GVz+VXQU+eysBdvTtckGPsq5o1a04hcRhSUlIoyMjE0eRkoQxCwkKhp/TytwXF5elDSz5SPaglbNTKWtcnQzGCCuftQZAHaKHsUJ+srS0cJ3Jh2ZIEw31doKwXBHtSJmyrD8G07yzMG5JhX7IHqtoG+D8/AMpgfxRMWQRtqD/85zwB7QDSwhpyH3zDQRpoyEcrYqJEXzBvEtsrkMFGwLUyMyMDc8nFfbNgAQpLitC6VSuSaxPIVbhdHB9RkUS2WO5+5b7dMSMpKrwRn6vTacQ3D/CoiIBaBowcPgxvvvYqWrdoSbF2NmbNno3PqPQTDx0W/ohvwG3JVIUUtK6RQd+a9G2YAVIGSTwdRW20XUZWLQ/xgZIaOFdKFmTkc5X1AxDw1lBohreDvcwCqcAE9QByPW+NIglHSoOs2bnnDKQQKvBIOh/5ZC5F7u81n6RCOkeSTUUORgyfKncAF8EBwN4D+/Hp559jEbUdJYWF6NO9B16f+ipGDhuGQLLey4llcIHw+2R6Csf5LZ3K4BW5tcQLdZIYqlQe5vIp2S9q1GrE9eiBqf+cgn5976Z9SrBm7VqhGf84fEjsX04wNyQiKxSROcP9YDtIIj+P/CWlSnQDpYmnYE04Ab/RpD19qEALzJBF1ILPE70Q9vEDCKLF58k+ZNEcVLC+Ikn0UG+YDqahdF8qXPzohy9Axzk/2orSWTsgGe10Td540T/yJxO0Nj4e0999FytXUYRns2LkkKF4Y+pUdGzbFnrSwm5DFzm+BNyPnF9YgsAAf+F7K4NX5IaFBfJVkF9ALac7fx64fyjJJ3fu3AnvvfMOJowfL0Llffv3Y9LkySRXDolOnAvH0bfCXwvfoc2hP5pHPicbMuaJ/KmehLksUo8yqvrG19biXP3JKBk3B/JU0rF+WjgNOkhpJciZMBfp0ZNROH0VSr7fCk2QDkpa5FRTZLTYk3NgWXYIel8e9MfXpMaSvzzP3SxWK5ZR0PAv8oiHyJWpKHp8auJTeJMstkFUtNDmXB7saS+5XQ+4AyiTojOO0tSkjyuDVz6Xe8XWb95H8Xgo2rVpdMGXus1QFK8oYTVZcWxMV7JmDdLPnUNWdhbWb9hIiqIM0dHR8PXhRkUGJ1VfGflm+96zyF+xA36jukBO5CmIPDW5DGdaFmyJJ6G9qyVUVifMn62DKpKIzzYid/xsaA3kPro2hHXPcSij/VHr9RHQdGwIF5HiyrXA9MwCyA16aCb3pUCFDIMgcfUls86gtmHet9/ii1mzYKLgKKp+FKa+MgX3jxkjhmXxbsLS+Z7EkZ7brIDSEhPmL1wnhiJ0pqWyN9G9IperNr8QoSFtF9OZbvhCaTGp/MllzH/u75YtWyIkJIRcRClOnU5D8rFjCA+vjaZNmogXikVWDGSJRJxybRKs1NIrKYSV+5P1hRqg7tQAml7N4DOhO1Q9m8G29RhcpAoch8+T2yZX8Pk4aB/sAk2naGiHdYCqHfdPUJCSXQLzB5vh3HgMSgo6WI4pNJRXdyapIXJgw4ZN+GzmTHFPMV1j8Nz/PIMB/fpCreAQ3U3jhW/PcjlOn80ky9+KgX27onnT+hf2vxxXpvwycIMWHRWBtLRMmCwkSq8IrkBMNvlhrQYDB/THKy+9hOGDhyAsJBQBBvJP5c6f9pHrVNDe3x6aR7rBsXAPymZuEU9zxVmig6DkaMpHDSnCH8qxMVA0CYOqTgB0D9N6gwAotEpoiVx1k9p0DAUI5LvN32yDa8FuyO9qDt+HSW2QVHOborvgeVVHLXsYqZl7R4/By5MnoRe1F0qR7oGHqAu/r4BDFJ3pSc9HkluojFgBKsFrgvSttGBhvBTX71npbHq2Z2tFkFwXixu85uSF5EJhYZF0/ESKZDKZeBCCSBTptO5y0pJrknJHfC2d9XtJyn5umWTPMUtOOpiHUThoHystZrtLchitkr2oTHJaHZLL4aSFjrXTNy3WQrNU+OYqKSf4FSmr1fuSNSVf7FMxT5wjvibVJunYiRNScUmJOw9iH3emPGvXxOSpM6T7Hn5DyszK92y5MryyXB7axE8hOEBIPnbGs/VyXFqC/ItL1UAW27hRQ2h5MJ3YKJLdX/ThJI3r99EI+I5pByzdh5JHvoHtl8Mk00ogozCWHZCK+3rPUUP22PfIevw7CibIKMwUrOSbYd54AsbnlsL65Q5oujeBYf5DUDUMgEzhudAFcK3itxd9KD+N4OdL/l/s4mmyaP3yI66EnJxCHD9xFlH1apNaoDD/KvCKXEa9emFo2rQelvx8pXdVL80W/3Iv5IM507xcSPGk0UaxUA7U0YHwnzYYuknk+/IsKJ44H4WvroAtifQuaVZbah5Mr6+GOv4kDJpacCSchYnfbXjlZxQ/9C1kB9KhfSyOwt7hULUJ81xGXIVXPKBrCZ3mvi7rQs8v8VmOi2t/Bhk6du87ipy8QnSLaXXN8XRekxsaHIDO7Zti/8FkpJ3O8Gz1Bh7LqCTbwsAoF3Lyrfqne0Az60HInugKmZqOJJHP/Suln1OBrjoEucUJe/wRlE78AaUfbYQtOZsCjFbwmX0/dK/0hqxRoFvUX6oXK0F5fq5G56Xg8cS79hyBv68P2rZp7C6kq8BrcrmUesV1EM+OVq7ZKVrba8PD3FVvgNNoITmj4P6EDrUR+s4oBMx+hNbrwUE34EMht4qMxKWTQzWgBbSPxkJNYbPf3HGoNXsslHHRUAWxjBLdPWK5IugywmjFque6VQC/2Zmw94joBuBHXtVGLqNp47pi+NAmkmU82UR1odxFiDtnUK7YXTBNCjJt7ePdSFrFCHJLfZzwebkPAifGQtcyhHZyH8PRHxe3N0V+PTCZrWS1h0W/Qp9eHcQ0BddClcjl/twnJwxFdo57sDSP7612MFce8+JVzqAszBfaF+6CYdIAGJrV5RZOkH+hUMpBqyIKY6arEVxLz2fk4rftfyCuW1u0ah5daeBQEVUil9G6VUPc3bsTNv12QFQT79xDVcGVlv+YQFoo8lJGBUD9Ym/oJsQIEsWHh1y31fP/xb/qBLvCBLLaouIyDB4QCz8/H0/K1VFlcnkCilHDe6KgoERY7+U9ZdUK5ohJo1yypch05HjJNVyNu+omllGQX4LlK7ehTcsGYtS9t6gyuWwlLZpGoWePdsL3ppw8513j/BcFPyBYtGwjjCYLRg7tWWnf7ZVQZXIZPCsSx9XcbbdgUTw5e4sn5e8F1rU7Eg5h4ZJNwh2wS7xa/+3luC5y+QItyamPGNJTWO/CxRsE0X8ncFuSfPw0PvtiiegNfPDeflWyWsZ1kcvgp5/3je4jZtj4ZOZiUcJ/J4JZEc39fjWyswvxwfRnEBJS9VFL100ug6XZi8/eK0b1fPHVCvyemCJa1r86iopKsfTn38SkQ1MmP4h6dcPciqSKuCFyGcFBtfDS8w+IPt453/6KlJT0GpJnNwfcObX8l21Yt3EPBg+MRe+49tfsQ6gMN0wug8ekPT5+iJgq8OMZP4kJ0/6KBDOxC5dsxJzvfkU3MbC6jxiiet0gEqoFlDFp/aa9UpdeT0pD7p0inT6T6Un5a8BssUpfz1spNWrzgPTyqzOlouJST8r1o1pnZ+JT8RSC7/1ngahKk3mmjXaNa3RitBsF9xVkZObip2WbxVRY7Apeen6s+yHlDaJGpr7ihu2rub+I2USHDY7DPf27IjSkeufsqg5YLFaRV3YFPEnn4IHdMPa+vmJAX3WgRshlScZzdi1aukno4PZtG2PsvX3RtnUjoTBuNfiO8/KLsCY+AT8u3oiAAF88MnYguse2IWL116UMroQaIbccpWUmrNuwV8zhyHjs4UEYd38/0sjuN3huBfh2+fXPmbOXi9H3gwd2x9MThyOqXni116waJZfBsTm/U/XDT/H4bccfiKofgXtH9kaHdk1FhzPPh1tdllIZ2K/y25jcD7J2w25s2LyPVIAfxj94j+j4Nvhf6R3cG0eNk8vgS3DHBz8iWbl6h5iImENKnuKP57SNjqotpj1hrVxdN8mE8uTHeQUlwlI5guRpZfk6d/fuiHv6xYjRSderYb3BTSG3HHypgkK62aQ08ne7ieST4rkUT+PCM4I2aVwPtcMCyaIDRHhdVTChPEExj/Q8m56N/QePCfXCk2GG03n79+2Cnt3bioK9Gb7/ppJbETxR5Umqptt2JGLztoNIPJwq5E+zJvXFlKv8EgoPZOapYIMD/YWcY8L5nVgm0WqxiSchxaVMZiEys/LEWLmU1HQxETE/OeDptLtT7ejZo72Y+ZmnPryZuGXkloMvz+O5eGwxz0bHLiPp2GkxtFWlUEChUkBJ36KznFwG98jxMbxwlyAPDHHwaEzxuF9CRHgw2pAq4V47djc82zP3ZtW0X78Sbjm55eBs2GwO0TfMjU9+fjGyKZzOySlAYXGZ0KRsqRyi8pQAPJKTJ4jn2ff4sT/r6JBggxhlw0No+YnJrZ7Y6LYh93Jwttgy+bs8i5dklSxR2CJ9iEfq/JvWb4WFVobblty/A26vePRvhjvk1iDukFuDuENujQH4fxaLG8I3DHnjAAAAAElFTkSuQmCC;" vertex="1" parent="1">
          <mxGeometry x="560" y="110" width="87" height="84" as="geometry" />
        </mxCell>
        <mxCell id="HWMUPrIcRq6GqUg2BPiB-8" value="" style="shape=image;verticalLabelPosition=bottom;labelBackgroundColor=default;verticalAlign=top;aspect=fixed;imageAspect=0;image=data:image/png,iVBORw0KGgoAAAANSUhEUgAAAFwAAABYCAYAAAB4fpBOAAAAAXNSR0IArs4c6QAAAARnQU1BAACxjwv8YQUAAAAJcEhZcwAADsMAAA7DAcdvqGQAABxZSURBVHhe7V0HYBtVtj2qVrEsdztOHCexkxAgpBFqlt5ZINQPoe/uJ/S+LCzt/6X3hWVhCWXpn7KU5VOXToAAoaU3J3biuMuyJcuy+vx7niVHCXGV7BD+njBImnkz8+a8+869970nS6cJ8G8MG/Tx139jmPCztHBN/hExedHJqy5eQ77ws/o/d3Z92LRvO8DPhvBENSLRMJY1rMEybyU6EIJepxOi9YpOTZMOKW9YMib/j+liyI5ZsWfRZJTljIROynL7OWPYCaf1RqMRhGMReEJt6Aj7UetrxvfNS6GJSbMyIf5fb0A0Rlq7CE5UMtmaWVqn6WDWG6GX8kEtDKdmx+4lk+G0OJBnyYLDaIPBYIBB19Vo2xrDRjhv4w93wB/pwHrvejR3urCxvQ6tYR9iMT1sQozRYCaFyDY7UZo9ChYYpYZdbiam2BJbF4K73knDyTV90mDVnlr4ogGxbr00YAAdkTA0vQ5l9iIUWfMxOrMQJbZc5Fsd0jgmdf62wpASruxV/gtG/WjuaMAK1xI0BZvQJiQFRDqyTTlCQrFYnxnlzjHIteaqszKE+EyzHUadoVeJ0LQYQtJbvMEORHQR+azD2tYa1HS2wB8LYq23EQHpJZnSmDZ9BnYvnohR9nyUSwPQ4reFyQ8Z4V2XjaHFX4/FzV+JVVehMxJCVCwv31aCcY5JYnUjUOIoEZ3undgBQe4blZfOSABL3RvgivqwpGU96jtaEZIGcZod2KNoIvYsGIdCaVTedTh1f0gIj0SCos9NWN44H+5gC1wBN8yGTDgMBZg2ci9kW/KQaXIqhziUD8tHC2tRuAM+/Ni0Dos8G1Hj8yBoNMCZkYWDCsdjp6wilNqdZD1+1tAirYSzi3eEW7De/T2q2pahPeyFAZkoyhyHMc4dUWgXXTbb5NmGL/xPPF5YpMcvPezrhkos8jVhlc8tjhsoNDkwe+wu2NlZCKfRNOTWnjbCo1oIze0rsKLpLbFurzgtG+z6YkwrOQIOSw4soqNyu67C2xB0tK2i+QtdNfi8uRprfD7ozGZMFUufM3pHlNocXdngEBGfFsKDQnC97xusbHpHaafFUIiJRYeiLHtXGCRk+zmCjx0Rh/pI5bd4v3kD3GLtU7NH4qSiMdgtrwAZYu1DgRQJl1Av0Igq19uo8/2IiDiloqxpKM3aBzm2URLmsdLb3qp7Ah88ICHkJ03r8XpzjWi86LvOhONLK3BhyVgJT81dBdOIQRPO0/yhWlQ3vygh30r5nIMRzr1Qlr8vrMbsIeuS6QZD17BY+hJPC/6neiVe8rQiIPJ38YgxuLR0jDh3MZo0PsqgCKdz9AfXY53rSbT5K8URlmN0zrHItU+EySBavX1wvRkoL41+H97xtuDatWvksx7njijDdeXjYNFLlpomAxo44UJ2IFSHdQ1/FeezEhbTeEwquRC2jFI5uB0yvQUiwsY/GxpwzsplcIej+P2Yclw3djQcRmNaSB9YfCZtEwhXo65lnlj4UmRbJ2NC8VzYzKPk4PZPNmGUxziysBC3lk9AqdWCv9ZsxL1VGyVDViM8KWMAFi5kB9ahsfUeeDpWw2LZEyV5ZyLTUvFL4bob1HW/WPdzYum3VtWgIwKcN6oYV40rRaZYeirop4UL2SIjTe558Pm/FvkYi5F5p8Aur780sgnJf2EzGTBnRDGurhgrfkmPB9c34PY11WrYIBX0i3BNCyMY/BKB4LuSjmcgx3407JYdoNMb4iV+eSDptOaT8vNwaFYW/FENLzT64BLLH0Sc0Y0+CSfZnf4P4PXcJVUIwm47GNnOg6RGA5P/7RW5ZhMuKi/BTGcmqv0BnP7tOqzpCCI2SNL7ZC0abUR7+18QiayEw34wSvIvhsFgjR/9/4FpWQ7cskMZSqxmzG/14pH1TXCHRNgHgV6dJg+1e29Eu+cBwDAReXkPIMMyUyw9/dbNe8UkFq6srMSPP/4oEhaMH+kZiTDN6XRijz32QH5+vto3FANQTI7+VLket6xuxgSrHXdMGokjRzglqhnYvXokXBGgtaCxrkzozYM96wbYHaeKhqfHunl9bm+//TbeeecdRTAJ37hxI9asWYNwOKzKkTyzpNjRaFR62datKjMzEzvvvDOys7MlerKoBjjttNOwww7iZ9JEPuvqDUfw++W1eHR9K+aOK8Ltk4rgFIc6kHv0SHgs1o6Otv+E3/8KdIZD4cy9F+aM8cqZDBYkbP369Vi9ejVefPFFrF27Fj6fD16vF8XFxSgoKOiuPF+5FRUVYebMmSgvL1dktra24ocffsDy5ctF6tpVGTZU4rwNGzao6+Xm5sIkafn++++Po48+GmVlZaoH6CVrHCxI1at1LThvcS0CEQOenTEKvy52qPnU/mKrhGuxCMLB1xHwXIpOsSxHzt9gtR2VkpR0dHTgzTffxLPPPot169bBZrNhp512wm677aYmeXfddVfsuOOOipAEeQTfc1+CKFaXBHNLIPEIgUAAn332meolnZ2dePXVVxEKhVRDT506FZdffrm6Z/L1BwpPOIRbVzfh4bVe7OzIxLuzSpBl6n9svlXCo5ENCHqvQ9D/AvSWo+HIfUYeePBSQiv+xz/+gUceeQQjR47ErFmzcMABByiLHjFiRLxUekGSKU3sBa+//jo+/PBDZeF33XWXatjBgusIvnJ34pJFDfiuJYqHpufg3LF5tIx4iT5AwjdHVAt1fqB568drLTXQwuGlmlhT/NjgsGLFCm327Nna7373O62pqSm+d/gg5GtCuLbnnntqc+fOTfl5OiJR7Zpl9VrGqyu03T7coHmikfiRvvETjYjF/IiG3pXXWhgzjhTLHpdSFyR4PiWAGlxfXx/fO3yg1PD+dMSUmFRh1eswPdeMHLMRa30RvLExIIYbP9gHfkp4ZBWiwY/lAp3IsJ8mZKU+CJ942HfffReXXXYZXnnlFTQ2NqrIQxo9Xiq94D0pK6tWrcJDDz2Em266CdK74kdTAw3osLwsVNgN8Iai+FedB3X+vsNYYjPCOc6NyBLoIj/AbDkKRvPecvHBO8pkkFir1QqPx4MbbrgBZ511Fs455xx8/vnnysnR8unoWG5rWwLJn5OPs/HcbjdqamrU9uijj+KUU07BueeeiyeffFKiLX+3400HONZy15RCNRG90C3Rl79/oyzdTrOr4h2IeK9EtGMedLaLYc6+VeJuTv6mBtFwFSH89re/VQ7zyiuvVKRUVVUpS8zIyFBRC2PnadOmKQtifZKlLPHeaDR2x+jJoHNkz6FzTEQ6bGBGJbvvvru6NxtgzJgxePzxxze79mAREwM1vFiNETYTbp3swJyyLJj7aNTNCY+uQ7i5AjFdGQyOu2C2HSslUp8ETib8+OOPV4Rx36JFi1S4+Omnn6K2tlaRz3owCWK8ncg2E+TwlUkQ98erDbvdjpycHNUQBENMJjwzZsxQsfg+++yDwsJCVf7ggw9W8XjaCJd/l31bjwcqgzihxIp5uxcgJ6N3vjYnPPwvxNyHIWKYAVP232EwTVaFUsWWhPNhE4RRZ2npDB25j6TX1dXh+++/h8vlUmUS4HGemzifrySQiZHD4VBlSDjDP4abyTE9r5tuwvkInzX7sd9HjTh8hA3zdsvDKGu/CZfU2ftr6Ds/QtR6OoyZf4LeUKIKpYqtEd4TWB02AvWcupxAvJoKCcIJWjylg0T3hqEgnFjlC+OUr1yobY/goV3zcNwoa6/X3iQ4MR2MwRVSOANG0ywhe2gSkq2B5CU2VpYpeVZWlpKKxEZ54Mb3HDshgZQWajejD0Y9iV6SaIzhQKlFj/3zTGjq0FAv5PeFbsI1XTui+hii0jgxNV6SHgtIBrWaEclg0dbWhq+//hr33HMPjjjiCEgig0MPPRQHHXQQ9t13X5x//vlq6IBjNIy9E2Ds/eWXX6rz0484V8Jku7QzJ6F7g+G/BEI3YqG3gODLiOmzgIwTYDBOjBdJHZSHb7/9Vo0KUp+Z0lMC6PC27H49dUc21IMPPohnnnkGS5YsQWlpKaZMmYIzzzxTOUlafHNzsxqvWbZsmfo8ceJEZe0cX7nzzjtVZHT44YerSCldiMY0LGnrxIKWMNqjGo4Q55ll6jlSURounRCxjj8C/nugmQ+GzvEEDPqieJHUwaiEhL/11ltqTIWE77LLLhg3bhzy8vJw7LHHKqdHsrdGOGP0Bx54QJ07efJkSHquxkOo3zyf1kzrpax8/PHHePrpp9WxCy+8UF37D3/4gyKbveA3v/mNcqrpAmd+PnMFcMHCNqxpDeP7IwqxU3ZGj4ZDC9BiWlSLtV+uxRqMWtR9mhaLRlU7pAtibZqQronGapLoaBIPayNHjtRKSkq0sWPHaocccogmEqGJ9Wk333yzJr1AE4epzuU50gk1aRzt/vvv18TS1f6eILquzZs3T5WXmF57++23tdWrV2vV1dWa9DRVj3RjuSeo7fFevYanNmqL3YFex2q6JUULvS8Z5teISSiotxzbcwsNAhz/pr4ywWGkcOSRR+Lkk09WEwaMn5n00IppoUzFn3/+ebWfkwpffPEFHn74YRVXc1aHmSrrRue5NVCq2AtYhlksP1PnOd7OCIlaTv1P5/O5glH8s6YTG/0azptgRaGl50VDPxEb9W289NVFgXrKBOfll1/G4sWL1XuGZwwVqclMvamx11xzjdp36aWXKofI8HDBggWKNDrGxx57DJdccokirTdQTjh0MGnSJEU6NV+MS92X/iTd4Be7JOqg3arl0L2hi3BVpg/3mgaQKJJ5xx13KEdGAgiGgXRkTO1PP/10nHHGGUqjmfhwZoiaSw2m4xT5UY6vL9AnMO5n2Lh06dLuew0N+FWwhKX27DCJ+NGonNA1X0ja+2ikQePEE09UJL7wwgu4+OKLcdVVVymHxlCOjo9WyC0BWjgHnSgltFomQhxtpKPsC+wVzDYZm7NxhyYkjIM8x1VBWXsviBOe1DK9l08Je++9t7LY66+/HuIslV5zGuzWW2/FMccco7SdG2WD03Akn9ZP/aWlUg74vj+ghqZTp/tE3FCivRt4nOWkevVRPmVw9I76+sQTT0CiCVx77bWq6x944IFq+o1Ec2qMMXWyxZN4+oKBTiAMC+lSRYoK0ZU09owufjWDnBAfixgiOUkGoxVGGYzDzz77bFxxxRVqyPa2227Dc889p2Lu6dOnq8EnSs38+fPVK8nj/GSy7PQElmED8Rz6ADbYUCKxmsHAOYVesMnC4w3D1H5bgOSSGIZ/FRUVSrM5ZsIEqaWlRUkQEyZORDPq6AscZ2FD0XlSrjhEO3QQA9CR6FifCrHpeNxo9Mp6em+lwYLhH8PC/oINcOqpp6oYnRrO+JrRyu23367GS3oDh3zZWxjrc+OCI8b56Zz16YZODy1+XXmnXntC/O5soS7OdToO+mwa+EkHKB8c12B4xqiEKTpDvL6kgeRwPcmoUaMUeRz3Pumkk1R83RtxXGx03333qSEFJlj0Gxwipv5zQiKdus4nCMhzRGij/ZA6lWkyhgxGP4M+uABhLYiYcapkemPlcHoqllj0Q2ngukGGaYzJOalMUri6iiEg35OMBJl8z2VrHKr96quvVIOVlJSoKIbRypak83z2Bk4Yf/TRR6phmEzRZ7A8HTPj+HTqeSgaw4tVbryyoVMydA3njnegIKPnr7JvmoCIeQD3ZGmpNugcf4bRepbs7dmKBgKGc1yCRg1mLE0HWV1drTYSTTBuJvGUkL322qubFJJKC6ce33jjjSq1P+qoozBnzhzVkGwM6jXvwflMOtxEes/MlD2JkRCd8NVXX909M5Qu+MW0b1zUgruX+3HnzFxcNjGz1wWe3YTHNHnwlgrx7G4g834YbSQ8PRaemPE57rjjVFTCcRJqMXWViQ0tn9rOiYSEzDDCYGTCBuEQLGffSeh3332H9957TyUybDwOEfA9N/YG6vXs2bNVksUhXKb2t9xyi6oDM1gmXOkcLSTh1y9txb1C+IPTnTh/YteoZ0/YfIqtdXdJ75ZBs14Mk/0q8QV9Z3T9QYJwEshMkRaceGjeng6R8TfTb37mRr2lFtP5cd0hB71o0bRwjq9QkpL9ACMajr9w0ScHvViWD06Z+eSTT5Smsx4nnHCCygPGjx+vIqFUUeMPY+53LnxcG8VfZ+Tg7Iqu+/aEJMJjiPqegeY7GzHT3jA6H4HBNPg1eMlIEM5wjlpKArl0gQ4wQcyWoIVTKrhxzpI6nAAtm43EYwmw15D0RDk+FhuMCRYliUkVLZ2RCkNNLplguJh83cFggSuAgz5pwGSHBY/MzMEuOeZeCWfFFOQBtVhonRaugxZonKFFAj9yZ/xoali+fLl22GGHqXFqiTQ06epqHJzj1fx89913ayItaiybm1ilGg9XdepjYznpDd3ncu2iNK42a9YsTYhVY+7SsJpImFZbW6vdeeedmjSAJhauvfnmm93XGQxi0Zj2fr1Pw/PV2omfNmqtgb7H2rstnIhFmxBuOxJacCX09qthclwuspL6AvyEhTOFp76yi7/xxhtquo1pPC1WHlpZLV9pjbQ+ygOdJy2G+xNglfmZcrFw4UJ1Lb6nRFDHeT1O3zGkpKZzFJKjjx988IFyqIzhOcZOn8GRS46P05km1rb0F1zWXfC/GxESHb+o3IY/7pQPex9LlzcjnLIS8c9DyHsedBlzYHHeB70h9QwtmfDkdSmMUhjqkSySzTCRi+kTXZKvXADK44loJhlJVVfRDENP6jj3M3rhe56fuB/9wOjRo9UkNAfRnnrqKbU8jrE6h4WZ4fYXvN5yjw87v+dChUOPx3bNxz4FnKONF+gBWxAuAXxwPoLec8RKvLDlvARDxt7qL/ekgq0RviVIKvWVr0lVUkTSmhP7tnYuwXIkmUsptgZeI3ldCodtGfXQ6r/55hvce++9A5pcFiHCaV9vwEs1ERxRZMW9U/NRkdUPf0DCkxGNeDR/y+maRwKAgPc+LRpLfQ6QGi6xs/baa68NWi9TBbX+gAMO0C644ILN6iA9Svv00081l8sV39M/VAUC2pQPqjXLK2u0m1a4tHCsf/PAP8ls1EKgjAOgM5Qg4PtvacnW+JHBg9rIjXpNy6LGDhfkGZUcMYSkfrMHJYPazXS/P5MaCUTkmq9t9GJtRxBldiMOL7HD0E8V2ArhEtaYZsqRieJEvUL6g1Lp1Aii4+IaEg5eMe3m2hGOdw818Yz7Gcdz3pTZLf0E0/tUwAasktj7E1cnJJnHntkGTHEIZ/1MEjfT8ARiMbmYEB3y3ISwsRA5ea/CZN4lfnTgoH5ydSy1kw9Pq+IwLCMWxs4c3OJinkRM3JNO94TkR2DGuXLlym6yuQKA96a2//6qq3D4YYelFHsHY1E8U9uO61c1o8EbwdpDSjFOnqG/2CrhRCi0HJ0tpyEYWQqzbS4cOTfDoHfGjw4cvA03jm8wlGNoyLSeoCNjaMaIgmXoANnF6eQSX7pKbgQ2IKWBXx9kqk9yeR7LUDq4wovSRXB8htdh43K0caChXzLI1A++DsxdtBHfuiM4syQDT8wYI0FF/6/ZI+GaFkHQ/xI8LWeLnlcgM/tOWG2HykMNvsIEyaKcMJXnGnDOafIzU3mGaIzNWSVmoEy/txxsIqk8TjliWVovNZrZKOP3hPXut99+avKZkcuECRPSMmjVGYni9qoG3FbpxvRMK56cOhITM7vCzv6iR8KFciGnAx73RfB3PAeT5Tixuj/DYOzfJG5f4G1JPkmntXJjI3AYdkvHxrK9PRSPcSSSYR39BT+TYMrVQMjoDRLXYIHXj6MWrEIGzLhxYjHOGJ0DmzjigaAXwrsQDC5Bc9MxcsN2OLJugDPrHOnyqY0/9AQ2wNYcaTLhPZHPfYxC0kXw5tBQGwhizqIqfN7cgQNz7HhwShnGZ9oGPJ7aJ+GxWBDtvsfRJg40IF2qIO9R5Dh+LQ/2y/1bKVuiXnzE+cvX4Y3GNky02vG3ncvwqzznoBq3zxkGhol222xYMk6R1smDy/2s6O06OdJrO/1iEI5peNPVik9avLDqDTivTKQrN4vExEsMDP0gnF21UPTwZJhN5YhE16Gp9UWEwo3xEr9sfNHqwd9rG9ApxJ9cnIf/KClQUdRghatfc2iMTKyWqSInfxSnmY9W33zUup4X8odyvd62BfvvAo8Hl65ei4Vt7UJ2Lq6fUIrCjNTmQ/vU8GSwaDhUg8raK+CLtCLLcRAqCi+S+Lz3WY7tDYxIFnrdOHrxIrgCehxfUIK/7DAahRZmlP2y0R4xoLNJqjmjBKOKLoLNNBZu73eobHwagRDnIodmLctwg+Mk89vcmLtiFTxhDUcW5eOGCaNQIPF9Ov4S0iCuYESmdVeMyJsDa8ZINLd/iSr3q/CH6tkF4mW2Q0jdI2I0X7a14Lp1q7HG34HZhUW4adxYTJKkKtUh6gQGJCmbIJleLACvfznWNr8En1i40z4TxbZfoTgn8Qdgth+JIQONnT580FyLx5vr8bUvgJMKRuKaseWosNpgSOOjDJLwLlBG2gNrsbTuMbSHXLIjD+X5B6O84AAhffuJ01uCnfjL2sV419WANTEd9sopweM7TEaBuY8J4UEgJcJp6Ty71V+J1a435LVWuqUOo3NmodQ5E46MApgMXIrw87N2fjWEP1Ow0uvC601VmN/cAJvRivLMPFw9fjKKMgY2RtJfpEj4JviCDajzfo9K13z4wyE4LKMxKnsKRmftAntGtmhg6g4nHeCfUApEo6jxubG4tR7vN65HXTiIMZn5OLa4AnvkFcFuSv8fak8gbYTT2iPREGpbF2O990c0+Kvl4UzIs41FRe50FNvHwGrMlDtuO2vnozaGfPjKtQFL3LVY52tDWDPhV/mjsVfBKExyFsAoSc1QIo2EJ8C/TOxBtWcRljZ+Ke87JU63ID+zDOXZ0zDOOUEeSvRd8T485PNH9DzhDnxUtwyV/jZUtjcjItHWeEcxZuWVYVbh6GHrgUNAeBcisRA8nS1YWvsFasPrxan6Rc8zYTc7UWYfj7KccjjMDonn7RKbysOmkXvxLOp33Jo7vUK0Hz80rcE6vwv1QU5KmFBizcFUZyl2LRyDfIvcfxjlbsgIJ3jpUDSAZl8dan3VqG6vgjfsFQ2NiZVbUWgfiQJrIXLNORgtBBgksuGjmwwm9Z5IdIREJRPfEttUaa7NjooDDEMTueqMdmJla436+bHV7o1ojnTIcU2RWi73GGMvxA7OYoywZcMo+4Y7Qx5SwpMR5a8LBtvQGmzGN/XfoVN6QGvAK11bsledBZmWLCHbAHssAzsUViDXkgOdnkzLFn8hun5bk7M+zNp0QmYEVd56VLaKzzBIA8uBpk4PghKymvRmsWCnhHdOTMkvVz+C5zRv2z9UPGyEJ8Db8U8XuTvdWO5aqX4lsLa9Hq6AR1moTpwWfwAjJgzHFLv6+BdgyDi/Kyb75R9fjTojf5ICUflHGaE08XfdisWKC0Q2CizZ2KN4koiIUfar0+Uy8ZbbRhh2wpPBW0e1KJpEXz1i7axIvb9Jopx6BIREhnCUEPVtDsUTv6shTSD/48eoNIhR08MhTnlcTqlYLxfDG5Fvy5EeIj0mrs3bluLNsU0J3wxSDVYkEA2iM9K56Tvr8kKyST7/6YTgbhcn+9kg/BnITLOtK/rh7m1sxb3h50N4H+iqZJekbM8YvngoRZDm7Z1sAPg/u7Dr2PwWm5wAAAAASUVORK5CYII=;" vertex="1" parent="1">
          <mxGeometry x="660" y="252" width="92" height="88" as="geometry" />
        </mxCell>
        <mxCell id="HWMUPrIcRq6GqUg2BPiB-9" value="" style="shape=image;verticalLabelPosition=bottom;labelBackgroundColor=default;verticalAlign=top;aspect=fixed;imageAspect=0;image=data:image/png,iVBORw0KGgoAAAANSUhEUgAAAGEAAABfCAYAAAD4dql+AAAAAXNSR0IArs4c6QAAAARnQU1BAACxjwv8YQUAAAAJcEhZcwAADsMAAA7DAcdvqGQAABovSURBVHhe7VwJeF1Vtf7vfG+GZm6apjRtSic6QlsLYRJQZMZX4LM4YwVEFPV7KO8pyFMUEJ9YH4PwyeSTqVQQlaHQIgVLLW2pLR1I0ynN1MzNnNz5rX+fu8vN5Q65yc2Ar3+y7zn3DHtY/1prr7XPSUxBAY5jVGEObY9jFHGchDGA4ySMARwnYQzgOAljAB+76ChWd00mk9qGn+cx/V2fH4sY0ySwa5HC5VYXjUgB63P6OLeR10R+H02MWRLCu8X9QCCgit73+/1qP5EwzWbzsaLJ0N8Hcv9IYEyT4PP5lLApdO7rrlKAyUDfp0mwWCxqa7VaVRltjCkStMC51ZquuxfezVRpL+shoSRFl1TVnQxGlYRwAVPTWbTLGQmwHS10bRkkhVt+HylCRo0ENqu13uv1qv3RhBYDBU+LsNls/SxjOAkZFRLYJAXPQhJGSuMGCvaPfaJFRJIxHBhREtiUnmS19o81AjS0WEiAJoN9HY7+jhgJbIaC1xHPxw2aCG5TjREhgU243e5jE+9Y1f5E4KRtt9v7EZGKsQw7CRS6x+NRVvCvAAqdFkEy9PehYlgX8Oh2SAAt4F8F1FkqFC07VRg2S6AFsKM66RoVSLMm+QiYJOmTPdnwgLEvu2bVLaNvpiCPmeBXFxnH1MVhm0jQGmgVyWbwkRgWEjQBo2oBIlSZfeA3+2H3B2EJWORgAAGRl0+kHxDBkgTuW+VLQK4XacIs+0FFmtxDYigdg61+oNjoikgEy1DcUkpJ0FWRALqhVPjLwYJdoRAtkgP2ykej04N3+6rxhz1voaJ+r1zhUcINCitmWz4umrkUyyfPw9RADnLdDjklxJgknJZiNkXXdI6XVuBwOI5N1oMZc0pJoAXQX5KA0YQ/GEBbsAcfdNdiW+9BvFj9LipaK2F2mZHtykSxqwCZJkNoPeIuG70daOxtUffBbcf5JyzBedmzsSRtCibYc5BudQoRdGzRPZMmYrBJXUpI0FVoAkY6DA2K8OjP6eu7Ar34Z3cVVte+g/eO7kMPfJiTNRFLC05CTiANhRlFODG9ADkWhxJqR9CHWk8Hqjpr0evvwAd9Ddh4ZC/a3e2Yll6I0/Pm4rMTlmCavYgeTqzrQ3HpIXL8JMDpFLKEkGTHnjISKPje3l61JUaKBHY+IJ/moAVtgW48Uf03rG7ciHZfDy4oXIxzC+ZjrnMSJtjGwab8vjEBq97JzXrwdDuUaqffjYPuZmxv34/XWrZiR3MFlhTMwaX552BZ4TzY5TKSHfrtB00Ex57M+IdMgiagr69v1NaBgiLcoyY37jz4DJ6qfA1nT1yMa4suwunZM2XSFYLkGouIjvZCAdK1qPukGCpDEoz5l9dTun65qwFd+FPV21hZ9Rf0yRhvP+nL+HLh6YoIInKklAUnabqmESeBLoiF+yNDAmMX6r8IMWjGfncj7q35K9Y2bMEl48/EzVMvxiRLtogxpPFK9IbQlehCXYw9cJ7hRSb0Bjx4u+8A7t75JOq6G/HdGVdhedGZyDFT49XFx8Dx0x3RGpJZ3hgSCbyV2s9oSLuhEQHbZewYtKLG04y7D7+Adzr2YvmE83FtYRlybRLdKApSkYtKmBv0Y7evHr/atQrbeirxzamXi0WcgXSLkTVHggTQGgaaPwy5l77QetBIgq7dJHNAT7APD9WtwVvNe0QoF+JbRWcjz5oeEn70oRk2RMdu2BI1kL1XmsgPXUJQV4jKz7EU4sdzvoBTsqbjvgMv4uWWXdKOETGFXa5AxaRcBqrfQyKBwmdjIw5hwSFtv9i6Db+vegOXFizBdeKrM82SvYpIDCuIDuO4IXxmyTKLCQkiBnFrdFo8Fi46Xi+BJyxmC0rsBbhh2sUoyszGDytXo9NEF9z/eoLCp1wGSoLlvwSh/QFDV855gKyPNCiYBrsHt+x+CiVphbil9DKJfrIQtFCkH84E0cCeH/X0YpfnCP7YvAW/rFyHNS070GTuViTkSU5gJSkx5rY8Sxq6Re/+3roJTeKGT8+fAafQFAnKiNHSQELWQc0JvIXCZ0Q0iNuHDmmy1eLBowfekJi/WCbjuRK/U3BKl+NQANS7j+Lhqlfw16b30OTpQbDPhoDZC4vTLwLOxa2zl2FZ3lKDrUjIWFl7kySC1793Pyr8VfjN3OtwTsa8qK2G5w7xMGgSRntpgp32BiSQlPatMZYVomFPZx1u3fsMJuTnYln6YmQjDX1WD56S3GJ17TqcJoT+Zvr1KHXkh+6Ijg3te7Fs8+24afaV+F7x5Ug32UJn+oMTtH4qFwtJk8DLORfoFdKPG7hw12MxMmxzwCIxvzFJd1jcuHTTT3CopwYPzv4uLi9cFLojOjySiZf9826YRQ6/nX0dFmWdEDrTH7QGl8sVl4SBq1AYSMJgCSDlHxaZIFUJfZfzjFQYtfjEtTAMZSTDH55TH8fuEdegvvPEwMGELN1jhstrgt3vEzcWMFZLzTIT0KWxIwMAF/5uLD1LJuAudPs7JV8J9SvCLfFYouhxUCQMxQK4OikGKGI1slev9KDP4kWNv0389C48W/8PPFO/AU83SDmyAU/J96frt+Hdnlp0WXxCDOVuURmtjwOmAJMlQm7jVBqUHVWXMLO5Yz8a0YIJrgJMSMszLowDs5A3KVgAr/Rhc/MBSerYGypNf5GSgEQkJO2OWKFeohgU6A8EQZMPnSL8l1v2YE3dZolYmlDeeQRufw/PUkLGlv7eZMXEcfmY5izCTEcJlk0uwwxHNqySrPnlOi5JfDRQTAzalzhVbOrah59VPI2dHQfwtRMuw49KlyHTFD0R0zCJ0Mt9nbh5729RFMjGL+ZegyyzQ6zKKl3vL3TOCfGWMpImgfFvslGRupLylI1fOtLt68PLR3fijv2r0OCtRYbFBKc5B58oKMOK0jKUuPLhlGSMLqkFPXitcS+eq3gDbe696JJj3l4Lrp5yEW4sPkvIKJYYnhYhAw+NMVqk0g/SFxpkj9+NB+rW4z7JuN3iUk484Vz8acpy5JnSZbKPX4dFSGiUa26tfAy9fV341czrkWNyiYuTflv7k0Dhp6WlqW00IpImgRERSYg30USCDdBltIpA/95ZgT/UrMe2pg+wIO9EzHFNFc0+E7PTC+HwaI/6oRh5r18+gxYzGgMdWN9UjlcatuD9tn1od/fim7Muw6W5C8VCCkJ+PSEFx0jY3lGFczbegqlZ2bih5EpcUXwa8gJpylWaE/g4PixqMrlx28EnpR9duHfWChSZnHBLH6wRt1JWDFU5SQ+ZBF5KEhgZJUMCzb7a24bVzRuxqvpt5NgyVZZ7wfhFmGzLhkOZMH07NShUb2ije6eck0wIfhlhvWjtjo5KPH74bezq2Yu5mVPwvdJLsCh9GuzinBL2LETC/p563PLBE7io5DR8Pvc0pIkLCsi4zGw0QSUkoVlIuPWAkOAVEmbGJoGgO9JvaEQiKRKSmQ90pYwa9ncfwcrGNVhf9x7OzjkZX518HhakT4KD2SR/xPUQ2q+rz5AQtGFTMNRyRkwUIK+p7m3FKy3v4bEDr2Bcdia+P+1zOC99tmixTQQhd8YQJEfMqckd9KLZ3YYsRyYy4BJ/TnLkQ87FuPUY6PYVCQf/F92ebtw74+vIsYi2B2yiUGoE/RBvXug/lQ8AiWb6fpC+HPG04dcNa/FHcUFXTz0fd8xcjlMzp8Kl1nmotZx4OfCQcNnHsH6yg6qT0nk+pOcgSAbDyhJnHq6ZeA5unnk1Ko4ewa3lj+HdvipYJYkLzf8xQTm5YMMkR6EkbEIAOysHKaMEtypQCn0SG3UF+2D1B6VwHUos5KPyV4gnt6RIoNEMmAS5ls95V7VuxOaWnfjOtCtw08QLUWDJDF0weGhLIFyi9f9WuAR3nbQCve4A7ixfhV2+OjkTQxoCCpmur1kiseq+BnT4u+VI7OujwSfjq+1rRnlrPTL8WbDQ+uS4PyIyIig3XaIhaRLigWdNVEEpfpHU+tadeLJyHZZkzMJXC84WjXPwAuPiIUBpqnxoy7bJzvIJp+KH0z+Pw70N+HnlX9AqAmZ3ucqpzOJY15kEyiHR+turX8WNBx/Fow0b0SuuKSmY7aiRsLqjpx1n5M2C02IXYs2iIKFOhUG7oJSQkBDSBgfItxZ6/L34beXrKLBn4ysl52GiPUt6o2gyrh0ijtUiO1x+tkvDFxUswIVFi7Cp4X283LxDBiepE4mQi/TweS1dBuP8Vw9vxd+btmJj815JtpIjwSfXr2vfj3F2J0ozJ4gliKbHGVs8BU6KBLqieFERfTWbCoivfKFuC3YcrcAFBUuxKGOyNJQa4cdDrsRGfAY8MS0Hz1SuRTN6xQj43Fusr1/zIi6xju/OvRxfnHEFriz5pEzMYqVJoNXeh6cr1mFa9gnIk8SRcoknG2JELCEog2UzXbYAflf7OubnleKSolMkBP2wc0zsJdaUDhnFlIICEXRApkW+rDUzrRinZc3Drt5qrKrZony0alP1jH00rDVotuAbeYtx54RlWJY1Bw5L9FXQcKhapAKv1PWQWLnL4sPp42ag2ClWPgCMjDsSUOvW1u3EEdTh1LyFKLXmqo5rGE+i2KxyFvCpIlnmsaKPDfS4hLfii1WUJVtb0IblxWWSgduxpXuPZORdRsNhYExmkvDYIVNplomfcqtylfHBOZd0v9l9CM9Xv4bpmSU4K3+B1PfRhzqRIAGxSEgqT9CJWiwoLRESfrTvWbzQtAavlt2L6f58lX2qpSBBn6cPzX2d6BGfaugn1dLwFgZXujvG8WOIOEeZqW9ynA8mKYZsWxpyRCtbfV24pvxh7G8/gIfnfQdn5sxQrlI0hHcMGpRUta8Ntx9ajZdrNuB/Tv4mPpe9WLogrcepmiKmq2LWzHwhEkmRwDfsmKzFAmtqCvTgloOPY0Pz+9hd9gDsAb7XKa5HOukRgl5t2Y7797yEI+5Ovg3aT86DBTXZKQ2cXDAFt81ejjwJAp7sXI+7tv0eDy74d1yQM0+uoZSGRkK3RFBPHP4b/vvAKizNPwWPnHIdxnkl2xcBR4uKNBKRkFJ3xFcEK7sasbv5ECYVzpchUzw+9WIVpe2Xib020Ik2WydcLi+ypGS7fFFKcscz5Lg13Ytaf4tKoJwmM4qRCa/Zh9pgOzxUAtXDoeGN+t14oGoNFoyfg7vmfhGZfocIP3pYGol4E3dSlsDlip4eLjXHxvqW3bhh13346oLluDn7bDkijcsnQ0WKolkSoxZ3u5CiXjxJCVg/3ZNVsvAS13jYzSa83rYTV++4B1cWfQZ3TFmG8eKqEkUviXD/wXW4p/bP+NGMq3BNQZnkJ8YLXgOpNt7z5pRaAsGJi/5/iiNTKucSg0EAwefBBdZ0zEyfiJkZkzBbyqw4hedPkjIn3Sjcj1rkHK89Mb1QBMOJWhozOeGTybmhrRkev+QACQRFXWQc5ZcfLqHrp3mB0LoWwVVaStzpN9a81Bw2QF7j6XpSJMQzKUI1Ix8mf1DcgqHnbEDdIR/c6nUfXaxxCs+rCVXdyfgnetH9Mr4zaRLh6Wgn9tj7gcPiyijf6jNxEU5cKW+1MAQOIT9tHEyi0TUScZGiY2NLAE1ALNklbQnxXt9gUxQDP/d3t6jvx2SgvgQlffKhztOJQ31Hcag3fqkMlSopLV6u7ySGsjpqtc8Dq1jApNx8OC2G24gEV2Sp9W7JMxp8PdjnacY77n14oPZVPN+4FW1B6W1oLYjim5k9AVMk+vIKCUbuMTAkUt6knycwOmKUFK1Svou3ue0Qbtp7P2zp+Xhr7g8kbjfW9ykchq9vd+/DHw6uR4OEqYma/rAJs7ic8bh7zpcUxaxL3RltXCRANi+1b8M33l+Jn8z7Gr6QXQaXZNO6z2y3oqcROz2Vyv10i91uO3oYB9tr0CqCr/Z0yaRrxdcmfxorJpyFXFu63GWSoKID39r5IGZmFeO2kquQITnGQBHv1ZekSCDi5Qo00VqJ0W858Ag2t1Tgn2esRKbPqXwnU7Qe0ar76t7CPTufESKTWLkMmJBhy0LVhQ+Ke4hPglIU0e5HW9/EPdt/j/sX3YQLsxYqZdCsct56pPJN3Fv5nMRS7LcJ4+yZWDJxBqbZJiDdmol1zf/ArsZ9+ErpJVgx+TxMDuagOdCLb5c/jnrfUTw263qxilxVXyJQ8HztJdbbeEmT4IvzjJmD80rI9uP9T+O5xjfx/Ol34BR/kZwx3vOhhnb5PWjxCAFCiDSu7ouHgFzHZWKuNRS7slVSloiEKnEtl29fibbeGjw+9zv4pCRrbJ8kcMZgs60i0CPWDrh8FqR7rHCYHSJ8l/Fkgcvclm58e9cTWHtkE+bnz8V9i67FCaZsvCDk/GzXU3hu4fexIKNEZd5RutEPFL5+xhwNg3oXlaFqNBI4RD7aq+9ow+ut76Cqy40Lxy+EXRpnB9gHh9mCHJsLOdY0leEmKjkSTWVbXLIv4Z1qI/QRZTyqRxKabfXW4tmDf8FnJy3F5wvLkCZtqmmUfeCPbNMknC1EBnLN6ciU/risNglxZQTCMB8epcOG8/MXosQyAZvat+KBmpdQbu+EqdOHHV2HAHsQC4QcZ8Au9VLJYoOvyrPEIoHjShoxKxMp0PVcOnUxZrhmoLK7Enu6a8QCPkrYcIC98sgk+7f6bRLFWDErfSbSRMCR7wINFJkWG66cVoY7Z12L5fnnYN/B3Xi04XU0BY7ioQNrsLruHbT72mXc8ccXyw1pDPqt7GhP2GgJJMIqJm332fFcw1vIcIzDyRl8nBlKbOLqzOBBOXARblvXYTxY9VcUmvPwn9MuxzizU84aNhRHDv2h6pLRiEbx79ymOAqwOHsGTi2Yjcm2AkyxF2B+1mQ4LHZMdhYgTybuWOMiAXzAHy+qTHpO0ARwXvgIEXKOXeFScYe3B1fs+DV6g1345ZxrcbpzCrwWs7gr+tCkmkwI8QYyFwGd4uf/o2IVXmvYgJ/OvRZfyv0EZS/FEJDxmRhKInKx0cug5A98vm2ScJW5BN0VcwcZq7pAgnI1pui1D+TN7KTtlGbFCqP+TRa1h+elQ5ni868v+Qxaetol3X8JFRJRWAMSribH+YDAp5f+oAevtm3DW0c34YKJS3BJ9hyZNA3/T/EMlACCnPF6CkepjOxQcWyhP0LkOKwBsXdJ7CwqBI9de7y5QCNpEjRivcikYZFzF+UtxPXTL8PWjgrcXfE82uCm/oSuSA0Y7fCNhxebtuDuPU9jknM8riu+EHnmcaErRgf0GDGVNQKDJoENkIhYYCcyJLS8In8pzh2/AK81bkCbqUsy1I/OJclCeQtWI5rZ4e/Dnxs24Wflz2CcZLM/mHU15qWf8OGyxSiAY6eC6mXrYbME3UjMBuQwlwUmSuIzP61I9n3KFaXKDhhxtQe7sbJmLX6+92nxuxm4Y+4KfCpthmqbUdpoQitpIgKIQZHAilkGYm5BucYtIRMjDTZmNGgssvE5AydU7uupQu2HPsP3CNZBYuu9HXitczdWvP8wflfzCkqypuHXc7+OM9NKFck6qx4tUDaUC+UzEBKSjo7CwVuZuHEZIzJSovj40+7z4M4jq/H4B+vw/rn3otCaI0Iyqb+WeU7cSGPvUSzKmY45acUYZ3JIDiSTnfTbRHfCX7mWi2z8y5hyfwvebdyDf7TuwXsd5eiVGfkLpefj4rxFWOIsEoKNyEtNlBxV4vEPC3REpJU1EYZEAsHbSQIX9cKhSSjvrMdN+x7B7u5O7DjtNuRZM3A00IOHql/HI5UviJyskktkqdfRXcjC/ILpWFo8Q7LqDHiDfhxoq8U7R8rRIElfi60bbd3tcJlcuGByGT6btwSLRPuZS1P7/WJmHPIoyf4YYj3GjIWUkEArIBG+0N80k30SwN9tnYdw464HsHDiQtw9dTkavO14qPZlPFm+BmW5C3Hxiedha/UONHobsb+3DnWeFvVilYo7zTLxi1/JsGSo/7hSglycnHMSrpp8miRN48RCzLAxKRHwr21oPOrbKLFAWYzK/7YgWAXdEv/LC/eNDsgx2V/bsRu37HkUV5V+GktFa1ceeBF7e6txRvo8/HT65yTjzFVC48LejvYa7O+uQ58kXVKJqpsuJs+RgwVZJZg2wFXL0QLnAL1amgxSRgILXRKLqlJ+uwJu3FX1Z/yu6iUUZhbD5ZWYRqaOK0rOwlW5S1HqyBP5i7BDSsOOcGZRVhQCzxtP44yFtbEKCp5WMJDkLBIpGxYbph/U0RIFecTTiu3dFaLZ3TjceBinFMzGytkrcEPhpzBFCFD/a44+hNdzI4XCVu+KhgoXx0RTlHcaawjX3/CxJ4uUWAKhq+GW60puvw/PNm3HPTuexVknLsU1pWWYFcyGK2j8fzml7SHBUtvV3eoQ98IlHqqXV40hIjhOKp5WvvCcKVlLSBkJGqxOh61d3j6+hwJngH9CZFaPEhnnJ/MX+GMVmgQKn25osAQQKSeB0ER43DJH+Pgmt5FDcHGPXQzp/ccedD8kIN7yzUAwLCRo+H1+eN0eeNV7Px91NB9nUPi0gmQjoWgYVr9gsVpgc4qmiMYoroeP7xGB1tfIOWCoGFZLIFg9C9/SYDI3zM0NC3SfI8PQjw0JGsyqSQIL5wuCTadqIMMN+n1q/2DygEQYMRIINkUCmNCFW8VYJEL3jdqvJ+BU+P9oGFESCDbHQhLoorhPK0mleQ8V7BP7ot0PrWC4CCBGnASCTepCMmgZmoixAAqcrkc/lBlOAohRIYEIbzZ8vuA+wfPDRUp42+FtUOh0PZF+f7iVY9RIiAYSoOcM7rNrqSZD16m1m1stfK35I40xRYIGu0QyWDQx2kLChRSr67wm/FzkPVrw2u3w/GgIX2PMkhAOksBjLJqUeN2OJIHC1kULnCQQoyl8jTFJQjgiu8fvg+myFn44xgIBxJgn4f8Dhjf2Oo4B4TgJYwDHSRgDOE7CGMBxEsYAjpMw6gD+D+O6W0HlwHkFAAAAAElFTkSuQmCC;" vertex="1" parent="1">
          <mxGeometry x="72.5" y="245" width="97" height="95" as="geometry" />
        </mxCell>
        <mxCell id="HWMUPrIcRq6GqUg2BPiB-10" value="" style="endArrow=classic;startArrow=classic;html=1;rounded=0;dashed=1;dashPattern=12 12;" edge="1" parent="1">
          <mxGeometry width="50" height="50" relative="1" as="geometry">
            <mxPoint x="360" y="360" as="sourcePoint" />
            <mxPoint x="180" y="300" as="targetPoint" />
          </mxGeometry>
        </mxCell>
        <mxCell id="HWMUPrIcRq6GqUg2BPiB-11" value="" style="endArrow=classic;startArrow=classic;html=1;rounded=0;dashed=1;dashPattern=12 12;" edge="1" parent="1">
          <mxGeometry width="50" height="50" relative="1" as="geometry">
            <mxPoint x="370" y="310" as="sourcePoint" />
            <mxPoint x="268" y="210" as="targetPoint" />
          </mxGeometry>
        </mxCell>
        <mxCell id="HWMUPrIcRq6GqUg2BPiB-12" value="" style="endArrow=classic;startArrow=classic;html=1;rounded=0;dashed=1;dashPattern=12 12;" edge="1" parent="1">
          <mxGeometry width="50" height="50" relative="1" as="geometry">
            <mxPoint x="420" y="310" as="sourcePoint" />
            <mxPoint x="420" y="170" as="targetPoint" />
          </mxGeometry>
        </mxCell>
        <mxCell id="HWMUPrIcRq6GqUg2BPiB-13" value="" style="endArrow=classic;startArrow=classic;html=1;rounded=0;dashed=1;dashPattern=12 12;" edge="1" parent="1">
          <mxGeometry width="50" height="50" relative="1" as="geometry">
            <mxPoint x="460" y="330" as="sourcePoint" />
            <mxPoint x="578.16" y="190" as="targetPoint" />
          </mxGeometry>
        </mxCell>
        <mxCell id="HWMUPrIcRq6GqUg2BPiB-14" value="" style="endArrow=classic;startArrow=classic;html=1;rounded=0;dashed=1;dashPattern=12 12;" edge="1" parent="1">
          <mxGeometry width="50" height="50" relative="1" as="geometry">
            <mxPoint x="480" y="360" as="sourcePoint" />
            <mxPoint x="647" y="310" as="targetPoint" />
          </mxGeometry>
        </mxCell>
        <mxCell id="HWMUPrIcRq6GqUg2BPiB-1" value="" style="shape=image;verticalLabelPosition=bottom;labelBackgroundColor=default;verticalAlign=top;aspect=fixed;imageAspect=0;image=data:image/png,iVBORw0KGgoAAAANSUhEUgAAAgAAAAIACAYAAAD0eNT6AAAACXBIWXMAAA7DAAAOwwHHb6hkAAAAGXRFWHRTb2Z0d2FyZQB3d3cuaW5rc2NhcGUub3Jnm+48GgAAIABJREFUeJzsnXd8HMXZx3+ze/1O0kk6NVtWs9wty92md9ObiYkpgcALAQwhCQmBhJfEtBBIIKFjCC81BYcQiunFYBsDxjbIsoxt2bJ677p+tzPvH3snnWRZ2jtdleb7+YBPe7Mzs7N78/z2mZlnAA6Hw+FwOBwOh8PhcDgcDofD4XA4HA6Hw+FwOBwOh8PhcDgcDofD4XA4HA6Hw+FwOBwOh8PhcDgcDofD4XA4HA6Hw+FwOBwOh8PhcDgcDofD4XA4HA6Hw+FwOBwOh8PhcDgcDofD4XA4HA6Hw+FwOBwOh8PhcDgcDofD4XA4HA6Hw+FwOBwOh8PhcDgcDofD4XA4HA6Hw+FwOBwOh8PhcDgcDofD4XDiFxLrCnA4nOjwPDuk08JtYpCMaqiNXrgJABCIegamHkip8v1LRYCZBo4zhwR4BFC7BOKVQKw6qCUdxL5WdLCfYFEvIYRF8ZI4HM4Y4AKAw0kw3mWVWiuoRYI3U4TaAiCDgqUREDMBM0qgSQSiAaAmACYAyUz+VyQAGBgBBAAAA/X1ASSgL2AEICAUyN7dY8yqsBpMrS611iqJoIx4jAK1p+s8HYU6V93iFLvbIFKA+PIFCEgPA2MA6SRgXQykiwFdAtBOwboFoJOBdFF4OzVQt4vo7LqYHO2IZhtyOBwuADicuGI9q9AA2jwRmEIhZQEkgwIZBLAANINAsDCwFDn1gNEFAOb7PQ8YeQKM+P3wIiCl3qGZ82aLJaesz6Sxe8WR6ktFwtqmGxz7T8/orl1stgfWx59fYH0Gf4/AujkJWCsDqQdQT8DqAVovQFPngbeuBv9uXUvW0qAak8PhjAgXABxOlFnHtqstMEySIE4RQKYwkDwCTKFgeQDLEkDIYMNOAj5TQiBgwLCHTwQYurzivPWNmQVfdJsJpUH3DW3TDY6dl05ubys2uAeOBiMCmO9CA9P4r4F4GGgjgDrIIqGOgNYxCPsNQOXFZE5AmRwORwlcAHA4EWItWyvMxo9yRUjTATKdAcWQjXw2gSAOZ7j9x4TDDHtkRUDaQZvu2Eeq8gydnoC5AMFDRcJ2XD65bd9p6X0DR8MlAgbq7v+eyCd7GVBLQL6XIO0HsFcNYe9BtFavJSd5x3I9HM54hgsADicMrGPb1dlIK5LAplHQ6QLINAIUUzCDnCLQiPWPlQ9ruKMtAqZ81ZW87JnaXNFNhXC1x/7TLN3brpzcMXAksiIgMI+Bc4gbQCXA9gFkL0D2Ujgr/ocsbAzXdXI4iQwXABxOkKxla4USXFoACKUAm0mAaQApAKh6wKU+nJGPPxGQXmnXnXx/ZVE4jb+fsh/ktJdfkNkzcCQmIuCwMgjQBJAdANvBQHaYkLzrYjKFT0LkTDi4AOBwRmE9Y6IKVVMJUALQEgALAZIcaJjIoAl1iSECDJ0e1Wl37ivW9YzN7X8kmABs/llhY+2i5ADjGjciIKAMwUvBqgCUAfjaC7rtJyjZx5c0csY7XABwOEN4m203uJE0R4RqLgGdx0BmMjAdGWK4hxqmRBMBx/y1akru9h7zmBtsBJwpKu+bD8+p8WgDj8afCACEod93MbCdBNghAV8wuL65jiz2hNAEHE7cwgUAZ8LDGBPexoFZEsgSArJEdukzEQg0MH5jND5EQPpBh+6UtXunR+Mdt/zCrI5dF+V0hb5EMGYiILAODgBfAGQTBfn8Wszewz0EnESHCwDOhOQjdjDFDlIqgC6nwHKAJAEDxkjAgOEYjyLghAcOFGSV96aE2HxB4dGL9PXH5xzyagWW4CKg/x4B6GCgX1Dgcwbx0+vInNogmoTDiQu4AOBMCBhjwgZUTSUgyySw5QArBogwuPMngz6PVxGgckrCBdeXzxW9ytb6e3UCrTk6ratthsnuVQPmOoe2cEuX2djm1ig5HwA2/zSvqXZZqu1wA5y4ImBwHYRqAnzGQD93A5+vIfO6lLYNhxMruADgjFvWs616I7KXSMBxAthCBmYcaozZYZ3/+BcB+Zs7zMvW1RQoacPuXJ1j061Ta+3pWm9gxEDilciy5+qzCjd3pirJp/poc+8Xa/Jbh6vP+BEB/XWgALYKEN7xAu9y7wAnXuECgDOueJdVahnYfAnCcQLEoxio3m8cZWN+uDGeaCJg2dOHcvO3dFlGa0u3UZTe/+OsSnuqSho2bDADTvlD5ZTM762mEbIBADhS1Z7/Pjan+sgGeLyJgIEyAOxjYO9T4P3rUPIVnzvAiRe4AOAkPO+ySq0EsVSAcCxAj2ZgemCoseYiwF+vk9fuK7YcsI1qtPeck9m6a/Xk1gGjfLgIsFTadafdta9wtLwYAdb/rfSApCVsIoqAgfqwOgLyCQN7n8H9MV9ZwIklqtGTcDjxx9us0cBgX66CcAxAFghgagbJ1/kSJhteeUs6ACBgjIEQCkCAwPzGmEA2SP60BOg/Jnft8mcKAmFIWgSkJQFpARaYB/MbYjJMuWxIWgwpd/D3wEA9/fVi/fUKvE75s+Av25evnJfWNvIGP35aS1L6AID1X6e/7v7rYKx9msHp0YuS2iGNmCdhgK7XLVoztN7h2wnwX9pAeYwM/t5XlUHfH6n9/PeIBd7j/jyOXIehz4HcfiPVYbR7OFAGCECmMODHALmKQNPxDCt7n4C83Qfrxlv4joicKMMFACdhYIyR93BgFoH6RAbniQyCTvalskEdMhcBI4sAgQ56oz0iHr1A/WWNJAK8WkLVDowqKgQvAPiuZkKLAH8eJJ2AXMbALk+CyfEMK/scEP7RCOGdtXxzI04U4AKAE/e8zfZZCFTHv4dDpxOosmTDIzuKfRzWIXMRcGQR4NGKirbVTWlwaDuLDM6RRIDa5hF1vZKifsRjEOnA9XARgMH3UA+QMwB2Rg6knnWs/D0G9t807P3gYnKxpKR9OZxg4QKAE5c8zw7psuX1+acAbI5sgNggwzyaUeAiYHgR4EhTuc21MIx2Dwo2d6UeOi69J7CsoSJg6mcdKUSBR0HSCtSZrPbCd998N2wEAzwhRYD/vqYA7BICXNKFmfXr2HfrCbSv/ITM2j9aO3M4wRD2DUA4nLGwgVXPeodV35gFPAfgZr/xB+ROlvre+mUjwuA3Jj76P/u/9/3F5GOB3zMGyOu15DdjGnBev8E7LC//ZzokbWC5bFBauVoDnwlj/WUdXi4bkhZD8mJDrtlftv8YPex7FvBZYAwUPXkm+7CNP4TMPX1J099v61/m5y/Lb5RTa23auf9tyVSSV9dkncsnHwLuF+vPy//34PvJBpU32v1mh+UR2H4YVAYbkseR6zD0OaCjPHOj30O5DBxWxnD5EiCXQLiFwf3tM6x84zpWds06djAqAZw44x9FY4EcTiRZzyo0SdAdRyCeCaDA/8Yd8KYWMIsaYGBE8P0ZmDYgy0FpA162yOF5TbzVAalVNv2pv9s7GwpgBDh4sqVt90U5ba5kleyK9lJh6uddKaWvNuSo7SNP/vNTvjKntXxlVpe/HTCk7gRHaicA/V4MZfebHJZHIqwOGChj9GeZOAH6DgF5qREln66VnVkcTtBwAcCJGRtYTaoK0mkU5AwRJOlwQ8hFQKREwNk/L59raHcP2qJnJJhAWF+2xiVpRJrU7NSpnMFtH/zuH2dV9eTq3IHtMHAv+l31XAQoFgH911kFCM8DmhevIzPaweEEARcAnKjzMasp8oKdRYBjAIjU9xwOb4C5CIiECJj9emPWnNebchEF2qebbB/9rrhuOOPHRYC/jNBFgO+wmwDvUOC5G0jpp+BwFMAFACcqrGPb1QXIPAqg5zCwfGFIx8lFQHRFgOih5MxfVszRdyr3AoQEAT66c9qh9ukm55GMHxcB/jLGKgKIr15sLwV7jkL9wo1kjhUczhHgAoATUTayVpMHjjMBtoKBJcmdJfUZJi4CYikCija2py56rqYIEaRuaWr3lpsLmgaOcBEwUjuETwQADKwXIP+QQJ65kZR8Dw5nCFwAcCLCu6wjWY2+0xhwJgOMh3eWXAT4qxVLEbBkXfWUgs0dimbyB0vfJK3zg7unV3t0Ig1osmHrnggioHWvV1Wzza3pOOhVdVV7VfYuKrisjHjdjKg0hGmTCDOmizStSJQsxaKUt0zrTSuUJ07GUAT4v99Jwf5Pj85XriInOcHhgAsATph5l1VmqCGeSaA6iYL2u5cPN5pcBMSDCCBeJpzwh8piy35rMsKIO0nl/ej306v6snWeQRsI9RP/IoAxoG67S7vrv079gY0Onb2TBb1sOilboNNO0brnXqh3ZZeoJbmEmIkAAKyNgT0jwfXkTWRZR7DXwxlfcAHACQufsLrJErznEohHUVCV3FMOGHlgeBEgf6aEi4DYiQDBzYRlT1XnT/6mKx1hwJahcW25ZWpt1xSte9hdBPuJTxFAJYLdb9oNXz5rTeqo8oYtWFr2XJX3qOtNzuJTtW6BxFQEEAAugLxGwR5YQ0r3hesaOYkFFwCcMfExqyliwHkAFhLI0foAAgpGuAhIHBHAQEjJa41Z0zc0TxK8wb/p+mman9KzdU1Bg8cg0AGDlTgi4MAmp+7De/vMXTXhM/xDyZqt9p621mSfXKr1xlgEAABlwAaA/vUGsuCLcF0jJzHgAoATEh+xg3kM6lUErBQAyDAdUTAigA8HxIcIMLY6NXNfa8zJ+7I7HWxQe41IzxS9vWz1pOam0mRbYFmJIgKcfZL47p295u/fc44aIjkcEIFg/mqd85TfpNgFTcxFgK8MspVB+tMNmP8uIYOiEnLGKVwAcILiY1afzuA5T4BwPAOEwM6Ji4DD80pEEQAASU1OTe5XnamTvu1NSa22m4aL92/L0jgb5yX3Ni5J62meZXT4TNNhZcW7CGgsd2te/3mXpbte2aZG4SRzpsp74aOp1pR8wR8mOMYiAGBgFQR4uAVd/1xLTvKG5UI5cQkXABxFbGFtSS7Yz2BgpwOCariOA+AiYDyJAH95opeQ5EaHVmXzqEQPIW4joX05BpfHINDDjXxiiYBDW1y6137aZXHbQx/2GCu6FIFd9JS5b/IitW/Xv7gQAQRg1YDqUSf6/nYLOdoRjmvlxBdcAHBG5G3WaNBBOpOAriAgGmDkjh7gImA8igBfzYc1uokqAva879S/+auuDMlzuHcj2qgNhK16xtyXu0QTZyIAAIQ6BunuDFS+zLcmHl/E/MHnxCcVrELTCvPxFPQcgPmWiB1u0LgI4CIgMK9EEQHV29y6V6/tyPI4Y2/8/WhNArvk5bTezNmib3OfeBIBBAD2MWDtGsz7D58jMD6Im4efEycwRj5B41EE0kUAzACGdDhcBMifuQhIVBHQecir+tsPWie5rYiZ2/9ImLIEevUbGT26NP+ReBMBjADYSsB+w1cNJD5cAHD6+ZxVF0oQLgFQNJJhj6YIkD/zJYJcBIRHBEhukP9b1ZbTvNcT0h4IgkpE2qQ0pE1KgzHFCI1eAyIIYJTCaXPC3mNHR0M7upu7QaXQduktPE7rWfVsah/Ike9hHIgAEJANDLiNxxFIXLgA4KCMNRs74T6XgZ1MIAzqXONBBHBPABcBQ9shVBHw0YM9aV8+ZzUjSPRJBhSUFiI91wJRNbrjQPJIaK1pRc2uQ3DZXcEWh1PvTLYtutzgGukexokI8FCwv0owrr2ZTAv+QjkxhQuACcx6xkQLak8EhPMA6I9kSLkI4CIg8Dr95SWaCGg74FE/e0FbbjCT/kS1iKIFU5FTPAlECL67lLwUDXvrUFNeHZRHQJsssGvfT+82poss/kUAwEAOiBBvuI7M3aj4IjkxhwuACcpGdmimANUPGTAJGN2QchHARUDgdfrLSyQR8I9rOrIPbnYZoRCdSY+5J5bAaFZ8yhHpbetBxabdcDvcis+Z/0O9c8XdyfYY7x0QhAgAAPJ3CuctfJ+BxIALgAnGJtaUQUFXMUjzAIAEdLJcBHAREFj2eBIBLXs8mmdXtk1hCueuJ6UloeSUUqi1amUnKMBpc2LXx9/B0adsSb1KQ9hPPrX0mDIEmjgigBAATQLw8+tJ6WuKLpQTM+JuFiwnMjDGhC2s/iQG7x0ErESAHHmMYaBLFHwingIgEJj8CSAgTP5qYOkP8Qt++S/Wr/9HScsCPvvTCiBMLon6yh04jw1KO/A9BfUdU1Z3AhKQ1+A60CF1D8wXw9R34JqH5sVGqMNw1zO4XDokbWC5bFBauVoDnwlj/WUdXi4bkhZD8mJDrtlftv8YPex7FvBZ8JU9XL0G8mKDrnmk7wOvAwhosmHrHpifP3+Gw9vpi79ZzUqNv0avxZwTS8Jq/AFAZ9RhzoklUKmVBRz0uhnZ/oJdC4x+D+XrDPxNyg2n5FkOyGPY53O4+zVc+8vlMQYghwKvPsXK/v0k25Wq6GI5MYELgAnARlafuwn1t3qBVXIwH7mT5SJgIF8uAsavCHBZJWH/J05FfnwiEMw9YS60hpAWCYyKMcWImcfMVpx+z1sOLSgU3cM4EwFgwEqA7XySlR2n+II5UYULgHHMdsbUm1jD+SLYbQDJk03mYAPBRcBAvlwEjE8RUPGu0+hxKgv1mzNtEpIsyUqShkx6bjosUyyK0lpbqVD9pVut9B7GmwgAkEeAj59iZb9fz9aLii6aEzW4ABinbGWtxVbU/4aBnsYgD7H7jcJ4EgEEAuMigIsAf3nDiYADm1yKdvgTVSLy5xYoSTpmihZMVbyqoGqTWw0ov4fxJgIYoGLA79owY/OTbFeRoovmRAUuAMYZb7NGwybWsJrCdbMAIUM+OriTHk8iwA8XAVwE+MsbKgLqdrr1UEB2cQ40eo2SpGNGn2yAZUqGorS1X7n6JyMkqgjwpV3GQHc8wXZeoujCOREn6ttfciLHZlaziAErASTJs+Kpv0P22Rp/QBT5GIUAof97+TMFJQyMkYEZ7YwChAKD0vqMEPF1Pv5ZwIwB/tnBvuNk1LT9CdFv3IgsAhgRBl3DwHmkPy0lA9dDfXVkI9ZdcoM07ncY67/3JLUcdCe113pM9l6qcTmo2uOgKo8TosfFVExiRNCAanWCR2Mgkqgm1JSmcqblinZLntqeVaSxZU/X2FOyBI9cffn6Aq+NgDEGcsT2O/x6BrcZBYEwJG1gO5FB7csGtbV/hj4Zplw2JO3QezX4+8B299eL9dcr8DoDny/ZaA+t10BebPA1H/ZssIB7jEHXMfAsD/+csf7jPfVUtHUo2+ZXqUEOFxl5GWiraR01XVulV0U9jAlqMujej3YPA4Ru/3T+wHvoP4Yhz9SQPBjzrQ4I/H64+zVc+/tFwMCzQZIB4e9Pse+WtKDr13y74djCBcA4YCur00sQfwCwxYBEZMeOwADKRQDA2urd+j2f2i37v7Zn1lV4LN0tHhOjwXi/AjdAOzzYmSlNcE6epe3Mm6ftKl6u7yparO0TVQMdLxcBsRMBrQc8il7p1ToNUjJSlD8SYSB1Ulp/GOGRYBLQWS2JlmkqCUPufSKKAPm5ZD/PRNrCp1jZxTeQ0tFVECcikNGTcOKZzax+OgO7jAFmYZi14OhfTx24xn7wOm7Z8A8+j/Yb28SKE+C/popPHenfvNWbV73LmdXZ6E0e5AyNMBq94C1apG0tOd3YPP9sY7vOKEhyvXicABwhL4KRn42B74OLE/Dl81bzh3/sycIopOdaMPfEktGShZ2d7+9AX3vvqOlWPmbunbZC548iNOQ3Mvo9lNt9UH8fyzgBAeexOkBcuYbM2zFqI3DCDvcAJCgbGVNp0XAGhXAyQAUCMOrbNCfwbW8ieQJqdzuTtrzaU7D7M1t+b6tkiuoNCcDtoKq9WxyT9m5xTHrjvnapaKG+dcF5psZF5xnbiCiAewKi5wlw9lJFnh5DsqJpAmHHkKRXJACcvQPCF8O8sSeqJwDAFAa6+XH23XU3kfkvj7E5OUHCBUACsolV5whovowCkwMNu2woJ5gIoGCb/92bu+nl7plNle7oDuIqwOOEuG+rI2ffVkfOew932ZdcZKo5/sfJDQazystFQORFgMeubPmfqA5v0B+liBplXbCrj41qrBNVBBAwHYAXHmffzcnE/jsuJhcHjrlxIggXAAnEWrZWOB3XniwBpwOSOJxhj38RcFjnEpIIoB4Bn77Ykf/533tndzV6gt7dLRb0tHoNHz/VPWvTC73T5p5qqD/zF+lV6ZNFd6REgMMqqQ5sdSY37fMYWg+6jdYOqnHbqei2U5XGIEhak+DVJYtec47oypuvsRYt1fYlWdTe8SQCRhle7yfQMR1NBIUFMwY28NsdlyKAEODXbZhRso5tv/Q6srhnrG3LGR0uABKErawuTQK7hIIUEQAMDPISqUQTARimUwpCBFDCPvhbZ9HGF7tL+tpj5+YfC24HVe1821pQ/pF1yrJVyVVn/jy1WmeiNBwiwNouqb78pzV7/yZHesMed4rkVfYG/MWL8r+pk1WO2afo25f+wNSWOUPjTHQRoNYLiiSA5InNS6fHrWwSvC6JMP81j1cRADBCwM70QvXFE6z8zBtJSd1Y25czMjHSvZxg+ILVz2cQVhFA6zfsAAImQgkYbrKf/LY8fiYG7vvanvrq3W1Lmw/En6t/LBjMguvEq1MrT7zG1CiKIgP8bQLFEwNrd7mMHz/Zk79/iz1T8gSzwuHI5MzU9J3wk5T60rP13YPLlU0BG+Z++Y/FemKgrYOKez+xm7b/y5baVOEZdYA/Iz8Ts4+bo7xxwsR3H36LntbuUdNd8Ki5Z9bpOhcwcM2BbYaA38vw92josyOnGPybjJeJgQAFqVNBOvN6snDPaG3DCR0uAOKYjWyjSoPpZxPgWGDghzJ+RMBwncvhafvaqfrVu1vmf/eRdQaj4/eZzZmu6brkwczdk2dp7IAyEdBRK2k3/LF96vcbndmUsoi0zeRZ2t7TbkmunXG8oS+wXvEmApq/d2u//8iRVLnJmdS0x22gQbzUa406LL/wKOUnhAEqUWx9bYsi78OVr6V35JSopcHPwfgWAQzoZhAuuInM2zRi43BCZtx2ponOt6zL7ID9ckDIkw2+zPgTASN7Ara9bc1Zf3frsfZeKTbTtKOMWkukE68x71/x09RagYwsAjY935vz4WOdM1w2FvGhPEKABReYms7/fVqtRk9oPIgAr4cJB7Y4jfs+cSYd2OJK6mnyjimM36KzF8OUmjSWLIKis6ET5RvLRk1HROCWnVmtap3sOZ9gIsDNgCtuIvPXj9RGnNDgAiAO+ZI1zgLIxQzUt4OZgIkmAqiHCq/8rq306//2ljAW/jdbrQoosqhQaBFQnCEiL01AqkGAUUtg1BIY1IBKJHB6GGxuwOqksLmB6g7J9x9FVZuENqvCWWZBkjtX03n5w5nlGfka51AR4LRS8aWftc7Zv8Ux6vr2cJOWp7b/8OH0yrwSrT0WIsDewcSKD+3J+z9zJld/4zS5bCxsG8zkzytAwbzCcGU3Kvu/3oemysZR06UXqrzXvm/pCDg00UQAJWA/W0MWPDFc+3BChwuAOIIxJnyF1pMpvKcCIMIgozxxREDzIZfx2Zubj2/c7wqbgdOpgUV5ahxdpMLRU9WYmS0qnoE9Eg3dFNuqPfj6kBfbqj1o6A6fIDCkiK7LH878dsax+h5/h9lR59U995OW+a1V7shuWTcCWqPgvfRRy97px+r7oiECGva49d9/6Eiu3OxMbt7jMURqqEOj12LZ+csgqCK/aZ3b6ca2N76C5B3d/V+6ymA/696U3qHGeIKJAALg0TaU/mKtHFSTEwa4AIgTvmIdyQSuSyhIITBgXCeaCCj7yJbxwu0tpzitki64FjwcjYrg5BlqrFygxbICNXRRWOpd0SThze+ceHe3JyzeAVENetYv0ypOvMrc2F7v0j15acuSnhavot3tIolKS+gP7rfsLz3b0BVuEeB1M7J/k9O091NHyoEvHCm9zTQ6O/QAKCgtRH5JQcTLUfr2DwCr1qV2FZ+odQ0VRpiAIoCA/a0V86/jIiA8cAEQB2xldcUM4moCGAfCvQoTTgRsWd+Tu/6e1pM87rGNaU/LFLFqkQ7nzdMg1RCbR1yiwJdVHrz4lRObD3gG7WEXCovONdUc2ulM72zwxs3SR1FF6BXrMvaEwxPQ1yapKj60p+z/zJFSs92d7LLTmOwdL6pFLD5nKXTGMevPI9LX2Ydv39sRsNfekdEYBfbzLzNbRK3/CBcBAHspA5VX84BBY4cLgBizldUtFaA+F6DiYKM5YNjlY+NbBLy/rqP4zb92HBvcJj2DmZYp4qYT9Th9tiZmgV2GY1+LhOe+cGBDuRvSOHtv0ScT73X/zC7PKh6Yq6BUBLQe9GorPrCb929yptTvciVRKT76I2OKEfPPWAiVOvxzKz0uD3a+twNOq0NR+oWrDbYz7krpBYYa6IkuArBeBe/l15HFHnBCJi5+cBMReby/5WyALg/4ZQwxmvHnCehu8mr3fWtLbzvkTepocCd1tXiTbD1U77RJOqeVaSUvE70eqpI8TAQh0BqIWxCJpNbAq9YRr86gcpmzVFZztmi15KptljyN7fst9uzP/tG1BCG+JRdnivjpiXqsmK0Oy7h+pKjukHDfe3Zsqoxun2VIMSI9Nx1GswlagwYqtQpUonA7PbD32tDV2Ime1h5Fb6TDkVGott30RvZujU4YcXWA5GZk72eO5L0bHeYDXzjNvS2S9si5xpb0XAvmHD8XRAjf80S9Eso+KUNvm7Igd0QAfvKOpTW9SO3FMIaSiwC8LcG46mYy7fAtOjmKiN/echyznTUaJAiXUNAi/7F4FAG9nV5N2Sf2rP3f2CbVV7oyO+q96fbe+Im+p1MDN51owNVH6yCGJfRNdPhkrxt/eN+B+q7IeTBFlYBJM3KRMzUH+uTRpwx4XB6017ahdncNnDZn0OUdc6Wp/pzfptcBgw1MT6tHU/G+I+X7zx2ptTtcKW5H+GbtB4sgEFCqXOSYs1Ix+/g5UGv4LnhsAAAgAElEQVTHPnnEZXNi92e7Ye3qU3yO1kToZa+kdWTP0vgVIxcBAef5znnHgJQfXEUKg39oOVwARJuvWEsWQC8nYKmBhh0YSQREZzhAkij59tO+rLKP7PkHdtry2xq8WSxCM67HyuJ8Fe4734iC9JjZkzHh9ACPfGrH8186xzw/YChZRdkoLC2ENoRxbCpRNOytR015taIZ6n5EFaFr/p25a9JsnaO+3GXY9YEtrXKzy9yy353EYjTsIQgEU6cnYdHSDCxaZoHLJeHOX24Pqr11Jj1mHDUD5qzUkOvRUd+B/V/thdvpHj3xEFQ6ws5Ym9I970K9f8yAi4CA83znvO+CfeUt5Ghl4yqcfuKycx+vfM3aplN4LiYQtABAfG/cykRAhDwBlJKv3+/N+fqt3umV2x3F9r74ecMfDpUA3Ha6AZcv08a1u18pn1d6cPt/bei0jd1KEkHA9GXTkT01Z8x52bqt2L2xPChvQEqOykklSvpaacxc+zqdiNJF6Vi0NB0LllhgTh28gODJv3yPjR8qm30fSHpuOooWFMGQovzn0dvWg0PfVaG7ZfRQv6Ox8FKD7fT/Tekhst7lIiDgPPkc8jmgOudGMscKjmISvwdNBBjINjQdDwgnA5RQ348SiJ0IaKl2Gt9/rnPWzk+sc/s6vKG/3kSRdKOARy42YUnB+NrDqqWX4lf/sWFbdehzA0S1iJKT5iElM3wbI3qcbpRvLEdfx+j71ccSS6YOi5dZsHiZBbPnpUKtPvJ4kN3mxa9u/BptLaF5jI1mEyxTLEidlAZjihGqgO18vW4PrF1WdDZ0or2uHY4+e0hlHIncBWr3ykfTOk2ZAgUXAYPO853zkQTjuXxOgHK4AIgwGxlTGdB8IQHmBhrz0EXA2IYDyj7vy3zv2c6FlTvsMyiN3XhssMzOUeGJ1SZMMifQYH8QeCnwm/9a8dau4N3EhBDMPqEEltz0sNfL7XBh53s74LLHT58qCATFM5KxaKkFi5ZZkF8YnNNq3/c9uOu2nfB4whCnQSWCCASMUkjeyI91mDIE6YK/mLvylmjd4CJg0Hm+c95oQ9eqteQkZdssTnC4AIggW1mdXgXVagAF/mPhEQHBewK+3NA9+Z2nO45qqHTlR+p6I8WJ0zX46yoj9Jrx/bgyBvz5Ywf+tiW4oczCBUXImxO522rt7MO3H+wEjeEaRr1edu0vXGrBwiXpSDGPLTbQpk+a8fhDFWGffxENBBVhJ9+a1Lv0x0YbuAgYdJ7vnFfaUHolDxY0OuO7R40hW1hbkg70Mgk0GziyMY+0CNjxUV/264+1H9uwz1kQ0QuOECdMU+Px1SZoVBPnUX3ycwce+VSZCDCaTVh01uKwLlcbjqpvD6KuojaiZQwlI0t27S9amoHZ88wjuvZDYcN/a/HiM5VhzTOazDlbbz/rvpQetX44Az3RRQB58kZSeiM4IzK+BlPjhJ2sKUOC53IGkixAYBSUsIBfkQAwChAKQABh1Gf4GQRGZHc98xv2kc5jAWkpKAQITBYBFI2VbuNLa5uO37/DNmfwbzJxOH4CGn8AyEpWbugKFxRF3PgDQN6cfDQfaILHFbkYBoJIMG16MhYvl137U/IjOx/1nAvzIIoCXnhmP6iUeK6AincchrYDXvUPHk/tNOeJlIAw2VAyDHwGIDuXCAF8xykhEAZ9D18f4z+PDcpjoPs6vAwMKYOMmO+QPBjziYDA7wfKA8hh+bL+7+XM5Tzk4uTj8jlszZPs2+41ZMEdEb0JCc7E6lmjwFesPleEeAmDoCdD3siByHsCJDeEl+5uWbz1ja6jvR4WtRjq4ebE6Ro8+kMTtBNQov72TSv+s3P0uQCmtCQsOmtxFGokU1NejeqyQ2HNU29QoXRhGhYtk137ySnRf2R3fN2ORx7YDYcj+pFlzakaXHHtNLyxvga11aFNYNclE3reg+au4pN0boB7AgI9AQS4fQ2Z/wA4w8IFQBj5hrXNYJBWAkw92JgD0RABOz/tzXr57uYzOps82ZG8TpOWoCBdRKFFRJFFwJRUASl6AQYNgV5NkKwnMGpkrW53A70OBrubweFh6HFQ1HZSVLVLONQh4VA7hd3NBuX946N0WHOCPqGC+4STFY/0oKZzdGNUOL8IeXOjN6XD1m3D9g3bxpxPVrZeNvhLLZgzzwyVKvY3urnJgcf+VIH93yuL0hcOShel4aZbZsOcpoXLKeHpR77Hls9aQspLEIGjr0/qPe6nJhshXAQEiAAQYM0aMv9pcA6DC4AwsY01LQHY6YBIZGM+EFUv0iKAuQl59s76o758q/tYNjD/LywQAhRniFheqMbyIhVKc1XIMIW3w27upWjtoxAIMC1TNSHf+v30ORkW39+lKO3ic5fCmGKMcI0Gs+3Nr+DoC26SoiASTJuRjMXLM7BoqQVT8qNbZ6VQyvD+2/VY/0oVbNbITSI3p2pw6VXFOOm0w+M1vPNGHV56tjKoiIWBTD1e6zz/YXO3LinQxT/hRQAjYD9aQxb8Y2h7TXS4AAgD21nTSQA5Bhgw4NESAVW7nSlP/7L+3OZq95RwXY9ODZw6U4OTZ2iwrFAFS5gNPufI1HRQrHh09MAxGr0GR110TBRqNJj9X+1D04HRA+noDSrMX5SGxcsysGBJOpKSo7AXc5jo7XHj7dfr8MGGejjs4RMCKWYNzjxvCs65cAq0uiOvwN1T3o2/3F+O7q7gl4QCQGqe6F35eGpX1gy1l4sA+TgFPAQ440Yyf+PQ9prIcAEwRr5mLacLYItlVzx8D1t0RMCn/+os+OcDLRe47Ew/1usgBFiSr8YF8zU4fbYGJi1/NGJBWb2Ei58d3Q2dkmnG/BULolCjwdTtqUPVzgOjpjvzvFxcfcOMKNQocvznn9X410sHx5SHIBCUzE/FcSdn4+jjsxSvZOjscOHh+8qxL8QhCbWesLPuMXfPOVfn5CKg3xPQRyEc+1Myr3xoe01UJrCzdWwwxshOtJwNkHkUDPLMfHnGqn9mP4WAgRn9A7P84ZuxP5bVAc/8pnHZF290n8To2EScQUNwyRItLluqw+RxGmQnkeh2KFu6HBiBLpoo3RjHGYMJdeGm6kBwERAFgSDNokV2jh4FU5Mwa44Zs0vMMCUF7/1IS9di7YML8fzTlfjwnfqgz/c4GHnr1q7Uxl0G26m3p/RC5KsDCJAkgL71BKs46kYypznoRh2HcAEQArLxbz8bwLxAYx4NEUC9wMPX164o32wd0/TvZB3B5ct0uPIoHcx6/rYfL7gVepyFKCz9G0u5Uohj2PFEVaWynftuvnUOlh6dMaJbPxRUKgHX3jQDxTOS8bfH98LtDi6uDWPANy/Zjc0VXvWFj5q7jBaBcRGAfAbPhj+xshNuJaW24O/K+IK/8gXJesbEb9B0IYNUwiD4ejnZmMuf5AcTkA04QH3eAYHJ3wLDncd858jnoT8vfx4A4LJT4d5Lqy4Yi/E3aoFfnKLHxlvM+NnJem7844wUhYM5kjc2kU69ChWK0ZjY7xbdXW60tynbL2BWiTnsxj+Qk07LwT0PLUZGVvC7OwJA3Q635vmVHZaGnR7fTZENdECS/oCIxNffDP0eg74H2KA8SH/3NXCM9feDgWWMnO9heQypV/9fAefJBwPLRX8dZREwUBzxpcVCA9ira9nGxH5IwwAXAEGwnjFxKlrPV0E1XT5ChzXmkRABti6P+verqi8+WOacHWr9T5qhxoY1Zlx/vJ6P8ccpZoOyn6SjLzax+Z02ZSsADAkuAA7sU+b+N6dqYMkIzTAHQ1FxEh54bClKF4W230NfiyT+/YrO9K+fsxnkIxNeBJxlQeoTQ9tposEFgEK2s+3q6Wi7iIFNpwFGOxoioKnGY/jfCw/9qOGAc2oodc9PE/F/VyTh6UuTxu1mOuMFpR4Zp9Wh+G08nPR2KHOLp6bFbEfgsHCwUpkAmDo9OcI1GSApSY3f3lWKlasLBk1xU4rkYeTTB/uS376tJ9njHHDVBySZUCJAAK59gn33i+HaaqLArYEC1rMKjRr5F1GgcMDAR0cE9LVR9R+vPHRpR5N7UrD1JgS45hgdNtyYjGOmJs4yrIlMhklQJAIYY+hs6IhCjQbwuj3obVU2Kz2vILJhfCPNwf0KBcC06AkAQI6pcMmVU/GrO+dBbwjNy7L7DYfh5Us607rrveJEFwEE7E+Ps+8uHK6dJgJcAIzCelahmQrLKi9onv8BipYIcNkl8d4rqi7uaPIcHjFkFFINBOsuS8KtKwwTLpZ+IkMIUJqrrGNvq2uLcG0G01HfEdANHxlCxoEAUDgBMJoegECWHpWBPz6yBLl5oQVVatnjUb9wUWd61Wa3ZmKLACIIwIuPsV0lw7fU+IYLgBHYyJhqOjIuFIBJgN+YR0cESF5K7r2i5oKmKldRsPWeN1mF/1yXghOm8bf+RGT+FGUCoKO+A05rcFH5QoYBTZWjBwACgPyiJBhNiTsHoK3Fid4eZUF4pk5LinBtjsykXAPuf2QJjjo+K6TzHd1U+Pd1nWmfPdxnYmwiiwCYBNA317HtlmEbahzDBcARYIwJqWg9VwLLAwZPyouGCPjztbVnHCp3zAm23lcs1+Ff1yTzNf0JzPJCZcaTUYpDYd6c50i01baip02Z+3/R0tAmqsULSsf/LZk6pJhju9+WTifiF7fPxeX/UxzS0lAqAV+us5leW9NldlspmagigAAFXqj+sZ6tj9xyjjiEW4lhYIyRMrSfxYCpvnX5AKInAp6+vfHo3VttS4OpMyHAL0/V444zDRN2E53xwoIpauSnK7uJbdWt6G0PLmBNsEheCYe+q1KcfvGyjAjWJvIoXQFQHCP3/1AIAc7/QT7u/MOCkHdTPPCpS/f8RR3p7Qc8qgksAk5tx/T7hm+h8Qk3FcNQhtbTAPTHMY2mCNjyVnfulje6TgmmvqIA3H2uAT85bswRgTlxACHABaXKZtEzxlDx+W647BFaFsiAfV/uVbwBUEGRCcUz4sMwhsoBhRMA4+0655am4sHHl2L6rJSQzu+s9qpeWNWRvmeDQzdRRQCAXz/Odq4etoHGIVwADKGMtZ8CCHMpKEi/AY+OCGir9epfurvxYsag2A2lUwOPr07CxYsivxaZEz0uKNVC6S65bocLezbthuQNf/jdQ2VVaKtpVZz+9HNyw16HaEIpw6GDCicARnkFgBLSLVqsfWAhTjkj6EVDAACPnZG3ftVt/uSB3iQmTUwRIEB47km2Y9HwLTS+4AIggO9Y67EMUikAf5jeqIkASil5aE3NSnufpFi+iwLwl1VJOHkGn+w33phkFrB6ifK19L3tvSj78Fu4bMqi140GowyV2/ahdndNUOft29MDtyu4kLXxRHOjA3bb6PEVCJGD88QjarWA6382C9f/bJbizYcCYQzY9n8247+u6khzdA7axGeiiAAdIL72KNuZ2GNZChg/68Na15sgeE4BpXMEkMkgTAVAoow0QGAVIORTpF9+RN/eTtZylABhufzXwA5+VN6EByxgJz4KECHgMyCn9sed9m/YIwzawU/AcLsB+ncRfPLW+mO3vNV9utLLJQS47zwTLloY20lInMjRYaM47ZFu2ILw7mt0Gsw8ZjZSc1JDLtdlc2Lv1r3obukK6fyCIhNuuWMeciYl3pDU5k+b8eifKkZNNynXgEeePSoKNRobB/f34s/3lisOazyU5GxBuvCx1O6ceepAVTRBdhHEp63oPHMtOSk2cbejQGILALZWQPu0iwnojwByMoAR/ODMBZCNDOQVWCr/CbK2/zXlW9Y6XwA5kUEi6Pe+R08EfPNBT84jP6u7PhjX/69OM+DaY7nbf7zzzGYHHvo4+KV+aZPSULRwKoxm5evxvW4PanfXoGFfA6g0trd4g1GFG2+ZjaVHJ9ZL1PNP78e7b9aNmu64k7Jx86+DXqQTE3p73PjL/buxuyw0QafSEHbKHSm9C1brAlXEhBABDOzBG8n83xypbRKdxBUAHS+fRigeAEgIm6KzXYzhNmT+6P1vWEuRCuRcgBDZgEdXBLi9XuFXpx34SVuje4rS2l+5XIvfnhlaABBOYiFR4MoXe/FNdQgvIQRITk9G+hQLLLnp0CcbA7pHGZfdha6mLrTXtaG7uSus8wgIAc6+MA+XX10MUUyMruZ/b9mOfd+Pvtzxquun46zzFf9kYw6lDP94/iDe+k/NIGd3MMy7yGA//S6TVVT3D4tOABHAGAO58EZS+vbIrZOYJMavMhC2XhTaXPcxQm4ba1ZJRPXye+nHbzdBRajvhkdbBDx/T9OSD1/puEBpnZcUqPDilcl8qd8EormX4oKnetBlD7Hn9kEEAVqDFqJKBJUkeFyeqOwnMGN2Cm75bQnS0uN7fwBKGa646HO4nKOLoHsfWoQZs81RqFV4+WpLK554aA+cCq5xOHJK1J6Vj6V2J+UIfhfRuBcBBGgD2KIbyPyG0don0UgsAdC63kSI61WAnBWuLPME47515oXP5wh6Z7RFQPMhp/H2Cyp/4XYyg5K6phkFvHF9MrKSufWfaHxx0IPr/2GF2zs2ERArUswa/Oy2OSiZnxbrqhyR6iorbr3x61HTCQLBS/85IaJbAEeS+lob/nTPLjTW20M635BG6LkPmXsKj9b6wyUqEgH2Lkqa97jVtjYQZ5ckuKyMiCpAlyYwc66KWqYL1Jjh9y7Emwggm9Kx99SLycXhX2oTQxJHALC1Amkvfh3A+eHOOk/U730t9ZhnNBBoNEXA71dXr6z81rpYSR0FQvDM5SYcV8xn/E9UPt3nwc2vWuGRElMECCLBqssKsfKHBSFFrYs0n7zfiKcf+X7UdPmFJvz5yWVRqFHkcNi9ePzPe7Dty9D2kyAicMIvTH3LrzX5VcSwIqCxzK3as8Gprfvao26r9KoYHfnZNRcItPAYrXf2uXr3pAVqKb5EAO6+gZTeNWrjJBAJI2GFG6+5DwTXRCLvHua1lHu61efoJu3z33AG2VgDks/wE8gigICA9IuAwAeF+h5QOQ/48gDkh1B2ezEwCBCw6fWuvA9eaT8PCkXYtcfpsXpxfLtQOZGl0CKiOEPER9+7MUo/GpcwBlSUdeHg/l7MX5IOrTa+up+P32tAlYJNgBYts2DJ8sSa3DgUtVrA0cdnQaUSsGd3d/DzAhhQvdWtbdvvVRWfqHWLasKA/rcd7HnXoXv/zj7TF49ZjU1lHrWtgwpQUIazm5Hmcq9Y/ppDU/mRS61LElh6sUgD5q4Qgv4ut/+Y/D+/4SYYnIb4+uWB7xHwPRk236HfEwKw485de8PWDXc9fSiotopjEsOX3P7KEkZweySL+MrTefK/HXWFACD4fg7yWn2RAX6vz0DI3rHGCXj9qdYVUGj8iywibj6Jz/jnACtma/DK1bEbBhJEgsuumoobfj4LGm1odfh2ewduu2mb4pC70SJetwCOFIQAK1cX4Ld3zUdSUmiexX0fOnUvXNSR1lnlFQGw1kpJfGl1Z+pbt/QkN37nHpO7sm2fV9zwyx7D3y/uNLbs9vjVYgzjBBCBgb38BNuWPZbriifizw83DKTt758A7ORIl5Ml6Ko/SDvpr36DH6nhgA//3j71/+5uvFZpvV64MglHFY0j179EgV4n4PDKP2eByL2RKAAaAVCLgEYFxaHwwo2XAi4v4JYArwRQJteZAfDPZhcEuX5qEdD46hvFX1OHjeIX/7bh60OeqJWZbtFizS2zMW+BPI5ffbAPD/+hHE2Noe1IqFIJuOLaaTjzvNhHD3S7Ka5Y+RkkBcMrDzy2NG6DAIVKW4sTf753F6oOKIuCOBSNibDZZ+sdu//r0HvdLOy/BEEFHPtzk3PJNUY3GXglj9FwAPvMgv0rxsN8gPjywQ1H+yunEOD30SjKxrxmAahZok5vY2AkUsMBj9xSu8rWKymK1HJOiQb/c0ziBVQ5Ig4PUNMF9LpkI+vyAk4v4PQAdjfQ5wJ6nECn3ScSPAClgEqUhUIkcHnlsjpsQHMf0G6T62B1AXaPXIdBdfXKx2xu+bwuh3yu1S2nIQDUkRUEBg3B+aUaTE5RoazBA7uy3WtDQhAJTj1zMm69c96g/efNaVqccGoOGuvtaKgLfkIZpQzfbu9AY70d8xenQxUrwQegqrIPH783+iRvtVrAj6+bFpdzGMaC0aTCCafkoLPdheoqa9DnS26Q5gqPmkqReeoZBWq2ulXdVZJQfIrWS2QhHqvhgEI7LK537np6SySuNZrEvQAQbr3otwAWBnFKGQN5GiD/BLCdgJkBkqP0ZBvzspW6ybsE3ySWcIuArW935258resMJXUxaQmeviwJRs046Ww8ElDdJb9NK0FiskG1uoEuu/wvY/Ib91g7YLdXztNv8G1u+Y0/1EXSgOw5cHgGBIzTK9dTIyISaoAQgtk5IlYv1qHbwVDRGN4XEkEgWHJUBm75bQlOXjEJas3hBlqtkceSDQYVdpd1hdR8dTU2bNvahjnzUmO2ve43X7bh2286Rk1XNC0JK86KvcciEogqgqVHZ8CcqsGunV2gcTjRpL3SKzaVe8SZZ+k9xP9GFQMRQEBOOHPtDR+9e9fTCb00ML4tizzzvxFAloLUXkbwM6Rf9pTPXgMANrOa1If6qv7ytqvxcgo2quDRgNi3WE65QwOBBs7YD9dwwG9XVl56qMJZquTyb11hwDXHjKOx/+Ze+W15rBAAKXog3egzrkFgdwMddsDmgpJJSWFBLQCpBsCsR6QCOHxZ5cGPXwzNfTsUS4YORx2fiRVn5yI7R7n3aW9FN/5y/250doS2M6FWJ+K6n87EcSdHf4j1iYf24LOPm0ZNd/o5ubjmxhmjpkt09n3fg4fvKw/5XkaamWfpPGc/nOKI5XAAQKooVAtvJHOCd5nECfE9CbB96nwoM/5gIL+B5fInA43/dsbUZphW3JNU8vXp2uzXleTjBjNscDVPAQZv6hOOiYHVFY6kQ3ucJUrqYdYTXBrEZjAJgS1MfmoGoNsBHOwAGnvkN/fRsLuBQ53y8IM1isYfADwUaLXK9W23KfeARAFRJMiZpMfi5RZc/j/FuP+vS/Dki8fgimumBWX8AWDmHDMefHxpyGv9XU4Jj/6pAs88thceT3Tb6GClwgmA08fHBMDRmDErBQ88thSzS+Iz2NHed53qHc/b/e6imEwMBFgR4L0vfFcVfVSxrsDICLMU9tR1sEz6a+ABxhgpR9upAkgqBcE9SSWfb/G0ndRHvZbRMtvr6c4WtLnVFJT4RYD8ds8YBSEUgACRDXgCBOb3BAykFRjrX/sPRgHyxrrWJWDKRNcVy3UwjBfXv5+wGz4mu9v7XECaQfYIDB0a8EhAS5+cJtZIFGizyuIlKwlIir7AmzErBVevmQGjSQWtVkRyijqs49kpZg3+9975+PffD+H1V6tDciN/9G4DDu7vxS/vKEFmduTnvzidEhoUBsUpnj6+Jv+NhDlVg9//cSFeerYS77wx+v4I0WbTw1Zd/tEab8ZMFYUsAggBYQGeAFkXQDbibGA4wPeZMTYwHMAGPAGEBbzpD8mX9X/vWx2w5in23bs3kPkfxKAJxkx8ewCATCWJCMFHGLJj0x50LCEg+bKxZkwDgU4VTHuU5NfO3EmDt+4duyeAeinKt1qXKinfpCX40fJx5Pr3o4mQ3qRMfrM+1CGPwfvpcgBVHfFh/APxSEB9N1DXLc8biCIarYii4iRkZethTtVEZDKbIBL88Ioi3H5XacjLy6oO9OHXP92GHV+3h7l2w5RV2QeqYPa/Tidicu7E2oNDEAh+fN10/Oy2uWGJfCioRKRNTsOk6ZORNzcfOdMmITUnDWIIE0Cph+Gj3/fpAuadRN0TIH9NnnmS7Qp9+80YEt8eAMK0ihwADINm75Sx7kLAs8D/5u0XAUZBZVNSrIcxlQRADHj7H6sn4ONXO4vsfVTRQ3LpUh2SdePs7R8AUnSDDXS4cUtATSeQZvRNHowzwz8Uq0sWKJNTAOP429Z5weJ0PPD4Ujz8h/KQ1vzbrF48cFcZzl9VgEuuKIIQoQ2FlK7/LyxOilgd4p1jT8xCXoERf75nV0jLPvXJBhSWFiJtsmVYYy95JbTXtaO67BCcVuX5N37nVh340KWadrrW/wIYA08AmwywhwBcHXTDxJj49gBQKDLYICjwf/ye1acLkE4CRN8b+0BAng7qTFeSnZ6ILgEC80cDCIcn4Kt3+xRN/BMIwWVLx9nYvx+zATBE2NAx+Jbkxbnx9yNRoLZbHhqIv0nXYyYjU4d7/rwo5LX+jAFvrK/GXb/5Ft1dkVnreEBpAKAJMv5/JPIKTLj/kaXQG4J4byRAfkk+lpy7FBn5mUd80xdVIrIKs7D0vKWYPDO4Z+WrdVYtGfzriYUn4IqnWNlFQVU8DohvASCgXkkyxnAGetanbWSHdAyG0wRQ3xM6IALqqUNf5bXNVZJftqDt8hv+cIgAj8srVFXYFU3+W16kQvZ43eyHAJhiBlL18b7+JMr4hjCae8elCFCpBFx9wwz8/Pa50OtDcyPvKe/CrTdtQ8Wu0Pa0H4q1z4NDB/tQsasL+/eOvv0vABRPcAEAAG0tDjjsCneQJMCM5bNQUFp02DbURzxFEFC8eBqmLp6muE4tFV6xpcIjxloEMLDHnmJlioat44X4HgKQVLsgKHrYkgS3+/FUGF6kYEkiBEb73fIio5CEX/V9t8oNZbvuLVCn+tZ2+kUAJWMZDtj4n+58l4OalJR9Qek4ffv3IxAgOxnIMMnr5CUqr/dnDPB4AZcku++jPDZ+GBoR0Krlf1WiLJUF38+fMkCS5Nn9/gBB4Vgz3e2Q22NSSuSCHsWQY07IQkGRCQ/dV466GmXOvUC6O124+zff4tKrpuK8i/Kh0KYAAJoa7Nj2ZRv2lHejcm8P+nqDH4oqGichgMfCls9aFKfNn1uA7KmhLenMnZkLp9WBhr2K3gFR8ZZDnTVHJabBM1EAACAASURBVMku+oE1fVEeDsikYE8DWBnSRceA+BYAWasPou2V7wHMGi0pAy65qHvrjLWmkn8tUKV2+0XAbm9f8p3WXT+s9CrbdS+JqNtO1mQ3y39REg4RsGNj30wlZRs0BCtmj6OQvyMhCiOPe7u8gM0D9DnkeQORfjMWCGDUyjPzjZrgwhAzJtfR6osM6BlDQJ4+F9BiBXLG52zzyVOMuP+vS7Dusb3Y/Glz0OdTyvDKcwewt6IbN/1yDoymI3dhHg/F5o0t+HBDveJlfkdCoxWQmjb+5mkEy7atrYrSGVKMyJ9XMKayihZMRUddO5w256hpa77w+B4EhliKAAJ23pPsu8vXkPmvjOnio0R8CwAAhOENRkYXAABQ5bUt/HH316WZgrbKKKh77NST0kJdhRRM8XXOViXt8k8eHHiLH5sIqN7jUCQAVszWQK8ef29+IaFVyf+l6WWD2uWQI/eFOzqZRvQF6dHJ8f1DgRB5boNBI3s27P7IhSHGG+h2AOmG4IMcJQhanYibb52DmbPNeGHd/pDW/G//qh23/XQbbrmj5LC4/JQyfPZxM177exXaWkc3HkpwuyhuumorVq4uwOnn5EKcgJMBHXYvmpuUTdArLC1U7PY/EoIoIH9eAfZ9uXfUtB0HvKKrB9CmALEWAQAeeoqVfXgDKVWmlmJI3A82U0F4CYDCQSeAgonN1DntoLdvcRN1TgvG+BMQdpE2/ytgYPIg+pfyhTYnoOGQw9jV7pmkpPxTZkyQt/9gUYtApgkozpDX+o+xYwEgv+HnJANFFjmGQKjGfygEsgch1wwUpslehaBhiTOJcQysOHsy7n14cchr/VuaHbjzl9vxUUAM/6YGO37/65146i97wmb8/fR0u/H80/tx+83bQt40J5GprbEpCvUsqkWkTVY033pULFMyQBT8NhkD2g94xcCx+djNCUAaAx5UeIkxJe4FACyX7iXA89EoarY6+aszdFkN/VP5wiACtr7TUwAFU94EQrCsMO4dMrFFJLIQKEoPfTUBgTwJcWq6HJo3ki9yWjWQZ5bFQLDrnOMoWmAkKSpOwoOPLcXi5aPG5xoWt5vimUf34rE/V+DzT5pw20+3YW9Fd5hrOZjqKivu+MV2fLBB2fj0eMBm9aJsx+h7JQCAOcsMIUwhr1UaFVIyUhSl7arxCsBgYxxDEXDZk2zXqYoqHkMSwuJQiGsJpNUAIjYwqoLgutU4cwMgG34JICIGoviFOhyw/zt7gZLyZ2aLSNHHvx6LCzQikG8G2u1Ae5DL5xgAkzZ8b/xKSNIChnSgoUd5OGR1Qvw0w4LRpMKvf1eKN/9djX++WBVS9MBNnzRj0yfBzykIFa+X4m9P7EN9rQ1XXT993OwOaLN6UV9rRW2NDfU1NtTX2lBbY0N3p3KPlM4U3uiNOoVeNFcPg9+zH+iWj91wAJ7+EysrvZWUBj/jNUokRi+TcUkja//7jwhjryMyXgu2Wj/llcUqcyf1PQjhEgHN1a48JRVYzt/+g4QAFiOgVwMN3fJKAqU09cpehAhtzDMsoiB7A9ps8pK/EdOSmIQJjiWEABdcXIDps1Lwl/t3R2zNf7h5/+16OB0SbvjFrIQSATarF/V1NtRVW1FXY0NDnWzou8Kw+Y8qzBE/1TplQ6NeFyMDRjkuREC+CeQ3AP43rA0SRhLH6lgue5O1vvI7QnBvuLM+VmN559fGmdv9EQMDdv4bswjoalM2/r+8iI//h4RRA+SlAbVBbDPspfL+AJOUuRbDB5EnCYqCPNP/SK6LzCRZBExAZpek4qGnluGRByqw69vOWFdHEZ993IRksxo/+h/la9ejhcPuRVOjA3U1VtTX2FBXK7/Zt7Y4xrTz9Uh4XeGN9ul2KstPYxR9HUA8iQD88mm2+9/Xk7llYWuQMJI4AgAAMi+/j7W+bBUIeZiFxxPAlqvTPnwyedE7Q8MGh0MEVJbbzG4nUxQ8vDQ3sW5FXKFTAXmpQG2nck9Ar1Oe/a+PgfBK883wb+6VYwn4UQmy8U8Zh/tABEFyigZ33Dsf/3zhIN58rSZihiqcvPVaLfIKTDjhlJyYlG+3eVFfa0Odz21fVysb/I726E8mVbJsLxhcCvPTJBEWYJjjRQSoGLxPrGXs+LXyqHBckXBWpzxjxYZHbVX5LzoO/cQDGvLOHGqI9isNeS/83DDLp8wkEm4RsGebTdFWxmlGAWb9xHzjCxs6lTzZrq5b2VJBBtkLUBDa1rVjxqQFpmYATo+8zFElyGIkHCscxgGCQHDZ1cWYMduMxx+qgM2qeCGQYjR6LTR6DdRaFbweCW67C26HO2DaV3D87fF9mDErBdmTFMUbCwmH3Yv6Wjvqaqyo8xn8hlob2tvCa3THQndzN6hEwzIR0Ov2oqdNWaRG8xRCWb+RjysRsCwLu64D8NSYGyTMJJQA2M4aDRqol9xinFZ2vn7yr+/p2332Dm/XqRJjiqeECyDSHFXSF78zzXtzjiqpLzBiYLhFQEO1U5F1KUjnk//Cgn8dfovCJVoOjzwpL1Yb8RDIRj8WXogEYfFyCx58bCkeuq88LEvvktKTkVWYhfQpFuiMh3ta3A43Ohra0XqoBd0twa0mcDolrHt0L37/x4VjrqfDIaGh1tZv6GurbWiss4V9aWMkkLwSOurbkZE/9qi4bbWtYAoEvSAC2bM0XgCIRxEA4N5HWdnbN5PSuFo6klACwADxGIBoBIhsqmCwvZBy1PpvPO0fv+yoXbLb27mwhbqmDTc0QACaJegOzlWbv7tMn7d9qSq9k4ISece/wWGDwykCOpq8ihbDFqaPz4AvMSHVIAfiUboFcLttXO7EN57IzNbjnocW44V1+/HRuw2jnzAM+iQ9ihZMhWVKxohLPzV6DXKKJyGneBK6mrpQtfMgrF3Khcfusi58taUVy49VZvz8hr62xoaGOitqD9lQX2dDewIY+pE49N0h3xr+0D1akpeiZle1orRpRaKkNvTH5CfxJgIAJKnlHQN/GHKDRICEEQB7We8MAilbggQRIgQ5xj9Z8v/sXWeYG9W5fs+Meltt733de8MNsE3vLYQAIdRgDAk4kMIN3CROSHKTEAiQhB6KQ4AQwBB678YY474u24u3N616mZlzf4y0xfaujrTq3vd5/FiWjzRnzozme89X3k+Z1b9Emf4ugHdbJJ/2c29HQavkTPdJUCg5Tiji1JYTVXkdRZzGDQASJL8xl3fpIriokQBLr4+p/W9F9iQBiBgI5F4Dzl62fACnV+5JoEman8IxCZWKw9qbp2PGLDP+fu8+iCFUfWQWZmL68TOhCLG0Mj0/HQvOWIjarQfRWc9eYvjCM41YujJnVDTH7R5h6FscaGmyDxn6ZMhxCBUumxONuxpQsaAy7O9o2F4Hj5ONyE85STM0MGCME48EkAsfpNtPuYksfD/sRYkwkuKpd4D2GCk8CwkU4MFTESIZSQICRruEU7ou15TXS5CIbFI5iEMGH5AAMpyhz0WdBHicAlMDoJL0yRBARKHggKwQQgGDLkCTmtr7qYaKKcaQdALyKvMwden0sHeiHM9h2vIZUOs0aN7TxPSZ1mY7nnu6HpJIh1z4qWrox0NrdQu0Ri3yq5gKoUZ/dl8r2mvYvT3TztB4cRRjnWgkgID78wb60eINZE3kk1rCQMJbHkopAbiVBDwfaLfrJwEAZN19+X3e//MSR6n18X6FPhHDyn5+w4/Aa0Dy/z9Hh1v6DrcSlr9pWOUv8H4wxUCXk60CwDQpABR5pGsBJeO6DrpxzD2dkxTvv9XOfKnMuWZMXTptQm7oAMrmlocU09707ya8+mIztn/dh56u1DD+5nQV5szPQFY2e5VKzZaDaNhRDyqxJcCLgoTarTVo2F7HfIyiRSpf7kxlwKAepuw3nBPgf/doan8gMVMMJDNzkX4d88lFGQnvAajHwCyAZgEEFBwl/l36eJ4AmQTwQ6543r8jl2P+8o49Fp4Aj5utSkFPRMAhyfXpgij/HbidJCp3qiOQ1et4Tq4RV/rb1Ko4jBvUPFZBCJBhALoYusCJEuD0TeYCJDgoBTZ/ytaOllfymHHCLCYdeSYQYNry6bD2WpnL0pIV5nQViksNKCrRo7hUP/S3wSgnq27+tAt/+b+9zN/XWt2CnuYelM0rR3ZxFjjFkSFPwSegt6UHTbubQl7f467VOYPt2BPJEwBwv/4b/erFH5KlbNrKUURCE4Dd1JLugzRH4TfgAJdUJEASwJTere+yAGxNto4EwXDnPI1SjmVrlCnZTz5kmDVAj42tLNDumSQACY7WZjv6GZXqimeWQKWJ7PXkFTzK5pbj4Jf7I/q98UKaWYXi0oCR9xv8Mj2MxvEfW8uOz0FFlTGkqgy33YUDX+xDDc8hLScNap0GSo0SPrcPbocLg91WZi/BSJQsUXunnqzxABIh4JKCBAA0XQHtHQB+HPIJRxgJSwAopaQe/UslKIic+Jd8JIBKbJ0I9UqCMVXhgi4U5CQ2tyC7sgH5ftMo5VpzvUp+fSzyAY4AJo3cXjcYWDX6JxE3VO8eYBrHKXgUzSiOyhxyy3PRvLsx4mI30YQpbdjQF5caUFisQ0m5IaihHwscR7D2lum449ZtkEKR4AYgiRIGOtiuYzDwSkJP/7XJJj+FCaXJRQLWPUp3PrGWzK+OyGKEiYQlADWwTSMgGcNGXCTJRgJEkZEAKCIcIKSQa9xdPqAHctjAoJKNoV6FY0pshpUAeAVAkmLbJGgSIaGlia2nSmZBBvijuJkjAcIRZBZnoe1AQpVzA5CbKhWV6FFSakCR33VfUqqHOSPyfSUqp5hwyXcr8PzG+oh/NytO+h+jLbOSF6j/iUaSiwQoJJA/AzgzVut1NCQkAWinVGdF/xwCxWFGPDlIwFv/7Kn67xM954iMIYCo96QRJdk7MOiWD2ZUy3KzWlXqewa0/nBIsDAABeASJsMACYxDLWwEIKMwvNbCrMgsii8BMJqUQzH6krLhGL0pLbb37oXfKUVTgw1bPu+O6XEBYPYFWteiK3QBZk+TlASc9DDdfdY6MvfNWKzZ0ZCQBMAN2yIORDGc3Z8cJODdf/eXbXq067zuQ57poZyvVwS0sZICECV5R2xxyXkDZi2Qpk3d5jMckUkAi4vfPZkImMiwDrKFaXSm6PZS0JmiJ/U7EkajEiXlBhQU6VBSZhhKyEszJ8Y9ynEEt/xsFjranGhutMfsuNNOU7vP+X3aIAHBSGOcnCSA3vMArf3gFjIl9k0bkIAEoI72FfsgFPJDBjzxSUBjrcvw4P8cuqBur3MFwthTe8TgY6ICjyDXyvfYZVd5pl5uUpNqYCUAvnhdiEmwwOlkuz4qbXRbKas0KhBCwu4ZcDgMRiVKyvQoLJZj9AFDb05PDEM/HgYHvOhod8bseLPP1znP/r+0QcKPNNBJTQIqVHCuA3B/LNbvcCQUAdhGtykpuAUAhV/xL6FJgCSJ3IN3tqz89PXBC33e8BsTaeN9FSQqewSsbllFL9W60SkZSc0kAUhoiAJblngkmtCMB8IREI6AhpgAZzAqR5XVyX8bksLQj4WNj9fC64l+kzuOB0663TR43FV6BwCCIwx0MpMA3P4A3fLkLWQZQ81yZBFv0zMKZlTNBUQt7zfQiUwCave6TH+5rfmqjmbP7Imcc4YaCDMZN/KQKNAxCKh5uXIgGhAp4PDIxpbnAL2aXbAnXLB6NYQUUGtJYWi0PGzW4L3hvS5vVL0AgtcHSQxu9AgBrr5hqpx9XxKdZLx4onr3AL78LHbx/yknaQKlFxSjDHCykwBkKKFZD+CuqC7gUZAwKc/76aFMClRQv7LfsIKf6Ff7k/81WvGPp4GGPvAr+9ERan7RUgx85t7uOf/73bpfTtT4A8C3KxOsRTSF3CAnGhh0A/W9QNsg0G0HOqxAfY/8Opq2l3VHGILE7CRiD72BjZS6ndEt6WTVpzelqXDW+cWYMz8j5Yy/JFE88VBN7I4nArtfdOqkYScdBWRDGvjn4cp9o5X5pCP+H6P+P76KgQTc+idobTbDUkQUCUEANlDKKWBYJO/OgUQlAZIP+M11dee/9EjHD7xuacLi8XMyKNbNFIcT1dK0QIZObmmbZxr+k2sEcgxAll6WuDWo5QS+aJXzOYPvskKG1S17Fw7fOVEAfQ6gO4reL9bSvkkCkNDIy9cyjRvsikyd+VhgrWMPRTI32fDO621oaWJL/OM4gpIyA7gJJhoffNetcVulkdY2lUiAwQfXTxiWIaJIiBDA99BbJUGZNuyi50HBUyK78BMiHNDT6dX86ur669ob3Qsmer48AS6bAaw/UQtdplqOUYfz26CQ69c9wnDdv9s38d10GIpc44JSOdlwvHkNuACzTiY2kQbrg4dMEoBERlExW5pNb2svKhdVRW0efYfYFFxLypl6gSUdbFYfXnimgXn86ecU4tobp8HtFtFYZ0Nfrwc2qw8ejwgFT9BQZ8NnHwXvttjbICi7qr3KkmUaL6cYemSmTDiAgtzwGN311+vJvJjVmMadAFRTqiKwTPcbdSQiCTi4x2G+6/qGH1kHhAnJi2XoOHx7vgKXHadFfnoEsu0JhmWAA6VPEpUz3u1eWd5WCCOxLdJG2OWT+xuMBwrZS5AdhYcmR+Q8A1+QOaji/nOYxDiYNiuNaZzb7kJ/ez8yCjIiPgeHxY7BbgvT2KqppogfPxHw/MYG2G1sXkKjSYlLrqgAAGg0PGbMNh8xprfbjS8+6WLq8rjvLZe2YJ7aqzbKRjzFSIBGAO4AcBPT4kYAcQ8BqGCZJYKo+CH3PIARr+MdDtj5pS1zwzV1t0/E+OcYOWw4R4ePf2zGbacbImP8xwJHZKGffCNQlQWUZQDpOrlFLivSI1znHMzwBsCY5R0WzAznFOnznkREMX2WGQrG+7hhe33EyvRGfe8O9u+dvyjyBCTeaKq34f232dv0Xnpl5VATobGQlaPB9FlHEoOjoe5Dr8bjHGWAA0iJcAABrnqQ7prGtBgRQFwJQC3tM3FAORDY/ycWCfjqXWvu729q+B+HTWLvAzoCJg3BT0/T4b31Zly2RBMV7/a4IJBzC/KMQFU2UGT2SwGP8xmjWs5FiCgYH8RReGAPIUMH6MYptzJr5HOfRMJCo+ExfzGbUXVY7Di0rzWix+9u6kZ/Wz/T2NJyA3LyIv07ii8oBZ58pIZZ/7+s0ohTzihgGrvqlHymcY5+iW/e7FLLD+mUJAEcD/K/DEsREcSVAKignQMQEki4SyQSsP0LW9Z9P2v6qdsphUXjz5mjwls3m/H9lZqoVdSFBALZwJWkAxWZskEcuZviOTnRsNAcXj7CeGDtTBjNggiOyOeeqRudFKjg5CTLPDb38iTii+NX5zGPbdzZgL62yHRctfVZUbOFvQvgmtPYDF8yYfOnXdi3hy38QQhwzQ1TmRP/lp+QA7WGzTN64B2vVhqKQKQeCaCg3/o73TE/yDJEBHELeu6jPfkCPLnw6/0PNdDBkIEm8coJqN9nN969vvE2t0tMD/W8cowcfn+BHidUJYLVHwMqhb+ywCjX4xP4a/GjVFXAWq0QTQ8AIJ9ejhHINsrJk4QAqiie9yQiioY6W0jJZ5RS7P+sGtNXzEBWSfgVVoNdA6j+tJpZiEij4bHqZHaikgzwuEU884865vErTszFzDlsbn0A0Gp5HLc8mykZsHGzR+OyUmLUEEmOwQ/H61MjJ4AQBfhfAbiQeQHDRFw8AJRSTgOtv4ZeQGD3nQiegO4OUf3r6+pvc9jEkH/BJ05R4tUbTYlt/EeCQBbJUfKIqhFkJQAM4ioRQSB5UhXl855ERCBJFK++2Iw7b92G9kOhyc6Kgojqz/aicWcDxBATYqlE0bqvFbs+2AWfh7009szzi4PGvZMNm15oRm8PWwtktYbHFdeFXoWx6mS2MIDgoeTA2w4tgBE775TzBJzxGN29KNhaTBRxIQAN6KmU4DPwQ8Y6MUgARB6/uqb2usF+oSyU8+EIwW2naPHod43I0Mc9rzLxwCrEEysCMImkQX+fB3fdsQPP/KMOQrhJohRo2duMra9+hfaadgheYdzhoiCiq7ELX7+2FQ3b60BD0IdIM6tw/sWl4c0zQdHd6cJrLzUzj7/wktKwNBDmzE9HRiZbHk716x7dsPFMTRIggv40+EpMDDEPAdTSWjUP9VQBEgSIUAy5+wXEOxzw2xsbz25vdC8J5Xy0KoI/XqjH6TOTV8876lCwegCiHAKYRFJh6+YePHzfftgYS86CwevyoHbrQdRtq4U5Nw2mrDSotCooNSoIXh+8Ti9s/TZYOvuZ3f2H48rvT4HekFrlpBsfr4PXy7YeOXlanPut8AgQxxOcsCYPr74YnGy07/aqB1okPr2EE2U3OmiqhQMAnPsI3T39BjL3QFgLyoCY36kcMqdSSMqA0U0UEvDcfd2zvvl08FuhnEu6juDRK4yYW5haP/iIg2cse5QkWceANWlwEikJj1vEU4/W4v232MvNQgGVJAx0DDAr+rFixYm5ODHFYv+7d/Tjqy/Y9f6vun4KVKrwvaCrTslnIgCUArtfcupW3Wq0DhvgVCMBIBS4DcDasBc0CGLqr26kVKOAolR2uIsIhACEEa/jEQ5oOugwvPJk11pK2dcjXUfw1FWmSePPAgI2HQKKyY58xzga6mz42c1bo2b8o4XiUj3WrZ8e72lEFJJE8eTD7Hr/cxdk4LgVE5OzLy7Vo6KKTWV97+suvezDH+lGT7VwAL7zCK0uCbYW4SKmBIDCMU2CyPN+Q5woJOAP6xuv9rhF5pTVgPGfnhdFQZ9Ug2KyJe8kxsZEEv3iDXOGGj//zXxodam1GXj7tUM41MLWGIzjCK5ZNzUix2XVBLAcEhWtX/v8sddUJQFUSSGuZ1iOsBAzAtBJO/U8SPGwsU4MEvD3XzSvaGv0HMd6Hhol8NDlxknjHypY3YKe8RO0JpF66O/z4Ld37pxYol8c4XGl3j1rHfSGVHJ5xrlFKCph69UQDMevzgXPqB+we5NDf3QDnEokANc8RvfkBl+N0BEzAuCGZpoILweMNNbxJQGHmt3aj/87cBnrORAC/PY8PRYUpxbTjwlYdfa9kx6AYwlbv+zBT278Cnt2sinsHQ3FpQb89t7FWLIs5t1UAQAul4jH/hq1PK244Nmn6uGwsxEbU5pqSO8/EjClqbBgSSbT2P3vuHU+l0RSmwRALUG6kWE5QkZMCMAB2mMUwRXwRzXW8SMB9/y45WKPW2J2/d+yRotz507KxYYFVgKQgrupSRwJj1vEow8cwN2/2R12lj/HEZx/cSn+9LclmDYjDT/5xRxcemUlc7+ASGLHtj589mFwEZtkQEOdDR+928E8/tKrKiJe+cCqCeB1UO7Ae24txjTAqUECALLuEVofcbnSmPxSdFBOIxDI4YY7niTgvZf6Smr22E9hPYcVlUqsOzF1+3tHHRpWD4BPrgSYRMqioc6G22/5Gu9NINEvPVON//3dfFxxXdWQwec4gm9dVoY/PLAEs+aGLOI5YTz5SA0GLd6YHzeSoBR44qGDTJ35AKCiyoiTT4+87PGipVnMYkp7XnHp5dmmNAkwAs7vB12MEBF1AlBP+9MouDweCiqb9cQgAc/+rfNSyHWFQZFl4HD3RQZwrIp2kzgSquEG3uOCAnBHpu57EokFSaL474stuPPWbWhrZUsuOxqOW56Nex5aijnzj96mo7TcgA1/XIjbfzXvqO1nowWb1YenHmHPmk9EfP5xJw7uG2QaSwhw7Y1TwUWhbFep5LDiRLawd9MWr8beI3GpTwLoD5+kH0V0Fxr1YLYKmmleuKGAAjwUVIRARChG1faPrucXCT9ECKKjE/DSEx1Teto981jPYcM5emQZJo3/hEAgZ1C6GIy7wzt+575JhI3GehvuumMHCAF0egV0egXyC3XIL9ChvMqI7JzoeLkG+jz42z37sHtH+LF+tYbHVWun4NQzC5nGL16WhcXLstBUb8MXn3Thq8096GhjrzDIzFJj8bJsDPR7sHVzD9NnPv+4CytX5WHxsizm4yQK3CHq/R+/Og/TZkaPYK06OQ/vvnEo6DhJpGTPJqd+xVqjVa79H6tGP+l1AnJ8yPwWgH9NfHVlRJUANFNLughfNg+eChBIopCA/27sYRb8OXWGEqfOSC1d77hBp2IjAM7kdqMmMuw237hGOCdPi9nz0rHihFzMmZ/O3M1tPGz90q/oZw3fs1NeacT622ehsDj0TPOySiPKKo347rVVsPR7UHPAivY2J3q73bDbfEPuboNRicwsDfILtaiaahpq5+uwC6g5sAWWfg/T8R7/+wHMnLMMOn1yJQtv+ncT+vvYzlETpt5/KJg6Iw35hTom0rbnNbd+xVqjddiwpyYJkEBvQLIQAAGo5P0nkCgkYNM/O6t6Oth2/wY1wS/PjkxpyyQA6BQAS3dWl09WBeQm+yqwQJSAHa2RSZ7s7nThw04XPnynHeYMNU4+vQBnnV8EU1roHhmPW8TTj9XivTfDj/VzHME5FxXjsqsik9xnzlCHLFajNyhw/Q+m4e67djON7+v14Jkn6rD25uQRBurscOG1l1qYx1/4nTJm3f6JYNXJ+Xh+Y33QcT01PlXnPp8yb6bSl8okgANZ+CjdsWQtWfB1BJY3ejkA1bTbwIMEfmkUkA20APlBFa+cgHef7zuN9RyuW6lBjnHSCEUMWhV7HoB9Mg8gGEQJ2LTTgzP/ZsH9H7oi/v2Wfg9eeq4RN129GU8/VstcFgbIoYbbb/l6QsY/PVONO387H9+7bkpcMvtH4rgV2Vh2fA7z+PffakP17shKDUcTTz9aA5+PTYMhL1+Lc78VNXG6UVh1ch5zjsGul11Du7XhOH/q5QQA3A3jLENIiNqvSgtdBT/awRB3EnBwt9PY2uhezjL/LAPB1csns/4jCp6T8wBYMMjWevRYRW23gEsft+J/NjnQlQlI3AAAIABJREFU3Bdd8RyPW8TrL7dg/fVf4qP3xi8PoxR47aUW3PGjiSX6LVmWjXseXIq5C46e6BcPXHfTNObMdEqBh+8/AK8n8YWNdn3Th21bepnHX7l2CpTK2BCyrBwNps9iyzPY95bTIImjDXBqkgBy0UN0FzsbHQdRuYqNlGoIxHwRgt/IDyGuJOCfD3SskUTK9Au+8UQddKrJxL+Iw8DoSna4J9sDHwUSpXjoEzcufNiG3W2x1UwYtHjx4L37cPddu2E/Su3+QJ8Hv71zBzY+Xhu2op9aw2PtzdPxs1/NhdGUWLk35nQVrrx+CvP4znYn/vMvdjW9eEAUKZ58pJZ5/LxFmTEXXGKVBnb0SnzdJ24tkPIkQEVArgm6IAyICgEg6CtXQM4eSiQScHCX40SW+Zu1BN9aMJmFHhXoGeOGFMAgW0LSsQKnl+Lm5x2470MnfHFsnbx1cw9++oOtaG60D7339ZYe/PimryaU5V9eacQf7l+CU89iy/KPB1afko95C9m9Ev99qQUNdbYozmhieOvVVmZPDc8TXL2WnQBFCstPyIFawya9vvsVp8H/MqVJAAfy/Ufotgkz5IgTgG2UKiUoikYa60QgAe+91FPssIpFLOdw2XFqaCd3/9GBVgmoGPsoDEY+rp2s6LFLuPRxK94/kBgVEr09bvziJ99g25ZePPrXA/jTr3eHneVPCHDut0rwu78sjpiefLRACHDDLTOYDZIkUTx0336IcSRsY8Ey4MV/nm1kHn/m+cVxuT5aLY/jlrN5Heo/8ejcVilg11KYBNA8QHV2kOUIiogTgBwMliig4GSznjgk4P2X+1awzJ/ngO8eNxn7jyqMjF4At2+yNwCAfoeEq5+24WBXYq2Fyyngj7/eNaFEP3OGGnf+dgGu/H7s4soTRXauBpdfXck8vqnehlf/E7zHfazx7FP1cDrYwkjmdBW+fXl5lGc0NlilgX1uSqpfd+lGvJWyJIAAa8ddDAZE9Bf3AqW8BFoSMNCJRAIaa1xLWc5hZaUS2YbkeBAlLUxa9rEDydUaNtKwuimu2WhDXXdiGf9IYMmybNz70NKQXOqJgjPOLcLUGezS7C891zihpMhIo77Gik/eZ9f7v+yqyrjqGsyZn85cdrjnvy7DeAY4hUjACY/TXbPHX43xEVFLtwgDhRyUypEGOhFIwI4v7Rms7v/z5k7G/o+AKAE+EfD45Bp9p1f+d7jQKNh7A1hcx2wyoEQpfvqSAwc6w19rwnFIy05D0YxiTF02HbNWzcHck+dj9uq5mLZiBsrmVSCzMBMKVewS7tQaHtf/MDET/VjBcQQ3/mgGs9fC65Xw8P0HmDX2owlKgScermGeS+VUE1afyrYDjxY4nuCENXlMY9t2ejUDLYLiWCABEsi1QRdkHESU0hmgKfLA6xf6GRbyESASxQhRnwAJECGMEjqIlljQR5t6mViSVkVwyoxjmABQyG53t9/Qe0TZ0I9lgLVKIM/IXto3EmlawM2QHCVRoN8JZBuCj00xPPypGx/XhBfzN2WZkFeVj5zSXPDK4PFqSiksnQPoqG1H76E+UCk6pKus0oj1P5uV8LF+FhSV6HHRpWX49z/ZMv0PVFvw7httOONcpr1I1PDphx2o2c+u93/Nuujo/YeKVafk49UXg4dSKAV2vugwrLnNZAkirZsKYkHffoC++fNbyFlhZUxHzANwiFoz3ZD0gd374bv0eHoCaqvtTARgSakCWmX8b/SYQpTkmvtDFqCmG2jqBzpt8ntu3/i7b5cPaB4Ir3mPWQOwPlT6nbIy4DGEna0C/vpR6FoIOpMes9fMxYIzFiG/qoDJ+AMAIQTp+RmYeeJsLDl3CTKLIqtlTwhwzkUl+H0SJPqFggsuKUVJGTs5ffbJOvR0x0/jwuUS8cwTwZX1AjjxpHxMCyHUEU0Ul+pRUWVkGrvndbcBVN5Rp7gnIE2LojMYluSoiGAIgCsCZNOdaCSgp9M7g+UMjq86Rnb/FLIbv20QqO0B2gcBmye8NrwSBdqtGH1vMoDjABNjsqVEgf5jpyJAlIDfvOmARENYUwIUzyrB4nOWILMwc0LH1xp1mL16DmavnguFauJOwkCi31XXJ0+iHysUCg43/mgGc88El0vE4387EOVZjY2Xnm1k7mmg1fK44lr2ZMdYgFUTYLBNUDZt9WgIUp8EAOSyoAsyBiLya2ykjRoRyFL4jXUikYBDzV6t20GZ+kqurEiu5h0hg0Le2Tf0yjt3qztku31UeATAFYYoTYaOTRoYkL0ACVhKFQ08v82D6nb2uD+n4DF71RxULKgEiaCrNrMoE4vOWgxdWvjhl8XLsnDPg8clZaIfK6qmmXDW+cXM47d/3YfPPuyM4oyOjs52J954pZV5/EWXlcOcEX29/1Bw/Opc8Ixka/cmp2E4Xp7SJOC0cJUBI0IAeKQXAgIRACQaCdj8Zn8JpTToHWPUEFRmM9anJyNsbqCxT97tR6O0LpzvVCvYhYFECei1Bx+X5PAKFA99wu7t4BUc5qyeG3GXfQAagxbzT50XMglQqThcs24qfvbLeWE1Eko2XPq9CuQXsFe3PPlwDQYtsdV0ePLhGmaFxrx8Lc6+gJ3UxAqmNBUWLGHzcO1/12Xwuig5BkgArwDH3OF2JCZMADbQDZwCXAE/wvAnEgk4UG0vYzmPGXkKkFQM/3tFoGUAODQo79SjhXB3nlkhxIMHnIA7tvK3scYruzzosbM9pAkhmHnCHJjzoteTHQCUGhXmnToPaj27PsaMOek46/zi1PxNHQVqDY/rb57OfL42mw9PPlwT3UmNwPav+7D9a5ZWnDKuvmFqwoZrWDUBvA7KHXzXqQMCmXepSwIoaFhhgAlf4Rvxk2wfJBUwbKATiQT0dghMtSMz81Nt90+BPqe863dEeafBEUAX5i5PqwT0jJ+lADrDyDdIElAKPLGZPZm3eGYJMgpj41pXaVSYsXIGc4hhz45+9HQdWw2d5szPwJrTCpjHf/FJV0hNeMKFIEh46hF2srFwSSYWLY2ORykSWLQ0i7kp0+5XXcaA/U1tEkDmPUqrZzEtyghMmAC4IRTJRne0gU4UEuCwikz+ovKsFCIAggS0WIBuW3iJfaEiXQcwxuWOihwDey6AywcMpKZh2dMuoLGXLZRiyDCibF5sldnScswonsnWBlaSKD54J3yFwGTFld+fElLc/PG/H2BW4wsXb7zSio42NkEthYLDVWunRnU+E4VSyWHFiUxpXWja4tXauyX+WCABBPQ7TIsyAhMiANW028CDNwFAopIAp0NgorKF5sR0d4UMl08u5Yv2rj8As3biNfoaJRCCexk9dpnkpBje2cdeTlmxoCKiCX+sKJldCpWGzWPzxSfdUZ5N4kFvUGDdLdOZx/f1evDME3VRm49lwIuXn29iHn/2BcUoKNIFHxhnnHgymyiQJFIy3CAo1UkAveQF+kJIO9kJpb2nQRPwd1H4hXxECIQfIeQjQAEFFFQY8do/JiZiQW4nZfKR5plSgADYvUCbJQq7fgIoOHmXT4j8t0oBmNThu/4PR54BaGAsRRQluYSxJJ3dcxBHiBLQ3C+i1y7B6qYQxtjkv13NRtrUOjUEn4ielp4IzpIdpmwTeluDu647253o6nQhNy8E6ecUwKKlWVh2fA62fM5GgN5/qw0rV+Vi1tz0iM/lX0/UhaT3/63LyiI+h2hg2ow05BfqmDwbe19zGlesNfiVj2QNnQAJkAV+UkMsCCB5FkxfA+B91nUMmwBsoBs4JRTZvqF2u4lJAgRBYqKzOcYksCTjweKS4+ORsP0qXo7La1Vypr6KDz/JjxVKHkjXynkLLHB6gT47kJWYCoFWN8Vbe714q9qLna0CXL7IkTKP04N9n+6N2PdFE7u+6cdpZydue99o4bqbpmHvrgHYbcG9OpQCD99/APc8uBQqdeQ2IrUHrPjkA3a9/8uvqYJWlzyl0KtOzsfzG4OLGnXVCOrOakGZN0vhvxipSwI4cJcgBAIQ9t22FrdleCEq+cNqEoHECgdIIpi2qEmtADjoBjpsEzP+Sl6uyy/PBCqzgDwTkKaRNftj5WrOMgCKEDxYvQ6ZCCQQnF6K+z90Yc29FvzyNQe+bPBF1PgnG559qg6vvtgMryf1QjbjwZyuwpXXT2Ee39nuxAvPsEkKs0CSKJ54+OCwvzkIpkw3YTWjyE6iYNXJecwSxbtedhhHu9pTMxxAIZ2xgVYzu2XDpnsEJBfwK+4DVByhU4wE8QS4neAkiQZNF+U5QKVIUgJgcwMdbLreR4VGAWQaAJMKcfencwTINwKtFrbxFHIooDxTDlHEGV81+vDzVxxosxxbxm48OOwCnvlHHd57ow233TmHWco1FbD6lHx88Ukndn3TzzT+tZdbsGJV7tAaWQa8OFBtQe3BQbS1OtHV4YJ10AevR4QkUShVHEwmJbJztcgv1KFqmgkzZpuRm6fFx+93ou6glem4HEdw7bppSVeymZWjwYzZZlTvHgg6tvott/G0O2gfx4/chaekJ8BUBOEEAB+wrGFYl5xSqmiFbbkShBP836EAII7+PgIAsmGXeYZswBVQABBGvA68L48FAB4iRKIY8Vp+pcAIEjDqGIrDjsEDaGtzaK4+qfqFYOejVRHsvDPy8beow+UDmvvD2/krOSDXBBjUcbf7R6DNAlhD6G2hUwIlGXE9jxe+cWPD685jtXEhE1QqDmtvmc5cx50K6Oly49Z1W+Bxs1V3lFUasfqUfGz+tAu1BwaZd/AjUVSix6DFC5uVLal0zWn5uOnWmaEfKAHw0XsdePDefUxjL30wo33qyRonQDDCwMJvf0EA//uH///wk2XYsI8cI39G/v/AWDJi7PB3DH/myGMMW3xKAG7cOchvjDUH+tT1ZO6tLGsS1rapFc4cIht/KPzmR3brJ1Y4ICNd4wWDefQJSeiiFSS5gU/IUydAph6oyAKMCWj8ATn8EMqO3umThY7idBmf+9qDX/x30vgHg9cr4cF79+Pzj7viPZWYITtXg8uvZtfTb6q34alHalCzPzzjDwCHWhzMxl+rU+Dyq6vCO1ACYNnxOVBr2MKGuza5/O6nw13xqRYO4M7aQCnTAzQsAqABzeFHGP5EJQEqHS/xPAkaJBakJGs5TyEb/1BL4RQcUGKW6+4ToL3nmOA5ID8tNHJid0cuCTIEfFbnw11vOmJ70CSGJFH87c/VOLiPMcyTAjjj3KKE6ah3OC6+rBzm9OSVatZqeRy3IptpbO1nboPbOrRjTmESQHNKUb2IZU1CJgCttFUrgDcCw8Y+kUkArwCTakxSJWr1OWT3fyjQKOVYOavqXrxhUMkCQ6HA4oppvwCrm+KOVxzJRR4TAKJI8bc/74Ob0S2e7OA4gnU/mpFw0roFRTqcdUFRvKcxYaw6iS2kJLgp2fOa0zC2AU4dEiAC57CsSch3JI+sHMAH+A1wopMATkGYOqv0OZLkKe4W5Oz3UKBXAaXpCZEoFxKyDTJxCQW9DrlzYAxw97sudNuS5L5JMHR2uLDxsdqoq+AlCopK9Ljo0rJ4T2MUrr5hKhTJ9kw4CubMT0dGJpv64p7/ukzDBh5IVRJAIUWHAACS39+S+CTA6xEIoaMWbkx0DibBg5zC7+YOwVuhVwFF5sR2+Y8FjgDF5tCJS5cN6LZHNRywr0PASztSU5I4VnjvzTZcdfEnuOnqL/DHX+/C8xvr8eWnXWhrdUBKwdbPF1xSipKyxNCtMJqUmDo9McMSoYLjCU5Yw6YM2LbLq+1r9ilTnQQQkPLH6J4ZwdYjpDLAHtpj9EHUAEoK+IhMApQUEAgPuRQwQAKEEa/jUSIoeoB151evdzlFJv9Qly0JHjhWd2iuf60yeY1/AAoOKEyTOxqGcon6HIBIgTxjVBIdf/926El/3nIBvkIRkjIJ7rUQwfkIlC08VC2hVxb3dLnR0+Ue1RhHpeZQXGJAaYUBpeUGlJQZUFZhYG4Ck4jgOILMLDVamuLf1tpm9eGuO3bgF79fAL0hecR/xsKqU/Lx6ovNQcdRCux80Wk85cdpfXTc8rzkLxEkwNkA9o+3HiFdeQGGTNnoBwx/YpIAr0fEjefvW3+o0XMy67nZE12oRKJAj419vIJPfuMfgE4F5KWFrndgcQKCKBOICK7DW9VefN3E7rp2zfWh56eD8FSkvrtbXaNAzp/SoNk/MUPt9Uior7WivnZ0LXtGphql5X5SUC6TgoIiPfiJNKOKASgFHr5vP3ZsY2/JG23U11rx+1/uxK/+sBAqVXKHAopL9aioMqKhLvgzcu8bHuNJt6GPBMxl6pKAswH8eby1COlX004dC3kQ7fBuWwmZBAReC/66/GFtgHjoBFx/9p4fNte5zwzl3O67xIAzZyVwgly/U3Zts4BArovXJe9u6ajosYee/wDI61AYRijhKHD7gDP/akE7Y8jIudCL9r8MgCpSb9c/FogPKPphJjR7Y3P/KRQcikv1KCmTPQUBr0EiZbdv+ncTnn0quGxtPHDiyXm4+Schd5JNOLz5aiuefJit7fGVG7Nay5eqXXTYQI9To5+0OgFUgjj/ejLv0FjrwOwBaKftOgpRG4jXy0Y58TwBt162/7JQjb9WRbC0LIHdYBTAQAiJbVn61DP+gCwVLEhytn8ocPqAxj6gIG3CVRBPbHYxG39JS9H1y8FjyvgDAFUCnRssKL08C8Qb/Z25IEhorLehsX40QTanq4Y8BYEwQnGpPuaJbweqLXh+Y/gyv8YMIzKLs2DOSYPWpAOvVAAgEAUBLpsLtl4reg/1wtozCBpGI7BPP+jE9JlmnHpWcvdsOH51LjY+VguRIX9k10tOY/lStWt415ySngDCgT8JwMax1oHZ6kkwZygBv1EWEpIE/OLGg2dUb7dfwXpOAdxwvBYZ+hAfCj5Jbkbj9MlGifOTPJ4DeB5QcXITHY1SbqgzERe01Q14GUum1AogQx/+sRIZBLJUMKVy/4NQIEhA64C8NtmGsPICOq0SHv2M/bgDVzogZB8bpW6Hw5cvYuAyBzKejl/Sm2XAC8tAP3ZtH5bi5XmCgiI9yiqGiUFpuYE5izxUeD0SHri7GlKIhpkQgryqfJTMLoVmjFbZvEIFlUaFtOw0FM0ohs/jQ9uBQ2jd3wpprJaTY+Cfj9diweJMZOWE0JY7wWBKU2HBksxRuSRj4cAHLqPgTu9WaEYazNQjAQBdjXEIAPNjsIva5wqQDAoo/O552UGfKOGAJ+5unfvCPzp/R2loeQ2XLNLgN+fqQtPBdvlkvXrmLDACqHlZdlevknfnoRyweYC96U1JevLU+ocLClku2BaCXPBI6FWyNyDEneBPXnLgtd1sx/Tli2h+thdUdWzt/keCcxGUXpYFRU9ILcrjAoNROUQGSsvlMEJxiWHC3fme39iAl55rDOkz5jwzphw3FTpTeETe6/KgYXs9uhpDU1xcvCwLt/9qXljHTBRs+bwb9/xuD9PYC/6Y3j7vAr0NfgOaouGAQRP2T72EXHJURshkLGspVQMuvQJcoPlOQnkCNr9jy355Y/cdoRr/61Zq8NNTQzT+IpVV+EJKAaeAR5D/9DlkL4FJI3fb0wZx1Qui7GVggV6V+sYfkO+aQrNcEhlqOAAAHF6goU8OlWRowcKDd7QKeH0PO+Ho/aHtmDb+gBwC6VtnR+5diV9uZrf5UL17YFRjGY4nyC/QyZ6CsmFykJ3Ltkvu6/XgtZeaQ5pH0fQiVCyqAplAZx6VVo3pK2fCkGlCwzd1oIxlw9u29OLgPgumzTSHfex4Y9HSLBiMSqY2zLtfcZrmXaCzBXbnw+V0KVUdkDaI6fMBfHO0NWAymEo4M3wQoRxhjBOFBHS2e9X33Fn3K59XCukps/4kLW5apQ3lIzKsrtAleA+HKMkx/QGn3I0vQy8TgqP95gfdYK5/y0xR1//RQCD3DADCIwGiJCdVDrrk7xmHiEmU4ndvOZnlF5wLvbCvntQIAADr6S6kbdLFLCEwkpBEirZWB9paHfjy0+HdtE6vGMopKK2QyUFJuQGawzTp33ilBV4v+7OiclEVimYUR2z+RdOLoDPqsPeT3cy5Ac893YANf1wYsTnEGkolhxUn5uLdN8bMextC01av3t4t8oYcXhw2zMBQRX3qkIA1mAgBUENKJ1BQHwSSaCTg59ftu8FuE9i7bQC4aVWYxh8AXBEu5XILQPugLGGbpZe9AiOZgJ3R9a9RHhu7/5EIkAAFH74EsFsAmgaAdA2QbQSOUk72yk4v9rQxXnce6P0RWxvWYwIE6FlvRfHazNB0HBIYToeA/Xst2L93uJ8BxxHk5GpQWmFEabkBRcU6vP9WO/N3FkwtjKjxDyCjMANVi6egditbdnz17gEcanGgqCR5NxOrTs5jIgCSSMnOl52m49cZ/SIjw56AVMoJIMAqjFEOGJQAUEoVXbAa5SK7xCIBd9/evKK1wX120Cs9Ates0GD9SWEaf3lBwv/sePCKQLtVLvfLNcq17xIFXIwEIC15k3cmBAIgWy+3Nw67GRAFBlxyTkGGTu5B4E/adHgo7n2f3cNgOdcJT2Xq1/uHAvdMH6xnuGB6awK/uwSHJFF0drjQ2eHCV190h/RZc64ZVUumRGlmMrmw99vQUdfBNP69N9twzbqpUZtPtDF1RhryC3XoaAteObXjZafZ56HEZZF416DEe+3gQCjUJk7SmTkxo1zhy52q9BbOU3h5JWgykgAKsvBNWqs+i0w5IoYZlAB0wGbm5AQ/QA4CJAQJ+PzDnuwPXu+7LegVHoFz5qhw+2khNpg5HOoolwu6BaDZAqRr5WRBFoNGcOwSgADMWkDJy96UcEM0giRLCPc5h4jAQ5+60GNn+z7RKKF/bfxV3hIRfetsMHysAedii20fvzoXC5dkobnRjqZGG5ob7LAMMJLhJAIhBJWLp0wo5s+CioWV6GnpgeANTk63fN6Nq2+YGlpuVIJh1cn5eH5jcN2F/mZB9emDtqDtBBVqIhXNV7mnrNE4FlxosKnNgZ1g4pMAAqg6ICwE8OXh5xX0EndRSwWFKqD/T+QMfzkzX+nnD34SENPqgMtO+Oau3m7fsmDzD2BRiQJPXWWESjHBu1qQgIZeORkw6iBgYgA6f7OfScjlmYcssmLPBNHi4HD2mzxzBWbvj2wY+PZka+CxkLFRj8xHjExj1Roe9z26DFnZw8TWOuhFU4MdLY12tDTZ0dxoR2uzAz5fgqt4joPc8lxMXzkzJsdq3deChu1sYkR3/30pyioSo29BOOjtduMH12wOufySBbyS0CmrNPYTbjJY8mYp/aw00asDyB+uI7PuOfxcgm5nfVCYFP7d//COPr6egF/eXHNKKMa/0MzhwcsjYPwBuXSswAS0WWUXfVTB+P26Yyz2Px6UnEyGuu2yFPAELtEfdxBm4+8tE2C5MDZdCJMVA5c6YXpNB2V78LJAj1vEs0/W45afDSvUmdJUmLsgA3MXZAy9J0kUba1OtDTZ/eTAhpYmB3p7kiMJs3hWacyOVTC1EE27m5g0AnZv709qApCVo8GM2eZRVR2Rguij5MD7LuPBD1zGqlVqxxl3pveaSzghkT0BBHQFgNAIAKVU0wmXioKjZGj3H18SsGeLM+3LDwduYr1YKgXBA98xwKyNoD/LoAFKFbI2v9MXAyIQBPrky7COKjgiNwEyquS8ijBCAl92Ebx/iL0GvPcW2zGn+BcqqIqi9wdW5N/J5q36/ONOnH5O4bhlaRxHUFyqR3GpHitX5Q6977ALaG60oblR9hQ0NdhxqMUBjztxhJm0Rh305tgl2/EKHhn56ehtDS6U09wUQt+RBMS2Lb1oa42uN45SoPZjj75pS5du5fWG/uNvMloIl6gkQFqygVarNpBZo+Jo4xKAbjjSlCDUB0IolAlBAv6yoeFaUaAm1ot055k6zC6IQtxeowCK/Q8yUZJJgERlY+MTAa8gVwy4Y0AQop2XkKzQq4HyTKDTBtjYd4QiBX63nX1NHSs8cCwNU5ToGIN9tQfORR7ovgmuvEcp8OTDtfj9fYvBhaikqTcoMHNOOmbOGSYbkkjR1ekaCiM0N9rR3GRHd2cYZaQRQFZxZsyPmVmczUQAWpqSM5QlCBKeeKgG773ZFrNj+tyUfPxXW2bDlx7dRfdmdBlzeSkBSYCmBMJsANtHzn3cp5wXokkBBZSgCUECNj7YMbW1yX0W64U5dYYSly6OjsTnKPAcEPBqHn44icrKgVa3nGUeag/ZYFBw8vEncXQoOKAoDbCrgQ4bkzfg+ToOtYyNB6lS3v1Pgh29620ouUYNMGzG62ut+Pj9Tpx0GlNX73HB8QT5hTrkF+qw/IScofddTgHN/ryCkTkGLld0vQWm7NgL7qRls8ml9HYnRwhlJOw2H/6wYRcO7guxa2iE0LLNq33i2z1Flz6W0ZE7TeVLNBIA8AvBSgAopaQHToOIQP5//EnAy091/AA0eOIiAGQZCO46LwFiWBwZVujLpTIJ6HMCnoknqQGQM98nERwGDVChlvs39I+dGzDoBR7Yw76mlosd8BZPlv2FAk+lAMt5Lpg3sZUFPvdUHZafkAOtNjr3ulanwPRZZkyfNWyQKQW6u1xobhhOOGxusKGr0x2xxDKtMfaVOxqDBoQjQYWBnA4BkkRD9rzEC5YBL+66YwdamuJbhWPtEhX/vKKv4NJHMzqKFqi9iUUCyBEKT2MSgB5ATwA+YIzjTQL+7+cNy62DvjmsF+Ku8wxI1yXYzcsRuVzPpAEcHjlRzTNB4zG5+2cHT4Aco1wy2GU7qsjSX/fysDBWm4npEvqvniz7Cwf919tgfF8N3hb8/rUMePHSs4244rqqGMxMBiFAbp4WuXlaHLdiuErM4xbR0uRAU6NtVDWCwx7671ihjH3ojhACXsEHLQeUJIqtm3swbUYa0qPUKClScDkF/O4XO+Nu/ANwWSX++Rv6868JXQPXAAAgAElEQVT6V3Zb9hSFkDgkgC46fK5jWsge6sj3AYWB9LJAqZ6sCBAoeRguC4xmiaAogFy4dNujDrvI9AQ4faYKD3wnAXb/wUAhywH32MPPE0jTyI1tJhE6nF6g1yH3BgBQO0hw/tsK5grP7tsHMXhefOLHqYD0/+iRdR9bWaBSyeGeh5chvyAxxYR6u91y+KDJjk3/boKbIdlw2YXLoR6j01808cULnzHpAQRgSlOhvNKAsgojyiqNKKswoKBQB+4oqpmxhiRS/P5Xu7Drm754T+UImPI44fsv5xzSZ/ISEP8SQQBUApn5fTJrqD3mOBRUNCnBUx9AlBjekcfDE3DXT+tWsxp/vRq448wJiv3ECgSy4IxRDRwaDK92nUx6AMKGTgWUqGQC0OfA/30sMRt/z1QBg2dPGv+JwHKhE6ZXtFA1Bd8J+3wS/vlYLX72q7kxmFnoyMrRICtHg8XLsvD5x51obQ6eRCcKsQ8dUYlCDLFVsHXQi13bR7dVVmt4FJfqUT6CFJSWG6DWxDYk+Z9/NU7I+CvVSqQXZMBgNkCtl8MjAOB1euAYdGCgYwBue3i/c2unpNj044Gc7z6Z2UFI/KsDABAO4kIA7wfmeNRfHqWUdMCpVwJQAnEnAV9/NngZ66LftEqHPFOSGUUlD5Sly27pgRBvNrsHkPQAl2TnnEjQq/DhIYIvOtmT+XrWW4cTPycRFqiCone9FQW3ZgQfDODrLT3YvaN/lA5AIsJgZCvLddnc0KXF1lPpdriZGwONB49bRN1BK+oODve94HiCvHwtyiqMKK8yorzCgNIKI8zp0dEpqT1gxcsvNIX8OcIR5JblIrcyD2nZ5iGjPxYcFju6m7rRduBQyOSp8UuPbvNj9rSVaw2DiaATAHBzEIwAdMkitMPyP3EkAX/5TeMih01gEqYuMHP43tIklcQlRG5so1IAXXYwK9gIojw+n7kychKHwSdS/OEd9rIn20luuOannixtPOA4zgvHSg/0X7DFmZ96pAZ/fnBpQienjVQvHA+D3YPILMqK8mxGw9obvUZVkkjRfsiJ9kNObB7RPdGcoUZZuQFllUZUVMp/5+ZrJ3QNJYniofv2QwpRkTWjIAOViypDIl56swHl8w0onF6Epl2N6KzvCIlEff6QLWPueTq7MY8T400CCOiskXMbw/dm1wPcKMMfLxLw6dsD32Fd6PVrtMlfEp/hb0QTSmMbiwswqeX4xyRCxtNfutHcx1aeSdUUfT+YLPuLJHpvtkG3VS0/UIKgtdmBd15vw5nnFUV/YmGiuJRN3Kf3UC8qFobUyHTC6GvtienxAMDS78HOfg92jnDVazQ8SstlD0FZpQEVlUYUlxqgUrN5Mj94ux2tzexJf4QjKJ9fieKZ4XdcVGlUmLp0GrKKsrH/82oIPrYQjtdJuff+OJh50V/SuxH33gFccAKghkLnA08JfCSeJODVZy0FA32+41gWuTyLx3nzUkQS16yVL2FnCGy90wZUqJDUHTzigF67hIc+Za957r/MAV9e4qjJpQK8xQIs33Yg/Vk2w/nCMw04YU0us6s91iirZEtsdFmdcA46oEuLjRqgKEjob+8PPjAGcLtFHNw/iIP7h2v2OY6gsFiHsgojSisMKK80orzSCKNp9HUWBAkvPtvIfCxewWPmCbORURiZ0FFGYQYWnLEQuz/cDY+D7dmx7223YdUtwkBmucIXZxJQ9g96wHgdmW4DxiAAEgQ9ICFg0ONFAjb969C5gYUIhrXHa8ClkvFL18pqgv2M+vJeUc4fyEiSBMgEwb3vu2D3sLlahBwRlu8lp0JaoqP/KjtMb2vB9wffAdptPrzwTAOuvXFaDGYWOmbMNkOh4CAwiE617mvBtOUzYjAroL2mLeQYdiwhSRStzQ60Njvw2UfD72dmqYcSDcsqjOjpcqO/j1F5kwDTlk+PmPEPQJemx9yT5mD729sh+oKvKZUo+eJhe9p5fzT7ZRjjRgIgQZwBYCsAHPFr20apkoPaT7l8oFBSYMjw4/DXCr+jOkAC5KMqqfwOgBGv/SRg6HXA8AOAAAE8AmLqPvT3ioq2ZveZQVcWQEEah/PmpaD7O8cIaEPY5fROoJzwGER1h4hNO9lj+X032iBpJtc3GpAMFH0htFJ+5/U2pkz7eECj4TFtJltpbldjFxyW6NevC14BLXubo36caKCv14NvvurFS8814Z7f7cHGx2uZP1s6uwzZpTnBB4YBXZoBM1bOYm7lvP89l1EYleMdsJeykQ8Y8JEDAi9kIy6/NTxG/oz8/4GxdMTY4e8Y/gwFBzrEOI8gABWAzgcvlH7DHy8S8MBvm5b7fBJT15ArlmqgSMUkeAKg0Mwu9iNSOR9gEkFBKfC7Nx2QKJtBd832wnpq8smjJhMGz3bCM42tFFaSKJ56pCbKMwofK1fnBh8EuSyv9utaUMb7MFw07qyH4I2Q+miSQJ+mR+mcsqgeI7MoE9llbATD66Dcvrec+tFGPvYkgABDiSdHWBY1oAOAeJOAvdttJx99GUdDowQuXpgisf+jQckBOSGUCvU72JMHj2G8udeLb1oY67A5oPdHNsZg1CTCBgf0rGdf5907+vH1ltgntbHg+FW5zDXxg10W1H9TF7W5dNS1o72mnXn8WecXY/GyLGTnJGlFlR/lCyqDlvhF5DjzK8AxbtIOfujRH2nkY04CpgTePCIHwAGrXgkt9cFLZBKgoj5/Ul6scgIaam3a/h7fCpYFPWeOGmnaVNz+j4BZI+/sXQwM3ifJMsOGFAyJRAguL8Xd7zHmVgCwnuGCe0bsdk9GosRaTRWWKbJgIEpUixY86q5DjRi9Eq4AzESFM1UFmMIboSVsJTU+KqFDcuJdXwfqxYm5s13zvLCd5IbxAzbj88/HajF/USaUysR6Bmh1Cqw5NR9vv3aIaXzbgUPQGXUomFYY0XkMdAygdiu7y3zmnHRcs2646tpu86Gx3oamejsaG2xo9rdVjlQ/hGjBmGlCZlFsui1q9BrkVeajvSZ4B8LW7V6/lOXhNfoxzQmoCMxn1C+cUkq64NB64YUKqriRgEfuPbRSkijTE+CiBceCoSNArhFoYszgtbjiSwAEEXALckWCRilr8CcQHv/CjY5BtrI/SSehb13syv4WKNLxhmkN8rhhydvTkY/12un4seMbPOA6GLVjf09djvsNi2Em4XnUJFA85K7Fj+3fwIvwu1723mSD4XM1iCf4fdPR7sIbr7Tigm+Xhn28aOGCS8rwwdvt8PnY1qL26xq4HS6Uz4/MzrW9ph1122pCqlm/+PKyUf82GJWYMz8Dc+YPJ9H5fBJamx1orLOhqcGGxnq5L0K0uyeGguzS7OCDIoic0mwmAuDoExX9TYIio0whxJEEFL5AW7WXkGLXKALQhCZ1GgqIDz7EkwTU7XMsZ1n0QjOHhcXJXvjPCK1S7ijoYEhas3vlfIBYG15BlFvuOjzDTisCIF0HZBtkfYM4o90i4R+b2WP5A1c5IGRGuIXzGEgjSrxlOgk53JHclwfBffrFaBDteN0b+V7n31aX4CnjiglFOTgQ/EAzFXoocK39y7C/R8gT0X+5A5lPsoW+Xn6uEatPyY+a4ly4yMxS46zzi/Hqi+zJd637WuGw2FG1ZBq0xvD6HvjcXjTsaEBnfUdIn1u4JHOUoR8LSiWHiiojKqqGyx0pBTo7XGiql0mB/LedPVs/wsgqjq3AkinHDKVaCR9Dl9fuWkGVWab0HV2tLyYkgHhhLQewb5T1TEOZ2gcHlFBSH3wkHiRAcIH09wlLWRb9nDnqY6vsPVPPRgAoBexuIC2GjVMECWgaAA4viaGQSxm9IlBkjnsc/c/vO+Hysu2IfIUiBr4Tu0zzH2tnHtX4j8Sf9AvxhrctomkeSnD4i35xxC7N1ZoKPOyuwVYhfI32gSscSHtTB0VXcNe+yyXi2afqcNOtM8M+XrTw7e+WY/NnXejpCkFron0AX7/2FQqmFKB4VinUOjZvnuAV0HbwEA7ta2UWqQlAreFxzQTKKgkB8gu0yC/QYvkJw0lx1kEvGuvto0hBe5szZAW/UKDRa6A1xrYcmhCCtFwzeluC56T0NQrKkQY+HiRAgHQkAfDBoQkY/3iRgH/89dB0wSeZwYDTZiamEEjUoFMBKl42psHg8MWWAPTYjzT+I2H3ADa33Ao5TvimRcCbe9nL/np/aAON0S2mAMG1muCqcNN5E05U5uATX3fEjr1UmYkCLrL3ygXq4gkRAKqh6L3RhrwNbOV0n7zfidPPKULllMSSxFZreNz4oxn47f/uDMnoUYmi7WAb2mvaYcyS49nmHDM0Bi2UaiUIR+Dz+OBxuGHttaK3tQeWrkFQKTxv1RXXViEvP/LPC1OaCvMWZmDewmHPgsctyiGEBhsa62xobpRbKnsYOiiyQBfL594I6NP06EVwAuDsE3mA+qvy40MCOHBFwGE5ACJ8GiWUiCcJ2L7FsphlsbMNHGblHyPu/wAIAJNWrvcPBrtnxC0SZVDIxj0Y+p1xIwASpfj9W06wVls5F3lgPzF2ZX9nqwqZjfC1mqqIEoD8CBt/ABEhFLZTXEjbpIV2V3DXviRRPPlQDe66Z3HCeQXnzM/AJd8tx/MbG0L+LKUU1p5BWHsGgw8OE8tPzMUZ58ZOWlmt4VE1zYSqaaPJ2kCfB/W1NjTUWdFQZ0N9rQ2W/tBDCEp1fEJBSjXbbsHjGBbniR8JkI4kAHqYVS44oIojCejp9M1hWcQ101QJ90OPCUxqNgIgSvKOXBWDlnWCCKY+ui6f/CcUcaMI4eUdXuxtZ3OLUt5f9hdDXKth6nYNALhYVYIfkW0YoJFpSNQuRV47oi0S30mA3ltsKL4+Eyw5hQf3D+Lzjztxwpq8iR87wrjwO2VobXbgi0+6gg+OIaqmmXDTrbFRIgyG9Ew1FmeqsXjZcPzeMuAdCh98s7UPB6otQb8nFqV/Rz8uWyWK6KWjjHY8SAAFVwyM0AGglBIOXpUKSur11+v7jf+QHoDXb/iB6OgECIJArBaBiQAsrzjGdv8BqBVy+2AWsJQNRgI8B2ZXQxyEiuweir98wH7cwQuc8FTErld7HqfFmaoC5vFawuNydVnEjv+VrxdtEntZJAte8bRG5Hvc032wnsk+t389URcxV3IkwXEEN/90FhYuiU1pGguKSw244zfzoWHUK4gHzOkqzF+UiQsuKcP5F7NVeggM0rzRgMiYd6HUEQlDojxyDf+wBgAQG50AaTQBAKD2wUsAIF4k4N//6CgRRcoUxFtceowSAEDOBWABQ0ZqRMARQMd4PWweMPvhI4SHPnWj184WGxVNFP3XRV+adSSu1VRCEWKs5nrNlOCDGCGA4hb7toglFv7DXY+vJxD/Pxx96xyQ9Gyz6+v14JX/JKbkLc8T/OQXc7FyFZtKYDRRNc2EX9+98IhGO4mMNDPbc8/jjE/lgcfJFjLUGDjJb87jRgIISBEwggA0waKhUFFAdivGgwTs2mYbVqAYB6WZHHKMiSX8EVNoGI0tS7JgpJDGmHUrSmyVDBFCc7+Ip78MIQP7OhvEtNiU/QGy3+RqdUXQcYdjrsKMhYrINTjZ5G3FFbYv0D+BsIIIivtdB3CTfWvE5gUAQoaIgavYSdl/X2pGb3diyjYrlRxu+dksXHRpGbg4uapPPasQv/7TIhgTtJviWEjPYCMATosj7GTIicA+wFYxlFbA+83haBLgd9HHigTo/k6rDUNWVAelWh4ePxLQ2eZmCoTOLUyuGzfiULESgBj+CExqdt0BW+wY+h/edsLHmH3tLRcweGFkXeHBsEaZhyqerX3s4WCpGggFz3maUNH/Cr5j+wz/49iBHontOt3j2o8b7F9hysCruNXxDXwTEAEaCwOXOOArYuy/7pGw8R/Rk9adKDiO4LKrKnHHb+bHVLtAq1Pg1p/Pxtqbp0OlSr4NlMmsYiJNoiBioDN4rkAk4XN7Ye1lS9TMKld4Rxp5jDbyMfMEGMFnD90FCuhVAcMfLxIw0CcyEYAZeYkbs4oJ1IznH8vWnxyRKxRYECMPwOd1Pnx4kD0M0nOzDTTGt9ZEjPh31eXQMcr1ssJKffiPpwV/cu1DP2UjAI+76/CYuw5NYvQ0E6hSLstkxZbPurB/b2yNQKiYtygD9z26HGeeVwwuBqJdZ55XhBUnxj/8EC5UKg6VU9nIcm9rbHtE9LX1MykuEo7QgtkqDzDayMcjHEAhDhMAHlBhhOGPBwlwu0SmLI+Z+cc4AVAwnn+s3WAmRvlhnzi+ZkAEIErA/73Dvpu3H++Gc2lsY4dmosIFqvDLr9KIEt9SFUdwRokN+wkeOI9ju0aUAk8+XJPwmvV6gwLX3jgV9z60FKtPyQcfRSLwxcddsU6/iThmzWFqEIue5h4I3hgl8lKgs46t2VJ2Je9RGzlx2BUfPxJAIQ0TAA4e/1YiPiSg3ypwXq/ERE+rco5xAkDAlnRPMeI2iAG0Kna5X2d0vQDPfu1GXTcbyaBKoPfm2Cb+AcD3NBPfwYdSPpgKCMVL01hvw0fvhiaHGy8UFuvxgx/PxINPr8QV11WhtDyEDqCM6Op0Yd+egYh/bywxax4bARC8PrRUxyYZtKe1B4OMOg3lyzV+N9nIeHx8SAAHTiYAH9GPFF4QTjX0gdiTgA/f7suh9MjuhIdDqyLI0idf/CriYKw5RSx3QARyvwIWuKPHzi0uir9+xJ4EZgkhvhxJXKOeeAx/lTIH0/nEUr+LJrwVAgYvZA81PPd0PZyO2F/bcJGRqcb5F5fizw8uxaPPHI9bfjYLZ55XjHmLMpCXr4XeoBiKg2s0PLKyNZg+y8zsOfjkg+QgRGNhxiwz9AY20tx+8BDcjugmg4qChMYd7AJPs8/WjmAKcScBmQoAWI3Vij544QGgBqgXIH4SQAAVKFSU+F/7SQCJtFhQ3R47k3pHoZk7NgWADoeCk/3c44LEXntfp2JL8osiAbj/AxcGXYxlfxkS+kPIMI8UFisyMV/BtpsJhqs0lfi5Y0dEvisZ0H+dHcZ3deCtwW/uQYsXLz7XiCu/H7myyVghPVONE9bkMQkb3f2b3dj6ZfC495efduPaG6cldO3/eFBreKw5tQCvb2oJOlYUJFR/vBcLTl8AjjVsGiJqthyAy8YWasws4z3F81Vuv7kO9OWhw0I9w2JAgfcDxpwCZOT/R0IsCICJA4BeQBnY/XsAxMMT0NPtY3oaFqRN7v4BsKnpaRWx78DHWqLoiQ4BqO0W8O9v2Fl/3zobc415JBHJDP6r1RVQ4tj5XYSq1fDWq4fQ2R7b6o5YY/Vp+Uzj3G4RWz6PnIx0PHD6OYXMJZT2ARsObN4PGoXkh9bqFnQ3sSs7Lrnc2EfABXbyIyY0vicg8O/IewKIXEyvApReDBv+eJAAm1VkagCUMen+l5GpH393TwBk6WM1m2GoGQmAKEUlPHH/h67gjhE/3NN8GDwz9sqEWsLjUjVTvisTcjkNzlYVRuz7kgGDFzrgZVRrFAQJL/yrMcozii/+n73vDpOrLNu/33PO9L69ZLNJNo1UklAllEAAg3SkiAoIFgQElc9PQVGQ6g8QRT8URJpSRIoC0kMIECEQUkivW7JJtpcpO+2c8/7+ODPbsrvznNmpm72va65sds/MnDJznvt9nvu5n4VHFpGNcvJFFzEcyiqsWKDDUbG1oRWbV26CkqKuKM45atfvwZ71u8nPsRUK8pEXW7sAIBkSkKZygEYAhNhMgGySgFBAIY398ljH8/8ANI//SvcwK3wGFNsBO1GVn0qIQswamAA5tV0KO1sUvLuN2PbHgLYfepGNhfNFxmq4WWr7v1PtCZDr4CLQer2XvP2qlc1oaco82csURJFh8Um0Fr+tmzrz/lx886qpkCT6l7e9sQ3r3lxLTtcPh2g4is0rN6FhU70ugfWJ33c2G8yCGh9qkQskAHECEAYMxtgTs0UCwmGFJHt1W8YJQC8cJmBKIVBg1UoCZglwW4BJHi1DkC1Qv5jUpToRr34RIbc5+U4JITgvQ1bJg0AN1l08gpciNE/9ZcYKVAmZnYGebfQcGYH/eFpboKpwfPR+bg3iSTVOOpU2T4JzYOXypjTvTXpRWWXDWRdM1PWcQJcfn736KXZ+tgORkL4uJEVWsXdLAz799ydob2zT9dyS6YbgEV+zdfUF5ZwhAZoGQESXQQv22SMBspy4AwAATNI4ARgAgwiUOoBJBcDkQqDcmZVpewNAzQCk2Kfg3W20LzU3c7RdQ189phLTRScWG0pI2/49XIs/BreTthXBcJlZv6VwvqPtB15wA431UURy+YxJU+yYXEMzynn/3QN57wlwwSWTyB0BcXCVY//2ffj0X59gy4eb0VLXMqxfgKqo6NjfgZ2fbsen//4Ye9bu1u0tIBoZP/83hXslialA/6CcfRLAwCwSAAiwSEAEYRhhAucRMBYnARGAZaI7gHNOilqGDDhmjWOUoF6jFMZ/f5ijto32gh2XBiCXZt4rHACuMteQGzMeD+3GerkTOxUfphHsgq801eDuns1QM2r+kF1EKxV0XtSDgqcTZ7zq9/ghy6qu1HG+4aRTy1G7O7FjYktTEFs3dWIW0VgnF/HqSw0I+JMTEyuygtb6FrTWt4AxBpPNDJPVBEFkUFWOaDCKoD846pkCp9zg2l8xS4o5/2ly/XhQ5lAZIIBBiP2sqfm1ZybuDhjtKGEG1SBwzgUGCKbYij5bmQBVpRKApK7DOHIRKYxTu1tVqIQlDTdxdF+YPsvakSCB4ZumyaRtP5c7sE7uBAfwRIgmNpos2nGSIX+tXpNF9yU94FLiay/LKg7sy+/adyIcv6SMTHDefyd/xYCv/3sv/vE3ev/9SOCcI+QPorulC50HOtHd3IUe7+gHCs0/29q++Nv29v5q/vg43lzIBHAwgwBAiL9LNkkAwEhUjnKTH0eWQb1GKUzmdBH7/kMzo1Cc2fkMnW2cgDKBNi/hsVDfMJvHw3vIA3YONTEgoE0LjNTQVoI+b3Z0H5mCw2nAwqNoCvn/ftiCUCiD80JShA+WN+HJR3ZmezdGxJRjzd5z7yrcx3qDeE6SAIMAQIz9MaskQBRBKuCmqX18HKkENb6m0NGJWppTHdkjkFTb3iBX8Gy4z8a0SQ3ijQjNa/wCYxWKhCx0f2QZVFIXzeSI7CxhCVEMGA4p+PjD/PIE+PS/rfi/327J6RkPU461dJ9zu6dREPuP9809EgDAKBzAgd6kOge4Vu/PPAkQRUYkALl74ccRA1Xdn0KTIoeZ9lqGxuzUkCoFK0430sxa/hmpRxcf+HV4jFgGMDERXzNN0rt7eQ/DXtp1tdrG/ijxBUcWkj0B8qkMsGFtB353z6acDv4LzrO1nneHu1GUwKNBlQGDg27ukAAGGIRylAvot2aLB/ZMkwCBSABCYzuDNzZAnfSXQjFWsZ1GAIx1EsxbMx8ErjTXQCTWPIYK9q9H9mG/Sqtff9t0aA0IsqwzwNBEIwCewtT6L+QiRJGR7IOB/PEE2L61G/fe/gWi0eyIdxPBbGfKspvcDUtvcDYLohZ05TBjBwf53CIBQmesBIB+JCAb5QCTWSAN++4I5OYHYBwxqBxQiAw9hQRgUqEIi4EWYAsfprVKpQoMwGUmWoveDsWLD6MHp2VlcDwZpome5kpuHCnRndLyGpx+PR1OA4qKzWneodzASafSsk2cay2BuYy6PX7c/cv1COvUK8w4zJWRjo/Jxxi7L3u0aOec062xQT9a0JUjisD5UEE+V0gAVwRhoBfaABKQyXKAzSG2E841Wv25m/4ZBwBqjVUUUloCEAVg0URaT7D1MyPsH2auTr7UUI4akTbe9bHQ7mElFH8N7SLLKw4VMaBjuRmWjbRV/ex5+dvyphfVk+2YMpVGjFYub8pZT4Cm/T248xfrdLf7Hb+kDL++bxEefPRYnHhKOYQ0tI+XzTAELrjbs+erdxfVu0oNET4gsHMwzrgajbfcZZYExHoKE5AApgoCfCLHgPvKgHJApkhAYZGRRADaxzMAuY0gsUZjTH0tftkcenq36A9OsAyVk6jBWAbH38K1w/59j+LH+1Gam93XTZNhZ/pMUvINLMRQ9BB9FPKxx9MMmMYKTlxKywLEPQFyDW2tIdx20zp0depz7TvimCJce+MsCAJDcakZ1/3PLPzukWPx1a9NRnHJ6DJAkgnq9BMsHRffV7Drsj8X7ao5xtybuWac8cEkQOl3j8kkCYj/f2QSAEVgMTvgkUgAkH4SUDlBIhGApu5xApDTCBK/rObU1+GXzTaSraIN+0R4/pF+u+RCZsK5xgmkbdfI7agQLFgkFQz7WBWludnZmYSvmvRZpeYbPE/bIDXTUryeQhOOOKY4zXuUW9DjCZBrA4K6uyK4/eZ1aGuhT/YEtCzPj26aC3HQir+8woKLL5uCPz7+JZx8Oq1LAtACftFkQ8/cM6wtZ97i3nPdy2WbzrnN3VC9yNw7jpL1C8yDSQBXMSDo5lY5gKsSQyA+CwgcMeuhfq/U//cmGHkYEZYOx8D5Rxc04+HE/tTNPhU9EQ6rcdwRMOfAAfRQCUDqV6c2E8O3vmTGA8tpoibPkzZ4zwhBLkhfa9g3zZNhYrRsxzFSET5zL0vZe19pmoonQqkxS8k1SE0iCp6hE7hzvloNo3HsOgAOBYfTgEVHF2H1qsStfp981IKrrp0Bszn7Tms9ARl3/mI99jfqG9wzdYYTP711/ojXmTpGGACO/bp93wlXOZvjEZH3xkPOeG8gjaf4OeexvmbGGedMc91TVXWQm99QjoCcYcBrZcwxUBGCYAO6AIbLBKRbE3DccYVeSRIS5qE4B2rbx7MAOYlwFKCqdNM0r+CKYy2ocNFu9EKPgMI/pzcLcDlR/JcOLDYU4zCRNGQz71D0kAMsRLuZl5ZZcNpXDq1xyXGcRCwDhHLEEyASVvGb2zaQ7Iz7o6rajjJ8F8EAACAASURBVJtvPxwWS2IC091FW6S4K6UwYwevzvuc9Aav3g/OBDDeu3LPuUyAACEgWNE7QSwhCUh3OcBoQp/7yQjY05ojbkCKCvjCQFePtvLliZ8ypuGjTWaDKADG9NSnzQbgxlPpU/Gcb1hh3pIeMnK0VIT5UnaFZ1eMwQFBlk1GON6j13Iv/940GAyH1uo/joVHFcLtyQ9PAEXhuP/OL7BlY5eu55WVW3DLnYfD4aB9j6maAqtHkNVhAjeVBIAp/f6eayRADQhBBJkJpvgLkTIBQHpIgNUm1YGArU3ZdvPiQJsf2NkKNHYBB3xAfSewuw0I6BOsjB1wwEus19mNfYWmNODMuUYcOYlIMFSg+EFnWshbLijxv2WqgYmNoeCnAkUPOMjXa858D448xGr//SEIDIt1eAI0HciOJ4CqcDz4/zZj7WckKVgvPIUm3HLXAngK6V091AyAo1CIAsBoSIAgSiqHilwkARysR2AACyOEXCABTreBVLBctzfLGYBmP9AaOPgmFFWAvZ30OvhYgj9CbwG0p78F76Yv2yAQrYbNGw1wvJPa/nAbk3CxqTqlr5kMigQTziSKEPMBrtctMG+jrfQEgeHK709P8x7lPpbo8AT4YHnmswCcAw//YRv++wGtwyUOh9OAX961ACVltPkacVDnQdgLxd5AkywJEETEa/fINRIAICBYoJ28ZEhAqjUBU6dZNoGAzftlRKlmM6lGOAp0jiBO4dAyAodaOaCDKNgRWEYIwOxyEecdrqMt8CEHBGJNmYKLTdVwstywnb3SlP1MRCog9AgoeIRu4nT6mZWoqqb5L4xlTJxE9wRY8c6BjFvt/v2xnXjvLdqsizgsVgk/v+NwTJioT8MT7JFJhkJMBLd6hAErzWRIgGjgsW1ykQTwHgEIwgRzLFjrIwGp1gScf0XZFrDEY8/CchbLAN5w4uAekYHu3LfXTBlCMj3rYTOm1ABoJPx4qRV2E+29pFYR7r+lThCYS0H3dGM5Jgrpb3lMNwqesEFqp5Uz7A4DLvzG2NM/JAuqM2BbSwhbN+mrwY8GLz5bi1deaND1HKNJwM9unYeaaXQPiDi6u2mrf4tDkDUB4MCbvS4SIDIuSkzt2za3SAADfEIQYCGEkiYBqSwHHD7PEzCaRNLUk1W7slQGoKrc2wIDr8dYRouOjIebLtAbLYrsDN8/kZ4eLHjWRvaUHwkzRSeONeRO3VkAI4sBp4oO/MwyG3+2H41SgVYWuc06D/fYFmCJoXQ0uzkiDPtEuJ+nf3Yu+sYUsijsUMDiJWVkIWSmxIBvvtqI557S16Yqigw/vmkuZs1NTlxLrf9bXGIU6B+I+0AlAQZTPNj2EwbmEAkQILT1lgBGSwJSVQ5wusQNIOCDXVmqs0vE1WtUoafF8xn+CF34aBQBe2ZvypcdbUJ1Ie3Gx8IMhf83+jkB3zZPTafGMSlcZZ6acBjRL6xzsMVzFu6yHY7vmqfCzWgllItM1fhfyywsdy3Fq86T4EpD6aP4QSdYlHZWq6ptOP3MQ7Ptbzg4HAYsPKqItO3HH7UgGExvhnXl8gN47E/bdT1HEBiu+5/ZWHQ07TiGgrebSACcLMr4wJR5f1BIgMkqKX1/zz0SoEDtFEIIMXMs8I+GBKSqHFA92f4xCNjQKKM7mAU/AJuO+nVbgJ4xyEeoHGj20rf3WJFW+f8QMEoMPzudnv52vGeGZV3yAcwIAd8k9v43qUF8Jrfjc7kj6cdmpZv0XlWCFacYhleDX2uejl9b50Ma5fX5irESzzgWj+o1BsO6xgjbR/Tv3eXfmabL8OVQAdUTIJxmT4DPPmnFQ7/dqitByhjw7WtnYPFJo8sydXUQWwDdYlQLk8mRAEFiXDCqfODfc4sEiBDbJBYrAZhh5iGEen8OIxTrDjDzMMKs9720H9LmGHjJFYWrP1/doYJjxGWbogIrd8o4e16Gx3vajJqJDcXzXuXAgW5gohuZDnwZQYtPx/AfBrj1qXVThZNnGHBcjYRVu2llo+IHXWh4tK1vTqYOnGmsRLFAC1a39nyBR0K79L9JP5QKZjQUnAfDyF8XAMDl5il4O3pwetfCRPzaNn9U+9Efy4wVWGoow7vRxM6eicAUoPh39FrvEccUYf6iQ2QSok7EPQEoffAr392Pk0+jEQY9+GJdBx64a5NuoeGlV9Tg1DNGn9XpJmcANAFgnATEnf34gNCnkQBhCJc/s11Qhv57P8fAmLOfFrQHOPRlyDFQ7RT6r/5TkQmI/z7ZTMDiJWVdFrO4hXKRXv2CaDyTahTpEFQFIkD7GBQEBiJAl47jKrRlTPw3FG46TgJ1IJhphwTnW8mRlVONtJtmgMt4LkzyvRoRzWoIr0b2kbZdahh6346ViuEhpvup+LKR7rc+ElwvWWGspXk6SJKAi7453vY3HASB4fiTqZ4AXdi0oRPrP2/He2/tx9v/2Yc3XmnEhyuasG5NO3bv8CKkczzvjq3duPfXXyCqMyt67kWTcO5Fk3Q9Zzh4iRoAm0eIxlfcejMBkpGpRqugxn93cKYgNzIBKtAhBRGCZdDqPxWZgMgoMgGFxcYPGxuCcxJdpFW7o+gIqCiwZdjoxG6iZwEAoNWned/bMpytSBciCrCvmy78M4ix9H+WoKiYpgZw6TSGv+2gfVZcL1jhPUM/cStitNX/8+F6eHlqxhE+FtqF841VCbcrFIyIf4H7o0BI/eeykJgFGQlit4CCv9Lb+E44tQoWm0UbwDKGvI9SiZOWluPVFxOr7jkHbvvZ2hG3EUSGqok2TJvpwvyFBVh4VNGwPvz1tX7c9cv1uknDqWdU4tIrUtdR09VF+85ZPUJsQ23lTM4EMDCLS1D6lt/atrmYCbAC+wUzzGpw0Oo/25qAxUsL36JcJEUFXt+UoZmug1HmpGf1ObSASU2X5zJUrrkfKjpYfLE9q6t/tPcAsoofzFHgJsY6806D5uKpE7VqgLTdY2FSswsJb0UOYK+aWHBapwSG5Gx1Cm2f9aBW8SfeKAEKHrVD9NEiucNpxGlnTtLcuVN/OGMGejwBEkFVOOpr/Xj3jX24/86N+O7XP8QjD27Dnl0Dffyb9vfgjp+vQ8Cvr3Pr+CVl+Pa1M0D08yKhm2gDbPNIUfR2pNMzAVaXKIuG+DYDhYG5lQlA6DzM7BAAcDPMPB0kINlywA0/rdxlMgmkO+Rza7JUBjBL+lraFBVo6MxvUaDKgb1dmhEDFRYD4Eyty54u9OvGcBmB6+fSojpP8qbzXLguYWLkY7mNPNaXAgUcfwruSLjdM+G6IX+/Vu7ANkWHmJOwP/8M6+vtHgzTHgmuf9O/X7MPL+oV/vkDgDoGuHa6cNKpqSnPDEbAL+OdN/bhZ9d/ivvu2IjGhgDa28K47aZ1ZP/9OBYdXYRrb5yVcjEntQvAXiBE+wdSCgkwWgXVYIU6VODOPRLA9zHGuBBADweAdJKAZFoESyqMb4KAnS0yPq3LUhag2Kalt6mIKkBDR36SgHjw12NzLDCgwpVd/WP7QD+GS6aqmEYYkBeeEQVPQgS4Vu7A74Lbhv27l0dxnf9T/S+cAL8PbcNauWPYv29WunFvcGhpjQqO7/lXI5LYg4uEu3s2YyuxO2EwpFYRhY/bUfGjAl0ZmE8+2I+f3/AB/vL7Dfjsv03o8lHrU4cezOb01kc4B1avasGN16zGz67/FG0txBkhMcya68GPb5oLkSra0QFyBqCI9fMBSEwCjGZBtbnFmHBw5BbBXCABHNgHAIIVVh6EVutMFwlIphyw9Iyy1zDw9YbF31dnKQsgCkC5E7oiXEQB6jv0raKzjXj2Qu+Mg2K71vufLXAcNKFQZMAvF8kJKxJdlySfR/6fwOe4ObAefj7wGq+R23Fy97tYJyeceq0bQa5gafdyPBuug9rva8MBvBTZiyXd78A3gubgw2gLTutejh2jyAR4eRQ/DnyOX/aQrDwGwFgnofxmNyZdUIyCR+2Q2vQHqWhExeYNbfj7Xzbjpuv+i9f/vZdk+3qoIBhU8NBvt+ChB7Zm5P1Uhete+ddMd+Jnt82H0ZR6kqIoHH4/YbHIAGehGI075iciAWabJNsKtK6B/j4AuUwCWIwAMD/3lwmwSUEEWT9TIGaBGSFo5ujmQT+HYz+bYEZMGBh7394f+t9eD/p9OCb2MwGIxCo8RgCR2N9NsZ9PWfjxEz0B+UgkgCgAb1znJhu+pBzNPv2mPwIDKp2APYvpcQpCUa3mrzdrYTNmv/0xLAN7hp4u9uhWAfdtEIdkmJ0X96Dt+tGnxB3MgOMMxbBCxC7Vhy/kzFisVgpWLJIKIILhc7kDDURdAqBJhxZJBZghOmFlNPIWBUej0oNVcit6uD5iK4QYPI/b4XnOCian/rNSUmbB1TfMxNzDC1L+2vmE9rYw7vnVetTtGb02I12oqrbhtnsXpc3BsasjjO98/aOE25msgvyj18rXAAAHZyx2D9PEd/EYwxkEFVaXQTZaewN1b+jrE/Cx3p+138eF8trvhIP+zvr9rDIGAX0FyaFfi/W+Huu37VB/F3pfF2D3XcpmPi4FAO5AEBZYeJwExDIBLB3dAXp8AqZMs/xr03pfQgKgqMCfPwzi7nOz5Hde4tDnhw/ExHTdQEEUKMqySG44dAU1cqN3OIhBBCpzwPtgBNLy7cNUzCvkeHSbgC/aGThnmOlRMeXECG5LQfAHAB+P4s2IviEnqcA+tQf7Ism5UKrg+Exux2eyvrGsycC83YCym90psV8eDi1NQdx+8zqcfHoFrrx6RlpWlrmOxoYAbr95HTras5QpJaC0zIJb7lyQVvtmajbCZGdyXC0fV92z3v55TWFvtAiKySmoosR4X5A/uNc+ngkYrOjPdneACmU3AAhW2LhWAOglAQByQxPwtctK3xclgZQv/feGMOras5TuYwAmuPSnuzk0hXpdh0YgcgXRWMr/gFd/8AcAq1FrkYwoxCJOmpDAauyoEo5HTlDwyXkyVp8fxZNLFPxKEHHiPlrf+TiSh/19EyqvKUhr8I+Dc2D5m/tx688+J3vBjxU0HQji1zke/D2FJtxy9wJ4CtM7JZR67a1uMdI/rR4LroAAGMyC4ihhUVuBKEuSqAKD0/0Hu+7lYjlAhjZzRwD8XAv8QKZIAFUT4Cq2RUpKDf8a4hodBEUFHlqZRcMdUQAmuEF2m+mPsAzUtQNNXn3tdamGyjX74j1tdH//odAdBPZ2ArvbgO0tWhq+yatNUszk8SWZVXngAzvEPNRp5gs8z9tQ/gtPSscvU7Bzmxe33LgGrc36RGn5Cr8vijtuXofOHA7+DocBt9y5AKVl6XcJ9VInATrjHgAcYIxLZqZaXWLUWSJGHIWSbDCIal9dfaggn9skgEEN1eLZAwAgcHDeF/iBTGYCgJFJgCSBL1lW9BJjjBTZX/0iii/2ZXElbZKAiZ7kSAAH0BkEdrUBLf7MBsr4e+9uA1r9ya36h31trhGcziCwrwvY0QbUdgCtgfT7IpiSW8kf3ibiyq3pXY0cqnC8Y0HRg46sZYYO7A/izlvWw+/LUudQhqCqHA/+v81obkp+UcQEBnuBAyWTSlAxvQITZk5AWU053KVuSMbRZ8ksFhE/v+NwVFVnpnRLLQE4i8Swq0SKuMukiKdCjDgKpajJLqiCyGKBOC6oy08SALBdt7JbVQCQOBxqD4KwDtABZE4TMJJjoFnk6oRqk7egSHq1vTV6UaILp3KOu97owbNXOVNqHqELZgNQ5dFS6MkEUpVrrWudPYDDrPnnWwzpKaeHZa3O3x3KIOHgmrAwFAXa/Vq5wGUBHKbU6yAkQbseIf03+9s/tuL5qRF0m7IUqcYgLOuNKL3Tmd2yEIB9ewO49/Yv8Is7F5BH5OYbXntpL9atSULHwYDCykIUVZWgcEIhDKaha/Kcc3Q3d6O9sRXNtc2IhvV/x0orrJhckxpTIgqoJQBbkRCJm/nwg2rvLF6XR5/TnjBMzT9XNQGs12NHUNGlWmDhmmQo85mAkcoBosWgiir48acW/IMxkD5h6/bKeOWLLNf5LAag2qMFoGShci2VXt+hZQWafYA/PLrVOYcmVGz1A7XtWmq+oyd7ZQcOrdSwvxvY1aqVH1KZfQAAT3JdFiVBAT9fk0X74jEGsVtA+c1u8kjfdGPLxi48+2Tq3BhzCS1NQTz/9B7dz/OUebBo2RGYc9I8lNWUDRv8AYAxBneZGzVHTMNR5xyDqtkTIeq839Xt9uGdN2hzLFIBqgmQo0iI8EGrdwxa3edzJoCB9xqCSG64lR70wAIr70GQZSsTMFR3gMXKVRnAYTNsrR8WGV6mZAEA4O43A1g8VUJhpmcE9IfZAFQXaOY5kVGWJeSYm11Hj3bGTBJgMgAmEZBETXzIoOkQAEDhgBorU4VlLdUejmr7oeToilbhGjHp7AEKrNrsgFRkBFwWTWiZRLnh+g1m/HVWCNs9473ko0XRgw6I3fq/j6IkwF3mQeGEYthcFhgtJoiSiGg4gnBPBF3NXWjf24ZAt37fhv/8ay++dHwpps6gTxvMBzzx8E5d/geCKGDa0TNQNoU2KGgwJKOEKQtqUD61AptXbkSgi34tnn1yN45ZXAIX1aN7FKCWAOyFhsjB6v+xkwkA2Kb4sQoAVMDKgR5kMxMwlCbAIhkUAJABfPms4qcEEaQm1s4ejtteS64NKqUwisDkAi29nSpwaB0D3UFNK7C/W+siqI1lCna1aav7+k5NiNfiA7p6NFV+rgb//pBV7bh2tx1k4pMUGNPaNJOAUQHu/Wg8CzBaWD8z6p6uKEoCqmZPxDHnH4c5J81D+dRyOIvdMNstMJiNsLrs8JQXYPLhU3DEWUdhwekL4CwmWDz2g6pwPPTAVqj58L0gYs8uH9aspttMGy1GzFt6eNLBvz8sDgsWnL4IhRPo45gDfhkvPFM76vemgFoCcJUKEaCf+h9jJxPAwWQnhF6r0hgBAHKFBPRvEbQVGFWBawddUW32lpWZngYRb22J4M3NOdDyIzCtJ77YjuwJE/IQsqoZEO3r0n4eDRympCcxnllnxLL69PUmHwoo+qM+0Z+jwIEjzzoaUxbUkMVmzmI3Fpy+ENOPmQEm0DMNe+v9+PijFvrO5Theeq4uUfdrL0RJxLxT5sOlkziN+JoGEbNPnAtPmYf8nJXvHkCwJ/3ibWoXgLNE6g0cY48EYOcZbFrvyipGAOKr5eyTgP6aAIMxzJlB7CUBX7mw9AVJEg6AiFteCaCxMwfStwxAkQ2YVKANERoHHd6wplXwjrJ1q9SRtJDy/g9tMCjj5C0ZWNYZYNpFJ1BFVUWYf9oCmGzJaTfKp1Zg/tL5kIz09/zXP+vJQTOX0dUZwWcf01b/jDHMPG4WbG76uGUqGGOYdcJsWBy0rE8wqOCD95pSvh+DQc8ASBHWLyaNJRIggPem/4EYAeCxwK8h+ySgfznA7lBlGYDAOXd7pPCM2Y4HQIQ3xPHDfwYQzZUUn1nSSEBJjjr/5SoUVRun3OJPXkFukgB7cqWYmZ0irtlkBhTAtN0A62dGGPeMEzkK3C/QW7ycxS4ctng2RGl05kCuEjdmnzgHjPgdq9vtw+YvUj+fIdP4YHkTVKKItmJ6BYqqitK2L5LRgMMWzyKT7rdeS68YMOCXESXYmYsSVJtHjA0CGnskAGAb+x9vbwkgF0lAGIDTapYBGXEScMb5hZ/YHdIKELFxn4zfvJVFg6DBYAwotAE1RZpALV94gChoLXsFFq2cUe7UjI8muoFKl/Yod2oTEt0WbdtUk5z2gKZrSKZrIRAB/MmXhI5/3oaaC4sx8cpCVP6wANXfLEL1N4tgWZ9+8VK+QuxisH1IW8kbzUbMPnEOBDE1wl13qRs1C6eSt/9kDJQBPv0v7RhEg4iJcyeld2cAOAqdKKkuIW27t96PfXuTH8CVCNQOAKtLjID1Bd6xRgKiENb0P94YAQjEnpJbJMAIcLfHLIuqyPuTgKVnFTwoCCB/Wv62OoTn1uSYG5YkABVOYEphbhIBkWm183InMLUImF6stTaWOrVyhjvWu28zAU6z9nBbtLkG5U5t2+kl2vGVObQafCo0EIGIJnqM6ijt9EQ0PUGSed4X9wi4+X0JQvPAlalxj4TKHxbAumacBAwF63oTeaRv9bzJMJpTex4rplfC6qJlINZ80prXZYBgUMGuHbQZFlWHTUz5uR4Okw+fAkb83m9YO/w469GCmv43O4UIEAulY48EHPgGm9bY/3glxhj3c86BAANs4LByhh4GWBEjASybLYKeQk2QIaoiVwSZyZAwY7qtbcp02wO7tgV+QbimAIBf/yeACW4Bi6fmmKDLKGlEoNimmfJ0BUcveksWDIDFqLXgOVIQsHtbFiXtNVUO+EKaK2BwFE5sEUXrcpjoSTx/ISRrwT9Jf4GOMHDH2qGnBgIAiwKld7hQ/2wbVEseR5A0wLyWFmQsDgvKp5Wn/P2ZwDB5/mRs/mBTwm3b28J45vFdsKVxGE060docgkIsdZZOKU3z3vTBbLfAVeJCV3PiSZg7tnbjjHOq0rIf1BZAq4dF+1rxWG8rXry1Duhrrcu3FkEVfM3g45UAQAUUATYxF0lAWblRYYKkclUW+pOACy4peetPDzQc6+1WTqFcWEUFbnjej6evdGJmWRZn1A8Hg6il1ovsQCCsid784fS37sWDvs2oreL1DjTSA4Fp2Q6XRQvMHQGgO4ykCvtRRXNbrPZo527IbdRYySD5c/hOo4BEAmWpVYTnbza0fzd3R61mA5Z1NAJQMqmUvErUi8IJRZCMEmSCF8e//lmfln3IJdg9dpjt6ffd74+iqmISAdizy5e2faCWAGxusX8L4JgiASL4Z4OPVwAAFd2xRJ2N52I5oKjIGBVieZf+5YBzLiy/TzKwZtKVBeAPc1z5lA+7W3OgM2A4MGhitQoXMLVYW+UW2TR3wVTU1OOrcrdVq+FPL9GCaJEtvcF/MMySdoxTPEmL8xCNZQKGEveoHGjsHHU2pcFPO+eeZ20wHMhBYpklMAUw1tOEkoVpFKMxgaGggt6XPtZRUJn5c0F9z9bmEFnEqBfdXbSMo80jhgem5cdOOUABDsoACACgwKWgt6SeeyTAU6ixssEkoGSCwX/4EY7bGGPkfHJ7QMXlT/hQ35HDJCAOgWkr82K71j0Qr6lXurSA7bEAdqPmOmgyaCthg6gFeLOkPddl1rYtdwysy5c70uO/rxcmA1Dl1shIMtbJUWXoFH+TNyUjlh0G2g2JRZjW7z4OAIDYKpLq/0xgsHtS34rWH86iseX0Nxqko+0vESx2C6mzQ5ZVeNM0rpnuAihG2EHBeEyQgNqvsZn7Bx+vAACaR1xf4M81EjBhoqXPuGAQCTjx9MKNEyeZHxx8YCOh1a/issdzPBMwFOKrd6dZIwVlTm3w0OQCYEqBJtabWqQF+MmFWvagwqVt67amR5mfKjhMMUFkEv3foagW8OOIDzhKARaX0Vck9vfNsBLT3mMdYg/tc2a0mNKW/u99D+v4ZMc4jJYsaByY5jhIQU9Peu7J5DkAxVJvCWAskQABbOVQxysAQBB1ivZGuUkCCouMimgy9S7nBpOAr15e9i+XW3ptqAMcDk1eFZf+1Zvd8cHjGAhR0AhLWRKmPd0hbVZCRNHsj1OEOQUcx5fTSUDR7xxAnvHKdICFaRdwpIEzqUIm3iNfMFqPhWQhiLT3jUTSI4CmdgE4C8Vw/Ns+lkiACnww1PEKADAJkxTEbPZzlQQUFbMIV6Xe3w8mAZdcNeG3ZvNAk4NE6ApyXP6EDx/tGtuzwfMOHquWvdDbE97i0y/6I5QdblqgQCISEtMuA1yvjs8PUM20ayAnMUZWLygCwEMFSpY6jFSid4fZnJ4BbmQCUCJGWL+G4bFAAji4F5g2ZGyMn20FsPNcJgETJ7vCADAcCbA7lOjZlxT/zGAQ6oY60OHQE+H47tM+PPFxalLG40gRrEagWqcugEPf1D9J0N7DPPIKscbJcek0+o2z8C8OCL6xOWeeCtVGIwCRUCSpJhA9iPTkmAdIFhHNAOE6CByIhGjXwGxJj8MmlQC4ywxhoFd1D+3n/CYBAthHF7GhFTkCADDGVA4fz2USUFVtiDAj11wLhyEBVZNM3lPPLrhRFBl9HBa0FsG73+zB/77kR3h8sZA7MBm0TEAy4sBEEJgmPjQaSCWHH8xV4en9WI4MsYuh4PHMi61yCUqBCi4lPl+qoiY1ylcPfB3pay/LNwS6Mt+qGuoJQSEYd4kig8OZ+nJNNKqiJ5D4xs5YfA5AX2AfCySAQ31/uGPuvbM64IiVAXKXBJRXWns9fYcjAYfNtbQct8T5P4KA7uEOejj8e0MElzzqzT9x4FiGSdKEjqkWL5Y6+1b+FoMmrBwBTgPHDXPpWQD3ixYY6w/dtkAucUSraN+j9sa29O2HytGxrz1tr59v6NyfPre94dCxj/aeZRVWiGLqBaHe7ijJ5dFkE6KSUR0QTPOfBLCAHeKq4Y65N9/SASgFsIt++FmMBDDADg4bZzGDoBgJyJpZ0PTDLKH6Wq/NAO3GzVWJM0FmgEYCVAYmqiI/crFzDyBev2pF5+8VhbsTX/o+bDkg44KHvfjpKSZccox1fIJvLiDuGdDYjZTki11mwD0o4BfbAV94RMfAi2pUPLtLwPauxB8KJjMUPejE/vvzf8hMsuDExVxLXQuqZk9MSzdAZ1OXVmYgYOmyStjt+Tnkqb0tjA9XJJ6o5233IhIMw2jJXGdEeyMtIVs5IT3aGWr63+oUw0OZ9vSZ8PQG9gGmPblsFsQgrOg//ncwej/tBYDiA+CAnecqCSgsMioFTmOkwxsxJiYBtj2AcsOqFd7fKQqnD6cGEIxy3PpmCKu2hXHvJU5YLIfuSi5n4DABRVagbZTpYqOktU8OhkEECkZ+fZEBP1+o4LL3aEHC9okJ9vfN8J906OlLnG9aYNpB8+IbkwAAIABJREFUO0+BLj9a6lpQOjnFFrUcqNuwh7Spw2nAd66dASENK9BMoCcgY9XK5sRGOhxorm1B1az0WO4ORiQYJrkAAsBhc3St1cggEwC3EFEBCGOIBADyOyMdc//iqgz44ANg7y0D5F45YOJ0exAAougTswxXDjhysXPPcae4r5ckltSor3fqOL7/RDe4d1xElBMosmvp+tGg3DF8OaHQNrytcAxHl3CcVkXPQpTe44R506HVhmZdZ0TxvfrMd+rW74EcTa0Ap6m2Cb522oCchUcW5W3wBwCrTcK0mbRzvndzfcY6I+o31pE7AOYtLEjLPlAJgMUlhAHE0voHp+XzrRwgQOjgmLl6pGPuJQDvA4oDDp7rJGDmLFtIkkQFIJKAL9nrTj+v8Gqjke0e6UQMh4+bgDc+9mpuc3oU5uNIPRi0SYPJ6gFcsTHFw0FgQEli8d7/zldgIiaFBJ+ACdcVovg+F6zrjJDaBIi+sfeQWkVYPzeh5DcuVNxQACGk7xqFAiFsW7UFPEUj+XwdPuz6dAd5+2MW08bW5jIWHEGz3I2Go9i7pSHNewP0dAdwYOcB0rYlZRZUVadHOEslAPYCIRJvnRsbJIAtH079H0dvjm4JY7KXczjg4D74mA+OnC0H1Ey39mzf4nMAGglIVA6YOdvS6vaUXvvy31vv6OlRjhj5Y3Aw3m1kOGNiWJsnX2ABCu1aPngcmYdJ0lbqrTrVzCItuMNp1qYV9gx/06iyc1wxQ8XDW2jdCSwKuF+2wP1yZoew5BvaG9ux67MdmHrk9FHpAQLdAWx+fyMUmUbYyyssWHhU/s8LOOGUcjz/dC1Ugg/G3i0N8JR74C7VVR0lQ5EVbF21lUzoTlpanja9FZkAeMRYC6A2WCffywEqhFcSHfOAO5iCrpgOYOhMgD1GO7KdCZg11x3kEHu/3ZRMQFmFIXD5tRN+UlBgeCnRSRmMpmDsk8k50N4D7GoFmn1DD6EZR/pRYNXfGlhgoz+nzJ6wLfDqWQpKxuN5yrF/x35sWrEh6RR1e2M71r+5FmEdvf9nnDsRQq5aZOtAcYkZRxxFG6zEVY4tH2xGyB9MvLFecGD7f7fCT2y/FASGJaemfhx0HGQCUCT0bpjvmQAGbLmITdme6JgH3BHdcPfqAIYiAdqaK/vlAKfJpM6cZe1R1b4TSyEBVpsqf+v6CQ9Mm2G9nQmMrMxyGQexWJVrtrO724ADqRk6Mw4dEJg24EjP9h4d0dpkAFwjK5KtEvC/h49f93SgY38nPn1lNRq3NYKrNJId9PVgywebsGnlF7q0BGXlFpx8WkWyu5pzWHYOXdwXDUfxxfIN6PGmzoeBqyq2f7INrQ10K5YTTi5DUUkSM0CIILsAFhnCA4N1/pIAFezflGMevCSS+wf+XNYELJhb2iMZTIpeEgDIOPtrpW8vXlJwtSgyUgPypOGGvHGuDZ6pbdceHT2jHj87DiKMOtq1PFb9tsIltoRlnrOqOU6uHL/e6UA0FMHuNTvxyUsfY+en29GxrwOhQKhXUCZHogh0+bFv+z58sXw9PnvlUy3o6JQQXHXtDBhNY8e1cc58DxYeSS9nBH1BrHtzLTpS4A8QDUWw4d0NaNpNq/sDmvnPBZdOHvV7jwTqKGBnidjrAhj/XX6SAB40wzai+j+OwXdRxQvAOUAHkJuaAJhCfN4sT2DthianqoILgpa0pWgCFEFmRx3v3P3ZfzublSBPmDOb6iLcVUIyEPIBLX5tRK/DrM25H9cKpAc+YopXYFrJQC9EQdMatIysNbjrKBWXvMtQ5xu/zulAJBTB/h37sX9H3yRTQRTIyvKRcPySMhy+KP9r/4Nxxfem44t1qyETFyNyRMamFV+geFIJJh8+BWabvtU4V1Xs37Ef9RvrdFsNn3VBNcrK01tLo2YAXKVSOF5bH1i7zztNwJtnsYqekY41joMyAIAXXgxc/edqJmDmAinosNgiAJBMJiAa4aTG46l6Opo414LT/m5gZwtQ16H1lofklHjYjAMAOOAjVnBsxuSthAusmuhwBHhMHI+eqKBCR0ViHKNDKoJ/9WQ7vnf9zBTsTe6hvNKKcy+s1vUczjlaapvx2SursWP1dnTs70xYfunxBrB3cwM+feVT7FqzU3fwL6+w4MI0r/45B7zUOQDlYmzDoVbs+ZEJ4FC5AcZ/kg4YgzIAjDHOOVe88IpeOPMiEzD3SIN/9UrJozCZ6ckE9HSrkqLwhI2nDECNM8kbDgcQjGqPVr8WiKxGrZfdYtCCyxgQH2UcQZleanGNYnXBGFDi0CYMjoAqO8c/lkZx9QcSNneOX8/hMP2wAlROtGPFW+lvQRsJkiTgJ7+cB5N57Bp8XfiNydiyqQtbNupzolQVFQd27seBnfshGSU4i52wOKwwmo1gjEGOyggHQvC2+xD0khaZQ8JoFHDDT+ekvfzi90ehELoiRCNTbC4xGl+952smgEH4+Gw2qZZ6fg5a3rQCSjGcghdelg8kYNIURLdtCYe6W2HWQwJ27QiX4OAMyEEoNAP2VPm4yCrgDWkPQLv8RkkjAvGHQdDMaPTWrA8l+Inpf1HQyjGjgd2olXISvGeJBfjHqTIe2izikS0C5PFsTy+MJhFfPnsylpw+ESxGeLNJAmRZxcZ1HShdVpm1fUg3BIHhRzfNwU+uXY2uTtoKeDDkiBzz8U/9/ICrrpmBmun6zKKSQTfx2K2OeP2/L3DnIwlgwLN6zs9BUaYYkLsBOOHk+VIO+NLxdr/MVFWMjR+jlAP8HdHhpH0DYDek8U7OAYRljRC0+jWzodoOYEcrsL0V2NMONHQC+7qBJp9WSvCHx0sJQWKq0WlCSpqLSxNPCwQ07nbDXAVvnynj4hoV1vy0lU8ZzBYJJy+rxi2/+RJOXlbdG/zPuXgalp07Jav79uQjO9HclIYWuBxCwB9FKJh75mVfvXQyTj49M50XdBtg1q8FsC+Fn0/lABXqrnNRs5Z0wDEMdYuSXQDvBpgLTq4nE2AH4AdYpjMBxS6XsmCR7Fu7psNl4AZOyQSEIpw0DcNuFrSbf6aDrqoCYRUYauFplIBKlzYk55ADpxMAa4oGnhhFrZOgg5byrLRx/PpIBTcvVLFyP7C2TcCWToaOMNAVTo+hpMKBgJyYpQgCS0vq22AQ4XAZ4XIbUVZhw4w5haiZ7oY0jP7CasuuPXIopOCP923Bbb9ZmNcWwMMhHFJw/50bEQrlFgE4+fQKXPzNzJE/av3f6hLD0O7yA1bk+ZQJYOBPM8Z0RaqDIghjTOaccxcAvSTADzvsAM8GCVgwtzDUUB8ytbX2mCkkQI5wktTV4ZCAKQ6grQfwBnNj9R2RgYYOYFKhFpwOJYSUESf29YIBsKYwyBTZgO4QoEOAZhY5Tq8CTieOxR0NPm5muGJFYkI4dYYH1/xkQdr3ZyREoyrefb0uq/sAANs2d+GVF+tx7kWTsr0rKcdf/rgde+tT19+fKuze4YWq8owZL3URCYDNI8SXWnlJAhiEfW7sW6H3/AxJz1sBBQBimQBd5YBsmgUtOb7IJ0miEkUUicoB4TAxA2CCtuKucAJTipLrKU8HFA600py2xhRCxNW/UUpe/T8URAEoHpf6pwKrVjSiuzM3Bmw999Qe7N5JGxiUL3jrtUasXE7vxc8k6mv9ePPVxoy9n5foAWAvEPt/IAek5fOhHMCBJ5awJbqdyYa8QxYDcnyAYzIkIFuaAKOLq0uXFHWJosQTkQDOOCk6CP1ryEYRKHMA04q1+fRWI6k2nDb4I7mRkcgkqPlzyyjFf0PBbT1Eyy6pQySsYPnr9Wl7/apqG049gy7uUxSOh367FdExYuu9e4cXTz6yM9u7MSKee3I3OtozQwD1zAHoC64A8osENMqoIRn/DMZwdzPZDfAugLnRSwJ0awKy0R1QOMEoz5pe7Nu49YAziiiGKweIokCihpGhWkgYAJdZe0QUoDuoPTJ9E1G5phXIhYxEphAlEoB0lEYYtLbABn2tVePow0cr9sHnpd2Ua6Y5seDIQtTv8WNvvR9ebxQ9gb5FjsNpQEmpBRVVVsyc5cKc+QWomKCZPskyx4q39w/30gPQUOfHc0/txjevmqb/gHIIfl8U99+1MefJTDCo4PE/78CNP5+b9veiEgBHkRQemGYHkCflAED5a6Kpf8NhOAKgAEC+koB5x0jBzg6n1NjstQ5HAiRJIX0ywomSKkYRKLZrs+rDUc0EyBcmPDEFEBggHELBH9D0DxRQ5/Xqhc0IOEx0J8Jx9CISUbDiTfrq/7LvTMWsuQOn1XEOhMMKzAmEjN+6ejo2f9GJFqLS/7WX9mLRUcWYNddN3r9cgqpy/OG+LWhtJo84QWWVDT/86WysfK8JK97ej4A/c7MtPvmoBWs/bcNC4vCiZEGeA1CsZQBiwTZvSACAug14VnftP44howdjjLeitT8JAJBf5YATz3D5SjzWMBBb8Q8qBxjMIunO0B0ksmkGwGzQyMCUQmBqsTa73mlK3wrdYcpuCSIboK5u9MwK0IsSWlvgOAbiw+WN5NX/7Hmeg4I/oN09EwV/ALBYRFx34yyy2ExVOf54/2YEe/JzwNPL/6jH2k9Jo00AACaziBt/PheTahy4/DvT8PDfFuN/fzUPS5dVoljHYB6LRcT8hQW44nvT8eBfv4SqarpO5tGHtiOc5i4FbzfVBljo9QEYmGYHkMPlAAH4y63s1qRTPsPeJYtRLHeiU/TAk7eZgBO+XNi94l/M3R4MGAdnAjwFEimP2+pLsshuEAC3RXsAWqkg7goYimoZAoqafTiIgpZ1OJTAQVfhG9LYHWEUtTkBbbmnss5VhEMK3nuDvvpPRavYYXPcOOv8ifj3C7T3bW0O4fGHd+CaH80a9XtnEps2dOL5p/foes73rp85IFibzCKOPKYYRx5TDEArJ9TX+tF8IAifL4pQjwJZVmG2iDBbJJSUmVFWbkXlBOuANsrv/mAmfvmTz/ui3AhobQ7hhWdq8fUrp+radz2gmiC5S40hFVxbr+dPJmD9OWzqqtGcn5GWSbIHHmMnOlm+kgCYQzjiZJv3/Tdkd1gNS/1JQEmp1E45Qe0BFUoqyuxGUXu44uyaAxFVKxuEFa22HVGAqAxEOUZU95kkoNJ56LUAUu4qgFYaSfcKvdCmTYIcn/5Iwsp39iLgpymy5y8swGFzUpOKv/iyKVj/eTvqa0ce6hTHircP4IhjinHUscUpef90o7M9jN//ZhNUgt1tHKd9ZQKOX1I24jZ2hwGz53kwe97BWZiRMHO2G0tOq8B7b9H0F6++1IATTilDVXXqFzORsIogwQiJCYy7y8QIA+MqOMsHEgAwFcAfR3uORgprCgB44OGd0BbL+VgOKCoxKSctc3WZBJMM9JUDyiqsAcaQsAygqEBjVzrSVEwL4A6z1mNe7gSqPVrpYGax9u+kAmCiW2tBLLFrqeeJHmByoTaz/lADNWOSCve/RBCYVu4ZR0IEe2S8/zbd+vfCb6TOKMZgEPCDn8yGwUBn8I88uC1p+9xMQlE4fnv3Jl37WjPNiSu+l16x4zeumgqni9aFoygcj/xhO5nb6wG1/m+2sYggxdPujKuD0vK5WA4AlNfPY9N2kw5wBAz7rWCM8QM4IAOpJwH22MFkmwRIEiM1pO5uzfAqjzGthGAxADaTNtCm0AYUWjUR2qFaf6YSgEw5u7ks2jUax4hY+c5e9ARoq/8FRxRixmGulL5/9WQ7Lr6MTiq6uyJ4+MGtKd2HdODvj+3Cts1diTeMwWaX8OOb5+giQ8nA4TDgG1fR0/rbNneROzb0gEqMLC4xPDjA5jYJYD1RyI+TDi4BRvwklKM82hEbBJFKEpANs6A4CbAa7FFAIwFGo0Baluxozk9h0JgDdZmQiQwAoBGxMicOXUaWGMEeGSvfoa/+L0rh6r8/zjp/oq6ywppP2shp7Gxg9aoW/Odl+nkVBIbrfzIbJWWjmI6pAyctLddVPvj7X3eRBXtUUF/P4mQxAWB+kAAB7KmL2OyUTGhKRAWVAhTwdJCAbJUDTjnL2lVoMUYAwGITSd+g9Y3jBCAnQA3s6cgnDgezBLhSNHNgDGLFWw1kZf2io4swdUZ6JsQJAsN1N86CxULXzTzx8A5yG2EmcWB/EA89sFXXx/zci6rT3nLXH4wB3752xrCzIAbD54viqb/sSuk+UAmA3S2G+gJwbpMADuxxoP4l0oERMOLVYZqGQR1LJMDpMqlLzi3tKvFYw263QMrzrWuQMxpTxjEMqAvtTF+rEoemCRjHAAT8UXzw7l7y9hdeOjmNewOUlFlwxfemk7cPBhU8eO9mXQK7dCMSUfHAXRsHGCIlwux5HlycpszKSJgw0YZzLpxI3v6D9w5g04bUmWx1dhAHAXmEmAeAhhwmAVyC9NtkLH+HA4WeRQFgLJEAkxn81HMLu446uvAzyknqCnLsaMmtqVqHJKhBVsfAnpRAEjSNxjgGYMVbDQgFafeqo44tzsh8+JNPr8Axi0vI22/f0o1XdaTa041H/28banfTZ4C4PUb88Kezszbx8IKvTe51Z0wEzoFH/rAtZU6GZBfAAinU566nIRdJAANePJNNSqk4hUIAFMT2YiyRAAC44ReT6kSJNVFO1Ps7cl8VPOYhCCClAVSeeRJQYD302jJHQMAfxYfE1T9jqVX+J8JV18wgq9QB4B9P7SG3EaYTK97ejxVv04f8iCLDjT+fC3dB9kpUBoOAK6+mZ10O7Osh+zYkgs9LE546C+NzAHKXBDCgJQzjk9RjpyIhAWCaxzDHGCUBNptEMlJ4fwdxCt040gcGQCKuZDLdny8wrRQwDgDA8jfqEQ7TsmZHH1eCSVMy11Lp9hjxvRtmkrePRlX84d7NWfXYr9vtw6MPbdf1nK9/aypmzs6+tfH8RYU47sRS8vYvP1eHA/tHr72gdgFocwAGBvYcIwEqIP/uIlaVckEKSaFRF/MEwBgkASWlxv9SzsG6vTIaO8fLAFkH1eEvGwY9DpP2OMQR8Eex6j3ayFdBYPhqmmv/Q+GoY4ux5NRy8vb1tX784yl9bnupQjCo4IF7NiESpn+mjzimCGeeT6+/pxtXfG86bHaaPXckouKvD20b9XvSXQDF0MAAnFskgIO/ejabQSpX6wWJAEwC5Na+/44pEnD2eZUfIH7mRwDnwGsbx8sAWQdRVYxQljo3yl2aU+MhjHf+U0de/R+zuATVk7NjqPStq6ejuJTue//qSw3Yuoned58KcA788d7N2N/Yk3jjGMorLPjB/8zOWDcsBW6PEV+7vIa8/YbPO7BqZfOo3pM6d8JVJoUPDsC5QQIA7DWA/4V4yLpBupsyxuRiQB2LJODiK4tbTSbxc8p5eGl9GOp4O0B2QQ2u4SyVbESmuTWaD02DIG93GKtWEFf/IsOFX8/86j8Oi1XCtT/WOzBoC8leNlV49cUGfPpxa+INYzCaBPz45/NgteUeCT31jEpdbZ5PPLwj6QmFqsrhJWoA3OVSaOgAnG0SABlg/+8MNi1to0f1WEIpxQAfiySgqMzwBuUE1LerWLlj3BMgqzATb2xE9XlaIAmarXOR7ZBrD1z+ej2iEVqq+rgTSjFhYna7J2bP8+DM86vI27c0BfHEwzvSuEd92L61G888oa83/qprZmZUT6EHgsBw9Q2HkQlXV2cEzz6ZnNuttztKat80mJlsc4gyMNwqPHskgAN/P4dN0Sf80Ak9BEAGgLFIAs44p+R19OkcRsRTq+nztseRBlBnIERk+ujgdCA+K2BqkeYW6DBr2QtJ0CZLpfpBJRpMa6ZI+UME/L4w/vv+PtrpEbNT+x8Kl1xWo2sYzXtv7ceaT2ijd1WVI+CXdY+97eqM4P47N0LR4UGw5LQKnHwaXdeQDVRPtmPZ2RPI27/z+j7s2u7V/T7U9L/FIYQAQIjFstwhAdh4Fqb8g37EyYGcJ2KMKfs55+UAi5EAFpuXxQGwGAlgBSiIk4C8mSJ43bXTDjzz130rAgFlaaLz8N/dUaxtiGLhxEMzxZt1GGPBjjIXoCes+fVnE6IAeCzaI52QogAS94ebjEA5XZCtC6+/UEdWyh9/Uhm5PzzdMBgEXP+TWbjph2sgE8Wjf/79Vtw/82i43Fo7oSyr2LnNi43rO9BQF8C+vQG0toQGBH5BYLA7DCivsGDiJDsm1dgxf1EhSgfZ86oKx+/u2YTOdnrmd1KNA9++ZgZ5+2zi4stq8MlHLWhvS3x8qsrx8B+24TcPHknOHABAdxct/W91Cr07IQBcBUaY4Nc7nS8u0Oud0JfaKYJCVwTRe2JGfGmFrkJROSA3A4ZS9GYCxgwJmDzV/tymDd0JCQAA/P69IJ68YpwAgENT23PeF5BFRlfqJwUGWI2An3Bz9OcAAThE0NYawvI3ad75gsBwQY6s/uOYVOPAxd+cjKcfp6Wcu7sieOTBbTjj3CqsePsAVq9qQSjBKl9VObzdEXi7I9i+tbv39xMm2nDs8SU4dVklPIUmPPe3Pdj8Bd0Rz2qT8OOb58JoSu+Qn1TBYhHxraun4747NpK2r9vtw+v/3oszz6N3NVA7AKxOKdQ/WGefBDBFgHLX+eww0rj60ULvJ0YuBXhcmzmWygH3/HHaCkkSSM4ln9TKWLnzEPMFiChAdwho9gH1ncCuVmB7s/bv7jagtl177GrT/u9Lm25Fm4hIgT9CnyA4jlHhpefoq/8Tl5ajvCL3iNnZF1Rjxiz6JMJPP27FrT9di5XLDyQM/iOhsSGAfz5di+9fvgp33bIe/3q+jvxcxoBrb5yVk+dzJBx9XAkWHU2fTfD83/agrZVefqXOAbAVsLAKdUDaPpvlAAb++Jls6ibygY4SughAfDbAWCQBE0pc0ZIyw2PUc3HnGwFE5LEcXDjQE9UC/u5YUN/fDXT0AD0Rrb4+3OFHFKCxS9s2HaASAJXTMgXjGBXaWkJkhzpRZLjga5PSu0NJQhC1iXl6BgalEorCsW5Nu665I2dfUI2jji1O306lEVddMwNmM+1cB4MKnnh4J/m1qRkAu9sQBIDcIAH8k69gysvkg0wBdOeMPsfnCgCMRRJw5XerX2AMpEbf+nYVj64ag4JARQXae4Dd7UB9hxbEI0mublp8yT93JBglepmhK/emuY01/POZWnLtfMlpFQfVvHMJJWUWXPadadneDRIOm+PGpd+i99bnGopLzPiqjjbQ1atayOJL6hwAewELMwicQeDZJQGsgcN6P2MDtks7dBOARVgkH4DG9scaCZg12xksLDQ8RT0Xf3w/iM0Hxog7oKwCzV4thZ+qwM2hlQ1SDQbASTRwCUSA8HjrZrrQ2hzCB8tJ4zQgigznXVSd5j0aPZYuq9SVns4GXG4jfvizObqEcbmIs86fqKtt8bE/bSeVW6gEwFXS3wUwWyRA6A4jePtZrCJNKdPhoZsAMMZ4OcqVsUgCfJEIO+2Mkn8IAloo50JRgZte9ud3fFFUoMWvpfg7gqmvmUfSpJVw6rDc7cz49+qQwT+f3kNe/Z/y5UqU5PDqvz+uvuEwOJy5KfQVRIYf3TQHBYX5bzstCAzfvm4mmci0toTwwtO1CbejagCcxYaQFpj7PsOZJQEsogK3X8Bm0ac8pRDJykblcpTzsUYCjNzI7QUIl5ebH6aeiO3NCu54PU8DjC8M7OkA2gPpE8sJaVImmw10V8CuYHY9AcYomvb3YCVx9W8wCDj/kknp3aEUwu0x4sKvZ25CoR5c8s0pmD3Pk+3dSBlmHObCyadXkLd/7eUGNNSNPJ2R2gboKjGEgHiAVmMBPjMkgAFchfyHs9jk0Q8+SBJJ3Z3jEwLHGgkwGsNcVCV+2jnuV41GRlZiPv95CC+uzaM5AYqqCfoauwA5zSUMK33sqm64iatJDqA9++Ncxxqef7oWKpE4Ll1WicKi/FmxdraH8eqLqRlLm0qUlVtw7kWTsr0bKcfXv1XT66mQCIrC8ciD20b87FFLAIUVUqgvcGeWBKhgz57Fpr1P2tE0YTTLMxkAxhIJ0KrVUZglkzJztuMeEIYExfGr1wJYXZsHrYFhGajrTE9tfjBMEr1WnwzcFroDXlcwPYLEQxT79gbIw1qMJiEvav9xRCIq7v7VBrS2jP47whiDZJQgSqnpLGg6EMSKt2l+C/kEu8OAy75NF19u39qN5W8NfR5CIYXkvMgEcEeJEBk0ejcjJIAD752JSWl3+kuE0RAABbEDHCskoNDuVLQQHsVxx3u2ujziM9STEVU4rn3Ojx0tORxk/CGgrkOzyU03jCJQ5Y5ZX6QJAtOXBTjgHb51cRy68M+na0le6wB6DW7yBU8/tgu1uxO7Kg4Fg8mAspoyzD5xLo4+71ic8PWTcNxFx2PxJSfg+K+diCPOPBI1R0yDu8wNluS4vr/+aTv21o+9jNbxJ5dhznx6aePpx3YNudKntgBa7GJIFAeO3tV+TjsJ+OQzTPoDMqz4HwpJE4BYu8KYIgEmc5CLqoHHScBXzprwfwYDyEPAfSGObz3pw65cJAGdQaCxO/W1fiHm/GeWtLq83ax5308pSrMjYAwFVpDnnvZEAO8YbN3MMPbWB/DxhySdLExmMa9S1hvXd+CNV0h+YANgtlsw87hZOPaC4zDj2MNQVFUEs21g9ksQBdjcdkyYOQHzly7AMRd8CZUzJ4Dp1MlEwip+e9cmsvgyX8AY8J3rZsJgoJ2PgF/Gk3852BugnWgYZHUKoXiQB4YnAansDhDA1jeg/f5bM2DzS8FoZ0YqAETEGhljJICVozxOAlg+2QaH3EEViEBUjTwqRJnLHY3Mnu36xYYN3U9wDlKBqs2v4vInfXjycgemlmTHUOQgdPRohj6jhcAAqwmwGQCLQVvli1m2HzWIWhaAqvRv8QEO0yE3pS+V+OfTe8i1/9PPrITbk0YdSAqhKByP/WmHLiMexhgmL5iCCUkEcqPZiKlHTMOEmROwY/UF8HOHAAAgAElEQVR2dB6g2/82NgTwzuv7sOxs+iTDfEDFBCvOubAaLzxTS9r+oxVNOPLoIgRDKtZ/3o49O7xoaaZ5f4hGpihRhYkGMWb522fvq1n9sl4rYEDLBGj2wEnbBu80A/d8jx2RM7XiUd29Y86A8a9L3mcCPJYCVRENXCMBWibg2BNs20tKjPfrOS9tfhWXPubDmvoc6A/sDGpBL1kwAHYjMMENTCsGqlzaqttiyH7wj0PP2F1ZBQLj7oDJor7Wj9WraPPpzWYR53w1f2r/776xD40NgcQbxiAZDZh3yuGomjVRd/DvD7Pdgrknz0flTPqUPAB48dk6BIM5mG0cJc67eBLKKmiDojgHfnv3JvzpgS34+INmNDcFyQSueU+k6KbFtec896vmOW31cm+6Jk3lgDo/em5fwibnVAoyFXfw/lEu70mA22aKsbM+EnD+xUUvWO3Sa3pOSndQxZVPefGfjVnsDvCFgSZfcnVvBsBtBWqKgCpPbq+aJQHw6JgsFx57N81M4fm/01f/Xz5rApyu/Fj9qyrHKy82kLc3mAxYuGwh3GXulLw/YwxTj5iGKQvozn7dXRH852X6PucLjEYB37kuM5MNA12q9cPnuufd9uW6cx67oWmBr0MxAKklAQLYHg751ovY7JwTboyaAMRbAvv9Kq9JgNsqyYJiiB1PHwk469zSu4xGRhtfFUNYBn78gh93v9kDJdMVn7CstfolE/1tRq2GX+7ITB0/FSiy0fc1V4lMjqN2tw+ffUxb/VssIs6+MH9W/6tXtaKliZY6ZgLDrBNmw+JI/TjjqtkTUVZTTt7+rdcayWLMfMK8BQU4fklZxt6PqxDWvumfefuXG76y/PGuaiA1JABge8II3XYGm+bN2MHoQKpyuGOGBBSU26IAMJgEOAp4+OTTPD+SJOhWCD3xcQjfeNyLvZ0ZYgEq13r89Qr+BAZUOIGJHq2+n08QGFDmoG1rzU2Ht1zH83/fQ06vnnFuFRyO/DnP779LN2KrWTgV7tL0GfFMP3o6HIVO0rZdnRFs3EDXDuQTLvvONNjso5Wp6UNPt2J5+Z62L/356gNHyREujE4YyHcJMN96DpuZAgFWepBKAgCMARJQXmGS4wqNwSRgwhRz51HHOq4XBOie1by2QcbZD3XjuTUZqD83e/X3vJslYHIh4MoPq9YhYTcBrgS+Aw6T1q0wDl3YvdOLz1fTBrFYbZKu2e3Zhs8XxYbPaV9pm9uGiumVad0fJgioWUQvBaxaSXNjzDe4PUZcesXUrLz3phWBmvsuajzJ26oYhyIB2s/DkwAFfI8JtjtOZ2V0UUkWkBIC0K8lEMhzEjBpihoVRc6HIwGzFjgaDl9kv1oQWIfe89QT4fjVqwH85EU/VD1SYz3wh4EunToTmxGoLsi/Vf9QKHMCtmF6zq0GLcMxDt14/m/01f//Z+/M46Mo7z/+eebYO8nmhhAg3HKIAoIIeFDv+6hSEau1tbZWa+vR2tZfq7209WzVere2Ch5Qb0WLF8oNhjscIUAukpBrd7PZc47n98dsYIEk+8xm9gp5v16tQzI788xkdr6f5/t8j4uvGApHBs3+t292QWF0o5edPAokCUtIOUVO5JfmM+27blULc1xGppHK6pH1O0PFj32n7mxvmyL2JAKAY5cDCNStTggPzCVFabfmfzRGhnFHTzkzWgRkO0kYAHoSAVNPy9435ZSsW+MRAQDw/tYw/rU6AZ4AlQJNOpeasi1akF9/WRfniFaAaEiO5g2witp/S3OA4bmJ603Qj6nc6cHGDYwzZIeAi6/InNk/AOzYxuZCt2bZUMBolI2gdDxbip/fJ6N6X9rbGt1U7vTgib8wV2RPCG0HZOc/ftAwp7flACBaBNAvOzDiwVlkaEb0ITfsbXiUFwDIYBEwuCQn1GX+exIBU2Y6qmbOdvyA58mBeO7Xv1YFjQ8MbPPra3rjMGsz4n5i+w/R1S64JAcoy9P+m2VB/7vQ5LB4EXMtLFx61bCkr9v2lb172ERzwdDkGX8AyCl0QjSzeVL2VqZljFncuF1hPPyHrUwlfRNN/c7QoBdva5wO9FYsCFSB8t/zyYhn52mB8RmB0dOhboMBo7czQQSMGZcVUlWBxhIBE6Zk1X7rvLybRBPZrfdGtflU1LYb+JzIKtCuY7nJLGiz5DjLkQ5wfLB7hxtbytkcXVlZIi66PPMK0zTUsxWRyi8tSPBIjoRwhHkZgPUaMgFKgX88toO5oU93iGYRdqcDeSV5yClywpplA9eHuiUVX/tHfvWqeyjQrQgIAeTJC8nIJXGfIEUYKtUJIZRSqhVGOjzdokdvp3vFwCGlPsVk5uRwSBA4TiKACAmACE0EqLxEuioGDh+Dtqvy837wwdue3/n98nl67pehlTzbdbT07XKT9xe3fzoSVgBvEJAUQOC14EPW9sVpxJuv7mfe99JvD4PVllnX6OuU4euMXbCLcIQ5Mt9IsvJz0LQ3dpDf2pXNCAUVOPNMyM0zIzfPDGeuCXkFZuQ4TeD5zPmuf7msAZsZgzKjMdstGDx6MPJLC+DIdRzze0VW4W5yobW2GQerD4LqjJv46CnXtKkXZzVl5fFSV8VADly9GfyTZ5Ih+utHpwGJ+LYq0ATAMYY/ejvdRcCIkebg7p0Bh6oKNJYIyMpD4Pqbin/z5msHD3hc8k0sN8lmIijLN8gBo6paxT9WijMovz/joMDBTqA9gCMcYK2dWmGl4qyMWYmo2OrCts1ss//sHBMuzMDZv9/HVq3TZDX3aQYZLxYHW1ZOa0sQn37c82qkM9eE7BwT8vKPFAZ5+Wbk5pmQk2tGXp4ZJnNqY2RCQQVvvMq+5AQAgknAsEllGDJuSK9/I17gkF+aj/zSfAw7sQz7Nu1Fay1bXQtASxF88/6WyTc/NagcADhwX0sI/etcMiZjS4saLgCO8gJkrAgYPyk/sHvnfgcggkUEKLwE6Hi1XzXFBNEoVe4Oss/+7Sb2DnoD6KfFp/VeOBoKrV8BgSYCMoAli9hn/5ddPQwWS+aJymCQTQAIKRLMgkGZOW5XGG5XGLXVvQcL2uwC8vLNyM4xIT8iEvILzMjJ1cRCl2iw2RPj6Vn6Xh1cbez21Jptw4lzT9RdlMmaZcXEMyahobIBVd9UMnsDtn7RObqlRl5XPNz01Dlk2AZdJ01DEuWvU3YA3ARtOyNFQOlQu5LttAU73H4Liwjwtotih1u+guXmWETgljkGGmEP4+w/g4xPRiKrQFuMOAyXX+ulkOYemO1bXKjYyhYd78w14YJL9NWxTxeYW/KmKMuOJipduAf8PjniFen9OTaZOeTmmo9ZcsiNeBjyCzQRkeM0MYcZqQrF/z6sZx6rIy8LJ51zMgRT/GasZGwJLA4rti/fwiQCVBncX6+qq926cW7GG38gQQKgywuQ6SJg4ok5/pVfhc18xPD3JgJWLG88h1IwFQa/broFxdkGudpCEsA4i0G2JSPXoTMGdyC2oaAAOsNAbnp7Yd54ZS/zvpdfPRzmDJz9A4CdcSYrhVPT2EvRW9ArSYRDKg42BXAwRvlknifIcWrCIDciFpy53ccpbP6mDW2tbLN/k8WESWdO6pPx7yKvJBejTxmLPevZYrmDncpN06Z98/vy8vTp6hcvibQGygSA7ABIpoqAadMR3rjBIvn9QTGWCGhrkS9muSkiT/D92TGq1emhg9FdRgDk24077wDH0sFYgCnpjSH0saW8Hbt3eJj2deaZcd7FmTn7pxRobGCLng8HQ1BkBbyQXKET8GZ2dL+iULS3hdAew61PCCCK7JOicbPGw2w37j1aMrYE7qZ2tLDFBJR4ve1nAPjcsAGkiIRFfETqAqgTALrj8I8zLkVw7AmqHwCUqLTAo1ME9+715gWDdAbLfbn4RBMKHQbedh9jqozNNDD7TyQBSWvAxEKau//15P1fOW94ygPH9KAqFLsq3Hj5uUrcesNK3P/LjWwfpICnmU0UGYm72R17p34ApUA4zCaMc4qdyCvJM3wMI6eO0tHWmTvD8AGkgERbBBXaMgDNVE/AGd8aEajctcfm96uiogq0O0/Ali2BMwkB01v9+hkGlrZUVCDAaHQyucZ/JhBr7b8LAi0QM0U0Nvix6F9VsNoEOLIE2B0iigdZMXykA6LIYeOGNlTuZDN0eflmnHNhYuviG4Ekqdi22YV1q5qxYU0LvB3xeW7b6lsSYnh6QlVUuBriKjbarymbXJaQ41ocVhSVFeHgPqbeCmclZBBJJqECIBILoADgM1kETJiU3/nN+oZcQER3IqCjQ57Jcj/GFPE4cYiBtzwggyk6iQDIyoy+7BlJSNZ6MLBgNwNC6mbMrc1BvLuk5pif8zxB2cgsdHSwF1+58jtlMJnSc/YfCirY9E0b1q1qRvn6NgT8fV/Db61rw+hTaFJ6AQCAq9EFRU7PGIBUYbKYkFPIFGoVF4XDClkFwKnTpn0jZnocQMJ9woQQlVLKQTP+GSkCZp2RF6rZ7Q62eLSMgGgREAyCBIPyqSz34vKTDG5sEWR89qymgRr4iYICOOhljxLPNjD+w0AUhTKXxAWAgkILzr6gJIEj0o+vU8Y361qwbmULtmxqQzhkbKxFOBBC074mDB492NDjdgsFaiuOFWrHO3lD8hIqwJyD8sDxHNTYcTrmzs62UgDsubJpSLIWhQ9VB8xUEXDGBYM633qz0QQEuGgRUL7BN55S5LDchAsnGtwhLcQoAGyZ05kt4+gIsMdhCJxWEdBgPt8Vxl+XJTdY7Kpry3QFbSUKtyuMDWtasG5VM7ZvYe/qFy/VW/ajqKwo4cGArXUt6GhhW4qZMasQM+cUweMOo601BI87jPbIf13tIaZKh5mC3nx/vfACB7PNjIA3dmo1pdwQDAiA2ES8AF3GPSNFwJChnXLZSNG/d49k53lt9q+oAm1s8J/Gcg9GF/EozTX4pcEYNAPLgABICJKqzf5ZybUZWn55X6uCP3zkx5p9yfVCFhZbMPe8JMyCe6DlYBDrVjdj3aoWVO70JLUVbjgQQs3W/Rg5NXF96uWwhL0b2dMwL71qGE6Y2LNbPBxS4XKF4G4PwdWuiYIukeB2hdHepv3b4w4zt3xOFSZr4tsDswoAQsix9YYzjGSGhasAeESMdSaKgMuuQufzT6smvy8odokAn49OZ7n4M8ckwAhLjOuDA9H/xkMBHHADrDNOnhia+790exj3veeDP5z8N/ZV3ymDkOQ4hvpaH9atasH61c3YV6VDdCWAuh11sOdmoXhEseHHppRix9cVCHayFfcaVGLDuAm9r4mbzByKB1lRPKj3509VKdyuMFxtEaHgCsEdEQyu9ohYiHgWEu1p6YlklGNmzQRQVZre6TwMJM0yRAICu4x7xoqASy4Pdrz1ppKnKAAgc3JYHc9y/dOHGywAKLQeALEgSPu0s4yDAmjs0FL/WMl3AAa8vBQV+Ov/fPjP2tSVH//8fw2YflohcpyJDSzdV+XFulXaTP9AnY5Ol0mgcu0umKwm5A7KNeyYVKXYs343XE1sFRgB4KLLhxrW0JPjCPLyzcjLjz3LdrvC6PBo3oNoYdDepokFjyuM9vZQQuIwEk04wBoIy6VWiRpAUqeGhBCFUtp1zowUAUOGFkiTT5Y6NpV7cnZVhAZRipgtwggBpgwz+FarKlvgGUd0dCgYICYUQHMHe/llABA5Q2b/igrc+44PH2xNbe+Rqt0d+L+7vsH9f5mKgiLjghpVlWL3Do9m9Fe3oLWZsbBSClAVFdu+2ILRp4xFydi+B0PKYRk7V1agXUfaX2GxBedelJpATGeuCc5cE4aV9e4F9/tktLeF0OE5HJ/Q1hoRCG2HRQNrU6aQP8HPPgVCfrbnjudVdqWWpqTCN9wVEAhkqAg465zBgYNNftMXywJjWC54WC4Pp9VgK8wqrAei/42DAmjyaiV/9TAoq89r/yqluO89f8qNfxdNjQH8/teb8MdHp8GZG78nQFEotm92Yd1qLUff7Yq/B3y82OwCps0owIxZhfjkg3rmHghdM/aOVg9GThkZ9/p0e4MLVRsqdVf9u2bByKQvxejFZhcijYN6r0K67KMDePHpXTGP525KbGEkr8sLma3sM+3oCLIHaqQpSRcAUQGBRxj2TBMBl1xR3PHSPw4MYrnmMUWJcMGnebROf0NRgQMdgE+nAc6xAI6+z5IfWRbAO5vTw/h30dTgx4O/3Yw/PXaKrmqA4ZCKzRsjOfrrWlMSpZ6dY8KMWYU4dXYhJp2Ue8iQDh/hwD23rdPluj64rwmttS0oHV+KkrFDmIQApRTeVg+qt1bD1ah/Ijl5Sh7OOid1gZhGM3pcTEcqAKDT5UXQF4TFwDLA0bTVtbLuWtvQcGlm12lGajwAQFRaYOTfGScC4OhEOEwLWS52VGECBADrjDKJEdL9Fl8YaPBo3f70IHJAMduLrTe+3C3h5TV9c4fbnQ7Yc+0w28wQTSIUWUE4GEagI4COVg9L3nO37N/rxYtP78Jtd0/odT+/T0b5+lasX92CTd+0IRRMfoGbgkILZswqxIxZhRg/0Qmum3bcg4fYMO/6kVj4zypdx1ZkBTXbalCzvQZZ+dkoKC1AVn4WLA4LeFGAqqiQwxICHQG4D7rQWtcW93q23SHg1jvHG7b2nw4MK7PDZOKYygE3VB7AyCmjDB+DIqto2tvItC8hZJXhA0gBKREAUQGBQAaLAFmmTBJ8WF4C3HTMPTbVI+/cAOwoKtDqA9oD0O1x4QhQ6tSi//tAU4eKX7/bGVd6liPXgUGjBqNgaEGvjVNkSYaroR3N1QfRWt+q+1KXf9aIyVPzcPrcIx1iHZ4wNqxpxbpVzdi22QVZr4AygMFDbDh1dhFmzi7EyDHZTF+by749HHsrO7BmRbP+E1LA29oBbyt7USU9cBzBT+6cgILC9CwoFS+CwGHU2Gzs3B7bxX9gVz1Kxg4x3AvQsLteR4yBmvGNgIDUeQC6lgIOpQVGfpxRIkBVaT7LtRZmJUAAcET7X6wZPoVmyNJ8rTCtUFTAFQDa/GyZFt1RnGVI/YU/LfXB5ddnkS12C0acPBKFZUVM/e4FUUDh8CIUDi+Ct60D+zbt1b3W+p8X9mDKKfkIBhVsWNOCtStbsGuHG2oK0sXKRmVh5uxCzJhVhKHD9XfAJAS47a4JONgYSHnK4dHceMsYzJjF5HjMOE6fO4hJAKiKij3rdmPSWZMNqwro9/hQs72adXdJUaQPDDlxiknpvDASC9BlmaLHQgAgSgR0+/vo7S4RAABdIgAAokTAoX27RAAAdIkAAOgSAQCgiQCgAx0EyEY2AC+8BMhCVmR75sQNK2SZnhDrOt/5cTYmDE6A1trbBrAErAzP1boB9ldkBQDpo8ihgF8CPEGtrW9flk4KHUBB31svb6yVMP+f+gxQ4fAijDvthD5XqmuoPICqDXtAdbgenLmmlBST4TiCMeOyMWNWEU6dUxgz352VDk8Yf7xvM6r3pocIuGJeGRbcZLzrO13w+2T8cMEK5viLoROGGlKQSQ5L2PhxOVPxHwAgBB/s3n3OZX0+cRqQ0gox3dUGiPwqIzwBikKZ3vJZlgTNvkUOYAmaDsr9TwBQaB34XP7Da/Mir12nTdRm3ya+51gJlWriKSgD/rC2zm+EizrfZojxB4CHl+nINiBA2eQRGD6pzBBZXzJ2CGzZdlR8vR1ymK3eQTIj+DmOYNJJudqa/mmFyGXIXddLdo4JD/xlKh783WbmDomJgOMIvvuD0bjkqmEpG0MysNkFnDw1H+vXtMTeGVpBJgAYcfKouD0BIV8Q25dvYzb+AECp+ve4TpaGpMXKcGQpoIuM8QRMP+HzHZSiKNb1rbjHiaJELAMc9ALtDIGoORaghKldQWZAAdS72TrwCdzh5ZKuzyqqMcb+aAya+QPA+moJ332ZfeY5bNJwjDh5pCHnjsZ90I2tn28BjXcpxEBMJg6Tp+ZhxqwinDKzAFlZySlxHQ6peOmZ3fhyWUNSzheN1Sbg1p+Px2mnx3zNZDSUAu+8WY03F+7TvWyUV5KHMaeO0x0T0Frfhj1rdyEcZBeuhGDN7t3nzNJ1ojQmXWrEHlMbIHo7XT0BABFZIqZMQoJ0Fusac2cY/SoS0OVnb7+bjMAzAm3NP9e4RiXvbGZ/KeWXFqDspBGGnTsaZ7ETY2aMQeXa3Qk5fiysVh5Tphdg5uxCTJlRAIsl+VUtTWYOP7lzPCZOduKfz1Qa0lqYhRMmOvHTeyagyKAljXTF75Px9KM7sGEt28z/aNob2rHh/XUYckIpSsaUwOLo+X5RlcLd7Ebtthq4D+pOv6SEkHviGmSakjYWoatlcNSP0t4TMH78FztUlcYsCL7yF04UOhLgAQjLWhwAC/0pDmBvKxBOkz7pPAeU5hh6bwMSxayH3Ux1/kWziBmXz4RgSqyWr/hqG1rZc6T7RFaWiFNOK8CM04oweWoeTKb0CWB1u8J47d9V+OqzpoQ1IXLmmvDt+SNw3kVDuk1V7E/U1XTi4T9sQ1ODcSn1jlwHcoqdsNgtEC0mUJUi5A8i4A2g/UAbJNYuqsfyz8rKc242bKBpQLp4ALqyAo6pDRC9nW6eAABMBcoT1rDFJGhxABLDLLcj1D8EgErZmyAlGp4AI/MAg1vDLq+UmJ+ZYZOGJ9z4A8CIKSPRVt+mKyhQD7n5Zsw4TSvMM3FyLrgE9nzvC85cE35y5wRccOlQfPh2LdasaDYsvdGZa8L5l5bikiuHpcTTkWxWLj+I5/6+0/CaEJ2uTnS6Og09JoBKQix3Gn3QVJM2AiBCt7UBorfTSQQQwiYAfKEEhkXbTYCboUiMN6i5qdPzvcpOOlU/UWlCCjJurGVzMZttZpSMHWL8ALrBlm1H8chBzIVSWCgeZMWpc7R0vTHjstPW6HfHyNFZuOOXE3HDzaPxxbJGlK9vRdXujri8AhMn5+LiK4di6vQC8P18xg9o5Z9feXEPlr5Xl+qhsOIFuHm7d89Jj3QQA0krARDJCug2IyB6O11EACHEx2IB/IkMjnZY2ASArPaPegAEgFXUUvZSDYUWX2Fgm18A2FzHJgAKhhUmpT1qF8Uj+i4Ahg534NTZhTh1ViHKRmUZNLLU4cwz46pry3DVtWXwdkio2OpCXY0PdbU+bN/cDm9H7Of07AtKMH1m/8ztPxp3ewiPP7SdKd8/TQhTim/v2fOtLakeSCJIKwEAHLEUkPYigOPA5Gdq9iYwEM1h0lzRKerPnRLyHYA/TRpxeYOGCoCQDOxsYnOJFg4tMOy8LOQU50AwicxpgYDmsBk5Jhsz5xTh1FmFGDzEuEDJdCMrW8TMOUWYOUf79wtP7sKnHx+I+TlXW/IbIKWCXRVuPPbgdrjb06unRU8QAr+q4jt79pzzaarHkijSTgBE6LE2QPR2qkUAJ3ANYKhdXd2WwDVrQoBsqxYZ3xsmPvNn/104TNpyRrM3IS54XQQkQxMsWrwKJAYxx4s8soucMfczEkIIcgfnoqUmdonc0mF2nHvREMyYVdjvytaywlqbwJUhBrEvLH2vDq+8uAdKnBMVQlBJKcYgSYuYlKJZlun39+1b9XEyzpcq0tIiEEIoDr/ao5+YY7YjIqDH30dvR0QAAHSJAACHRMAR+0ZEAAB0iQAA6BIBAACzCKZ2kAkVAACQb4/dHCjfmPz0tCHPBpTlAU6rscJG4LRjluSwvWpUCsQfVXwM7gDbC9KWbWcq82s0difbczR1Rj4uunzocWv8ASA3jy3otr2t/wqAUFDBkw9X4OXnKuM1/hQgTylK+GxCcANAkpGKsoLjpHPNZmXjuHHn9LMX55GkpQAADomALtJSBNjt4j6Wa6lpT3AuusgBQ3J6FgF5Vs2o9TcsIjA4GxhdCIzMBwZlae54q8gmCgRO29dp1Y4zMh8YU6Bt51i0LAsWAgYKAMa6/yZrcorgHHteNqMW8KVJpkYKyTvOPQBNDX785s5vsOLLpjiPQLyE0B/wvPSQKHIKx8mfm0zqGQB9HVrtGIMhLYQoPyNEvZbjSAsAhMNBG0D7bWRmui4BADgiHgBIw+WAwsHC3gaG4mCVBxXIiY6/c5iBEflaedyApMUEmAVtpuzoB+l/vUGgXav5qMdZpVrg46FofaotmXBEy9+P5TWxm7RF+Viw7MOIjzH9j+NSo91ZewwEQwMCgHkJoB96AL5Z24qnHq2A3xffd4MQ7AaUH3CcesQkS1EUN8/jbkninuc48nOAXAygT2qYUjQDeN5kkl5RVRwR2G2xyFxp6RJLfT101OXOHNJaAADpLQKuvLRs35bybdFVDLvFH6aoaFBwUmmCc3tNvDZ7HUCDIwDXh3tuZnyvGFiU6GgN0xOqkprSvApjDYbjIY89Frl5bAKgvR95AFSFYvGifXj7jeq4m0JRSt8XReVuzRh3jyiqlQB+wnEokiThKoBeCJCpAFgfvDaArgDwjsmE5aqqSD1VuxaEQjMwIABSSa/GPHo7mSJg/vyi4B//SHYoCp0U6wI21EiJFwDpBgXgC2llexVVc6lnWQBLhjx2rEbMwMJEdsaqd6FAaiLHQwE2Y2V3pGaJIp3IzhHB8yTm2nc4pMLXKcPuyJDvRQ94vRL+/tft2FLeHu8hZID+SRCUF1hbT6gqmnlefg7AcxwHuyyTkynlxwIYDhAnpdRKCFUJIV5KSQtAqwghuwBlF8dpRRtinYsQxfhOU2lCRjxxkfoAQBqKAJOJrA4EYguA9fsl3Dz7OAqIUlSg3nNUEYQQ0OrXOuYV2ZH2VYlYK/wZmIJZlM12TwIdflBVBUnyUoDPzVT7CtnZAwKA4wjy8s1oaY5dp6O9LZTRAmBflReP/HErWhmutTsoRTMh5Mc8L6+NdwyqCh/H0VWAvCreY3SHxSJzwAMc8EDqO2IZTNoGAR7NUZkBiLWdrMBAezZZwzL+9dUyAlKqc9aSyIGjjX8XVItTaMsAj8BsNhAAACAASURBVBrPsWkUA8vjljp5iAzV4BRZgaspuS1qqarC3chWf6F0eL8OnmaGNQ4gkzMBvlzWgN/e/U3cxh+gG0wm9Xyel+I2/olm2rRL+qX7NmMEAJCeImD61DwmARCQKD7flQbV65KBL6z9rzdaO7XgvHSG1UFhYElgngPK8tneNW318XVPixf3QTdkiS2oa8RIR4JHkxmwxgFkYiaAJKl4/sldeOaJnQgz1EPpDkLwL1HE1aqqHoy9d+rweJozylayknEXlW4i4G9/m9zIcdjDMvaPtmXelzwuWFr1qpS9pW8qYc21N9ALMKOMTQC01rVAlZMXbX9wH1s6lyBwcLuOj+p2scjLZ8vAybRMgJbmIH57Tzk+Y6h02D0kwPO4nePk/1NV5TiZGaUfGScAokgbEWC18u+zDHhFlYyOYJrPeo2AdWaf7gKAgi3bmCB2SqEOZo5gWz8PB8Ko25mchiqd7V40V8euAAgAsqzilz9dj4fu34LdO5O7TJFuMGcCZJAA2LqpHb+6YwP2VnbE9XlCUE0ILgHktw0eWsIwm4f3yxd3RgqAqCJBaSECyspsb7GMW1IolpRnzhc9bkyMy2WdIcNc5wlBUcE0QIO72J0+RoTNxHbM+h11CAcTP9vet2mvrlbAlAIb17fi/+76Bvf/ciO2bIw7Mjyj6U8xAJQC7y6uxp9/uxkdnnifOfVTgLuA46Sdhg4uwVRUTOiXhS0yUgAA6SUC3n57xnaOI7tYxv2ftUGmWu8ZjYMxa0ahQIrS2Zhgda8b3JHPKhKcN4HNdSxLMnZ8XQHKmjcVB3UVtXAxBv91x45tLvzpvk34xe3r8dXnjVD7+/MfRX+JAQgEFDz+4DYsenlvvH8/Cqj/AEI3cVw4PtdBiuA4MwXIgABIN9JJBFgs5B2WMR/sUPHRtjQ2ekZgFlJSRtdwWKvZicYHCF97CnvqsafZjapvqgwfAwC0H2jH/i1MFa9jUr3Xi6cf3YF7bluPFV82QU33IFADYC4HnMYdAetqfPjVHeuxdiXbElA3uDhOXcDz6p95Xsy4VDpF6b8xChktAID0EQETJ2a/DoDJYry0KgTVwKCxtIS1/HA6l4xlLfHLuuShgylDBZzKGAsAAA2VB1D1zR5QA41qa10rdqzYbugxAaCuphNPPlyBn928Bp9+fACSlHE2gRk9/QDSURCt/vogfvPzDWioj9FttAcIwTaAXECIutzYkSUPnufT2z3TBzJeAADpIQIWLpy2XxS5j1jGu6dZxlub0lfxG4KN0XgZWEffcLqtY9ANrN4Onfz0LCtzEgIAHNhVj21fboUc7ts9pZSiZls1Kr7eBiWBWQZNjQG88OQu3H7Tanz4Ti1CwTQWg3FidwgwM1SUVBSKDk/6TDRVleI/L+zBEw9tRzDOvwsh9E1CpMt4XkpOpGqCqKhoyYCiJfHRLwQAkB4iYNAg09Os433iswC8/TkjwMLqAZDSMxBQUYEg4ws5QZ35ppcJuPREfY2cXI3tWPfuWtRV1MbVL8DV6MKmj8tRvWV/0v4u7W0h/OeFPbj1xlVYvHAffJ1pLArjII+xLXC6xAF0eML4032b8eE7tXEegYYJwe84TrmTEJIeFxUngmAPAvP6nzKN0G8EAJB6EfDZZ7PXcBy2soy1zafiuRXxVs7KAASGbntAJNUuDV3AXsYMBY6wd/CJg3vPtyHPru9rKocl7Nu0Fxs+WI/qrfvR2e7tdf9wIISGygZs+XQztn6+Gd4Y+ycKb4eEJYv249YbV+G1f++Fx90/vGSZ1BVw904P7rltPbZtjjtrowGgV3Kc/JKR40oVJpO1M9VjSCSZW3y6ByJ9AwiQmgZCDof4QkeHxOQJ+M+aIC6aaMLEkn5YZZJAi45XGcSzCvYeXsnCwyjOLILhaYDRFDg4PHyVHbcs7NQdNxLsDKBmazVqtlbDbDPDnmuH2WaBYBKgyAqkoAS/xw+fp7NPs/2cXGFPp1ceosiwxX+UwwT8Mt55sxpL36vDt84rwWVXD0NBYeb20ciUWgAfv1+PV17cA1mOW5Cv5HnlVoC2GTmuVBEK8f6dO09Jn3WZBNCvPABdpNITMHl67sccR5i8AJJC8Yu3O5k9zRkHq2FMNw9ASGZPT2RNeewDp48WcftZfTOAIX8I7Qfa0binAXUVtWjYfQAtNc3wufto/POEXXc9OOKRXz48+hcTpzr+K5qIYSleoaCCj9+vw0+/vwbPPLETTQ3xBaKlGmYPQHuKOjwGFTz5SAX+9ezueI0/BdR/qGp4fn8x/pJkk/ftOyej0hXjoV8KACB1IoCTKM3LEx9iHefeFgWPfMrWYa3fkm4xAO1+9jFlJ2dmettZVl2pgcnAZucabr639B9WO5FzC8TAd39e8vG9j4689+RTsxeZzJxhhkCWVXy5rAE/u2Ut/vaX7ajZn1le2TzWWgAp8AA0NQZw313fYMUXbGWej4V4CaE387z6Z1HkErJWznFm6vFIHo4zJ2VtiuMUmpOz0w2QdHszGU6/WwKIJhXLAYJgopMm2TasWCUtUyR6Hss4F60P4bSRIs45QV/AV9rDmtaUQBe6bkIy4GEM+rWICakB0BO/u9gOlRIsLk997Igjm6+5+Z4hjxUNsnSqUAkHBRx46nAifO1tg75Qg/Srtxc2n7a93Hth0KcOMuKcqkKx6quDWP31QUw7tQBXzivD2PE5Rhw6oTBXA0xyEGD5ulY89WhF3EGXhKCSUvUHHKfsNXhohwiHieJ0ZrkaGuZKDQ3A6NFLOVHkEtZqUiv6U9ReXn6xbr8sXbCwFODOBnACCMmDSkVwJAhKq0H5jZDI12TJvLQKbEmjN2/iiIgA4Mjr7XU7SgTE3LdLBADAzbfvLOQlv7BvX2BEbW14KUCZQsStIsGi72f3n3gAlQKVzbFn0gTAuOL0eRJrXbE7GXYxOBtwWhM7nqOgFHjyywCe/TpgZP8hXTjzhJ03/3r4kwVFYoBAJQAHSlSiuRN5qFCItgWEZZlb+mbbKVvW+C7q7JCHGj2WSSfl4qpry3DiyXlGH9owKra68MC9G2PuN2JUFh5+ekbCx6OqFIsX7sfbb+yP+xmilLxvMkl3qyoS5r7kOIQqKta6gQeOWJeYOPFLh6qGsow+XzAoqHl5zvbycvZ1f3rNYgfM6q1Q6TwQTEPvbzIPCP0YCp4jr1/3Vd9H3HfS5bWbcJIlAm67bXu+Tw6ZzADWrvXeGgwqd7OOsdDBYckt2Ric0w9WZgISUM0QScxzwNjCxI+HBXcAaGRc9uM4YExByrwXX+yW8Kt3fPAEkho/QYePsnx2y73DXufNVO2K3IwlAlSiEgBY8Yl7zKpP3Je72uQTjB5Y2agsXHLlUJw+dxC4dPIoAWhq8OOnP4jdNdyZa8KLr52e0LF0eiX8/a8V2Fwe9wqNTAj5K6A8w3GJq1ykqo7O3bvn9OjyHz16qVlRTE6LRTbkZclx2aGKitPcAGH6QtGzvhRQcvCHIPR3AOLxcH0EjvyKvHrt9jg+axjp9U1JMMkQAQ/d0ZLn84VNikCIiQr8ihWti1UVJ7GOcfwgAa/clIVsS4b/aVp9QAvDWq1FBEakwewtrADVbVp/Ahby7UBRanveN3pU/GmpH5/tSrxX0WbnD5xxsfOVsy7K2wXw4ACoRCF6RQDAY8XS1hNWf9ZxUXuLNKG7c/WFYWUOXPmdMsw6vQgcnx7foVBQwfVXLo+5H8cRvPb+XPAJGvf+vV48+qdtaG6Kt64NaaFU/bEgKLHVTJxwnEJ9Ppu7unouwzrXA9zo0TMcZrPVpqqhuG5aOEyUUMjjra+fx3xT6DWL82BSFgM4O55zRp8ewK1k0fx/9fE4cZMe35AkkmgR8NN7N+X6WxULACgCIfV7gyPr6oLvA2COFpswWMDLN2bBac3gP8/+NiDIsLaYZwOKDffm6UOlQE0723gBgCfAqALDmwDFy9d7JPztCz8qGoyPwRJE4j1hsuP9eT8q+NxkEqJO0DcRQKCQ9cu9ZV8tbb+4pVE6CQa/iwaXWHH5NWU485xBEITU/51uvPor+H2xn69nX5mdkJTHLz9txEv/2IVwKF6PEf1GEHALpUq80YIxkSRVLi21upYvn6szKIFyEycut4VCAasockxxbRyHkMfTEdBj+AGA3vDGWCj0IwCj9Y2xt4PSx/Ha/HtICoIOM9jCxE8iRcB9923Prm5y2y0Re68IhGzd4P2ez6f8n54xjivm8e8bs3QXgUkL/GGghrF7XGkOkJXCHG8K4IBbK/zDSoEdKEzt7L87/rdbabn/f/46V5t0EvpYWcHq4OvGTbJ+evG8wlXZuYIEADTK2Gv0XQQAwMb1viHL32u/sKk2OB0ghj7w+QVmXHb1cJx9fglTSd5EceeP1qK+NvZy+YNPTMeYE7INO68kqXj5uUp8uvRA3McghL4sCHhAVRPXFCcQMAeqq8/y9D3yfjFfVlYoms2iKEkBTpZDHMfZKcfJ1OFQZb9fkauqLgzHc57IzH8djDT+XRD8jiyc/0fDjxvztMcpiRIB//jHAfu6dQeyFTFMukRAmHDcprWexyRJvUzPGEcV8nh2fhaG52eYCGANpCMAxhSmbiZNATR62Iv+AIDAA6Py0ytzIUKTxfzqmtycD2qqAjkrP2+bcaAudGJHuzxBlmlMi8LxJODI4moHDzVtnjI7u3zaDGfDYWMNIPKMJ0oEqISQyi3+wk/fbj//wP7ALFU1NkMpO8eEi68YigsuLYXNnvzkpz/8ehNTdb1f/HYyZswyJiamtSWIxx/chj274k1nJwGOwy8Jkd4yZEA9wHFmb0XF3LTO7aS3PC/Cl/U/gMxN1ClA6LVk4XWLE3T8bkm/t1gSSYQIeOGFfeaVK1vzACBaBHgC1Fqxyfu6qtIT9Ywxx8rhiWvsmD0qMfXmDacjpM2oWXCYgaHOxI6nJ1QKHPAAnTpTr0qdQFZ65eMDACWQv3Q6b2238B4+Yoi7jHJ9VTBn966OUnebkiuFqCUUVB0mEwmYrTRgd4i+sjHWhrGTba0iD3qkseaRbBEAAPVVIedHbzSfV1MZOl1VqaE322YXcMGlpbj4iqHIzkle2u1Tj1bg689je89/8JNxuODS0j6fb/sWF554aDs6PPHFhxCCakq5m3k+vCP23vERDAqqzTbYVVExMa1S47qDXvf6PSB4JMGncSHMjyZL5sVdh1kvx7UAAIwXAcuWHeRffnl/oShqU8RoEVBXJw+uqfG/A1BdEp/ngF+eZ8ONMy26usMlHUkB9rdrjXRYGJKTtEI6RxBWNOOvtwRjjgUoSc+8cy/Prf1fUe7jXf8+WgTwAFSoh7dJl9FVCB/5hErUw9spFgE8gMb6YNaHi9rP3rfLf5YsUUPKDHdhtvA4+/wSXHb1cOQXJF7QLXp5L95dXB1zv6uuLcP8G0fFfR5KgfffqsFr/94LlTWg9Vg+NZv5O2Q55Il7IDGgVAjv2tXuzoRGO/R7LzshWaoA5Cf+bORhsujaexN/Ho0M8y0bj9EVA887r1hRFFGVJC1FhpdMNAjNxTx0qNCYV2j+MSFUV01TRQUe+sSPmxd60ehJs7K5XagUqHOzG3+BS0oZ3SOgANxBLdpfr/E38cCgFAcr9kK11fIRpYefRQXae5WjPO36Fwfu8DbladfvlcgnOMod3ob2eyXy86hTUQAgkeMeRoEadT5tR44CKgjlqHrMcRF1XAUUXeOhh34/uNTi/cGvBr13z6PDfz1hmu1d0cQZVgkuFFSw9L063H7Tajz3951obEhsx9e8fMaOgH2oBhgIKHj8wW1Y+M+qeI2/Sgh9lBD1e4k0/pKk+nbtOqctE4w/AEAy34mkGH8AoHfQ775SlJxzDQgAAMaLgMJCaxgAuhMBE8aZN+fkiTcTQnS/cVZWSbj0GQ/e3pT6rmFHoFKg3q1V0WMl357cdfSQrMUmNHrYU/264Ijm+ufS8+sS4rjKXQ7rLgDobyKAoxzNLeCDN9415ONfPjHsN1NmOd40WzjGCNPYyLKKzz9pwM9vWYO//3U7aqsTsxTN2hBo/75O7N7pgSTpE/r1tT78+mcbsHZlczzDA6Vwcxz9Lscpjycqv7+rpG9V1UWZVWOfkmv17A1CloLiLlDcDJCHAejpq2yBKl6uc4Rxk84O5aRj1HLA73+/w75rV8ehwKvulgMqKnyzXS75BehID4xmepmAX55nw+QhKa7mLKtArRsI6ZhRC5yWRpcsAdDqA1rjbHpDAAzO0dz/acpem+WRzVm2dV3ucwAg5PCz2h+WA7Tfa58M+sPi0tfcM7as814Q9KuGzpYIAaadWoCrvjPC0Gj8L5c14JkndjLvLwgcxk3IwelzB2HmnCLYHT1/z9esaMazT+xAIBDfhJoQul1V1ZsFgeoxVLqQJJuck7PTXV7+o4xqfUa/+8Z4qJQ1DqIZBFeThfNXHHGMC5eaket5FAS3Mx2FkKVk4bUX6x1rPAwIgKMwQgQsWdIivvHGnnyT6bCF604EbNvReYanXXkOQFy+cEKACyaYcNc5NgzLS8HstDOszaj1dhBLZuqfyw809cFzPCgbyE1uuV89hAmp/rA47xcypVQzlMeHCCBQSTgM7uM3XVM3r3Jf6POqQ/pyH7vjxJPzcNW1ZZh0Um5cn6cUWLviIN77by327ol/0mu28Djv4iG4/OrhyHEeXkpQVYqF/6rCh2/Xxl3SlxC8CSi/5jiasAYTPZX0zQTogtd+DpAnGHZVADKHLLp2bc/Hev0NAN9hOFYQBwZlEd31EPQzIAC6wQgRMH/+hqJwWOJiiYCdlcFp7S2h5yhF3OXweA44d7wJN8y0YNqwJHgEZBVo8Wrpc3pfPMmM/KcA9jTrd/l3UeTQlirSmCqr+S+bs+0b1MhzeLyJAICDqhKybEnbieUrPBd6XPKI+O9m94wdn4Mr55Vh2qkFzEG49bU+vPj0buzYZthqBSwWHgu+PxrnX1IKjzuMJx7a3ofj07Cqcr8TRekVwwbYDZmQ4tcbdMEbzwH0Rwy7vkkWze91qYDesHgYFGU/WJbeqTqWvLZgD+Mw42ZAAPRAX0XArbdudTY3d1oBIJYI2FsTGt5UH3yJUozs67gnlvC49hQzzh1vRq7N4D+vQrVWue0+9k5/0Zh4oCwveXn/egoSRUMAFGUDeek78weAMMdVflDo/A2NyLDjWQQA2v9//N/2YV+8234mpXR2PPe0N4aP0MoMnzan9zLDn3/SgH8+s1v3Oj4rEyfnovGAH+1xBwzSRkrxQ0FQYncoipNgUFB5Puyuqrqo50HSxSa0K8WA4kH+9WkZF0AXvP42gCsZ9vweWXTdf2If742tAEsqODeHLPrOKoYh9on0jGpKA/oaGDhihPlQkF84fNhadhcYOGq4uWb0ePM8nifr+jruigYFv33fj9mPuHDjvzvw2oYgGvqSOUChNfZp6NBm062d8Rn/rkC6ZBb9iWfmzxFtiSLNjT8AWmUzv0woDv1xuchzqAXPHXYK98fAQEQuu+tYAKCqVOE55VWOk66hlF5CKV0G/T6qHqnZ34m//WU7fnbLWny5rAHyUUtfqkrxz2d247m/70yY8Qe07oLxG3+s5Hn1vEQaf0UxS/v3t7f2aPybXiniWl59ibSG24mq1BIVbtK6cBVaXj0rUWOKG0LYlmdVsOXuE8qY468mZY10wAMQg754Ai66aF2R1aocmg7F8gSEAXHrNx0/CwbpLehjKdejKcricPJQAVOGCpg4mMcQJ4dBOTyOKZOuUiAsa3Xx/ZJWKIc1ta8nCIAhKSigE5KAfTpqapgFoCRba1CU5nh5/qtlebl/I5HZsho1yz9ePQF7dgS3/usvNdXR90lVyXhKuZ8C5FIY/J0qKLTgsquH4VvnlcBk5vHiU7vw6cfxl9xNMBSgz6qq9JAocglLv4tZ0rfl9RJClFWgKOvmtwoFuRGFCxYlanx6ode/vhgU18TeET8jr81/MuZuC16vATAs5vE4zCSvzu/zhDAWAwKAgXhFwN9/VJnd2NhiE8XDL+FYIkARCKnc1jnD5ZIfVVWUGHwpR8BzQJGNYKiDYkIuxbxRKkY5KAycNGmRikNyUlM9j0JrSsSSnui0AMXZaVni92goIf4VOY47WkShDeCRKhFQMJgPgufR3kDNCg1FG9eki4COdjT85ec7y3u6Z5IklPE8vZ1Scg0AQxVejtOEUWOzsXF9q5GHNZJOQL2T59WPEnUCjjNTl6uzo6Hh0l5rnJCWhR8AuKSXXfyUKGNRcGNaKCl6/euPg+JOhl3XYdG1p/XW0IfOf20OOLKip98fgYIh5I35DazjjJeBJQAG4l0OmHZplh8AJOmwOzbWcgAvUzr2RMf6CRPsl4oi+dDQCzkKRQUaOynWNwH/3klw2Uc8Fu4x0AByRAv4S1XpXAJtRt/bJZl4bYyDc9LO+Fc1K7jrv52Y/pAL4x9w4cKnPHh+RQD7qLioWTBHrI0CGnGZc1Gu/kQvBxCBqqXD7YHS4ZbAxBlWT8kwu48IXJerKKnLAUpY8f/36bqtvd1LUZSrOU65h+fJTAAvAfrrcPSExx1OW+NPCPYA8kWJNP7hMFEslqy2WMYfbQtLAcRKb7MB/HcNG1xfoXQL456n4vo3b+vxMN9/LwsceZbpSAQteOPaRsbz9okBAcBIPCLglksGS47inBCgXwRkFYie2bNzfu50ijdyHKky9GJ6QKbAn8p5fFhjwGMhcsCwXMCevHrr3WIRgeF5mns/Go7TOvqNyE9+RUIGVlZJ+PYLHny0LYyOIIVKKfa1Knj8swCuebT5zOYmn41GDHQqREDpKKuP50F58JTnQYtLxeDJ07LdxcMsXUIgKSJApVT96lP3xqqqTsb8cqmR5+Xf8bw8gxA8CSAtg8+MgFJ8wHHqxTyPhL0/OC47tHfvmtby8lNi33+ZTASD15mjmGzE2AwhLCzFkQ9wz1D6d3rd63+m333liNQhev0bUxEKfA1gEtNxVPphsloDp9eUJwPQuxzw6KNbTV9/7T1URlLvcoAZgCxTYeNG7w2BAP0ppTTh9WitPLD4PBljc+J8BrPMwODs1HX564mQBIRVbaZvM6Xt07+nWcF3XvLA10ucV/Fg07I7/m/oM9oSgHLYTZ6E5YCSwVmB0lGWgAKFCJFPK4fc9gIUyKS1WTK1HJAtwUBIBBK3HLB/T3DnC3+u3sd6b49GVWk2pcL3APJDJK3cKyCaReQNyYc1ywqzzQxFUhAKhOBucsPb3tHXVTgZwIOEqM8nqqofoJX01VXVr3nR9wihLzPsuZwWXj83/pEZC13w+tcATtfxkU4AqwF0gmA09AoaSq4gr137nq7PxEmavgLTG70i4NvfXlEgSdyhdcd4RAAA1B8MFNTtk74fDtPrKKUJbUg/PIviv+cqyDbpeH/wRJtV5xrat+W4oiNIcfULHtS09R54SQiRb/v1kO8NHmLuTKYIsDhEefwUm7crDqA3EQAAmhAIWYMBWTBaBHR6aMuDP9uxge3O9o6iyFZCLAsopbcCZLARx+wOa5YNI6eMRH5pAUgPS05BXxA1W/fj4P6DoLrtN2nhOOlWQrC676PtHo5TqM9nc1dXz9VVPIhrWfgcBVhy6j20wFQEMi8tugTS617/HghYhIsR1EMMjiH/vilhhZmiSbMpWmagdzngtNPGHqGS9S4HdE0ES4utrTNOz3lk4kTbmVYr9zghpK3vV9M9NV6Cn6/mwZTNRKBVyxtZMGD8+4CiAncu6Yxp/AGAUirs3BQYHvkkkrEcYHMI0vgTbV4eh5cDePBUjtrWtmTwECgAFBSJ4fFTHJ5RE+wd9mxz2KjlAFkKBxc/Vbs55o1ihOeFAMfJL4kiZgK4hxBUG3XsLkrGlmD6pTNQMKywR+MPABa7BeNOG4+TzjkZokXfEhql6k2JNP6SZJMLC22teo0/GhcXUmA+4945aA3doH90CWLs7lcAYtiz1isUv02W8QcGBEDc6BEB99xTHHI6s474o8YrAniZ0txBpo7Zs3OePfnk7LOyssRf8zy3DoDhicermgh+s47v2RtJoLn7R+RrJXOPySkcgBVKgd9+0ImVVeyl0iVVPbRGn2gRkJ2jSmNPzPaaBF4FZOgRAQCQ7RSlcRMd3tHjsz3WbBJ1kfpFAFUFee1HrnL2dX92VFWReF5+TVHCpxNCfgKAvYB/Lww/sQxjZozr1fAfTU6RE1MvmAqTlV0EEEL0uKp1EQiYA1VVp7cu11uili42ESH8CgDm5goE5FG0vTZR7xgTAXngARVE/XUSTrUFEv9qEs5ziIE3dh/QIwKmT7d5OO5If3pfREAIQH4+Fzz1VMd/zz0397ujRpm+ZbVxT/C8sQGD79dweGzLUY+JwGklckcVasV9jg6wG0A3j33mx1sb2T2ehCPS5CnO/dGBeokSAXkl5uCEk3I7eEGmMhAx7PpFAACa7RTl8RNzOsadZPfkOs2hrjPqEQE7yzu2LX23NWHtagFAFDmF46R3CVHP4Th8jxDEXTincFghyiaPiOuzFocVE8+YxCwcCMEVcZ0oBhxn9lZXz3X3mN/fE82LTiZt4S8BXKDzlDlEVVei+dWbQBcbWr8hHsjC6z4BwV8TeAoXqHoNWZLcFskDMQAGwBoTsGDBtiyvt+OYIL54YwKitwUhsq8QJrV75NLGRmlmMCjPkmXMVNW+BzfdPlnFT2ebtIh5myntUuYymZdWBfHIst4zqI6maLD545//ZuSzXcF50YF6RsUEWG2iMmqU3WfLowogQAAgQyZd20pkW8HhOgGxYgK6TgMAChQi+QnfWB+yuNpCZpaYgIba0L6n7t9bqetmGYSq8qdTyt0BsJcZ5gUeMy6fqWsW3x171leioZItNV4U1Smqqh7s0wkjBIOCarMNdlVUTIytTuliHs2hKzienEFBhkCl40AYI997pxWg6wkhTSrFNqjcNI1tQAAAIABJREFU6yi+zpDr0wN94AEOVSe8C0ovNfjQMgi9iCy87lODjxuTgbe4QbCIgPJykPvuKy8wmYLHFCIxWgSYIw0Gw0Tm9mwPjfJ4pLHBIB0lSXS0qqqjVYWOoCC6PEC3n2XFT+emfYncjOL5FQE8/pm+lHSzhau79Z5Rd+cXI8hDwNEiwGwRlVBQ5eMVAWYLp5aU2gNFpVyYh2bOlSjDb7QIECAg4Fe4xsaQ1dMmm6F0LwJcHaHWp361d2MwmLjIdhZkWZhGCFkM0JhfhmETh2PElD63+EA4EMbad1YzBQVynPpjQtT3+3pOSoXwrl3tboBhVtr4ehkRlHcBnNTX8zLQSYEfofD615JwriOgFy41I8/zPIAbDTqiFyoWkNev+8CY4+ljQAAYCIsIeOKJevHTTw/kC4J8jPFNlAhQBImYceQMZPt234iqKt+bANHV9PyW062462wrc1e0AXrm6eUBPPWlPuPP8ei88rohd02dkdUIACoUcrQIOPG0LDcANDeq5k5X2NTpDYqxRIDNwik5TodUUMKFs3N4GVEGOlkiAAACIYVrbZAsrpaARVJxSASEQ4r/pccq1x2oUlLeT15RZCtgqQLD+3PqRacgK8+YzN2tn2+Gq5GpudVjPC8/1pdzSZLTV1U10wuWhMSG521EtG8EMK4v59SJQgnOR8H1nyfxnIeg171+Lwj+iD5VlaQ7QISryMJ5uw0bmE4GXuMJICIEehQBN9202dHQ0JFlNh/bUiyZImD1atesgwflFwnRVyP98pNMePAKx0DMX5woKvCnpX68tkFfsC8hUGeelf37C68q3ghEpe1FiQCrjcgzZud7DhtaEbIc5PydMu/3iVw4HOJVBQSCANEE1W6m1JZjVngBVDPmxz63yRYBCmQSDhHiOaiaG5s6rZJElQ9faV27fkWrvnWSBCFJ/DiOI1/G2k8wiZh9zRzD3rJ1FbXYt2kvw55kCc9LP4vnHBxnph6P2VNfP4tdmTYvuoMQ+vd4ztdHymnh9aek4LwAAHrdouEg3B8BXA99f+VWUDwKV87fyMe9dEtMAgOv8AQQCQ7sMTDw5ZdP7rRYzOFQ6Nh2dX0NDAQAWY7sK5toCKHI70UawpHLeLNm5a52OoU/672+97aEcctCLzqCKfXEZiSBMMXtb3h1G38AGHWC7cULr8o/FIx2KFgPPFUgg6M8LR5sDclHBN9JEASLmu00y4OGcOFhI7IDZaNtgbIyU2BQiSmclW+WzIKWQaIF+B373PKR42vbWgCgDECI2u5LYGDXOeSoc5jMlBYOE4OTp+W6Ar7g6pWfh7y6b1iCIIQw1eAw28yGTrFMNraKlZRSXV69LrSSvpVtuow/AELohfGczwCmoemVohSdG+S1BTVk0fwbAOUkgP4BQG9lgztByVuguAFhfgR5bf5fU238gQEPQELpzROwZMkO/p//DORT6hNS7Qn45JO2u4NB9Yd6r294Ho9/zLdjTNFAFgAL9S4FdyzuREWD/kDfIcPNi2+5e+grACIBfofvebQn4JTTilyWLIkC2tw82hMASFHbcmTmrT2T2oz+8Ha6eAIIrNtGEGs1AFJautpiscgOUfSn9IGjFLNUVfhvrP1yipw4+bwphp237UAbtn/Za8sDAAClWC4I8nV6js1xCFVUrHUDD+hOJyYtC9cBmKH3c0ZAiToBBTcYkqppBPSaxYUQ5HEgXBEAHlB84PlaBLlKsiQ9ChtFM/DmTiBdngBKaZenhSLyorvmmgnKjh3Vrq+/DucDEne0CJAkSrtEQDis0i4RIEkqFUWO8JKJBsUgscCizf4jhj96W5ZVKggc4WUTDQkhYoZZ8wQI4SNEwLnnFjy+bFmrIxRSWQt1AABq2hXMe9GLP19ux0WTUlzzP835ao+EX7zlgyegv1xDQbG47Ps/G/qKliLHg1KeEiIfEgGKNsOG1W6SLVmSKkCADJnIkCFAoJqhlQCIVBMBXdsy4QGqAESb0YPKUdtRIoACIBFPAOEhgI8cV4YAAQKVo7Yj+1BNBHR5AhQiRLYVKKTLExAlAg6dQ4YcEQFCZcT4AwCNzEwDpaWrrRaL2yGKXEreX6rKMc2Qw0Fj3/cS4/EIgU/PcTnO7K2omNsZ16AAEGA/TY0AkKBa6lJw3h4hS+a1AGhJ9ThYGVgCSAKEkOi3/iH35/33l0lnnGFy8byZpnI5gOcpPfvsnD+KItEdieoPU9y5pBO/edcHX2hgSeBoJIXi0U/9+PGizriMvzNXWPGjO0uf4nhQNTpPnvIUOFyPRYGC4kFiKGKMI+55zUEfvRygGf6ubSHifkdkX83wd22ncjlAgVI3kmR3GxxVXz8rUFV1UUsgYHYpijnpQYEcR90s+4X9IaiKcfW5Ah1snnlCwDS+YFBQJUlt74vxBwAVNOnR+AAAQt5H0bw+jf14Z0AAJImeRcC00MSJ1pSLAJNJUC+4IPdXosjFlT701qYQLn/Wg421KQ/SThsqmxVc/UIHXlwZhEr1i6PcfGH5j+8d+jBv4RU+UqinJxHAcTzNL+FCAJDpIoADmkfAGdPXXV09N1hZObeV4zraOA5JW0/lea4e2s3rFUVW4D7IZIuZaDvAVvlbVen+WPsoilnav7+9tarKgHXowu++TwiW9Pk4+mimPO5O8jn7HQMCIIlERMAx1QMfeWRy8NRTh7WnWgTwPK+ce27Or0wm8kY811fnUrHgX524/wPfcR0gGJK1FL9vP9+BXU3xFfbKKxA///HdQx+xmDkZiBjjXkRAXr4YclgtihQxzJkrAoh7KLI3RlXZjElFxbxwRcUF7ckSAqqqSABhCcdH015j2rp3tnvhc7NNdjmO7Ort94GAOVBZeVYbU34/I2q+bwEBHgGQjHXuFZTS2chdUJOEc/VrBoIAU8BRwYGH/ga//325ed06b56icCSVgYGKQsinn7bdHQwqN8d7jQUODveeb8OlJ5qOq5oBK6ok/HGpj6mhT08UDhI/+PHdw56BcLh3XlehHgGAEsnj56KK5Uydke3JybVExIJMxEh8QNd6uhxZa0/vwEDOXwrHGkJIn4zItGnPi21tY+1WayhhVatUlf8zpeSmmDsSYOoF05CVH1dg/iG2fLYJ7iYmb4LM8+oEQD1GLXCcmfJ82Lt16/m6YgR04V6UizCdCWAwR+h4SsjVoCjrwxGDBHhbpVgLShvA8xUouK5XgTMAO8fRqzn9iAoOPPR3eOKJetPHH9fkEqLwqc4OWL68fb7Lpfyf3joB0UwczOOec22YNaoP9TIygF1NCh7/zI+v9vRpCYSWjbK+dP1tJW8dNvwgsUSAI8sqTZ/l9GjGXLvPmSYCQpDDZuSsGUqIvspIvXDWWV8K1dVwJEIIqKpwNqVgatxiy7FjyvlTIZjii1k8sKseVd/sYdybrOZ56eqjfxoOE8XpzHeVl5+S3DU6utjEtYbvo8BvodfeUKyhIpk/MNNPHAMCIMVEeQOOSBFcuNCbGwyGTKkWAatXd8xuaQn/jVLap3Jms0eJuPUMK6aX9a/Ek+o2BU8vD+KjbeG41vm7IBzCk07KeuTK6wu/BjRjzyoCTj4puyN/sCXyYs88EUBAwzbkrC8iJEEBXYv50aMddrPZalPVkCHvPJ4nQjgsbARoAcv+uYNyMeHMSRBEfc9/S00zdq7awVQCOMLdPC+/Hv0DraTv2S6AGN4xlJmWVx8gIPcz70+wjaqmWQNBfollQACkAd2JgPLycu7Pf1ayfb6gLdUiYOtW76iamtCTikJH9fVapwwV8MM5FswdJ4LL4LWBTXUyXloZxBe7pT4ZfgAQRXLwzHPy/jDnWzl7AB4qp7nEWUSANVuUZ8zO9ZAow59JIoADFzbBsSFxxj8ayo0e/bHDbKY2VT32O6UXVRXupRTMFffsTjvGz5kAuzN2HSFVUVGzrRq1FTUsxXgBAJTCLQjqjGj3v6o6OnfvnpP6Ikr0eZG02ncAGM20OyVnomjB1wke1XFP5r6B+yERIRAdmEl+8Yut5i1blByL5djiJ8kUAS6Xal27tv33oRC9rI+XCQAY4uRwzVQLrp5mQqEjM2JRfSGKD7eFsWRjCNsO6GuJ3hN2h7Dhuu8XPTSs1O5Vopr3sIqAadPyPM4iQQaATBMBKiQpCPmbE0hhkg0UJRMnLrf7/YrdYjm2Jwc7JF+W+XWEwMb8CY6geEQxBo0uQXZBNshRIjgcCKO1rhW1FTUI+fSWiqaPcpzyOABwnEJ9Ppu7unqu/pKTCYJrWfQHCvpbhl1raOH1ZYkezwADAiDt6E4ELFmyg/twbVEZb7Vdy/PCWEohKVJwg7e25hMa9B6K5E20CACA5V+7r3a3S/cBMGRdleeA00ebcOFEEd86wYRsS3o9kmGZYvU+CZ9USPjfjjD8YWOyGwiBXDLU+srNt5a+Dv5Q5D70iABbtkk+dY7TIwKQIqGWmSICVEiSGc5vkjPz7wlKJk9eZvP5YDeZaFxxLorC3wGQX8XzWZPFBEuWFSarCaqsIOQPwe/xg8bnUWoQRflMVYVPkmxyaaniWr58rjEq1ShaXp1PQGLXDCD4Hy24/oIkjOi4J73etgMcIhIgSADg9geVb4cV8iKAI0KJVaruCbe2/tB3YF9118+SIQJ27uwcvm9f8EFJotOMuNZDYxcIThsh4PQxIuaMEjGiIO7Ywz7R7FWxZp+MFVUSlleG4TU4pdFs4apnz8n7y5xzc6uArna8UcaYUQRMOSXb4yzSIv8zSQRw4MNmBMqLSFGarO9SMm1audXtbnPoFQIcx4uyTJZRmtROeN2MQ72JEPV/Pp8crK292A2wp1EmjZbXziRQl8fajRDyslqw4PtJGNFxz4AASGPo/7d359FxXfUdwL+/e9+bebNIo822ZDm2rDiLLcdJkY1NFnDapFloQkoblrahhBIoFGh7yuE0zUmQA0mgHM5pm4QccBvaFCgkZQnJCS2BOkDSEBwHN0R2HGTj2LIlS7akGc36lnv7x8xIE2/aZnmSfp9zbN3z5s28N0+ad7/z3l20Fh+9D5e5rvoxzjDtpNb68PjhA9c4I8MTM6VVIwRkPE/+/KfJP0kk7L/WuvDCZba8QaB7pYkN7RIXtRtY22rAKnNnAlcB+wY99A44eOWoh12HXPQNla179Mm8pa2B77z31uUP18UM28Abp/GdSQhoWmblNm6sTwKTlfF8CAEmtG0g85J/Kv836ujYYRlGpm4mwwznZwcUTwG6Yt0Oz4aIviqEc8dch/StuKFHo0T2EKa4eqi1/gCW3vLVKu3VosYBwOduu9v9KUBXnG0dZec+P/R/L32pmm0CAMCTRK//Otv+6quJv7VtXDXrNzlNgghtMcLqFomOZoG2mERzhNAUEWiOEIIGYJkChgCIAMfLX8LPusBoSmEkrTGSUhhMKPzmuMLBEx76Rz24VWgbHQqLPW++IvYPb7kytr842Q2Qr3RnGgIsCqgtW6NjRtjQxSp+PoQABWUHUPdSK1Hl+qGXSUfHDisQQFTK3LQip1LyOq3pK8Dsu8zO0rNKyfcGg0uHenu7fDfZzMnE0Nfu04Sz3DLR+3XSXY/Vt/qm7cJCxgHAxz7weV0nc2oMU4zYqKGfy762++Z4PGvWIgQEADz7/Njlw4PO7Urpzlm+3QVJGjS2qjO0/V3vW/pfUuZHu/PIpbmEgM61seR551o5AHAAmg8hIIhAahlCu4loXp3Yu7oeDQD1UaUw5Vy8niffA9AXUKUQQES7APfmffvih8o5ql9F6S+bdCLyDWicMlYBgMNaiOvQ/Ee9Vd+vRYoDgI99qEdfqIWacqpLAg7+5Z3igl3/fsx89tn+0PHjrgV4EqhuCMgq23z2meTvj8e9jyilW2f7vhcCIZBe1hb81g03Nz3WvCScyS+bnMZ3tiGgPibdzW9rjJdW/H4PAQIiMYqDL3eR/7+hnsl0g4DnibcD4n6gMrfFSvxIysD79u596yCm3VHQJ7QmDH3tnSToFuS7BY5oTT+EaT+AxlvLN3kCmxIHAB+7bZt7HYiemsaquauvEC1dW2GvKyx47LHhwAsvjFpHjgwHhAibxQFQKh0CPOnQ6IgI7t6ZeHci4XxQa0xroJSFggjZppbg9695e9PXV64Jx/PLJqfunUsIkFLq7stbRmOx/Al/PoQADTr+PJ7a8y6aJ99Qp9Dd/aJp24NR1zXOWMErZa7VGl8G9LT6vM+QC+CL8bj3mWPHKjikL1sUOAD42Afv9rYTMK3x+E1D3/zg7fLxPQCtm1xMAHDw4EF67jk3cOiQax444BqG4RmJhDJgpWSlQgAQQCbuBH7xYuLGxJj3p+UYRMjPpBSjLcuMb191beP32ldHxoF8RVjsr1+OEHDhxQ3jbR2GDZiFCt3fIUBDD7ahbt9MJvaZL6YaZlgpsrSWHwPwF8DUtw+mgwi7lMLtRPKXr7125fFyvCZb3DgA+NRtPfoSCPULnKH1/ykIe9etF5f+1U1InS4EnK48MDBAuw+ljB9+04kkEqlQJUJAAIBDnnj+Z8nLTwzn3m3b+q1zmVvAb6yQeKW1PfDkdTe0PB1tCDhA4RuwmKwIyxECmlpD2S2bW5JOSQXs5xCgYB5aRdaBWR/YeeNR2dnZGA2FjNDphhkmkq2ui48A4j3AbIfT1jsBPECkfyREfkxg06RERSf1YYsCBwAfKlT+TwBYMbNn0tOrV9Af334rxqYbAgDg5WPHxIN39Te7rjYqFQI8wyEgiP79qSV796XfkUyom5RSq2f2/vxBShqNxYynL7ok/OTmyxsPeIXKvLSyL2cICFrCu/R3muKmqbWJAPwcAjSgLdBrSyk6OJdjPP8Uhxk+/XwDSpEFGNcopa4iossAnKWNjLYBvESEnwH6cSHUKUFKiKDu7f3JENBTu/H92bzHAcAHPtqjoy6wgqTboSDeCY33Y7rf/E81ZEo8JE2xw4jgyNaLcezGy5DDFCHgBy/0md//12STbbui0iEgCMATDu1+KX3e0cP21em0e5Xn4fxZvt+qkJKG6+vlT87pCO+4+ndjL5sBqYD8oDwAUKkQ4Bou3vLWhrGWWNhzYBcqc3+GAAVlh+DuaabmxOyP9HzWI7q63rZ0OhMOSSkbcjk6l0g1CiFCSilFhLjniX7L8vo9T085ip/v+/0z3+MAUEN/dre+jLR3LxFdjim6+s1BWhC+07ZU3PHpD+FYyfJTQsBD3/iV9eKPc41AZdoEnC4EACZMAL37xttf/03uLemkt8W21ZuVQlP5DsHMEVE2aIndjU3mztWd4Z2bLqvfbxW68QEACXfi+FUsBBjApo1L4k1t+coggAD8GgIURCKOyN4uonnb0n+uNmz474jj6Pqp1ywP2yZv//5rhqq1PbbwcACokdu2uX8Aov/A7L/pz9TR5mbxtvs+isMly04JAdu+uCtyaE/+JFbtEKCkW6iEPPHy7mTH8KDTlUp563I51eV5eo1SmNOUxGdCRFnTxOuWZe6N1tO+9hWhvRs3NfQFo9oDACEmj5NZ8uuqdAhYv64h0X6BYZswJyp7P4YAD/axFajvW4iN/Waiq+t/m5RKlKXB33QtWxYc9t2Y/2ze4ABQA7feq5cYrurDSWP7VxoJ2vHlO+haTHE7YNu2l+sOHbKjQO1CgJgIA4AslA8eSDcOHM2uio+oVbbttjqebvIcNHpKtyhPhQEKaq2DAIzCW3GFQA5ATghkhKBRIyBOBEwaC1piuL4x0N++PHB4/UX1Q16hMjdh4g3lQiv8aoeAc9ZY6Us2NKYBwIFDfgwBLlxtQOxfRtHSK0uLVlfXjtbpXP4vJ24MyOaCA0ANfOhu7xMa+MdabLulQXTd+3H0YYoQcMcdr9QPDmYjgL9CAABIMVkWJeViFaZksUIMwBMOFR/1hEvFyrtYnqzsDfglBCxvj2a6NzcmbTgUKGzHbyHAg8pZsF/165j+1bfDWLs2t6TaW3WchlRf35ZF2uaCzdX8mIh9gdGE9bXa9kjSK3YOKL1ce0r5nnvWJ1pbm1MAIF2tc4UHS8uum++SJN2AziFXeNzUOZx6G1h6WtsApGdqwIZdWBfIP1MqUwMOHADCMzTgQBV+AoBXWlaTZVVSdgrbEp5ZeD82pDJ18VGpDO0U1iqWpTIKg+q4JWXnjWWdLys1eZycia0BWk22DRA6v45UUgMuXACiML+rC0AWXqN0udaGzi8BWpdH092bI0kACMDUdmE7JkztwIGJ/HuzYcNEoLCP9sRywIEulE1AF/eytGxgYiAhmCjsA0w9eQQnywYM7WBiumKdf0c4fg5iu7nyn9TdXVeTL1Oum+FzOJs1/uOpBY3c1CtVhuchjfzZXWHKELA6YTXrNMAhoBohYGWHld64pTGpEdAoHD8/hQCVv4Dx63aq30dEfN+5RDYbqkkAiERyfA5ns8Z/PDWhn6vRhp2glC8QkS6cwF3kg8DEjp1cfvDvN8VXrgwkAQ4BlQwBKzvq0pdsbEoWK36/hQALwbFWhHa3Ud3wKb9UBsvK1KQBpBDuom54yeaGA0AN0DL5bQBTTvJTbhp46MG/oxMT+0GkiMhB/iyvJ1crfQrw6U9vGF+5jhIAh4BKhIDOC+uSmzfVFS6nT1b8fggBGoYnoA62UHAvLeIuflPZtau7JnMdZDJiQcyxwGqDA0ANfOXD5ECJmwAcrN5W6clQg/jUaR/JBwEb+XpJ43Qh4G+6U+svDY8JoTSHgPKEABJSbd7UMLZuQ30mByAwcdz9EQI0vKSL8CuLb1S/2SCVzRpVH5Uvm21wpl6LsdPjXgA19PEeXZ8R6mMEfS1AK5EfHrRc/YjHARwBaL/W6usrtPxWTw9N6wSltZbID0NfGhAJyI8Y+L2H4w3VGDZ4IfcOCJtSbfnt5nhjU8ALALALxzdYUgZsQuGYUUm50r0DDMBLQh/tQOTYYu/bPxOdnU/HgkEvXM1t7t17zTFgep9rxk7GAcBH3t+jLUN615OmzwJYO7tXoccBumf7nXgRczx5F4KAgcm/EwKAZ/bskT/4N1l//Pi4xSFg5iFgaWvE3rA5mmyKmsoudMPzSwhIwxkZRt/hjbSRv1nOUEfHDisUyo+kWQ1aG/arr151Yuo1GTs9DgA+dMsXdMTK6O8C+uoZPvXO7XfJz5Z7f04KAgQAAxigJ76C8M6dw3WOcASHgGmEAMNAxwWh1MbfimVyhco8X9nXPgS4MDISgUNLibhr36xpOvfcHy4JBHRVZruMx5340aM3pKuxLbYwcQDwqY/cpxtdR+0DMM3BRejx7XeJmyq5T1prgXwQkEA+BBx6IWg88sjRWMrNBTgEnDkEWPXSu/SKWKKpOeBR4XPnhxCQg1YG9NFliA7z5f65W778iXAsZsYqvR3HUW5f3/XcI4PNCTcC9KmHbqdRAA9M/xl0T8V2priFycaCWQBeG9r0ys0598EH159Yf17DuCsDhUaA3DCwuBwmsOqCUOr3bloy0tQc8ABAAzoHIFho4JdvAKgLjfkmGwNWsmGggukR6Fg7Ir9qpbohrvzL4+jRG9KeF6zG7RMe/Y/NGQcAHyMh/meaqya234kXK7ozJQrjCNgAsm1oc/rRrz/5yXOTf3hD+/Fgg5kDOAQAwJJlZm7r1U0nNm2OFS/TTlSyxYq9BiFASdDwUpi9LRQ+QkTcjazMli/HWCV7BDiOSvX1XV+zwcTYwsG3AHzsg5/Rq0mrA9NY9dXtd8lZNhosj5J2AvJfHuu3fvmT4TrHUcZivB1ghKR38ZvCyTXnRye+CdIbP2t08vJq3A7Iwou3wjrK/fkrb82ap4KmKco+pbUQyPX2XjtS7tdlixMHAB/7+D/pYHZMjQA4a9ciDXrin+8SN1Zpt86q2E5gADD+8/6+yJ49yYgjlLEYQoARkt75F0bSb35TczaHiVnhTqnsT15uAxRExUKAzsAbSyM0dB4Rf2usojVrngoGg7pRKVmW82wmE8wcPLg1DvDtGlYeHAB87rbPeI9A45azr6Xfu/0u45vV2aPp01ob/f395ne/m43uOeBGhJ02gIUXAkIh6a1eG01v6W7O5pAtVNYWZhICyn0lwIDpurBP7EV05Eoet79mtm7dYfT3ZxpNUxhzeR0hguO9vVdyDw1WVhwAfO4DPXq5FGongOWnX4OebFf0jukO8lMLWmsCYHzuoUPRsdeTdePj2cBCCAENS4NOR2cws/Hilly2UPFbsDDbEFCOKwEuzGwOuZEVqB/lhn3+0d39YnhkZKzOstwZtbtKpdxsZ2dk/JlnruQQx8qOA8A88Oc9usMT+mFAX1my2NHAQ6EG8an7PzF/Lu1qrcWTTw5Yzz9/om58HFEiV8ynEBCgkOpcE82uuSiSXbXM8kor/nKEgNlcCdCwNUGONyE0QkTcL9y3NK1Y8bzV2DhiKRUJKpU77fnX84IOUSIXjQ5md+36MA/IxCqGA8A8cluPPh/kdRFgm6b8eenEPvOR1lrcf39fdHDQiYxlMhGLpAD8FwKENHRbG+XOWdlgX9gdsEMIAQCyyFLopIq/mlcCBFQKsOKNwDiRf68AsdOirVt3yP7+jHTd/FTCkciw6u3d4wI9/LtkVcEBgPmC1lps+9IzYQyfE85mnXBGJYO1DAFWneU2t0tn/QXhbMfqBjeDDOWr/RDy5cqGgDNdCTAQyAmMJ+pQFye+t88YmwMOAMyXHn20N3AkZYcD6QYrkchaIyltku3krxDMIgSYhecBp4YAaVheU1PIaVmivPZzWuxVHZYbDqcBhJFBhvJdMIoVf2m58lcCAoB2kcokIVNJHEl1URd34WOMlQUHAOZ7xUaEuwZgZvbHgwMDo8G4bRoqlRMJ25GuY0jpErmuTWkvP+6AJ22SMqrDhtbBIArt5GxE6yNeLGZ60TqtVq5q8BobQ144kgIQAQAQ0jTZ6zJfrnYIUNCuASsdBdIA0nx5nzFWCRwA2LxTCASyHzBXAHKG0wjsAAABNklEQVQMY4ZAg6gHMI5xAupQd1I5iSQBUWDiJ0BIUbHiR0m5miEgiKBWQM4DclkgtwTI8qV9xlg1cABgC0IxFBT+GaOA0QjIcYwLv4SAICxPI+168Jw61OUA5HhUPsZYrXAAYAtaSTAQxZ8jgJSIyxhiIgkIQkqUIQTAQsjTgEoiqZch6gJwBwC3DXC3YZvbQ9y6mzHmHxwAGMNEUBDIfyaK/9CHPgLWACj+n9eHPsSxRh0A1M2A4kF3GGOMMcYYY4wxxhhjjDHGGGOMMcYYY4wxxhhjjDHGGGOMMcYYY4wxxhhjjDHGGGOMMcYYY4wxxhhjjDHGGGOMMcYYY4wxxhhjjDHGGGOMMcYYY4wxxhhjjDHGGGOMMcYYY4wxxhhjjDHGGGOMMcYYY4wxxhhjjDHGGCuf/wftXGM7Xk4JnwAAAABJRU5ErkJggg==;" vertex="1" parent="1">
          <mxGeometry x="367.21" y="319" width="90" height="90" as="geometry" />
        </mxCell>
        <mxCell id="HWMUPrIcRq6GqUg2BPiB-21" value="" style="curved=1;endArrow=classic;html=1;rounded=0;exitX=0.69;exitY=-0.02;exitDx=0;exitDy=0;exitPerimeter=0;dashed=1;dashPattern=12 12;" edge="1" parent="1" source="HWMUPrIcRq6GqUg2BPiB-4">
          <mxGeometry width="50" height="50" relative="1" as="geometry">
            <mxPoint x="310" y="460" as="sourcePoint" />
            <mxPoint x="360" y="410" as="targetPoint" />
            <Array as="points">
              <mxPoint x="270" y="440" />
              <mxPoint x="310" y="410" />
            </Array>
          </mxGeometry>
        </mxCell>
        <mxCell id="HWMUPrIcRq6GqUg2BPiB-22" value="" style="curved=1;endArrow=classic;html=1;rounded=0;exitX=0.5;exitY=0;exitDx=0;exitDy=0;dashed=1;dashPattern=12 12;" edge="1" parent="1" source="HWMUPrIcRq6GqUg2BPiB-2">
          <mxGeometry width="50" height="50" relative="1" as="geometry">
            <mxPoint x="671.29" y="511.5" as="sourcePoint" />
            <mxPoint x="480.00000000000006" y="398.8289231102917" as="targetPoint" />
            <Array as="points">
              <mxPoint x="622.79" y="470" />
              <mxPoint x="552.79" y="430" />
            </Array>
          </mxGeometry>
        </mxCell>
        <mxCell id="HWMUPrIcRq6GqUg2BPiB-24" value="&lt;h3 style=&quot;box-sizing: border-box; margin: 10px 0px; padding: 0px; overflow-wrap: break-word; font-family: arial, &amp;quot;Microsoft Yahei&amp;quot;, &amp;quot;Hiragino Sans GB&amp;quot;, sans-serif; line-height: 1.7; color: rgb(51, 51, 51); border: none; text-align: start; font-size: 16px !important;&quot;&gt;&lt;strong style=&quot;box-sizing: border-box; margin: 0px; padding: 0px; overflow-wrap: break-word; word-spacing: normal; line-height: 1.7;&quot;&gt;提示工程&lt;/strong&gt;&lt;/h3&gt;" style="text;html=1;strokeColor=none;fillColor=none;align=center;verticalAlign=middle;whiteSpace=wrap;rounded=0;" vertex="1" parent="1">
          <mxGeometry x="118" y="610" width="90" height="30" as="geometry" />
        </mxCell>
        <mxCell id="HWMUPrIcRq6GqUg2BPiB-25" value="&lt;h3 style=&quot;box-sizing: border-box; margin: 10px 0px; padding: 0px; overflow-wrap: break-word; font-family: arial, &amp;quot;Microsoft Yahei&amp;quot;, &amp;quot;Hiragino Sans GB&amp;quot;, sans-serif; line-height: 1.7; color: rgb(51, 51, 51); border: none; text-align: start; font-size: 16px !important;&quot;&gt;评测评价&lt;/h3&gt;" style="text;html=1;strokeColor=none;fillColor=none;align=center;verticalAlign=middle;whiteSpace=wrap;rounded=0;" vertex="1" parent="1">
          <mxGeometry x="360.21" y="610" width="90" height="30" as="geometry" />
        </mxCell>
        <mxCell id="HWMUPrIcRq6GqUg2BPiB-26" value="&lt;h3 style=&quot;box-sizing: border-box; margin: 10px 0px; padding: 0px; overflow-wrap: break-word; font-family: arial, &amp;quot;Microsoft Yahei&amp;quot;, &amp;quot;Hiragino Sans GB&amp;quot;, sans-serif; line-height: 1.7; color: rgb(51, 51, 51); border: none; text-align: start; font-size: 16px !important;&quot;&gt;Agents&lt;/h3&gt;" style="text;html=1;strokeColor=none;fillColor=none;align=center;verticalAlign=middle;whiteSpace=wrap;rounded=0;" vertex="1" parent="1">
          <mxGeometry x="603.5" y="610" width="90" height="30" as="geometry" />
        </mxCell>
        <mxCell id="HWMUPrIcRq6GqUg2BPiB-27" value="&lt;h3 style=&quot;box-sizing: border-box; margin: 10px 0px; padding: 0px; overflow-wrap: break-word; font-family: arial, &amp;quot;Microsoft Yahei&amp;quot;, &amp;quot;Hiragino Sans GB&amp;quot;, sans-serif; line-height: 1.7; color: rgb(51, 51, 51); border: none; text-align: start; font-size: 16px !important;&quot;&gt;检索增强生成RAG&lt;/h3&gt;" style="text;html=1;strokeColor=none;fillColor=none;align=center;verticalAlign=middle;whiteSpace=wrap;rounded=0;" vertex="1" parent="1">
          <mxGeometry x="613" y="340" width="139" height="30" as="geometry" />
        </mxCell>
        <mxCell id="HWMUPrIcRq6GqUg2BPiB-28" value="&lt;h3 style=&quot;box-sizing: border-box; margin: 10px 0px; padding: 0px; overflow-wrap: break-word; font-family: arial, &amp;quot;Microsoft Yahei&amp;quot;, &amp;quot;Hiragino Sans GB&amp;quot;, sans-serif; line-height: 1.7; color: rgb(51, 51, 51); border: none; text-align: start; font-size: 16px !important;&quot;&gt;会话记忆&lt;/h3&gt;" style="text;html=1;strokeColor=none;fillColor=none;align=center;verticalAlign=middle;whiteSpace=wrap;rounded=0;" vertex="1" parent="1">
          <mxGeometry x="97" y="340" width="90" height="30" as="geometry" />
        </mxCell>
        <mxCell id="HWMUPrIcRq6GqUg2BPiB-29" value="&lt;h3 style=&quot;box-sizing: border-box; margin: 10px 0px; padding: 0px; overflow-wrap: break-word; font-family: arial, &amp;quot;Microsoft Yahei&amp;quot;, &amp;quot;Hiragino Sans GB&amp;quot;, sans-serif; line-height: 1.7; color: rgb(51, 51, 51); border: none; text-align: start; font-size: 16px !important;&quot;&gt;对话流程&lt;/h3&gt;" style="text;html=1;strokeColor=none;fillColor=none;align=center;verticalAlign=middle;whiteSpace=wrap;rounded=0;" vertex="1" parent="1">
          <mxGeometry x="187" y="210" width="90" height="30" as="geometry" />
        </mxCell>
        <mxCell id="HWMUPrIcRq6GqUg2BPiB-30" value="&lt;h3 style=&quot;box-sizing: border-box; margin: 10px 0px; padding: 0px; overflow-wrap: break-word; font-family: arial, &amp;quot;Microsoft Yahei&amp;quot;, &amp;quot;Hiragino Sans GB&amp;quot;, sans-serif; line-height: 1.7; color: rgb(51, 51, 51); border: none; text-align: start; font-size: 16px !important;&quot;&gt;高效参数微调&lt;/h3&gt;" style="text;html=1;strokeColor=none;fillColor=none;align=center;verticalAlign=middle;whiteSpace=wrap;rounded=0;" vertex="1" parent="1">
          <mxGeometry x="364.5" y="150" width="107" height="30" as="geometry" />
        </mxCell>
        <mxCell id="HWMUPrIcRq6GqUg2BPiB-31" value="&lt;h3 style=&quot;box-sizing: border-box; margin: 10px 0px; padding: 0px; overflow-wrap: break-word; font-family: arial, &amp;quot;Microsoft Yahei&amp;quot;, &amp;quot;Hiragino Sans GB&amp;quot;, sans-serif; line-height: 1.7; color: rgb(51, 51, 51); border: none; text-align: start; font-size: 16px !important;&quot;&gt;代码执行&lt;/h3&gt;" style="text;html=1;strokeColor=none;fillColor=none;align=center;verticalAlign=middle;whiteSpace=wrap;rounded=0;" vertex="1" parent="1">
          <mxGeometry x="580" y="180" width="107" height="30" as="geometry" />
        </mxCell>
        <mxCell id="HWMUPrIcRq6GqUg2BPiB-35" value="&lt;b&gt;&lt;font style=&quot;font-size: 16px;&quot;&gt;信息安全&lt;/font&gt;&lt;/b&gt;" style="text;html=1;strokeColor=none;fillColor=none;align=center;verticalAlign=middle;whiteSpace=wrap;rounded=0;" vertex="1" parent="1">
          <mxGeometry x="640" y="379" width="73" height="30" as="geometry" />
        </mxCell>
      </root>
    </mxGraphModel>
  </diagram>
</mxfile>
